<?xml version="1.0" encoding="UTF-8"?>
<!-- Generator: visioncortex VTracer 0.6.5 -->
<svg version="1.1" xmlns="http://www.w3.org/2000/svg" width="156" height="157">
<path d="M0,0 L156,0 L156,157 L0,157 Z " fill="#0B1A27" transform="translate(0,0)"/>
<path d="M0,0 L156,0 L156,157 L0,157 Z M100,5 L92,10 L86,11 L87,15 L89,16 L89,28 L88,31 L84,31 L85,39 L80,40 L78,43 L79,46 L75,54 L74,57 L76,57 L74,63 L73,76 L76,76 L76,95 L72,104 L65,106 L64,105 L57,105 L52,107 L52,101 L55,103 L62,103 L67,100 L71,94 L72,84 L69,79 L66,76 L61,77 L59,79 L60,84 L63,84 L62,88 L57,89 L54,86 L52,81 L51,72 L54,71 L56,68 L55,64 L54,62 L59,61 L59,45 L60,42 L55,31 L58,30 L59,22 L52,22 L46,24 L46,21 L44,21 L44,23 L41,23 L41,19 L43,19 L43,15 L37,16 L32,20 L32,22 L27,22 L23,23 L22,21 L18,23 L15,27 L13,34 L9,43 L6,54 L7,58 L4,66 L4,69 L6,69 L3,77 L4,85 L3,97 L2,106 L4,106 L4,118 L5,130 L10,136 L10,139 L24,140 L24,141 L31,143 L33,144 L29,146 L39,146 L35,142 L23,136 L20,136 L20,134 L32,133 L45,133 L56,138 L58,138 L58,140 L54,140 L53,143 L51,144 L40,145 L40,146 L88,146 L94,147 L95,145 L124,145 L125,143 L130,142 L130,141 L142,140 L146,138 L147,134 L151,134 L151,132 L149,132 L151,123 L143,122 L145,109 L143,109 L143,99 L145,99 L144,89 L143,80 L143,77 L142,69 L136,57 L138,57 L136,52 L129,43 L132,42 L129,39 L123,38 L123,36 L125,36 L125,32 L122,31 L121,29 L119,29 L120,15 L122,15 L122,12 L109,7 L108,5 Z " fill="#F4F4F4" transform="translate(0,0)"/>
<path d="M0,0 L4,0 L4,4 L2,4 L2,8 L5,8 L5,6 L7,6 L7,9 L13,7 L20,7 L19,15 L16,16 L21,27 L20,30 L20,46 L15,47 L17,50 L16,54 L15,56 L12,57 L12,62 L15,71 L18,74 L23,73 L24,69 L20,68 L21,63 L23,61 L28,62 L32,66 L33,72 L31,81 L27,86 L23,88 L16,88 L10,84 L11,92 L11,101 L17,98 L18,96 L14,95 L19,93 L22,92 L24,96 L24,99 L20,99 L19,105 L28,104 L28,109 L32,107 L32,109 L34,110 L34,112 L42,115 L41,119 L39,119 L39,116 L29,118 L21,119 L14,119 L10,117 L0,117 L-13,119 L-19,119 L-19,121 L-13,122 L0,130 L0,131 L-10,131 L-6,129 L-9,127 L-15,126 L-15,125 L-29,124 L-29,121 L-34,115 L-35,103 L-35,91 L-37,91 L-36,82 L-35,65 L-36,62 L-33,54 L-35,54 L-34,49 L-32,43 L-33,39 L-28,22 L-25,18 L-23,10 L-19,6 L-17,6 L-16,8 L-7,7 L-5,3 Z " fill="#0B1926" transform="translate(39,15)"/>
<path d="M0,0 L2,1 L4,8 L4,17 L5,23 L3,23 L3,33 L5,33 L3,46 L11,47 L9,56 L11,56 L11,58 L7,58 L6,62 L2,64 L-10,65 L-10,66 L-15,67 L-16,69 L-46,69 L-47,71 L-58,70 L-100,70 L-100,69 L-89,68 L-86,66 L-86,64 L-82,64 L-82,62 L-91,59 L-95,57 L-101,56 L-101,55 L-91,55 L-87,57 L-77,57 L-66,55 L-62,55 L-62,58 L-60,58 L-60,55 L-58,55 L-58,53 L-56,53 L-57,49 L-55,48 L-64,47 L-60,44 L-56,45 L-55,41 L-58,40 L-56,39 L-55,36 L-57,34 L-41,30 L-42,25 L-42,21 L-40,20 L-41,16 L-29,14 L-6,14 L-4,11 L-2,2 L0,2 Z " fill="#17222E" transform="translate(140,76)"/>
<path d="M0,0 L3,1 L3,9 L5,11 L5,34 L-151,34 L-151,7 L-149,5 L-146,5 L-146,7 L-142,9 L-142,10 L-134,11 L-136,14 L-141,15 L-125,16 L-121,18 L-117,22 L-113,22 L-125,15 L-131,13 L-131,11 L-119,9 L-106,9 L-93,15 L-93,17 L-97,17 L-97,19 L-94,20 L-99,22 L-63,22 L-58,23 L-59,22 L-56,21 L-27,22 L-26,19 L-23,17 L-9,16 L-5,15 L-5,10 L0,11 L0,9 L-2,9 L-2,2 L0,2 Z " fill="#F4F5F4" transform="translate(151,123)"/>
<path d="M0,0 L4,0 L4,4 L2,4 L2,8 L5,8 L5,6 L7,6 L7,9 L13,7 L20,7 L19,15 L16,16 L21,27 L19,40 L18,36 L15,36 L11,43 L4,42 L3,45 L-4,46 L-7,46 L-4,43 L-1,37 L-6,32 L-12,35 L-11,30 L-10,27 L-11,25 L-14,30 L-20,33 L-22,33 L-23,38 L-27,42 L-26,44 L-27,47 L-24,47 L-26,53 L-27,50 L-29,51 L-30,56 L-33,59 L-34,56 L-33,54 L-35,54 L-34,49 L-32,43 L-33,39 L-28,22 L-25,18 L-23,10 L-19,6 L-17,6 L-16,8 L-7,7 L-5,3 Z " fill="#0E1C29" transform="translate(39,15)"/>
<path d="M0,0 L14,0 L23,2 L23,3 L8,6 L1,6 L0,6 L3,8 L-4,7 L-4,9 L6,10 L6,11 L-2,11 L8,12 L7,17 L8,19 L7,22 L5,22 L5,20 L2,20 L2,23 L4,25 L-3,27 L-3,30 L-4,37 L-7,38 L-4,40 L-10,39 L-16,37 L-17,39 L-4,41 L-3,45 L2,45 L-1,48 L-3,48 L-3,50 L-9,49 L-18,47 L-16,48 L-17,51 L-20,50 L-20,48 L-30,49 L-30,52 L-35,52 L-35,51 L-48,52 L-28,52 L-24,51 L4,52 L4,50 L6,50 L6,52 L10,52 L10,54 L-17,55 L-18,57 L-29,56 L-71,56 L-71,55 L-60,54 L-57,52 L-57,50 L-53,50 L-53,48 L-62,45 L-66,43 L-72,42 L-72,41 L-62,41 L-58,43 L-48,43 L-37,41 L-33,41 L-33,44 L-31,44 L-31,41 L-29,41 L-29,39 L-27,39 L-28,35 L-26,34 L-35,33 L-31,30 L-27,31 L-26,27 L-29,26 L-27,25 L-26,22 L-28,20 L-12,16 L-13,11 L-13,7 L-11,6 L-12,2 Z " fill="#515860" transform="translate(111,90)"/>
<path d="M0,0 L5,1 L5,4 L3,4 L2,8 L-1,8 L-3,14 L-5,14 L-4,18 L0,16 L1,16 L1,14 L3,14 L3,16 L8,14 L6,19 L8,19 L9,21 L11,19 L12,21 L11,23 L13,24 L11,28 L5,26 L5,28 L3,28 L7,34 L8,42 L6,40 L4,32 L1,33 L0,30 L-8,28 L-12,29 L-16,28 L-17,35 L-16,37 L-12,34 L-1,34 L1,36 L-11,36 L-12,42 L-13,44 L-18,44 L-17,48 L-19,47 L-18,54 L-13,69 L-13,71 L-15,71 L-16,66 L-21,71 L-23,71 L-22,75 L-23,76 L-29,76 L-29,78 L-32,77 L-37,79 L-39,72 L-43,75 L-45,75 L-43,76 L-45,80 L-50,81 L-52,63 L-47,65 L-48,72 L-43,70 L-36,70 L-33,71 L-28,69 L-24,60 L-24,41 L-27,41 L-26,28 L-24,22 L-26,22 L-24,18 L-21,9 L-21,6 L-18,4 L-13,4 L-13,2 L-6,1 L-5,3 L-3,3 L-3,1 Z M-5,19 Z " fill="#293541" transform="translate(100,35)"/>
<path d="M0,0 L8,0 L11,3 L22,7 L22,10 L20,10 L19,24 L21,24 L22,26 L25,28 L24,30 L14,29 L14,31 L10,31 L10,29 L-13,28 L-14,32 L-16,31 L-16,26 L-12,26 L-11,23 L-11,11 L-14,8 L-14,6 L-7,4 Z " fill="#3C424C" transform="translate(100,5)"/>
<path d="M0,0 L4,1 L2,1 L2,3 L-3,6 L-5,6 L-7,11 L-2,15 L-5,17 L-6,19 L-8,19 L-8,22 L-2,23 L-2,24 L-7,24 L-3,29 L1,28 L2,31 L-1,31 L-1,35 L1,36 L-4,35 L-6,32 L-12,35 L-11,30 L-10,27 L-11,25 L-14,30 L-20,33 L-22,33 L-23,38 L-27,42 L-26,44 L-27,47 L-24,47 L-26,53 L-27,50 L-29,51 L-30,56 L-33,59 L-34,56 L-33,54 L-35,54 L-34,49 L-32,43 L-33,39 L-28,22 L-25,18 L-23,10 L-19,6 L-17,6 L-16,8 L-7,7 L-5,3 Z " fill="#38424D" transform="translate(39,15)"/>
<path d="M0,0 L3,0 L3,2 L-1,2 L-1,4 L2,5 L-5,6 L-5,8 L-10,12 L-13,12 L-13,14 L-1,15 L-3,17 L-16,20 L-16,22 L-14,23 L-13,29 L-16,29 L-14,32 L-20,32 L-20,30 L-22,30 L-22,32 L-51,32 L-51,33 L-75,33 L-74,31 L-68,30 L-58,30 L-56,32 L-56,29 L-53,28 L-46,28 L-46,30 L-43,30 L-42,28 L-46,26 L-35,28 L-29,30 L-29,28 L-27,26 L-30,25 L-30,21 L-43,20 L-44,16 L-38,17 L-35,18 L-35,17 L-30,17 L-30,9 L-32,7 L-25,6 L-25,7 L-12,6 L-4,4 L-6,2 Z " fill="#212C37" transform="translate(137,110)"/>
<path d="M0,0 L2,1 L4,8 L4,17 L5,23 L3,23 L3,32 L-5,32 L-5,34 L-16,37 L-22,37 L-22,32 L-23,30 L-21,26 L-31,26 L-35,24 L-27,24 L-33,23 L-33,21 L-29,21 L-37,19 L-37,18 L-21,19 L-9,16 L-4,11 L-2,2 L0,2 Z " fill="#0F1D2A" transform="translate(140,76)"/>
<path d="M0,0 L14,0 L23,2 L23,3 L8,6 L1,6 L0,6 L3,8 L-4,7 L-4,9 L6,10 L6,11 L-2,11 L8,12 L7,17 L8,19 L7,22 L5,22 L5,20 L2,20 L2,23 L4,25 L-7,26 L-28,21 L-25,19 L-12,16 L-13,11 L-13,7 L-11,6 L-12,2 Z " fill="#8E9397" transform="translate(111,90)"/>
<path d="M0,0 L5,4 L9,9 L17,16 L19,20 L13,19 L13,17 L11,17 L11,14 L8,13 L8,11 L5,11 L5,18 L3,17 L2,11 L0,11 L0,15 L-2,16 L-2,20 L5,20 L8,25 L7,27 L5,23 L-5,26 L-9,25 L-9,30 L-12,27 L-14,21 L-15,27 L-18,27 L-17,8 L-17,5 L-14,6 L-11,3 L-4,3 L0,5 Z " fill="#2F3A44" transform="translate(21,72)"/>
<path d="M0,0 L13,0 L26,6 L26,8 L22,8 L22,10 L25,11 L20,13 L56,13 L61,14 L61,15 L55,16 L19,16 L19,17 L1,17 L1,15 L-3,14 L6,13 L-6,6 L-12,4 L-12,2 Z " fill="#B4B6B9" transform="translate(32,132)"/>
<path d="M0,0 L5,1 L9,5 L10,11 L8,20 L4,25 L0,27 L-7,27 L-14,22 L-14,12 L-18,17 L-20,17 L-20,11 L-17,6 L-13,6 L-13,10 L-10,10 L-9,8 L-7,12 L-3,13 L0,12 L1,8 L-3,7 L-2,2 Z " fill="#0D1B28" transform="translate(62,76)"/>
<path d="M0,0 L3,1 L6,4 L6,7 L8,7 L8,9 L10,10 L8,10 L8,13 L13,13 L13,15 L17,14 L18,9 L21,3 L23,6 L23,17 L24,27 L12,25 L2,20 L-2,21 L-3,23 L-2,19 L0,18 L-7,16 L-5,13 L0,13 L1,14 L0,10 L-5,11 L-8,8 L-7,5 L-5,5 L-5,1 L-3,1 L-1,5 Z " fill="#0A1926" transform="translate(26,82)"/>
<path d="M0,0 L3,2 L7,16 L10,27 L8,27 L7,22 L2,27 L0,27 L1,31 L0,32 L-6,32 L-6,34 L-9,33 L-14,35 L-16,28 L-20,31 L-22,31 L-20,32 L-22,36 L-27,37 L-29,19 L-24,21 L-25,28 L-20,26 L-13,26 L-10,27 L-5,25 L-1,16 L-1,1 Z " fill="#172532" transform="translate(77,79)"/>
<path d="M0,0 L9,1 L11,2 L10,11 L7,11 L3,12 L7,14 L3,15 L6,17 L6,20 L-3,22 L-7,21 L0,19 L-10,17 L-10,15 L-5,14 L-4,11 L-2,11 L-2,9 L2,7 L2,5 L6,5 L6,3 L0,5 L1,7 L-15,11 L-24,11 L-24,8 L-21,7 L-21,4 L-26,2 L-22,1 L-18,3 L-18,5 L-10,5 L-3,3 L1,3 Z " fill="#2A3843" transform="translate(134,107)"/>
<path d="M0,0 L7,0 L8,3 L6,3 L7,6 L-4,8 L-5,10 L-3,9 L7,9 L7,13 L-2,15 L5,15 L2,17 L-7,19 L-9,18 L-10,13 L-8,9 L-18,9 L-22,7 L-14,7 L-20,6 L-20,4 L-16,4 L-24,2 L-24,1 L-8,2 Z " fill="#2B3641" transform="translate(127,93)"/>
<path d="M0,0 L6,0 L6,3 L14,4 L9,2 L12,1 L29,5 L35,7 L35,9 L30,8 L21,6 L23,7 L22,10 L19,9 L19,7 L9,8 L9,11 L4,11 L4,10 L-14,11 L-10,8 L-16,5 L-16,4 Z " fill="#666C73" transform="translate(72,131)"/>
<path d="M0,0 L9,1 L9,13 L11,13 L10,11 L10,0 L14,1 L14,12 L16,12 L16,0 L18,0 L18,12 L23,12 L24,16 L-2,16 L-3,20 L-5,19 L-5,14 L-1,14 L0,11 Z " fill="#8A9097" transform="translate(89,17)"/>
<path d="M0,0 L2,0 L3,2 L5,2 L5,0 L8,0 L9,4 L7,6 L5,5 L4,11 L1,11 L0,8 L-3,11 L-6,11 L-7,13 L-5,13 L-3,14 L-5,17 L-4,20 L-6,20 L-6,18 L-9,20 L-12,25 L-14,23 L-15,15 L-13,8 L-13,5 L-10,3 L-5,3 L-5,1 Z " fill="#434F5A" transform="translate(92,36)"/>
<path d="M0,0 L18,4 L22,6 L22,9 L22,14 L17,15 L2,13 L2,11 L-1,11 L-1,9 L9,9 L-1,8 L-1,6 L-4,5 L-2,4 Z " fill="#3E4751" transform="translate(86,111)"/>
<path d="M0,0 L2,0 L2,3 L0,3 L1,9 L4,12 L4,14 L7,17 L6,20 L4,18 L3,24 L-3,25 L-4,22 L-10,21 L-10,18 L-8,18 L-8,14 L-6,13 L-10,10 L-7,5 L-3,2 L0,2 Z " fill="#1A2733" transform="translate(41,16)"/>
<path d="M0,0 L2,0 L2,2 L7,0 L5,5 L7,5 L8,7 L10,5 L11,7 L10,9 L12,10 L10,14 L4,12 L4,14 L2,14 L6,20 L7,28 L5,26 L3,18 L0,19 L-1,16 L-5,14 L-5,12 L-7,12 L-7,6 L-2,2 L0,2 Z " fill="#172532" transform="translate(101,49)"/>
<path d="M0,0 L0,3 L-2,10 L1,10 L3,14 L2,20 L-2,24 L-1,26 L-2,29 L1,29 L-1,35 L-2,32 L-4,33 L-5,38 L-8,41 L-9,38 L-8,36 L-10,36 L-9,31 L-7,25 L-8,21 L-3,4 Z " fill="#3E4852" transform="translate(14,33)"/>
<path d="M0,0 L24,0 L21,2 L24,4 L21,6 L15,6 L15,8 L21,9 L34,17 L34,18 L24,18 L28,16 L25,14 L19,13 L19,12 L5,11 L5,8 L0,2 Z " fill="#2B353F" transform="translate(5,128)"/>
<path d="M0,0 L5,4 L9,9 L17,16 L19,20 L13,19 L13,17 L11,17 L11,14 L8,13 L8,11 L5,11 L5,18 L3,17 L2,11 L0,11 L0,15 L-2,16 L-2,20 L5,20 L8,25 L7,27 L5,23 L-2,22 L-2,24 L-4,24 L-4,22 L-8,20 L-4,20 L-6,19 L-6,17 L-4,17 L-6,13 L-4,10 L-2,10 L-2,8 L-4,8 L-2,4 L0,5 Z " fill="#1C2935" transform="translate(21,72)"/>
<path d="M0,0 L25,0 L23,1 L24,6 L27,8 L27,10 L23,9 L23,11 L16,12 L16,14 L13,15 L12,18 L10,18 L9,21 L8,16 L10,16 L11,12 L14,8 L16,8 L16,3 L10,3 L10,5 L7,6 L7,3 L0,4 L0,6 L-2,6 Z M8,21 Z " fill="#192631" transform="translate(87,33)"/>
<path d="M0,0 L4,2 L6,6 L3,15 L0,19 L-6,20 L-7,19 L-14,19 L-19,20 L-19,14 L-16,15 L-9,15 L-5,13 L-1,7 Z " fill="#EEEFEF" transform="translate(71,87)"/>
<path d="M0,0 L3,1 L0,3 L-7,5 L-7,7 L-4,8 L-10,10 L-47,9 L-47,7 L-20,7 L-19,4 L-16,2 L-2,1 Z " fill="#95999E" transform="translate(144,138)"/>
<path d="M0,0 L5,0 L4,2 L9,1 L14,0 L13,4 L15,4 L15,6 L11,6 L10,10 L6,12 L-7,12 L-7,10 L-10,9 L-3,8 L2,9 L3,6 L-3,6 L-3,4 L-10,4 L-8,2 Z " fill="#37434F" transform="translate(136,128)"/>
<path d="M0,0 L49,0 L54,1 L54,2 L48,3 L12,3 L12,4 L-6,4 L-6,2 L-10,1 Z " fill="#A2A7AB" transform="translate(39,145)"/>
<path d="M0,0 L3,0 L3,2 L7,4 L7,5 L15,6 L13,9 L8,10 L24,11 L28,13 L32,17 L25,18 L25,16 L20,15 L20,17 L15,17 L13,14 L4,14 L3,12 L5,11 L4,7 L1,6 L1,2 L-1,1 Z " fill="#B7BABE" transform="translate(2,128)"/>
<path d="M0,0 L8,0 L11,3 L18,6 L17,8 L6,9 L-2,8 L-1,6 L0,4 L-6,7 L-5,9 L-11,9 L-14,8 L-14,6 L-7,4 Z " fill="#434A53" transform="translate(100,5)"/>
<path d="M0,0 L2,2 L1,5 L8,4 L8,2 L19,4 L21,6 L20,9 L18,9 L18,6 L8,8 L0,9 L-7,9 L-16,6 L-16,5 L-7,3 L-1,2 Z " fill="#27323E" transform="translate(60,125)"/>
<path d="M0,0 L2,2 L13,3 L16,5 L11,10 L10,12 L10,22 L8,22 L6,17 L8,17 L8,14 L6,14 L5,16 L1,9 Z " fill="#202D39" transform="translate(11,95)"/>
<path d="M0,0 L1,0 L1,10 L9,11 L8,16 L2,19 L-5,19 L-2,17 L-10,18 L-16,19 L-15,17 L-2,14 L-9,11 L-5,9 L-10,8 L-10,7 L-1,5 Z " fill="#16212D" transform="translate(142,112)"/>
<path d="M0,0 L6,2 L10,5 L12,5 L13,10 L7,8 L-4,8 L-7,10 L-8,15 L-9,15 L-10,5 L-8,1 L-2,1 Z " fill="#06111D" transform="translate(92,62)"/>
<path d="M0,0 L2,0 L3,3 L0,4 L14,4 L19,3 L24,3 L24,6 L22,6 L21,20 L20,20 L20,10 L16,9 L14,13 L14,6 L-11,6 L-11,3 L-5,4 L-2,1 Z " fill="#414850" transform="translate(98,9)"/>
<path d="M0,0 L14,0 L23,2 L23,3 L8,6 L1,6 L-12,3 L-12,2 Z " fill="#A9ACB0" transform="translate(111,90)"/>
<path d="M0,0 L11,0 L14,2 L6,2 L1,1 L1,3 L4,3 L4,5 L12,5 L23,7 L20,9 L23,11 L17,10 L11,8 L10,11 L0,9 L-1,6 L1,5 L-8,4 L-4,1 L0,2 Z " fill="#8F969B" transform="translate(84,119)"/>
<path d="M0,0 L2,3 L0,7 L-3,11 L-5,14 L-5,16 L-8,16 L-10,20 L-15,23 L-17,22 L-17,19 L-13,14 L-11,9 L-5,6 L-3,6 L-1,1 Z " fill="#242F3B" transform="translate(28,39)"/>
<path d="M0,0 L4,1 L4,11 L7,11 L8,13 L11,15 L10,17 L0,16 L0,18 L-4,18 L-4,16 L-2,15 L-2,4 Z " fill="#35404D" transform="translate(114,18)"/>
<path d="M0,0 L3,1 L4,8 L2,8 L2,13 L-5,14 L-9,18 L-9,16 L-11,16 L-10,11 L-8,11 L-6,7 L-6,3 L-3,3 L-2,5 Z " fill="#141E29" transform="translate(15,62)"/>
<path d="M0,0 L2,0 L2,3 L8,1 L15,1 L14,9 L11,10 L11,12 L8,12 L3,7 L-3,4 L-3,2 L0,2 Z " fill="#2F3842" transform="translate(44,21)"/>
<path d="M0,0 L5,2 L4,9 L9,7 L16,7 L16,10 L13,11 L13,9 L9,12 L7,12 L9,13 L7,17 L2,18 Z " fill="#2F3944" transform="translate(48,98)"/>
<path d="M0,0 L9,0 L27,4 L29,6 L18,7 L-3,2 Z " fill="#C4C5C8" transform="translate(86,109)"/>
<path d="M0,0 L4,1 L4,7 L-1,8 L-16,6 L-16,4 L-19,4 L-19,2 L-6,3 L-6,1 L1,2 L0,1 Z " fill="#6E777D" transform="translate(104,118)"/>
<path d="M0,0 L6,2 L9,4 L20,7 L20,8 L13,9 L2,7 L-3,10 L-5,10 L-4,5 Z " fill="#1D2934" transform="translate(29,102)"/>
<path d="M0,0 L2,0 L2,3 L0,3 L1,9 L4,12 L3,14 L-6,13 L-10,10 L-7,5 L-3,2 L0,2 Z " fill="#101B27" transform="translate(41,16)"/>
<path d="M0,0 L5,4 L9,9 L17,16 L19,20 L13,19 L13,17 L11,17 L11,14 L8,13 L8,11 L3,12 L0,7 Z " fill="#152532" transform="translate(21,72)"/>
<path d="M0,0 L3,0 L3,2 L-1,2 L-1,4 L2,5 L-5,6 L-5,8 L-10,12 L-13,11 L-15,9 L-28,10 L-28,8 L-32,7 L-25,6 L-25,7 L-12,6 L-4,4 L-6,2 Z " fill="#18222E" transform="translate(137,110)"/>
<path d="M0,0 L2,0 L0,6 L4,7 L7,7 L5,10 L6,13 L4,13 L4,11 L1,13 L-2,18 L-4,16 L-5,8 L-2,2 Z " fill="#545C65" transform="translate(82,43)"/>
<path d="M0,0 L5,0 L1,1 L1,4 L8,5 L8,6 L-9,9 L-14,9 L-10,6 L-16,3 L-14,2 L-1,3 Z " fill="#CACCCE" transform="translate(72,133)"/>
<path d="M0,0 L2,0 L3,6 L6,6 L5,10 L0,13 L-5,12 L-5,6 Z " fill="#1D2A37" transform="translate(20,21)"/>
<path d="M0,0 L5,0 L3,9 L1,10 L-1,14 L-3,12 L-5,14 L-6,10 L-6,5 L-6,2 L-3,3 Z " fill="#677078" transform="translate(10,75)"/>
<path d="M0,0 L10,0 L19,4 L29,10 L29,11 L19,11 L23,9 L20,7 L14,6 L14,5 L0,4 L0,1 Z " fill="#41484F" transform="translate(10,135)"/>
<path d="M0,0 L7,0 L8,7 L6,10 L3,11 L1,15 L-2,16 L-1,12 L-6,12 L-6,10 L2,9 L2,6 L-6,5 L-3,3 L2,3 L0,2 Z " fill="#192734" transform="translate(48,61)"/>
<path d="M0,0 L2,0 L2,2 L6,2 L6,4 L-24,5 L-34,4 L-32,1 L0,2 Z " fill="#626B75" transform="translate(115,140)"/>
<path d="M0,0 L10,0 L8,1 L8,3 L17,6 L20,8 L32,8 L31,11 L18,11 L6,4 L0,2 Z " fill="#E7E9EA" transform="translate(20,134)"/>
<path d="M0,0 L25,0 L22,3 L10,3 L10,5 L7,6 L7,3 L0,4 L0,6 L-2,6 Z " fill="#1D2630" transform="translate(87,33)"/>
<path d="M0,0 L7,0 L7,2 L10,3 L9,4 L2,4 L2,5 L-22,5 L-21,3 L-15,2 L-5,2 L-3,4 L-3,1 Z " fill="#29303D" transform="translate(84,138)"/>
<path d="M0,0 L12,1 L10,2 L10,5 L0,7 L-9,4 L-8,2 L-1,1 Z " fill="#051421" transform="translate(40,65)"/>
<path d="M0,0 L4,0 L7,4 L5,18 L4,26 L3,26 L2,18 L2,6 L0,6 Z " fill="#1B2733" transform="translate(2,100)"/>
<path d="M0,0 L2,0 L2,2 L6,4 L12,12 L12,14 L10,14 L14,23 L11,25 L3,5 L3,3 L0,2 Z " fill="#25303C" transform="translate(126,43)"/>
<path d="M0,0 L1,2 L3,3 L2,8 L-2,8 L-2,11 L-5,10 L-10,12 L-11,7 L-6,4 L-1,2 Z " fill="#1A2937" transform="translate(73,102)"/>
<path d="M0,0 L3,4 L1,17 L0,13 L-5,13 L-6,9 L-5,6 L-2,3 L-5,2 L-5,1 Z " fill="#2A3541" transform="translate(57,38)"/>
<path d="M0,0 L5,2 L8,3 L8,5 L6,5 L5,7 L2,10 L0,10 L-5,15 L-3,5 Z " fill="#636C73" transform="translate(15,33)"/>
<path d="M0,0 L3,4 L2,10 L-2,14 L-3,11 L-3,8 L-1,8 Z M-4,14 L-1,16 L-2,19 L1,19 L-1,25 L-2,22 L-5,22 L-5,16 Z " fill="#353F4A" transform="translate(14,43)"/>
<path d="M0,0 L4,4 L6,4 L7,6 L11,5 L12,8 L9,8 L9,12 L11,13 L6,12 L4,9 L-2,12 L-1,7 L0,4 Z " fill="#192531" transform="translate(29,38)"/>
<path d="M0,0 L11,2 L26,6 L26,8 L21,7 L12,5 L14,6 L13,9 L10,8 L10,6 L1,6 L1,4 L5,3 L0,1 Z " fill="#8A9197" transform="translate(81,132)"/>
<path d="M0,0 L3,1 L0,3 L-8,5 L-8,7 L-20,7 L-19,4 L-16,2 L-2,1 Z " fill="#798086" transform="translate(144,138)"/>
<path d="M0,0 L8,0 L12,2 L16,6 L9,7 L9,5 L4,4 L4,6 L-1,6 L-1,3 Z " fill="#797F87" transform="translate(18,139)"/>
<path d="M0,0 L6,1 L8,2 L8,4 L11,5 L11,7 L23,6 L21,8 L11,10 L2,10 L2,7 L5,6 L5,3 L0,1 Z " fill="#3F4953" transform="translate(108,108)"/>
<path d="M0,0 L4,5 L6,7 L8,8 L11,15 L13,16 L13,18 L8,18 L8,16 L4,15 L0,3 Z " fill="#142331" transform="translate(80,83)"/>
<path d="M0,0 L14,0 L23,1 L23,2 L12,3 L12,4 L-6,4 L-6,2 L-10,1 Z " fill="#8E949A" transform="translate(39,145)"/>
<path d="M0,0 L8,0 L8,3 L4,5 L-9,5 L-9,3 L-12,2 L-5,1 L0,2 Z " fill="#565E68" transform="translate(138,135)"/>
<path d="M0,0 L7,0 L8,3 L6,3 L7,6 L-7,8 L-5,6 L-7,4 L-2,2 Z " fill="#3A4651" transform="translate(127,93)"/>
<path d="M0,0 L6,0 L5,4 L2,6 L2,8 L-3,8 L-3,6 L-7,8 L-9,5 L-5,2 L0,2 Z " fill="#555D66" transform="translate(87,37)"/>
<path d="M0,0 L5,1 L5,7 L3,8 L4,11 L3,14 L0,13 L1,8 L-3,7 L-2,2 Z " fill="#2F3C48" transform="translate(62,76)"/>
<path d="M0,0 L2,0 L3,7 L3,9 L1,9 L3,22 L1,23 L0,16 L-2,16 L-1,6 L0,4 L-2,4 Z " fill="#475058" transform="translate(76,53)"/>
<path d="M0,0 L3,1 L1,6 L0,7 L-7,6 L-8,9 L-15,10 L-18,10 L-15,7 L-6,3 Z " fill="#222E3A" transform="translate(50,51)"/>
<path d="M0,0 L11,2 L17,3 L24,5 L24,6 L2,6 L4,5 L4,2 Z " fill="#0A111C" transform="translate(91,136)"/>
<path d="M0,0 L6,0 L6,2 L13,2 L14,5 L8,7 L0,8 L2,6 L7,5 L-3,3 L-3,1 Z " fill="#4C5862" transform="translate(127,121)"/>
<path d="M0,0 L11,1 L13,3 L20,6 L16,8 L8,8 L7,5 L2,5 L3,2 Z " fill="#9A9BA0" transform="translate(32,132)"/>
<path d="M0,0 L4,1 L4,10 L0,16 L-1,16 L-2,9 L-1,1 Z " fill="#11212E" transform="translate(8,109)"/>
<path d="M0,0 L11,1 L14,3 L5,5 L-7,4 L-6,1 Z " fill="#8E949B" transform="translate(120,90)"/>
<path d="M0,0 L11,1 L11,0 L24,1 L24,3 L19,4 L15,5 L0,1 Z " fill="#7D8388" transform="translate(83,130)"/>
<path d="M0,0 L2,0 L3,4 L0,5 L1,7 L-3,8 L-18,9 L-15,8 L-15,6 L-3,3 L1,3 Z " fill="#283540" transform="translate(134,107)"/>
<path d="M0,0 L5,1 L5,4 L3,4 L2,8 L-1,8 L-3,14 L-5,14 L-5,16 L-7,16 L-9,9 L-5,8 L-7,9 L-7,12 L-4,12 L-3,6 L0,5 Z " fill="#303D49" transform="translate(100,35)"/>
<path d="M0,0 L7,0 L20,6 L20,8 L11,8 L9,6 L13,6 L1,3 Z " fill="#DCDDDD" transform="translate(38,132)"/>
<path d="M0,0 L15,0 L16,5 L15,8 L13,8 L13,6 L9,4 L0,1 Z " fill="#676D74" transform="translate(103,104)"/>
<path d="M0,0 L9,3 L12,5 L5,4 L5,6 L15,7 L15,8 L0,7 L-3,4 L-3,1 Z " fill="#848B90" transform="translate(102,93)"/>
<path d="M0,0 L2,0 L2,5 L5,5 L4,10 L-1,13 L-3,15 L-3,13 L-5,13 L-4,8 L-2,8 L0,4 Z " fill="#273441" transform="translate(9,65)"/>
<path d="M0,0 L2,1 L1,5 L9,5 L7,7 L-3,7 L-12,4 L-12,3 L-3,1 Z " fill="#2F3B45" transform="translate(56,127)"/>
<path d="M0,0 L10,2 L17,1 L16,4 L10,6 L9,5 L8,7 L5,7 L4,4 L0,5 L-1,1 Z " fill="#19232E" transform="translate(33,108)"/>
<path d="M0,0 L4,0 L6,7 L6,11 L4,11 L3,6 L-1,11 L-3,11 L-3,5 Z " fill="#23303B" transform="translate(45,82)"/>
<path d="M0,0 L7,2 L11,6 L4,6 L-8,3 L-8,2 Z " fill="#4A525C" transform="translate(99,106)"/>
<path d="M0,0 L2,1 L1,6 L-1,8 L-13,8 L-12,5 L-2,3 L-2,1 Z " fill="#182330" transform="translate(135,95)"/>
<path d="M0,0 L2,0 L2,4 L8,5 L8,6 L3,7 L-5,7 L-5,3 Z " fill="#152331" transform="translate(37,59)"/>
<path d="M0,0 L0,3 L-2,10 L0,14 L-2,21 L-5,20 L-6,14 L-2,2 Z " fill="#515963" transform="translate(14,33)"/>
<path d="M0,0 L13,2 L15,4 L4,5 L-2,4 Z " fill="#A9AAAE" transform="translate(100,111)"/>
<path d="M0,0 L1,4 L1,8 L-5,9 L-7,8 L-7,2 L-6,4 Z " fill="#1A2834" transform="translate(130,82)"/>
<path d="M0,0 L3,2 L7,16 L8,20 L6,20 L3,14 L2,6 L0,6 L-1,10 L-1,1 Z " fill="#38444E" transform="translate(77,79)"/>
<path d="M0,0 L4,2 L4,4 L1,4 L-1,8 L-6,11 L-8,10 L-8,7 L-5,4 L-1,2 Z M3,0 Z " fill="#1A2632" transform="translate(19,51)"/>
<path d="M0,0 L3,1 L3,4 L9,5 L9,6 L4,6 L5,10 L1,6 L-3,7 L-2,2 Z " fill="#353E49" transform="translate(28,33)"/>
<path d="M0,0 L11,0 L11,14 L9,14 L7,12 L7,2 L4,2 L3,6 L2,2 Z " fill="#333840" transform="translate(89,16)"/>
<path d="M0,0 L7,1 L7,2 L2,3 L1,5 L-26,5 L-26,4 L-2,4 L-2,2 L0,2 Z " fill="#414A55" transform="translate(123,140)"/>
<path d="M0,0 L7,0 L7,3 L4,4 L4,2 L0,5 L-4,5 L-5,8 L-6,4 L-3,1 Z " fill="#404B56" transform="translate(57,105)"/>
<path d="M0,0 L2,0 L2,2 L0,2 L-1,16 L-2,16 L-2,6 L-6,5 L-8,9 L-8,3 L-3,2 L-5,1 Z " fill="#1B2029" transform="translate(120,13)"/>
<path d="M0,0 L3,2 L5,2 L7,6 L7,10 L5,10 L4,12 L0,5 Z " fill="#172634" transform="translate(12,99)"/>
<path d="M0,0 L4,1 L4,13 L2,13 L2,11 L0,11 Z " fill="#8B8F95" transform="translate(114,18)"/>
<path d="M0,0 L5,0 L4,3 L13,2 L9,6 L-4,5 L-4,4 L3,4 L3,1 L-4,3 L-3,1 Z " fill="#121C2A" transform="translate(129,131)"/>
<path d="M0,0 L3,1 L3,12 L-5,12 L-4,10 L0,11 L0,9 L-2,9 L-2,2 L0,2 Z " fill="#A5A9AC" transform="translate(151,123)"/>
<path d="M0,0 L9,1 L15,2 L16,7 L4,5 L4,3 L8,3 L0,1 Z " fill="#3C444E" transform="translate(103,94)"/>
<path d="M0,0 L3,1 L2,5 L4,5 L4,7 L1,10 L-2,13 L-2,10 L-4,9 L-2,9 L-2,2 Z " fill="#323E49" transform="translate(15,75)"/>
<path d="M0,0 L5,2 L1,3 L-6,7 L-5,9 L-11,9 L-14,8 L-14,6 L-7,4 Z " fill="#858A90" transform="translate(100,5)"/>
<path d="M0,0 L6,0 L6,3 L9,4 L4,5 L4,3 L1,4 L-8,4 L-11,1 L-1,1 Z " fill="#B3B5B8" transform="translate(48,139)"/>
<path d="M0,0 L8,1 L12,3 L10,5 L-3,4 Z " fill="#777E85" transform="translate(85,113)"/>
<path d="M0,0 L2,2 L1,5 L10,5 L10,7 L5,8 L-3,7 L-2,2 Z " fill="#192531" transform="translate(60,125)"/>
<path d="M0,0 L6,1 L5,8 L3,8 L3,10 L1,10 L1,8 L-2,7 L1,5 L3,5 L3,3 L-2,2 Z " fill="#465059" transform="translate(20,33)"/>
<path d="M0,0 L3,0 L3,2 L-1,2 L-1,4 L2,5 L-5,6 L-5,8 L-8,11 L-10,10 L-10,6 L-4,4 L-6,2 Z " fill="#111D29" transform="translate(137,110)"/>
<path d="M0,0 L7,1 L7,3 L21,5 L20,7 L6,6 L1,4 Z " fill="#656B75" transform="translate(98,97)"/>
<path d="M0,0 L2,0 L0,10 L-2,11 L-4,7 L-4,6 L-8,3 L-4,2 Z " fill="#141D28" transform="translate(90,45)"/>
<path d="M0,0 L2,3 L2,5 L5,5 L4,9 L1,11 L-2,11 L-1,7 L0,4 L-2,3 Z " fill="#101C29" transform="translate(21,22)"/>
<path d="M0,0 L11,6 L14,9 L4,9 L8,7 L5,5 L-1,4 Z " fill="#2F363F" transform="translate(25,137)"/>
<path d="M0,0 L19,0 L16,2 L6,4 L4,2 Z " fill="#222D37" transform="translate(10,128)"/>
<path d="M0,0 L11,0 L12,3 L11,5 L1,3 Z " fill="#5E656C" transform="translate(83,125)"/>
<path d="M0,0 L5,1 L11,3 L17,5 L17,6 L10,7 L4,5 L4,2 Z " fill="#36414A" transform="translate(32,104)"/>
<path d="M0,0 L4,2 L6,6 L5,14 L3,11 L3,7 L-2,7 L0,3 Z " fill="#1D2834" transform="translate(66,78)"/>
<path d="M0,0 L2,0 L3,7 L6,8 L5,12 L2,11 L2,7 L-1,7 Z " fill="#18222D" transform="translate(74,69)"/>
<path d="M0,0 L7,0 L8,7 L6,7 L5,5 L-6,5 L-3,3 L2,3 L0,2 Z " fill="#424C56" transform="translate(48,61)"/>
<path d="M0,0 L3,0 L3,2 L7,4 L7,5 L15,6 L15,7 L6,8 L1,7 L1,4 L1,2 L-1,1 Z " fill="#9BA0A4" transform="translate(2,128)"/>
<path d="M0,0 L9,2 L8,7 L1,5 L1,3 L-1,3 Z " fill="#232C36" transform="translate(142,121)"/>
<path d="M0,0 L5,2 L5,5 L-2,8 L-5,7 L-3,5 L-2,2 L0,2 Z " fill="#12222F" transform="translate(53,122)"/>
<path d="M0,0 L1,0 L1,9 L-2,11 L-9,11 L-5,9 L-10,8 L-10,7 L-1,5 Z " fill="#0D1823" transform="translate(142,112)"/>
<path d="M0,0 L1,0 L2,6 L3,6 L2,22 L1,22 L0,14 L0,2 L-2,1 Z " fill="#525D66" transform="translate(4,104)"/>
<path d="M0,0 L3,1 L4,7 L2,7 L2,16 L1,16 L0,11 L-1,11 Z " fill="#1F2A35" transform="translate(141,92)"/>
<path d="M0,0 L5,5 L10,6 L9,10 L3,9 L0,4 Z " fill="#243240" transform="translate(52,84)"/>
<path d="M0,0 L6,2 L10,7 L11,15 L9,13 L7,5 L4,6 L3,3 L0,2 Z " fill="#25323D" transform="translate(97,62)"/>
<path d="M0,0 L2,1 L1,4 L3,4 L2,8 L-4,7 L-5,10 L-6,8 L-2,2 Z " fill="#424C56" transform="translate(88,56)"/>
<path d="M0,0 L5,0 L11,4 L12,2 L12,5 L-2,4 L-1,2 Z " fill="#7D8389" transform="translate(100,9)"/>
<path d="M0,0 L3,1 L3,3 L7,4 L2,6 L-6,6 L-3,2 L-3,4 L-1,4 Z " fill="#09121E" transform="translate(109,85)"/>
<path d="M0,0 L14,1 L16,3 L9,4 L-2,3 Z " fill="#91979D" transform="translate(83,141)"/>
<path d="M0,0 L7,1 L8,4 L3,5 L-3,4 L-2,1 Z " fill="#3F4954" transform="translate(100,121)"/>
<path d="M0,0 L6,3 L5,5 L3,7 L0,10 L-2,8 L-3,4 L-1,3 L1,4 L1,2 L-1,1 Z " fill="#15212C" transform="translate(109,40)"/>
<path d="M0,0 L14,0 L13,3 L0,3 L-2,1 Z " fill="#DDE0E1" transform="translate(38,142)"/>
<path d="M0,0 L15,0 L12,3 L0,2 Z " fill="#0B141E" transform="translate(97,33)"/>
<path d="M0,0 L5,0 L1,1 L1,4 L3,5 L-9,5 L-12,3 L-7,2 L-1,3 Z " fill="#96999E" transform="translate(72,133)"/>
<path d="M0,0 L11,1 L15,3 L12,4 L15,6 L9,5 L0,1 Z " fill="#A9ADB1" transform="translate(92,124)"/>
<path d="M0,0 L5,0 L6,5 L2,7 L-2,1 Z " fill="#0A131D" transform="translate(51,25)"/>
<path d="M0,0 L4,1 L2,1 L2,3 L-3,6 L-5,6 L-6,10 L-8,9 L-6,4 Z " fill="#626A72" transform="translate(39,15)"/>
<path d="M0,0 L1,4 L2,6 L-1,6 L1,9 L-5,9 L-6,5 L-1,2 Z " fill="#0E1722" transform="translate(122,133)"/>
<path d="M0,0 L5,1 L8,4 L4,3 L3,6 L-2,5 Z " fill="#29323D" transform="translate(59,114)"/>
<path d="M0,0 L11,3 L11,4 L0,6 Z " fill="#E4E6E7" transform="translate(52,101)"/>
<path d="M0,0 L10,0 L7,2 L1,3 L-7,3 L-6,1 Z " fill="#3E434D" transform="translate(69,140)"/>
<path d="M0,0 L10,1 L10,2 L4,2 L4,4 L11,4 L11,5 L3,5 L-2,2 Z " fill="#D5D8D9" transform="translate(36,136)"/>
<path d="M0,0 L4,2 L9,8 L5,9 L2,6 L1,2 Z " fill="#838B90" transform="translate(31,83)"/>
<path d="M0,0 L2,0 L2,2 L7,0 L6,8 L2,6 L-1,6 L0,2 Z " fill="#C8CBCD" transform="translate(101,49)"/>
<path d="M0,0 L1,2 L0,4 L-3,4 L-5,8 L-9,9 L-8,6 L-6,6 L-6,2 Z " fill="#222F3C" transform="translate(109,35)"/>
<path d="M0,0 L11,2 L12,5 L4,5 L4,2 Z " fill="#1B2530" transform="translate(91,136)"/>
<path d="M0,0 L2,0 L1,10 L-3,11 L-1,1 Z " fill="#444C55" transform="translate(77,91)"/>
<path d="M0,0 L11,1 L11,4 L-1,3 Z " fill="#6F737B" transform="translate(114,91)"/>
<path d="M0,0 L4,2 L7,7 L6,9 L3,6 L1,7 L-1,1 Z " fill="#071420" transform="translate(84,85)"/>
<path d="M0,0 L2,1 L3,8 L0,8 L-3,8 L-2,2 L0,2 Z " fill="#202F3C" transform="translate(140,76)"/>
<path d="M0,0 L3,3 L5,3 L6,10 L1,9 L3,5 L0,5 Z " fill="#172532" transform="translate(11,65)"/>
<path d="M0,0 L2,1 L2,4 L5,5 L7,11 L4,13 L0,4 Z " fill="#26323E" transform="translate(133,55)"/>
<path d="M0,0 L4,1 L4,3 L1,3 L1,7 L3,8 L-2,7 L-2,2 Z " fill="#E3E4E6" transform="translate(37,43)"/>
<path d="M0,0 L8,0 L13,1 L13,3 L6,3 L3,1 L3,3 L0,3 Z " fill="#C4C8CD" transform="translate(114,147)"/>
<path d="M0,0 L7,0 L9,1 L8,10 L7,10 L6,4 L0,2 Z " fill="#45505B" transform="translate(136,108)"/>
<path d="M0,0 L2,0 L0,9 L-3,6 L-5,6 L-3,2 Z " fill="#49525D" transform="translate(13,75)"/>
<path d="M0,0 L2,0 L2,11 L-1,10 L-1,3 Z " fill="#9C9FA6" transform="translate(110,17)"/>
<path d="M0,0 L4,1 L4,3 L7,4 L-1,4 L-2,7 L-5,7 L-4,4 L0,2 Z " fill="#C0C2C5" transform="translate(146,137)"/>
<path d="M0,0 L2,0 L2,2 L7,1 L14,1 L12,3 L4,3 L4,5 L0,4 Z " fill="#2D3944" transform="translate(107,118)"/>
<path d="M0,0 L5,1 L8,4 L6,5 L-2,3 L-4,1 Z " fill="#1E2B37" transform="translate(124,38)"/>
<path d="M0,0 L8,0 L8,5 L5,4 L4,6 L4,4 L1,4 Z " fill="#657078" transform="translate(22,23)"/>
<path d="M0,0 L2,0 L3,3 L0,4 L8,4 L8,5 L-3,5 L-5,3 Z " fill="#60656F" transform="translate(98,9)"/>
<path d="M0,0 L12,1 L11,4 L3,4 L3,2 L0,2 Z " fill="#30353F" transform="translate(85,120)"/>
<path d="M0,0 L1,2 L3,3 L0,4 L0,6 L-6,7 L-6,4 L-1,2 Z " fill="#4D5760" transform="translate(73,102)"/>
<path d="M0,0 L5,1 L5,5 L0,6 L-1,2 Z " fill="#9FA4A8" transform="translate(52,45)"/>
<path d="M0,0 L6,1 L10,4 L8,5 L1,4 Z " fill="#323A45" transform="translate(93,126)"/>
<path d="M0,0 L8,1 L8,5 L3,6 L0,2 Z " fill="#545A63" transform="translate(5,128)"/>
<path d="M0,0 L11,0 L9,1 L9,3 L2,3 L2,1 Z " fill="#CCCED2" transform="translate(99,147)"/>
<path d="M0,0 L7,1 L12,3 L12,4 L3,3 L-1,1 Z " fill="#4A515B" transform="translate(84,128)"/>
<path d="M0,0 L4,0 L3,3 L0,3 L0,5 L-5,5 L-5,2 Z " fill="#2C3945" transform="translate(123,128)"/>
<path d="M0,0 L11,0 L13,1 L13,3 L4,2 Z " fill="#656B73" transform="translate(91,108)"/>
<path d="M0,0 L2,1 L5,3 L5,6 L0,6 L0,4 L-3,5 L-3,3 Z " fill="#2E3A45" transform="translate(31,103)"/>
<path d="M0,0 L2,1 L1,6 L-1,8 L-5,6 L-2,3 L-2,1 Z " fill="#222F3C" transform="translate(135,95)"/>
<path d="M0,0 L1,4 L3,4 L3,8 L-2,8 L-1,2 Z " fill="#3D4651" transform="translate(8,49)"/>
<path d="M0,0 L4,1 L7,1 L5,4 L6,7 L4,7 L4,5 L0,6 L1,3 Z " fill="#B3B7BA" transform="translate(82,49)"/>
<path d="M0,0 L5,0 L8,4 L3,6 L3,3 L0,2 Z " fill="#06111D" transform="translate(32,39)"/>
<path d="M0,0 L8,0 L8,3 L-1,3 Z " fill="#6A727B" transform="translate(18,139)"/>
<path d="M0,0 L10,0 L14,3 L10,4 L6,2 L0,1 Z " fill="#646C74" transform="translate(39,131)"/>
<path d="M0,0 L2,3 L1,7 L0,9 L-2,9 L-2,3 Z " fill="#565E68" transform="translate(44,84)"/>
<path d="M0,0 L2,0 L1,5 L-2,5 L-3,7 L-6,5 L-3,2 L1,3 Z " fill="#34404D" transform="translate(88,42)"/>
<path d="M0,0 L7,0 L6,3 L1,3 L-1,4 L-5,2 L-3,1 L0,2 Z " fill="#3C4650" transform="translate(27,31)"/>
<path d="M0,0 L2,1 L-2,8 L-4,8 L-5,11 L-4,4 Z " fill="#5D666E" transform="translate(20,21)"/>
<path d="M0,0 L9,0 L7,2 L4,3 L3,5 L-1,4 Z " fill="#353E47" transform="translate(113,12)"/>
<path d="M0,0 L7,2 L5,4 L-1,4 L-2,1 Z " fill="#192531" transform="translate(110,137)"/>
<path d="M0,0 L5,1 L8,2 L8,4 L2,4 L0,3 Z " fill="#373C47" transform="translate(73,134)"/>
<path d="M0,0 L2,2 L2,10 L-1,8 L-1,2 Z " fill="#ECECED" transform="translate(154,124)"/>
<path d="M0,0 L8,2 L6,3 L5,5 L2,5 L0,5 L-1,1 Z " fill="#1E2B36" transform="translate(33,108)"/>
<path d="M0,0 L6,1 L2,7 L1,5 L-1,5 Z " fill="#19222E" transform="translate(5,73)"/>
<path d="M0,0 L8,1 L7,3 L-3,2 Z " fill="#3E4753" transform="translate(86,139)"/>
<path d="M0,0 L7,1 L3,5 L-2,4 L-2,1 Z " fill="#151F2A" transform="translate(111,126)"/>
<path d="M0,0 L11,2 L7,4 L-1,3 Z " fill="#343E49" transform="translate(130,118)"/>
<path d="M0,0 L4,2 L5,6 L3,6 L2,8 L0,4 Z " fill="#151E2C" transform="translate(133,51)"/>
<path d="M0,0 L2,0 L2,2 L0,2 L0,4 L-2,4 L-2,6 L-6,7 L-6,5 L-4,5 L-4,1 Z " fill="#28333F" transform="translate(37,29)"/>
<path d="M0,0 L9,3 L8,5 L1,4 Z " fill="#555D67" transform="translate(109,8)"/>
<path d="M0,0 L1,2 L4,3 L-2,5 L-5,4 L-5,2 L0,2 Z " fill="#C9CACD" transform="translate(136,143)"/>
<path d="M0,0 L11,0 L13,1 L13,3 L0,2 Z " fill="#565E66" transform="translate(85,117)"/>
<path d="M0,0 L8,0 L5,3 L-3,2 Z " fill="#BBBEC1" transform="translate(86,109)"/>
<path d="M0,0 L1,2 L3,3 L4,6 L3,9 L0,8 L1,3 L-2,2 L0,2 Z " fill="#525C64" transform="translate(62,81)"/>
<path d="M0,0 L3,1 L4,10 L2,12 L1,8 L1,3 Z " fill="#505860" transform="translate(3,77)"/>
<path d="M0,0 L3,0 L4,4 L2,6 L-1,5 Z " fill="#535D66" transform="translate(97,36)"/>
<path d="M0,0 L2,0 L1,6 L-3,8 L-2,3 Z " fill="#848B91" transform="translate(15,33)"/>
<path d="M0,0 L2,0 L1,8 L-2,7 L-1,4 L-4,2 Z " fill="#26313D" transform="translate(57,22)"/>
<path d="M0,0 L9,1 L9,2 L-2,3 L-4,1 Z " fill="#C3C4C6" transform="translate(106,113)"/>
<path d="M0,0 L5,1 L8,3 L8,5 L3,5 L3,3 L1,3 Z " fill="#192A38" transform="translate(85,96)"/>
<path d="M0,0 L5,2 L7,7 L5,9 L5,6 L2,5 Z " fill="#3C4750" transform="translate(27,80)"/>
<path d="M0,0 L2,0 L2,2 L4,3 L1,6 L-1,6 L-2,2 Z " fill="#161F2A" transform="translate(84,54)"/>
<path d="M0,0 L5,2 L1,4 L-4,3 L-4,1 Z " fill="#57616B" transform="translate(105,28)"/>
<path d="M0,0 L2,0 L2,3 L-6,4 L-9,2 L-4,1 L0,2 Z " fill="#273542" transform="translate(129,95)"/>
<path d="M0,0 L7,0 L7,2 L0,3 Z " fill="#303F4B" transform="translate(34,92)"/>
<path d="M0,0 L6,1 L5,5 L3,5 L3,3 L0,3 Z " fill="#4C575F" transform="translate(56,89)"/>
<path d="M0,0 L2,0 L2,7 L4,8 L0,9 L-1,5 L1,5 Z " fill="#152332" transform="translate(81,70)"/>
<path d="M0,0 L1,2 L11,1 L10,4 L0,3 Z " fill="#23313E" transform="translate(114,31)"/>
<path d="M0,0 L5,0 L4,2 L-3,4 L-5,2 Z " fill="#686D73" transform="translate(52,22)"/>
<path d="M0,0 L5,1 L2,3 L-4,4 L-4,2 L0,2 Z " fill="#5A5C63" transform="translate(58,138)"/>
<path d="M0,0 L2,1 L1,4 L-6,4 L-4,1 Z " fill="#2A333F" transform="translate(145,131)"/>
<path d="M0,0 L3,1 L8,0 L8,3 L0,3 Z " fill="#384650" transform="translate(124,132)"/>
<path d="M0,0 L2,0 L3,2 L8,4 L6,6 L3,5 L0,2 Z " fill="#69727A" transform="translate(106,107)"/>
<path d="M0,0 L1,2 L-1,3 L-2,7 L-4,6 L-4,1 Z " fill="#5C636C" transform="translate(88,30)"/>
<path d="M0,0 L5,0 L5,2 L3,2 L3,4 L-2,4 L-1,2 Z " fill="#8C9398" transform="translate(100,9)"/>
<path d="M0,0 L6,0 L3,1 L3,3 L-2,3 L-3,1 Z " fill="#979CA2" transform="translate(19,142)"/>
<path d="M0,0 L9,1 L6,3 L1,2 Z " fill="#E2E5E5" transform="translate(10,141)"/>
<path d="M0,0 L7,0 L4,3 L-2,3 Z " fill="#1E2732" transform="translate(22,131)"/>
<path d="M0,0 L4,0 L4,3 L6,4 L-3,2 Z " fill="#878D92" transform="translate(88,126)"/>
<path d="M0,0 L5,1 L1,3 L-4,2 Z " fill="#232F3A" transform="translate(136,116)"/>
<path d="M0,0 L3,1 L6,5 L1,6 L2,2 L-2,1 Z " fill="#19222F" transform="translate(55,109)"/>
<path d="M0,0 L5,1 L10,3 L7,5 L4,5 L4,2 Z " fill="#535F68" transform="translate(32,104)"/>
<path d="M0,0 L2,0 L2,2 L5,1 L5,3 L-2,4 Z " fill="#16202C" transform="translate(119,103)"/>
<path d="M0,0 L2,0 L0,8 L-2,4 Z " fill="#505962" transform="translate(8,57)"/>
<path d="M0,0 L3,1 L2,6 L-2,4 Z " fill="#1D2733" transform="translate(23,45)"/>
<path d="M0,0 L1,4 L-1,6 L-3,5 L-3,1 Z " fill="#70757D" transform="translate(41,45)"/>
</svg>
