<?xml version="1.0" encoding="UTF-8"?>
<!-- Generator: visioncortex VTracer 0.6.5 -->
<svg version="1.1" xmlns="http://www.w3.org/2000/svg" width="193" height="153">
<path d="M0,0 L193,0 L193,153 L0,153 Z " fill="#0C1A26" transform="translate(0,0)"/>
<path d="M0,0 L193,0 L193,153 L0,153 L0,129 L12,129 L12,130 L7,131 L15,132 L11,136 L13,136 L13,134 L28,134 L28,135 L22,136 L34,137 L38,140 L38,141 L71,142 L71,143 L52,144 L149,144 L141,143 L141,142 L158,141 L148,140 L148,139 L158,138 L158,137 L169,136 L157,135 L157,134 L163,133 L163,132 L169,131 L165,129 L178,129 L178,126 L189,125 L179,124 L182,121 L186,120 L187,114 L184,113 L186,112 L185,110 L188,110 L187,104 L188,103 L176,101 L180,93 L182,93 L183,77 L184,76 L184,65 L182,60 L180,59 L179,55 L167,55 L166,63 L164,63 L166,68 L168,75 L169,78 L167,83 L164,82 L164,80 L162,80 L159,73 L159,69 L155,67 L154,63 L156,62 L157,56 L161,57 L161,47 L159,47 L159,50 L157,50 L157,45 L154,48 L152,48 L151,46 L149,48 L148,40 L150,40 L153,43 L154,39 L156,39 L156,43 L158,42 L159,39 L161,39 L161,43 L163,43 L163,29 L164,26 L161,26 L159,21 L163,18 L165,11 L155,11 L150,12 L147,9 L149,4 L138,5 L133,7 L128,6 L122,5 L121,9 L108,8 L107,13 L106,17 L91,17 L93,26 L97,27 L96,32 L91,37 L91,39 L93,40 L91,44 L86,49 L84,49 L81,32 L72,25 L72,20 L77,12 L61,16 L54,17 L53,20 L38,22 L37,27 L34,30 L27,32 L22,32 L24,38 L26,39 L24,44 L17,52 L16,54 L20,54 L18,60 L12,69 L12,72 L14,72 L11,83 L10,93 L11,93 L11,112 L13,112 L14,122 L9,124 L8,125 L0,125 Z " fill="#F4F4F5" transform="translate(0,0)"/>
<path d="M0,0 L10,0 L9,5 L11,7 L16,6 L26,6 L27,9 L24,15 L20,17 L22,22 L25,22 L25,37 L24,39 L22,39 L22,35 L20,35 L19,39 L17,39 L17,35 L15,35 L14,39 L11,38 L11,36 L9,36 L11,42 L13,41 L13,44 L15,44 L16,41 L18,41 L18,46 L20,46 L20,43 L22,43 L23,51 L22,53 L18,52 L18,58 L15,59 L18,64 L21,67 L22,72 L23,76 L25,76 L28,79 L29,72 L27,70 L25,63 L25,59 L27,59 L27,51 L28,50 L40,50 L41,55 L44,56 L46,61 L46,72 L45,73 L43,89 L41,89 L39,95 L38,96 L46,98 L47,101 L42,101 L42,107 L33,106 L20,104 L19,103 L7,101 L-6,102 L-6,104 L-20,106 L-19,109 L-16,109 L-17,112 L-25,113 L-29,112 L-36,112 L-37,114 L-44,113 L-44,112 L-53,111 L-53,109 L-59,111 L-65,110 L-65,109 L-59,109 L-59,107 L-63,106 L-60,104 L-61,102 L-58,102 L-58,99 L-61,100 L-81,97 L-85,96 L-90,98 L-101,100 L-111,100 L-107,99 L-106,94 L-103,89 L-100,90 L-97,91 L-95,91 L-94,89 L-94,92 L-88,89 L-84,86 L-79,87 L-70,85 L-69,90 L-72,90 L-72,92 L-69,91 L-68,93 L-65,93 L-64,84 L-58,84 L-56,82 L-55,84 L-56,78 L-54,78 L-54,80 L-52,80 L-53,76 L-45,76 L-44,68 L-42,66 L-38,67 L-38,69 L-36,70 L-36,68 L-31,68 L-30,70 L-28,65 L-24,66 L-23,69 L-20,70 L-25,64 L-31,64 L-35,57 L-34,50 L-36,50 L-42,49 L-49,46 L-45,43 L-40,42 L-39,46 L-33,44 L-33,42 L-31,42 L-31,37 L-28,36 L-26,37 L-26,40 L-25,38 L-23,38 L-22,35 L-17,36 L-17,34 L-15,34 L-15,32 L-17,32 L-17,28 L-13,28 L-13,21 L-2,21 L3,23 L4,30 L0,30 L0,26 L-1,26 L-6,25 L-5,30 L-9,32 L-5,31 L-4,29 L5,32 L5,22 L11,22 L11,20 L13,20 L12,16 L2,16 L-7,12 L-3,7 L-1,3 L4,2 Z " fill="#091825" transform="translate(139,4)"/>
<path d="M0,0 L1,0 L1,50 L-192,50 L-192,26 L-180,26 L-180,27 L-185,28 L-177,29 L-181,33 L-179,33 L-179,31 L-164,31 L-164,32 L-170,33 L-158,34 L-154,37 L-154,38 L-121,39 L-121,40 L-140,41 L-43,41 L-51,40 L-51,39 L-34,38 L-44,37 L-44,36 L-34,35 L-34,34 L-23,33 L-35,32 L-35,31 L-29,30 L-29,29 L-23,28 L-27,26 L-14,26 L-14,23 L-3,22 L-13,21 L-10,18 L-6,17 L-5,11 L-8,10 L-6,9 L-7,7 L-4,7 L-5,1 Z " fill="#EFEFF0" transform="translate(192,103)"/>
<path d="M0,0 L10,1 L18,2 L19,3 L42,7 L41,9 L28,14 L26,14 L25,17 L20,22 L7,28 L2,28 L-13,35 L-24,39 L-29,38 L-43,34 L-63,28 L-59,26 L-55,26 L-56,21 L-60,21 L-60,18 L-55,17 L-55,14 L-51,14 L-51,12 L-44,11 L-40,13 L-38,12 L-38,11 L-30,11 L-25,12 L-18,11 L-21,9 L-21,6 L-13,4 L-7,4 L-7,2 Z " fill="#485059" transform="translate(140,104)"/>
<path d="M0,0 L6,1 L11,2 L17,0 L22,1 L21,3 L16,4 L13,9 L11,11 L19,15 L26,15 L29,16 L30,20 L28,20 L28,22 L26,22 L25,24 L23,25 L22,32 L17,32 L13,29 L12,32 L8,32 L9,30 L12,30 L11,25 L16,25 L18,24 L17,29 L20,30 L19,23 L12,22 L5,22 L4,28 L0,30 L0,32 L2,32 L2,34 L0,34 L0,36 L-5,36 L-6,38 L-8,38 L-9,41 L-11,40 L-9,37 L-13,37 L-14,42 L-16,42 L-16,44 L-22,46 L-23,42 L-31,46 L-31,48 L-35,49 L-33,55 L-32,58 L-27,60 L-29,61 L-30,65 L-33,65 L-33,60 L-40,60 L-40,62 L-42,62 L-42,64 L-47,66 L-50,72 L-53,68 L-53,65 L-44,62 L-42,60 L-41,54 L-46,53 L-49,56 L-50,53 L-54,55 L-54,46 L-52,46 L-52,49 L-50,49 L-48,45 L-46,47 L-44,45 L-44,48 L-42,48 L-42,45 L-40,45 L-40,47 L-37,46 L-30,38 L-29,36 L-32,35 L-30,31 L-26,26 L-25,23 L-30,22 L-32,13 L-31,12 L-16,12 L-16,5 L-12,3 L-1,5 Z " fill="#24303B" transform="translate(122,4)"/>
<path d="M0,0 L3,1 L4,6 L1,6 L2,9 L-4,10 L-7,8 L-9,12 L-13,14 L-15,15 L-14,18 L-20,16 L-24,17 L-24,19 L-19,17 L-19,23 L-17,24 L-16,22 L-15,26 L-10,24 L-6,25 L-3,24 L0,24 L2,24 L2,21 L4,21 L4,18 L7,18 L8,16 L10,20 L11,18 L16,18 L13,22 L16,24 L13,24 L13,26 L11,26 L11,28 L14,29 L14,35 L17,35 L16,38 L8,39 L4,38 L-3,38 L-4,40 L-11,39 L-11,38 L-20,37 L-20,35 L-26,37 L-32,36 L-32,35 L-26,35 L-26,33 L-30,32 L-27,30 L-28,28 L-25,28 L-25,25 L-28,26 L-48,23 L-52,22 L-57,24 L-68,26 L-78,26 L-74,25 L-73,20 L-70,15 L-67,16 L-64,17 L-62,17 L-61,15 L-61,18 L-55,15 L-51,12 L-46,13 L-37,11 L-36,16 L-39,16 L-39,18 L-36,17 L-35,19 L-32,19 L-31,10 L-25,10 L-23,8 L-22,10 L-23,4 L-21,4 L-21,6 L-19,6 L-20,2 L-2,2 Z " fill="#0B1927" transform="translate(106,78)"/>
<path d="M0,0 L6,1 L3,3 L3,8 L1,9 L2,14 L4,16 L1,16 L2,19 L0,21 L5,23 L5,24 L-7,24 L-7,27 L-10,29 L-16,30 L-16,32 L-2,33 L-2,34 L-16,35 L-15,37 L-22,38 L-22,39 L-32,41 L-36,43 L-133,43 L-143,42 L-147,40 L-156,39 L-156,38 L-140,37 L-115,39 L-115,34 L-94,33 L-78,38 L-73,40 L-67,39 L-54,34 L-43,29 L-38,29 L-25,23 L-24,20 L-20,18 L-17,15 L-4,10 L-5,5 L-4,3 L-6,1 Z " fill="#2F363F" transform="translate(185,102)"/>
<path d="M0,0 L12,0 L12,1 L7,2 L15,3 L11,7 L13,7 L13,5 L28,5 L28,6 L22,7 L34,8 L38,11 L38,12 L71,13 L71,14 L52,15 L140,17 L140,18 L78,20 L71,21 L85,22 L85,24 L0,24 Z " fill="#F4F4F4" transform="translate(0,129)"/>
<path d="M0,0 L3,1 L1,1 L1,3 L-11,7 L-16,10 L-17,12 L-12,14 L-12,16 L-9,15 L-9,20 L-17,26 L-21,26 L-21,28 L-23,28 L-22,31 L-28,32 L-30,32 L-33,34 L-33,39 L-37,45 L-38,42 L-42,44 L-42,46 L-46,50 L-47,52 L-49,52 L-50,56 L-54,58 L-55,54 L-58,58 L-59,55 L-53,47 L-51,42 L-55,42 L-53,37 L-46,29 L-45,27 L-49,25 L-49,20 L-37,17 L-34,14 L-33,9 L-18,8 L-17,4 L-10,3 Z " fill="#25313D" transform="translate(71,12)"/>
<path d="M0,0 L3,1 L3,4 L0,5 L4,5 L2,11 L-1,10 L-7,13 L-3,14 L6,12 L4,14 L-16,21 L-23,22 L-34,19 L-40,19 L-39,21 L-29,22 L-29,23 L-41,23 L-58,21 L-62,19 L-62,21 L-64,21 L-63,18 L-71,17 L-68,15 L-75,14 L-75,10 L-67,9 L-65,7 L-61,7 L-60,2 L-57,5 L-55,4 L-57,8 L-58,10 L-50,11 L-47,13 L-45,7 L-48,5 L-45,4 L-45,2 L-18,6 L-18,8 L-8,5 L0,3 Z " fill="#222D39" transform="translate(75,115)"/>
<path d="M0,0 L5,1 L10,3 L17,2 L16,4 L14,4 L15,7 L14,11 L17,16 L21,17 L25,19 L28,22 L28,24 L24,23 L23,20 L20,20 L19,26 L17,22 L12,22 L12,24 L9,23 L9,21 L5,22 L3,30 L10,30 L10,31 L-4,31 L-4,34 L-6,34 L-6,38 L-10,39 L-17,38 L-17,34 L-13,35 L-13,33 L-23,34 L-25,35 L-23,31 L-19,24 L-16,19 L-11,18 L-11,16 L-9,16 L-9,14 L-5,13 L-2,14 L-2,19 L1,18 L3,14 L-1,12 L-3,9 L-3,6 L-5,5 L-2,2 L0,2 Z " fill="#141F2B" transform="translate(91,50)"/>
<path d="M0,0 L16,3 L26,5 L27,3 L28,5 L25,10 L23,11 L26,12 L26,14 L16,16 L4,20 L-3,19 L-10,18 L-14,19 L-27,16 L-27,14 L-23,14 L-23,12 L-25,11 L-25,9 L-23,8 L-25,6 L-5,2 Z " fill="#414B54" transform="translate(54,99)"/>
<path d="M0,0 L7,0 L23,5 L39,9 L43,12 L28,19 L17,23 L12,22 L-2,18 L-18,13 L-18,12 L-6,9 L6,5 L4,3 L5,2 L0,1 Z " fill="#AAAEB0" transform="translate(99,120)"/>
<path d="M0,0 L10,1 L18,2 L19,3 L42,7 L41,9 L28,14 L14,19 L7,19 L-7,15 L-10,13 L-10,10 L-14,11 L-20,7 L-19,5 L-7,4 L-7,2 Z " fill="#C9CBCB" transform="translate(140,104)"/>
<path d="M0,0 L6,1 L3,3 L3,8 L1,9 L2,14 L4,16 L1,16 L2,19 L0,21 L5,23 L5,24 L-7,24 L-7,27 L-10,29 L-16,30 L-16,32 L-28,33 L-42,33 L-42,35 L-50,37 L-54,37 L-54,39 L-62,40 L-61,37 L-44,30 L-41,29 L-37,28 L-25,23 L-24,20 L-20,18 L-17,15 L-4,10 L-5,5 L-4,3 L-6,1 Z " fill="#17222E" transform="translate(185,102)"/>
<path d="M0,0 L12,0 L13,5 L16,6 L18,11 L18,22 L14,26 L12,26 L9,32 L4,33 L2,32 L1,35 L-6,37 L-5,32 L-1,31 L1,22 L-1,20 L-3,13 L-3,9 L-1,9 L-1,1 Z " fill="#0F1D2A" transform="translate(167,54)"/>
<path d="M0,0 L13,2 L11,3 L13,6 L12,12 L10,14 L3,14 L3,19 L3,22 L-3,24 L-4,26 L-2,26 L-2,28 L-5,29 L-7,28 L-7,26 L-10,28 L-10,31 L-12,31 L-13,33 L-14,30 L-18,32 L-16,28 L-12,23 L-11,20 L-16,19 L-18,10 L-17,9 L-2,9 L-2,2 Z " fill="#636C74" transform="translate(108,7)"/>
<path d="M0,0 L3,3 L5,2 L3,6 L2,8 L10,9 L13,11 L13,9 L29,10 L35,12 L32,13 L35,14 L41,16 L41,17 L35,17 L40,19 L37,20 L26,17 L20,17 L21,19 L31,20 L31,21 L19,21 L2,19 L-2,17 L-2,19 L-4,19 L-3,16 L-11,15 L-8,13 L-15,12 L-15,8 L-7,7 L-5,5 L-1,5 Z " fill="#697077" transform="translate(15,117)"/>
<path d="M0,0 L2,1 L-1,4 L1,4 L1,6 L-1,7 L-1,11 L2,14 L4,19 L-2,19 L-2,21 L2,22 L0,26 L1,27 L0,31 L-3,32 L-2,36 L-5,33 L-8,24 L-8,18 L-10,22 L-13,25 L-13,42 L-14,44 L-16,44 L-17,38 L-17,26 L-18,26 L-18,19 L-13,4 L-10,3 L-11,8 L-12,11 L-10,12 L-11,18 L-10,19 L-9,11 L-7,6 Z " fill="#1E2835" transform="translate(27,68)"/>
<path d="M0,0 L14,3 L14,4 L7,4 L7,6 L3,5 L3,3 L0,5 L-4,5 L-4,8 L2,9 L1,13 L-6,13 L-12,12 L-4,14 L-4,15 L4,16 L3,18 L1,18 L1,20 L-10,18 L-14,19 L-27,16 L-27,14 L-23,14 L-23,12 L-25,11 L-25,9 L-23,8 L-25,6 L-5,2 Z " fill="#4F5861" transform="translate(54,99)"/>
<path d="M0,0 L10,0 L9,5 L11,7 L16,6 L26,6 L27,9 L25,14 L20,16 L20,14 L15,15 L13,14 L15,17 L14,21 L12,18 L12,16 L2,16 L-7,12 L-3,7 L-1,3 L4,2 Z " fill="#0A1723" transform="translate(139,4)"/>
<path d="M0,0 L12,2 L29,7 L32,9 L36,9 L39,10 L28,15 L20,14 L11,11 L-8,6 L-8,4 L-15,2 L-15,1 L0,1 Z " fill="#757B82" transform="translate(119,117)"/>
<path d="M0,0 L6,1 L11,2 L17,0 L22,1 L21,3 L15,5 L12,8 L7,8 L6,7 L4,13 L6,14 L5,17 L2,18 L4,20 L0,20 L0,24 L-2,24 L-4,21 L-6,21 L-4,22 L-4,24 L-7,24 L-4,28 L-8,28 L-8,26 L-10,26 L-11,30 L-8,32 L-12,34 L-14,25 L-11,24 L-12,20 L-11,16 L-4,16 L-2,13 L-3,6 L-1,6 L-1,1 Z " fill="#4B545E" transform="translate(122,4)"/>
<path d="M0,0 L3,1 L3,6 L2,9 L3,12 L7,6 L10,7 L10,9 L12,9 L10,13 L8,17 L7,14 L3,16 L3,18 L-1,22 L-2,24 L-4,24 L-5,28 L-9,30 L-10,26 L-13,30 L-14,27 L-8,19 L-6,14 L-10,14 L-8,9 Z " fill="#26323D" transform="translate(26,40)"/>
<path d="M0,0 L2,0 L2,2 L9,3 L15,5 L15,6 L-4,6 L-3,9 L-4,11 L-21,11 L-29,10 L-50,9 L-50,8 L-38,7 L-45,6 L-45,5 L-40,4 L-40,3 L-33,3 L-22,6 L-15,5 Z " fill="#0C1722" transform="translate(74,130)"/>
<path d="M0,0 L3,0 L3,8 L2,15 L0,15 L-2,21 L-5,22 L-5,24 L-22,23 L-19,22 L-19,19 L-17,19 L-16,16 L-14,16 L-14,14 L-11,13 L-12,10 L-11,8 L-4,8 L-3,4 Z " fill="#091622" transform="translate(180,78)"/>
<path d="M0,0 L3,2 L5,0 L5,3 L7,3 L7,0 L9,0 L9,2 L15,0 L18,1 L18,3 L14,4 L16,10 L17,13 L22,15 L20,16 L19,20 L16,20 L16,15 L9,15 L9,17 L7,17 L7,19 L2,21 L-1,27 L-4,23 L-4,20 L5,17 L7,15 L8,9 L3,8 L0,11 L-1,8 L-5,10 L-5,1 L-3,1 L-3,4 L-1,4 Z " fill="#39444E" transform="translate(73,49)"/>
<path d="M0,0 L40,0 L40,1 L26,2 L27,4 L20,5 L20,6 L10,8 L6,10 L-18,9 L-22,7 L-19,6 L-12,6 L-12,4 L0,2 Z " fill="#697077" transform="translate(143,135)"/>
<path d="M0,0 L7,0 L23,5 L39,9 L43,12 L28,19 L17,23 L12,22 L2,19 L2,18 L17,18 L33,12 L34,11 L26,8 L18,9 L18,5 L9,7 L-4,11 L-7,11 L-7,13 L-10,12 L-10,10 L6,5 L4,3 L5,2 L0,1 Z " fill="#C2C5C7" transform="translate(99,120)"/>
<path d="M0,0 L3,0 L4,3 L6,3 L7,0 L9,0 L9,5 L11,5 L11,2 L13,2 L14,10 L13,12 L-8,14 L-8,12 L-16,14 L-21,13 L-20,8 L-16,7 L-20,12 L-14,11 L-1,11 L-1,7 L-14,8 L-15,6 L-13,6 L-13,3 L-6,4 L-5,1 L-3,3 Z " fill="#182430" transform="translate(148,45)"/>
<path d="M0,0 L3,1 L1,1 L1,3 L-11,7 L-16,10 L-18,13 L-22,13 L-24,18 L-29,18 L-30,20 L-32,20 L-36,26 L-38,25 L-36,22 L-43,22 L-48,24 L-47,20 L-37,17 L-34,14 L-33,9 L-18,8 L-17,4 L-10,3 Z " fill="#3E4751" transform="translate(71,12)"/>
<path d="M0,0 L10,1 L18,2 L19,3 L32,5 L31,9 L25,11 L25,13 L16,10 L11,9 L14,7 L-1,8 L0,5 L-7,5 L-7,2 Z " fill="#BBBDBE" transform="translate(140,104)"/>
<path d="M0,0 L12,0 L12,3 L10,4 L10,10 L8,10 L7,12 L12,13 L8,16 L7,21 L1,22 L-1,20 L-3,13 L-3,9 L-1,9 L-1,1 Z " fill="#4E5962" transform="translate(167,54)"/>
<path d="M0,0 L3,1 L3,4 L-9,8 L-19,11 L-21,13 L-30,12 L-46,10 L-45,7 L-48,5 L-45,4 L-45,2 L-18,6 L-18,8 L-8,5 L0,3 Z " fill="#686F76" transform="translate(75,115)"/>
<path d="M0,0 L5,0 L6,2 L12,4 L14,7 L3,11 L-6,14 L-13,15 L-16,13 L-8,12 L-9,7 L-13,7 L-13,4 Z " fill="#5D636B" transform="translate(93,118)"/>
<path d="M0,0 L2,1 L-1,6 L5,10 L4,13 L3,11 L-9,13 L-12,12 L-18,17 L-22,16 L-27,17 L-28,15 L-30,15 L-33,20 L-37,21 L-36,15 L-32,14 L-31,11 L-21,10 L-11,7 L-9,6 L-3,6 L-1,1 Z " fill="#2A3540" transform="translate(66,79)"/>
<path d="M0,0 L31,0 L70,1 L70,2 L41,3 L-20,3 L-20,1 Z " fill="#9B9EA2" transform="translate(70,145)"/>
<path d="M0,0 L11,1 L11,2 L5,3 L5,5 L-7,6 L-21,6 L-21,8 L-29,10 L-33,10 L-33,12 L-41,13 L-40,10 L-23,3 L-20,2 L-11,1 Z " fill="#3C444C" transform="translate(164,129)"/>
<path d="M0,0 L10,2 L11,5 L6,5 L6,11 L-3,10 L-16,8 L-14,6 L-17,4 L-17,2 L-15,1 L-5,1 L0,2 Z " fill="#16212D" transform="translate(175,100)"/>
<path d="M0,0 L9,2 L12,4 L8,7 L-6,12 L-16,12 L-13,10 L-16,8 L-5,2 Z " fill="#878A90" transform="translate(122,127)"/>
<path d="M0,0 L7,1 L9,2 L8,11 L4,12 L6,10 L2,9 L1,12 L-2,9 L-5,9 L-5,12 L-7,12 L-7,15 L-10,16 L-10,14 L-21,13 L-27,11 L-27,10 L-16,10 L-15,11 L-10,11 L-4,4 L-1,4 Z " fill="#29333B" transform="translate(115,87)"/>
<path d="M0,0 L4,2 L1,2 L2,5 L0,7 L5,9 L5,10 L-7,10 L-7,13 L-22,12 L-21,7 L-19,5 L-11,5 L-9,2 L0,2 Z " fill="#2C3641" transform="translate(185,116)"/>
<path d="M0,0 L13,2 L11,3 L13,6 L12,12 L10,14 L3,14 L-1,10 L-2,2 Z " fill="#0E1D2A" transform="translate(108,7)"/>
<path d="M0,0 L10,0 L13,2 L24,2 L27,4 L24,5 L12,5 L12,7 L19,6 L39,6 L39,8 L5,8 L5,6 L1,5 Z " fill="#60676F" transform="translate(70,136)"/>
<path d="M0,0 L2,4 L2,7 L-2,8 L-3,6 L-4,8 L-5,9 L-2,13 L-2,15 L-4,15 L-3,19 L-16,21 L-18,22 L-16,18 L-12,11 L-9,6 L-4,5 L-4,3 L-2,3 L-2,1 Z " fill="#202C39" transform="translate(84,63)"/>
<path d="M0,0 L5,1 L7,2 L9,7 L3,7 L3,9 L7,10 L5,14 L6,15 L5,19 L2,20 L3,24 L0,21 L-3,12 L-3,1 Z " fill="#242F39" transform="translate(22,80)"/>
<path d="M0,0 L1,3 L-1,11 L-9,18 L-12,30 L-14,29 L-13,23 L-14,19 L-12,14 L-19,16 L-17,11 L-15,11 L-12,8 L-11,12 L-8,11 L-7,7 L-5,7 L-3,3 L-4,1 Z " fill="#182430" transform="translate(29,57)"/>
<path d="M0,0 L3,1 L5,3 L-2,6 L-8,8 L-5,9 L-10,11 L-14,10 L-26,10 L-25,8 L-38,5 L-38,4 L-29,5 L-17,7 L-16,4 Z " fill="#121C27" transform="translate(72,105)"/>
<path d="M0,0 L3,1 L4,6 L1,6 L2,9 L-4,10 L-7,8 L-9,12 L-13,14 L-15,15 L-16,10 L-14,5 L-20,3 L-20,2 L-2,2 Z " fill="#071420" transform="translate(106,78)"/>
<path d="M0,0 L10,0 L14,2 L15,7 L10,12 L2,11 L-1,4 Z " fill="#1F2934" transform="translate(91,16)"/>
<path d="M0,0 L4,0 L2,6 L-1,5 L-7,8 L-3,9 L6,7 L4,9 L-16,16 L-20,17 L-27,14 L-24,13 L-19,13 L-17,9 L-12,8 L-12,5 L-8,6 L-2,3 L-2,1 Z " fill="#404B56" transform="translate(75,120)"/>
<path d="M0,0 L1,0 L0,7 L-3,7 L-6,13 L-11,14 L-13,13 L-14,16 L-21,18 L-20,13 L-16,12 L-13,3 L-11,5 L-4,5 L-5,2 L-1,2 Z " fill="#0D1F2E" transform="translate(182,73)"/>
<path d="M0,0 L13,1 L13,4 L16,6 L12,8 L13,10 L3,9 L3,6 L-1,7 L-7,3 L-6,1 Z " fill="#C3C7C9" transform="translate(127,108)"/>
<path d="M0,0 L11,2 L19,4 L19,5 L27,6 L26,8 L24,8 L24,10 L13,8 L9,9 L-4,6 L-4,4 L0,4 Z " fill="#6B7279" transform="translate(31,109)"/>
<path d="M0,0 L13,0 L13,2 L46,3 L46,4 L27,5 L27,6 L17,7 L17,8 L6,8 L6,6 L1,3 L1,5 L-5,5 L-2,3 L0,3 Z " fill="#AEB2B6" transform="translate(25,139)"/>
<path d="M0,0 L3,3 L5,2 L3,6 L2,8 L10,9 L11,11 L-3,12 L-15,12 L-15,8 L-7,7 L-5,5 L-1,5 Z " fill="#192734" transform="translate(15,117)"/>
<path d="M0,0 L11,2 L11,1 L20,2 L22,3 L22,5 L32,3 L34,2 L41,2 L42,4 L26,9 L24,8 L25,7 L1,3 Z " fill="#2D3741" transform="translate(31,115)"/>
<path d="M0,0 L9,1 L10,5 L8,5 L8,7 L6,7 L5,9 L3,10 L2,17 L-3,17 L-7,14 L-8,17 L-12,17 L-11,15 L-8,15 L-9,10 L-4,10 L-2,9 L-3,14 L0,15 L-1,7 L2,3 L0,2 Z " fill="#142331" transform="translate(142,19)"/>
<path d="M0,0 L14,1 L28,6 L28,7 L20,8 L20,6 L9,4 L7,4 L7,6 L11,7 L2,6 L-6,4 L-6,2 Z " fill="#2C363F" transform="translate(120,120)"/>
<path d="M0,0 L7,0 L7,4 L2,5 L1,7 L-11,8 L-11,11 L-16,10 L-14,8 L-17,8 L-17,6 Z " fill="#81848A" transform="translate(110,125)"/>
<path d="M0,0 L5,0 L1,2 L-1,8 L9,10 L12,11 L11,14 L9,13 L5,14 L1,13 L-2,14 L-4,12 L-7,11 L-7,6 L-11,7 L-11,5 L-5,3 L-3,4 L-4,1 L-2,1 L-1,2 Z " fill="#172633" transform="translate(93,90)"/>
<path d="M0,0 L8,1 L6,4 L1,7 L7,6 L5,8 L5,9 L12,9 L21,7 L18,10 L13,12 L6,12 L-8,8 L-9,6 L-1,7 L-4,5 L1,3 L-1,1 Z " fill="#D0D2D2" transform="translate(141,111)"/>
<path d="M0,0 L7,0 L18,3 L18,5 L22,6 L22,8 L-10,6 L-10,5 L2,4 L-5,3 L-5,2 L0,1 Z " fill="#1F2B36" transform="translate(34,133)"/>
<path d="M0,0 L2,0 L3,2 L6,3 L6,1 L15,0 L19,1 L19,3 L3,7 L-8,5 L-5,4 L-5,2 Z " fill="#434B56" transform="translate(55,102)"/>
<path d="M0,0 L5,0 L8,3 L13,3 L18,8 L18,10 L14,9 L13,6 L10,6 L9,12 L7,8 L2,8 L2,10 L-1,9 L0,3 L-2,2 Z " fill="#33404B" transform="translate(101,64)"/>
<path d="M0,0 L3,0 L4,3 L6,3 L7,0 L9,0 L8,4 L6,7 L-14,8 L-15,6 L-13,6 L-13,3 L-6,4 L-5,1 L-3,3 Z " fill="#1E2934" transform="translate(148,45)"/>
<path d="M0,0 L5,2 L5,4 L8,3 L8,8 L0,13 L-1,9 L2,8 L-2,9 L-4,12 L-8,10 L-4,9 L-5,2 Z " fill="#1B2633" transform="translate(54,24)"/>
<path d="M0,0 L3,1 L1,1 L1,3 L-11,7 L-16,10 L-18,13 L-21,12 L-33,10 L-33,9 L-18,8 L-17,4 L-10,3 Z " fill="#434D57" transform="translate(71,12)"/>
<path d="M0,0 L2,0 L2,2 L6,2 L7,5 L3,6 L1,10 L-2,11 L-2,9 L-5,9 L-7,15 L-9,15 L-8,10 L-6,7 L-8,7 L-8,5 L-4,3 L-3,5 Z " fill="#3B454F" transform="translate(99,33)"/>
<path d="M0,0 L4,0 L4,2 L2,2 L0,7 L-4,8 L-4,10 L-2,11 L-2,14 L-7,13 L-11,19 L-13,15 L-12,12 L-10,11 L-8,6 L-3,4 L-2,5 Z " fill="#1A2633" transform="translate(40,34)"/>
<path d="M0,0 L10,3 L15,5 L14,7 L-7,8 L-7,6 L5,5 L5,4 L-7,4 L-9,1 Z " fill="#242B36" transform="translate(89,135)"/>
<path d="M0,0 L10,0 L15,1 L14,5 L6,7 L-1,7 L1,5 L-2,3 L-2,1 Z " fill="#2C3741" transform="translate(160,101)"/>
<path d="M0,0 L3,0 L1,6 L-1,9 L-3,13 L-7,14 L-8,12 L-10,11 L-8,9 L-5,9 L-6,5 L-8,5 L-8,8 L-10,8 L-10,6 L-12,5 L-2,3 L-2,1 Z " fill="#142230" transform="translate(74,12)"/>
<path d="M0,0 L1,3 L1,6 L6,4 L7,7 L10,7 L9,10 L1,11 L-6,8 L-7,5 Z " fill="#1A2836" transform="translate(113,106)"/>
<path d="M0,0 L3,2 L4,5 L6,12 L8,14 L1,16 L-2,15 L-4,5 L0,6 L-1,3 L-2,1 Z " fill="#152230" transform="translate(27,93)"/>
<path d="M0,0 L10,0 L11,3 L9,8 L4,10 L4,8 L0,7 L2,4 L-3,4 L-4,2 Z " fill="#232E3A" transform="translate(155,10)"/>
<path d="M0,0 L6,1 L3,3 L3,8 L1,9 L2,14 L-7,12 L-4,9 L-5,5 L-4,3 L-6,1 Z " fill="#5D666E" transform="translate(185,102)"/>
<path d="M0,0 L2,3 L2,5 L6,4 L13,2 L14,4 L18,1 L18,3 L22,3 L22,9 L21,7 L11,7 L4,8 L0,5 Z " fill="#1E2935" transform="translate(59,55)"/>
<path d="M0,0 L3,1 L5,3 L10,2 L9,4 L-5,9 L-15,9 L-11,5 L-2,3 L-4,2 Z " fill="#70737B" transform="translate(121,130)"/>
<path d="M0,0 L15,1 L32,2 L33,0 L33,2 L41,2 L37,4 L0,3 L-9,2 L-9,1 Z " fill="#2F3942" transform="translate(38,139)"/>
<path d="M0,0 L3,0 L3,2 L11,1 L16,3 L20,3 L20,5 L3,7 L4,4 L-3,4 L-3,1 Z " fill="#656973" transform="translate(136,105)"/>
<path d="M0,0 L7,1 L9,2 L8,11 L4,12 L6,10 L1,9 L0,7 Z " fill="#464F57" transform="translate(115,87)"/>
<path d="M0,0 L1,3 L3,3 L4,6 L3,9 L9,12 L5,13 L3,13 L3,15 L-1,14 L-1,17 L-3,17 L-4,19 L-5,13 L-3,12 L-4,10 L0,10 L-1,3 Z " fill="#323D48" transform="translate(127,11)"/>
<path d="M0,0 L5,0 L9,2 L11,1 L11,0 L19,0 L18,3 L16,4 L21,6 L19,7 L7,5 L7,3 L-6,6 L-6,3 L-2,3 L-2,1 Z " fill="#3F4852" transform="translate(91,115)"/>
<path d="M0,0 L3,1 L21,2 L21,3 L-20,3 L-30,2 L-30,1 Z " fill="#1C252F" transform="translate(72,142)"/>
<path d="M0,0 L5,0 L6,3 L6,14 L5,17 L1,17 Z " fill="#93979D" transform="translate(167,57)"/>
<path d="M0,0 L2,0 L2,4 L4,3 L5,0 L7,0 L7,4 L9,5 L5,6 L5,11 L3,11 L3,6 L0,9 L-2,9 L-3,7 L-5,9 L-6,1 L-4,1 L-1,4 Z " fill="#E4E5E6" transform="translate(154,39)"/>
<path d="M0,0 L2,1 L-1,4 L1,4 L1,6 L-1,7 L-1,11 L-3,13 L-7,14 L-9,19 L-10,15 L-7,6 Z " fill="#313D48" transform="translate(27,68)"/>
<path d="M0,0 L10,1 L9,4 L0,4 L-2,8 L-6,8 L-8,3 Z " fill="#28323C" transform="translate(176,114)"/>
<path d="M0,0 L21,3 L20,6 L13,6 L4,4 L-6,4 L-6,2 Z " fill="#48515A" transform="translate(35,106)"/>
<path d="M0,0 L1,4 L5,4 L5,6 L3,8 L5,9 L-2,13 L-3,15 L-4,11 L-4,7 L-6,6 L-3,3 L-1,3 Z " fill="#121E2A" transform="translate(117,39)"/>
<path d="M0,0 L5,1 L5,3 L2,4 L1,8 L-9,8 L-15,7 L-15,6 L-9,5 L-13,3 L0,3 Z " fill="#BDBFC2" transform="translate(178,126)"/>
<path d="M0,0 L1,0 L1,5 L3,5 L3,7 L5,7 L2,18 L1,22 L-1,21 L0,15 L-1,11 L1,6 L-6,8 L-4,3 L-2,3 Z " fill="#16212C" transform="translate(16,65)"/>
<path d="M0,0 L5,1 L12,7 L11,9 L8,8 L3,9 L7,6 L4,6 L3,4 L1,10 L0,8 L-5,6 L-4,3 L0,2 Z " fill="#2F3A43" transform="translate(91,50)"/>
<path d="M0,0 L16,1 L22,3 L19,4 L14,3 L14,5 L19,6 L15,7 L-2,3 L0,2 Z " fill="#626870" transform="translate(28,126)"/>
<path d="M0,0 L3,2 L5,0 L5,3 L7,4 L1,11 L-1,10 L-1,8 L-5,10 L-5,1 L-3,1 L-3,4 L-1,4 Z " fill="#E2E4E5" transform="translate(73,49)"/>
<path d="M0,0 L2,0 L2,3 L6,1 L14,1 L10,7 L4,8 L0,5 Z " fill="#15202D" transform="translate(22,32)"/>
<path d="M0,0 L5,1 L6,3 L11,4 L11,6 L15,7 L7,10 L0,11 L-3,9 L5,8 L4,3 L0,3 Z " fill="#586066" transform="translate(80,122)"/>
<path d="M0,0 L14,0 L12,2 L8,3 L14,5 L14,6 L1,8 L0,5 L-2,4 L-2,2 L0,2 Z " fill="#222F3B" transform="translate(119,102)"/>
<path d="M0,0 L2,0 L1,5 L0,8 L2,9 L0,16 L-5,15 L-3,6 Z " fill="#202C39" transform="translate(15,71)"/>
<path d="M0,0 L17,1 L17,2 L3,3 L3,5 L-10,5 L-11,3 L-3,3 L-3,1 Z " fill="#A7A9AD" transform="translate(17,136)"/>
<path d="M0,0 L1,3 L-1,10 L-3,13 L-5,12 L-3,9 L-10,9 L-15,11 L-14,7 L-4,4 Z " fill="#3D4853" transform="translate(38,25)"/>
<path d="M0,0 L10,0 L11,3 L7,5 L1,5 L1,7 L-1,7 L0,4 L-8,3 L-5,1 Z " fill="#5C636B" transform="translate(12,129)"/>
<path d="M0,0 L2,0 L2,2 L8,0 L11,1 L11,3 L7,4 L6,7 L4,7 L3,9 L-1,7 Z " fill="#677078" transform="translate(80,49)"/>
<path d="M0,0 L2,2 L1,8 L-1,13 L-8,15 L-7,10 L-3,9 Z " fill="#465059" transform="translate(169,76)"/>
<path d="M0,0 L3,1 L3,6 L-1,9 L-3,14 L-4,11 L-5,10 L-9,11 L-3,4 Z " fill="#5D666F" transform="translate(26,40)"/>
<path d="M0,0 L4,1 L7,3 L-1,5 L-5,5 L-5,7 L-13,8 L-12,5 Z " fill="#222B37" transform="translate(136,134)"/>
<path d="M0,0 L4,1 L7,1 L6,5 L4,7 L-8,7 L-8,5 L-3,4 L-1,3 Z " fill="#1B2936" transform="translate(138,19)"/>
<path d="M0,0 L3,1 L-10,6 L-20,7 L-18,6 L-17,2 L-11,1 L-6,2 Z " fill="#34404A" transform="translate(78,127)"/>
<path d="M0,0 L3,1 L0,2 L0,4 L5,4 L8,2 L14,2 L14,4 L8,6 L8,8 L-1,5 L-6,4 L-3,2 Z " fill="#555B66" transform="translate(157,109)"/>
<path d="M0,0 L2,1 L2,4 L-1,5 L0,7 L-2,8 L0,11 L-4,13 L-5,17 L-8,18 L-7,14 L-7,10 Z " fill="#1F4246" transform="translate(141,78)"/>
<path d="M0,0 L3,0 L4,8 L3,10 L-3,9 L-3,2 Z " fill="#060F18" transform="translate(64,51)"/>
<path d="M0,0 L4,1 L7,0 L10,0 L10,2 L8,2 L8,4 L6,4 L5,6 L5,4 L-4,8 L-8,6 L-4,4 L-4,6 L-2,6 Z " fill="#303944" transform="translate(94,42)"/>
<path d="M0,0 L4,2 L8,3 L11,4 L9,9 L5,8 L7,11 L6,15 L4,12 L2,3 L0,3 Z " fill="#17242F" transform="translate(147,10)"/>
<path d="M0,0 L3,1 L3,3 L5,3 L4,9 L-2,10 L-1,6 L-9,6 L-5,4 L0,4 Z " fill="#142635" transform="translate(148,95)"/>
<path d="M0,0 L2,0 L1,5 L3,7 L0,8 L-1,13 L-3,13 L-3,15 L-7,16 L-5,11 L-3,11 L-3,9 L-6,10 L-5,7 L-2,4 Z " fill="#1B2835" transform="translate(31,63)"/>
<path d="M0,0 L3,2 L0,11 L-2,12 L-3,8 L-6,12 L-7,9 L-1,1 Z " fill="#404B55" transform="translate(19,58)"/>
<path d="M0,0 L7,1 L9,4 L9,9 L5,9 L5,5 L4,5 L1,5 L0,3 L-3,1 Z " fill="#121D28" transform="translate(134,25)"/>
<path d="M0,0 L3,0 L3,2 L5,3 L-5,6 L-8,5 L-12,3 L-15,1 L0,1 Z " fill="#8D9295" transform="translate(119,117)"/>
<path d="M0,0 L9,1 L21,3 L22,0 L26,2 L24,2 L23,5 L21,6 L12,6 L13,4 L0,1 Z " fill="#24313D" transform="translate(34,109)"/>
<path d="M0,0 L2,0 L4,6 L9,8 L7,9 L6,13 L3,13 L3,8 L-1,7 L2,5 L0,5 L-1,1 Z " fill="#2A3542" transform="translate(86,56)"/>
<path d="M0,0 L5,3 L10,7 L11,13 L8,14 L7,16 L7,12 L7,8 L5,8 L2,5 L-1,3 Z " fill="#1F2B36" transform="translate(72,25)"/>
<path d="M0,0 L2,1 L5,3 L0,5 L0,8 L3,9 L2,13 L-1,12 L0,11 L-4,9 L-6,4 L-3,5 Z " fill="#1D2935" transform="translate(94,53)"/>
<path d="M0,0 L1,4 L4,5 L5,9 L4,11 L-1,10 L-3,6 L-2,2 L0,2 Z " fill="#1E2C3A" transform="translate(179,55)"/>
<path d="M0,0 L1,4 L3,1 L4,2 L4,7 L1,8 L-2,11 L-3,8 L-2,6 L-6,6 L-5,3 Z " fill="#404A53" transform="translate(22,48)"/>
<path d="M0,0 L6,1 L5,3 L-1,5 L-4,8 L-9,8 L-8,3 Z " fill="#5B656E" transform="translate(138,4)"/>
<path d="M0,0 L1,2 L3,2 L4,7 L0,8 L-7,7 L-7,3 L-3,4 L-3,2 Z " fill="#142331" transform="translate(81,81)"/>
<path d="M0,0 L5,0 L6,3 L1,6 L-7,6 L-7,5 L-1,3 L-12,6 L-11,3 Z " fill="#868E92" transform="translate(93,118)"/>
<path d="M0,0 L13,1 L12,3 L3,6 L-2,5 L2,3 L2,1 Z " fill="#BABDC1" transform="translate(169,110)"/>
<path d="M0,0 L2,0 L3,2 L3,8 L10,8 L10,9 L0,9 L-3,8 L-2,1 Z " fill="#27333F" transform="translate(91,72)"/>
<path d="M0,0 L14,0 L26,1 L26,2 L12,3 L0,3 Z " fill="#8B9095" transform="translate(0,126)"/>
<path d="M0,0 L8,1 L19,5 L19,6 L11,7 L11,5 L0,3 L-2,3 L-2,1 Z " fill="#383F48" transform="translate(129,121)"/>
<path d="M0,0 L5,0 L5,2 L0,3 L0,5 L9,4 L9,6 L-4,8 L-6,9 L-4,5 Z " fill="#35414B" transform="translate(72,76)"/>
<path d="M0,0 L4,0 L5,4 L7,5 L3,6 L3,4 L1,4 L1,7 L-3,7 L-6,3 L-3,1 L-3,3 Z " fill="#1F2A36" transform="translate(79,45)"/>
<path d="M0,0 L1,2 L-17,3 L-17,4 L-25,4 L-25,2 L-29,1 Z " fill="#D3D5D5" transform="translate(140,146)"/>
<path d="M0,0 L15,1 L16,3 L0,4 L0,3 L-7,2 L-7,1 Z " fill="#797F86" transform="translate(174,123)"/>
<path d="M0,0 L9,1 L26,6 L29,8 L21,7 L12,4 L2,2 Z " fill="#DDDFE0" transform="translate(122,118)"/>
<path d="M0,0 L13,0 L12,5 L8,5 L8,3 L1,3 L1,5 L-5,5 L-2,3 L0,3 Z " fill="#94989D" transform="translate(25,139)"/>
<path d="M0,0 L4,0 L5,4 L1,6 L-6,6 L-8,4 L-5,3 L-4,1 Z " fill="#8A8D96" transform="translate(152,115)"/>
<path d="M0,0 L12,1 L13,3 L9,3 L8,6 L4,5 L-1,2 Z " fill="#888D91" transform="translate(121,109)"/>
<path d="M0,0 L10,2 L9,6 L5,4 L2,4 L2,9 L-1,8 L-2,2 Z " fill="#4D5760" transform="translate(108,7)"/>
<path d="M0,0 L2,1 L3,17 L2,19 L0,19 L-1,13 Z " fill="#25313E" transform="translate(11,93)"/>
<path d="M0,0 L2,0 L2,2 L6,2 L7,5 L-1,8 L-3,8 L-2,2 Z " fill="#404B56" transform="translate(99,33)"/>
<path d="M0,0 L3,1 L2,3 L-1,3 L0,10 L-6,11 L-7,7 L-4,6 Z " fill="#232D38" transform="translate(50,23)"/>
<path d="M0,0 L3,1 L1,1 L3,4 L2,10 L0,12 L-7,12 L-3,9 L-1,9 L0,2 L-2,1 Z " fill="#212D3B" transform="translate(118,9)"/>
<path d="M0,0 L10,1 L8,3 L1,4 L1,7 L-4,6 L-2,4 L-5,4 L-5,2 Z " fill="#585D65" transform="translate(98,129)"/>
<path d="M0,0 L7,0 L7,2 L17,3 L23,4 L23,5 L14,5 L5,3 L-4,2 Z " fill="#A7ABB1" transform="translate(33,104)"/>
<path d="M0,0 L1,2 L-2,9 L-3,7 L-14,6 L-20,4 L-20,3 L-9,3 L-8,4 L-3,4 Z " fill="#343D47" transform="translate(108,94)"/>
<path d="M0,0 L2,4 L2,6 L5,7 L3,8 L-5,7 L-6,5 L-4,1 Z " fill="#05111D" transform="translate(75,96)"/>
<path d="M0,0 L2,1 L8,0 L10,3 L6,3 L6,5 L3,8 L0,7 Z " fill="#111F2A" transform="translate(160,89)"/>
<path d="M0,0 L5,1 L7,2 L9,7 L3,7 L1,5 L0,7 L-1,1 Z " fill="#1A2734" transform="translate(22,80)"/>
<path d="M0,0 L2,4 L2,7 L-2,8 L-3,6 L-4,8 L-6,8 L-6,10 L-9,10 L-9,6 L-4,5 L-4,3 L-2,3 L-2,1 Z " fill="#2A343E" transform="translate(84,63)"/>
<path d="M0,0 L6,0 L6,3 L9,5 L9,12 L8,14 L6,14 L6,5 L1,5 Z " fill="#495461" transform="translate(155,29)"/>
<path d="M0,0 L4,2 L1,2 L2,5 L-8,6 L-9,2 L0,2 Z " fill="#545C65" transform="translate(185,116)"/>
<path d="M0,0 L20,1 L20,2 L15,3 L0,3 Z " fill="#85898E" transform="translate(143,139)"/>
<path d="M0,0 L3,1 L-5,5 L-12,5 L-19,3 L-19,2 L-6,2 Z " fill="#DDDFDE" transform="translate(159,118)"/>
<path d="M0,0 L5,0 L3,2 L0,2 L1,6 L-10,9 L-7,5 L-3,3 L-5,1 Z " fill="#ABAEB1" transform="translate(151,110)"/>
<path d="M0,0 L5,0 L7,3 L8,9 L6,9 L6,11 L2,12 L0,10 L3,9 L3,7 L6,7 L4,2 L-2,4 Z " fill="#1A2833" transform="translate(104,77)"/>
<path d="M0,0 L8,1 L5,3 L-1,5 L-3,6 L-7,5 L-7,3 Z " fill="#8F9499" transform="translate(164,108)"/>
<path d="M0,0 L12,0 L12,3 L9,4 L-1,3 Z " fill="#444C55" transform="translate(167,54)"/>
<path d="M0,0 L4,2 L4,4 L10,4 L11,2 L10,8 L6,8 L6,5 L-1,6 L-1,4 L2,4 L2,2 L-1,1 Z " fill="#27313D" transform="translate(116,24)"/>
<path d="M0,0 L6,1 L9,5 L7,6 L-1,5 Z " fill="#38424B" transform="translate(122,4)"/>
<path d="M0,0 L2,0 L1,3 L-4,8 L-7,8 L-6,6 L-11,7 L-8,3 Z " fill="#656D73" transform="translate(164,118)"/>
<path d="M0,0 L3,1 L-1,5 L5,4 L13,4 L17,6 L11,7 L11,5 L3,7 L-2,6 L-1,1 Z " fill="#2B353F" transform="translate(129,52)"/>
<path d="M0,0 L10,0 L10,4 L5,3 L5,8 L2,11 L0,11 L0,9 L3,7 L4,2 Z " fill="#2E3741" transform="translate(139,4)"/>
<path d="M0,0 L3,3 L19,4 L19,5 L-1,5 L-5,3 L-4,1 Z " fill="#474E54" transform="translate(122,140)"/>
<path d="M0,0 L3,0 L3,2 L-13,6 L-21,5 L-21,4 L-6,2 Z " fill="#666C72" transform="translate(71,103)"/>
<path d="M0,0 L7,1 L9,2 L9,4 L2,4 L2,9 L0,7 Z " fill="#919499" transform="translate(115,87)"/>
<path d="M0,0 L1,0 L2,5 L2,16 L0,17 L-2,10 L-2,6 L0,6 Z " fill="#545B62" transform="translate(166,57)"/>
<path d="M0,0 L21,0 L21,2 L19,3 L10,3 L10,2 L0,1 Z " fill="#D0D3D5" transform="translate(148,139)"/>
<path d="M0,0 L8,0 L11,2 L8,3 L-6,3 L-3,1 Z " fill="#8D9296" transform="translate(86,138)"/>
<path d="M0,0 L3,0 L2,3 L-7,5 L-9,6 L-17,6 L-17,5 Z " fill="#111C28" transform="translate(70,114)"/>
<path d="M0,0 L11,2 L11,1 L16,1 L17,4 L11,5 L1,3 Z " fill="#424B54" transform="translate(31,115)"/>
<path d="M0,0 L1,0 L1,5 L-2,7 L-3,11 L-5,16 L-6,12 L-3,3 Z " fill="#4B565E" transform="translate(23,71)"/>
<path d="M0,0 L4,1 L2,7 L-1,9 L-4,6 L-3,4 L-1,4 Z " fill="#1D2B37" transform="translate(22,64)"/>
<path d="M0,0 L7,0 L13,2 L13,3 L-5,3 L-5,2 L0,1 Z " fill="#09121D" transform="translate(34,133)"/>
<path d="M0,0 L4,0 L4,4 L-3,5 L-10,4 L-10,3 L-2,2 Z " fill="#434D59" transform="translate(10,122)"/>
<path d="M0,0 L2,2 L-1,7 L-6,8 L-5,6 L-7,4 L-6,1 L0,2 Z " fill="#424E57" transform="translate(80,102)"/>
<path d="M0,0 L3,1 L2,4 L-3,5 L-3,9 L-5,9 L-6,12 L-8,11 L-6,4 L1,3 Z " fill="#1D2F3C" transform="translate(177,75)"/>
<path d="M0,0 L7,0 L7,4 L-1,4 L-3,2 Z " fill="#030D17" transform="translate(140,52)"/>
<path d="M0,0 L3,4 L-9,7 L-10,5 L-8,5 L-8,2 L-1,3 Z " fill="#343D47" transform="translate(143,46)"/>
<path d="M0,0 L7,2 L7,3 L-7,4 L-9,1 Z " fill="#2C3541" transform="translate(89,135)"/>
<path d="M0,0 L7,1 L3,4 L-3,5 L-8,4 L-5,2 Z " fill="#8C9095" transform="translate(100,123)"/>
<path d="M0,0 L4,0 L2,6 L-1,5 L-5,7 L-8,6 L-2,3 L-2,1 Z " fill="#37434C" transform="translate(75,120)"/>
<path d="M0,0 L2,1 L6,0 L10,1 L6,3 L7,5 L-3,4 L-2,1 Z " fill="#A0A1A7" transform="translate(133,113)"/>
<path d="M0,0 L13,0 L13,2 L-4,4 L-3,2 L0,2 Z " fill="#7F8288" transform="translate(143,108)"/>
<path d="M0,0 L5,0 L10,5 L10,7 L6,6 L5,3 L2,3 L1,9 L0,9 L0,2 L-2,1 Z " fill="#384450" transform="translate(109,67)"/>
<path d="M0,0 L8,0 L9,3 L-2,4 Z " fill="#09141E" transform="translate(130,53)"/>
<path d="M0,0 L5,0 L4,4 L-1,4 L-5,8 L-6,5 L-3,2 Z " fill="#1A2733" transform="translate(130,49)"/>
<path d="M0,0 L6,1 L14,4 L18,6 L15,7 L2,3 Z " fill="#75797F" transform="translate(126,116)"/>
<path d="M0,0 L8,0 L9,4 L7,4 L7,1 L0,5 L-3,5 L-1,1 Z " fill="#142431" transform="translate(132,37)"/>
<path d="M0,0 L1,2 L1,5 L1,9 L-1,9 L-2,11 L-3,8 L-7,10 L-5,6 Z " fill="#596269" transform="translate(97,29)"/>
<path d="M0,0 L3,0 L3,2 L5,3 L4,10 L1,9 L0,5 L1,3 L-1,3 Z " fill="#27323F" transform="translate(105,30)"/>
<path d="M0,0 L2,0 L3,9 L2,11 L-4,10 L-4,7 L0,7 Z " fill="#192531" transform="translate(126,25)"/>
<path d="M0,0 L8,0 L9,2 L0,4 L-4,3 Z " fill="#576169" transform="translate(155,10)"/>
<path d="M0,0 L15,0 L15,1 L4,1 L4,3 L1,3 L1,5 L-2,5 L-2,2 L0,2 Z " fill="#D5D7D9" transform="translate(13,134)"/>
<path d="M0,0 L3,0 L3,2 L-2,3 L-1,5 L-13,4 L-13,3 Z " fill="#424D55" transform="translate(49,88)"/>
<path d="M0,0 L4,4 L7,5 L3,8 L1,12 L0,11 Z " fill="#2D3843" transform="translate(19,81)"/>
<path d="M0,0 L4,1 L0,2 L1,7 L-7,6 L-6,4 L-3,4 Z " fill="#343E48" transform="translate(53,31)"/>
<path d="M0,0 L0,3 L-1,7 L-4,5 L-5,8 L-9,8 L-8,6 L-5,6 L-6,1 L-1,1 Z " fill="#828991" transform="translate(139,28)"/>
<path d="M0,0 L8,0 L10,3 L-7,3 L-7,2 L0,2 Z " fill="#424952" transform="translate(131,139)"/>
<path d="M0,0 L14,0 L13,2 L11,2 L11,4 L0,1 Z " fill="#9B9EA0" transform="translate(44,115)"/>
<path d="M0,0 L6,1 L3,3 L3,5 L-4,5 L-4,3 L-6,1 Z " fill="#3D444F" transform="translate(185,102)"/>
<path d="M0,0 L3,0 L5,7 L6,11 L2,9 Z " fill="#212C38" transform="translate(156,69)"/>
<path d="M0,0 L1,3 L-4,5 L-6,11 L-8,8 L-8,4 L-1,3 Z " fill="#2E3945" transform="translate(36,35)"/>
<path d="M0,0 L6,0 L8,4 L0,4 L-2,8 L-4,2 Z " fill="#606971" transform="translate(95,16)"/>
<path d="M0,0 L3,1 L1,1 L1,3 L-11,6 L-10,3 Z " fill="#5C6871" transform="translate(71,12)"/>
<path d="M0,0 L3,1 L-8,6 L-11,6 L-11,3 Z " fill="#B5B9BA" transform="translate(155,126)"/>
<path d="M0,0 L6,3 L10,4 L14,3 L11,6 L5,7 L3,4 L0,3 Z " fill="#555B64" transform="translate(119,110)"/>
<path d="M0,0 L4,2 L-6,5 L-12,5 L-8,2 Z " fill="#303943" transform="translate(73,109)"/>
<path d="M0,0 L2,2 L3,10 L-2,9 Z " fill="#414D57" transform="translate(12,77)"/>
<path d="M0,0 L5,0 L3,5 L-2,6 L-2,9 L-5,8 L-3,3 L0,2 Z " fill="#29333C" transform="translate(88,68)"/>
<path d="M0,0 L2,3 L2,5 L10,4 L9,8 L2,7 L0,5 Z " fill="#283540" transform="translate(59,55)"/>
<path d="M0,0 L4,0 L4,2 L8,3 L8,5 L0,4 Z " fill="#12222F" transform="translate(48,136)"/>
<path d="M0,0 L10,1 L15,1 L14,5 L2,2 Z " fill="#3A434C" transform="translate(40,128)"/>
<path d="M0,0 L7,0 L12,2 L12,4 L4,4 L5,2 L0,1 Z " fill="#B1B6B9" transform="translate(99,120)"/>
<path d="M0,0 L10,1 L9,4 L-1,3 Z " fill="#313B45" transform="translate(176,114)"/>
<path d="M0,0 L4,1 L4,8 L-1,9 L-1,7 L1,7 L1,4 L-1,3 Z " fill="#0E1824" transform="translate(85,63)"/>
<path d="M0,0 L2,1 L2,4 L0,7 L-2,7 L-3,11 L-5,11 L-3,5 Z " fill="#303B45" transform="translate(24,57)"/>
<path d="M0,0 L5,0 L5,2 L3,2 L3,4 L1,4 L0,6 L0,4 L-5,5 L-3,4 L-3,2 Z " fill="#27323D" transform="translate(99,42)"/>
<path d="M0,0 L2,3 L1,5 L-1,5 L-2,9 L-4,9 L-4,3 L-2,2 Z " fill="#172331" transform="translate(160,34)"/>
<path d="M0,0 L2,0 L2,5 L-6,10 L-7,6 L-2,5 Z " fill="#13212F" transform="translate(60,27)"/>
<path d="M0,0 L11,0 L8,3 L2,4 Z " fill="#101B28" transform="translate(37,22)"/>
<path d="M0,0 L5,1 L6,6 L1,11 L1,8 L3,3 Z " fill="#27313D" transform="translate(100,17)"/>
<path d="M0,0 L7,0 L8,2 L0,3 L-9,2 L-9,1 Z " fill="#595F69" transform="translate(38,139)"/>
<path d="M0,0 L5,2 L6,0 L6,3 L0,4 L-6,2 L-6,1 Z " fill="#898E92" transform="translate(87,131)"/>
<path d="M0,0 L2,0 L2,2 L5,2 L4,4 L-1,6 L-3,4 Z " fill="#050E18" transform="translate(74,130)"/>
<path d="M0,0 L2,1 L2,4 L-1,5 L0,7 L-6,10 L-4,5 Z " fill="#6E787D" transform="translate(141,78)"/>
<path d="M0,0 L4,3 L-3,7 L-4,9 L-5,5 Z " fill="#1A2835" transform="translate(118,45)"/>
<path d="M0,0 L4,2 L2,2 L3,9 L1,8 L1,3 L-5,5 L-5,3 Z " fill="#142331" transform="translate(66,48)"/>
<path d="M0,0 L2,0 L2,4 L4,5 L0,6 L0,11 L-2,11 L-1,3 Z " fill="#E0E2E2" transform="translate(159,39)"/>
<path d="M0,0 L1,4 L0,6 L3,8 L-1,10 L-3,1 Z " fill="#444E57" transform="translate(111,28)"/>
<path d="M0,0 L2,1 L0,5 L-4,6 L-5,4 L-7,3 L-5,1 Z " fill="#313E48" transform="translate(71,20)"/>
<path d="M0,0 L0,3 L-4,7 L-6,7 L-6,5 L-8,5 L-7,1 L-7,3 L-1,1 Z " fill="#1A2632" transform="translate(136,9)"/>
<path d="M0,0 L10,0 L7,3 L-1,4 Z " fill="#969A9E" transform="translate(124,130)"/>
<path d="M0,0 L6,0 L6,2 L4,2 L4,4 L-4,3 L-4,1 Z " fill="#3B434B" transform="translate(118,121)"/>
<path d="M0,0 L8,0 L8,2 L12,3 L8,4 L2,3 L2,1 Z " fill="#6E747C" transform="translate(38,103)"/>
<path d="M0,0 L1,4 L-7,7 L-6,2 L0,2 Z " fill="#353E49" transform="translate(168,84)"/>
<path d="M0,0 L5,4 L4,6 L-2,4 Z M1,6 L6,7 L6,8 L1,8 Z " fill="#11212D" transform="translate(99,84)"/>
<path d="M0,0 L1,4 L3,4 L2,11 L0,14 Z " fill="#CACDCF" transform="translate(168,59)"/>
<path d="M0,0 L4,0 L2,4 L-3,5 L-3,1 Z " fill="#0B1824" transform="translate(28,33)"/>
<path d="M0,0 L5,2 L6,5 L2,7 L-1,6 Z " fill="#777F86" transform="translate(97,27)"/>
<path d="M0,0 L2,2 L2,7 L-2,7 L-2,3 Z " fill="#06121D" transform="translate(141,27)"/>
<path d="M0,0 L8,2 L8,3 L-6,4 L-5,2 Z " fill="#202A32" transform="translate(156,127)"/>
<path d="M0,0 L4,2 L0,3 L-3,3 L-3,5 L-7,3 L-6,1 Z " fill="#1A2530" transform="translate(64,107)"/>
<path d="M0,0 L10,1 L9,3 L-1,3 Z " fill="#A0A5A9" transform="translate(140,104)"/>
<path d="M0,0 L11,1 L11,2 L4,2 L4,4 L0,3 Z " fill="#586169" transform="translate(57,101)"/>
<path d="M0,0 L4,1 L2,7 L-4,8 L-4,5 L0,6 Z " fill="#3C444D" transform="translate(172,68)"/>
<path d="M0,0 L4,1 L3,4 L0,4 L-1,6 L-1,1 Z M-3,6 L-1,6 L-1,9 L-3,9 Z " fill="#121F2B" transform="translate(109,40)"/>
<path d="M0,0 L8,0 L5,3 L5,1 L3,1 L3,3 L1,3 L0,5 L-2,1 Z " fill="#626B72" transform="translate(121,9)"/>
<path d="M0,0 L4,1 L4,3 L8,4 L2,5 L0,4 Z " fill="#3C454F" transform="translate(87,125)"/>
<path d="M0,0 L3,3 L-4,7 L-6,6 L-2,2 L0,2 Z " fill="#27333F" transform="translate(71,120)"/>
<path d="M0,0 L9,1 L14,2 L12,4 L2,2 Z " fill="#C8CBCC" transform="translate(122,118)"/>
<path d="M0,0 L4,1 L3,5 L-5,3 L-2,1 Z " fill="#4E545C" transform="translate(183,111)"/>
<path d="M0,0 L5,0 L0,5 L-3,5 L-3,2 L0,2 Z " fill="#192633" transform="translate(48,91)"/>
<path d="M0,0 L2,0 L3,5 L-3,5 L-2,1 Z " fill="#666E76" transform="translate(91,72)"/>
<path d="M0,0 L5,0 L6,3 L2,5 L2,3 L-2,2 Z " fill="#A0A6AB" transform="translate(101,64)"/>
<path d="M0,0 L6,0 L6,4 L1,5 Z " fill="#1D2A34" transform="translate(62,134)"/>
<path d="M0,0 L3,0 L3,2 L10,3 L10,4 L4,5 L0,4 Z " fill="#0D1826" transform="translate(110,112)"/>
<path d="M0,0 L5,1 L3,2 L2,6 L-1,6 Z " fill="#C5C7C9" transform="translate(90,63)"/>
<path d="M0,0 L1,3 L-1,6 L-6,6 L-5,3 Z " fill="#1B2432" transform="translate(22,48)"/>
<path d="M0,0 L2,0 L1,4 L-1,7 L-4,7 L-3,3 L-1,3 Z " fill="#36414C" transform="translate(155,45)"/>
<path d="M0,0 L3,1 L-2,4 L-7,6 L-6,2 Z " fill="#525B65" transform="translate(30,30)"/>
<path d="M0,0 L7,1 L6,3 L0,4 L-1,1 Z " fill="#D7D6D7" transform="translate(135,130)"/>
<path d="M0,0 L4,1 L6,3 L-3,5 L-1,4 Z " fill="#1C2834" transform="translate(61,129)"/>
<path d="M0,0 L10,2 L10,3 L-4,4 L-4,2 Z " fill="#3A434D" transform="translate(175,120)"/>
<path d="M0,0 L3,0 L4,3 L-3,4 L-3,1 Z " fill="#7A8086" transform="translate(136,105)"/>
<path d="M0,0 L1,3 L0,7 L-1,9 L-3,8 L-3,1 Z " fill="#1C2631" transform="translate(24,87)"/>
<path d="M0,0 L1,2 L3,2 L4,7 L0,8 L-2,7 L0,3 Z " fill="#202D39" transform="translate(81,81)"/>
<path d="M0,0 L3,1 L1,5 L4,6 L-3,6 L-1,5 L-2,2 Z " fill="#0E1925" transform="translate(87,72)"/>
<path d="M0,0 L3,0 L3,2 L1,2 L1,4 L-1,4 L-1,6 L-5,5 L-2,2 L0,2 Z " fill="#424B55" transform="translate(91,50)"/>
<path d="M0,0 L2,0 L3,6 L0,7 L-1,9 L-1,5 Z " fill="#414A55" transform="translate(80,32)"/>
<path d="M0,0 L2,0 L2,2 L5,2 L3,6 L-2,5 Z " fill="#2A3441" transform="translate(112,30)"/>
<path d="M0,0 L8,0 L6,3 L0,3 Z " fill="#14202B" transform="translate(29,132)"/>
<path d="M0,0 L2,3 L-5,6 L-6,3 L0,2 Z " fill="#111B27" transform="translate(82,126)"/>
<path d="M0,0 L2,0 L2,3 L-3,5 L-5,6 L-4,1 Z " fill="#A7AAAC" transform="translate(12,119)"/>
<path d="M0,0 L11,0 L12,2 L6,3 L0,1 Z " fill="#3D4853" transform="translate(88,97)"/>
<path d="M0,0 L2,3 L2,8 L1,6 L-1,6 L-1,4 L-3,4 L-2,1 Z " fill="#283541" transform="translate(107,66)"/>
<path d="M0,0 L2,1 L5,3 L-1,6 L-2,3 Z " fill="#17202C" transform="translate(94,53)"/>
<path d="M0,0 L3,2 L5,0 L5,3 L7,4 L4,6 L4,4 L-1,4 Z " fill="#DBDDDF" transform="translate(73,49)"/>
<path d="M0,0 L3,1 L3,6 L0,8 L-1,6 L-1,3 Z " fill="#4A535C" transform="translate(26,40)"/>
<path d="M0,0 L2,0 L5,4 L1,8 Z " fill="#EBECEC" transform="translate(148,40)"/>
<path d="M0,0 L4,2 L6,3 L5,5 L-3,4 Z " fill="#050F1C" transform="translate(135,33)"/>
<path d="M0,0 L4,2 L6,4 L0,6 L-1,2 Z " fill="#59616B" transform="translate(106,24)"/>
<path d="M0,0 L4,3 L0,3 L0,7 L-2,7 L-4,3 L0,2 Z " fill="#47515B" transform="translate(122,21)"/>
<path d="M0,0 L3,0 L1,4 L-6,4 L-2,1 Z " fill="#2C3844" transform="translate(117,17)"/>
<path d="M0,0 L14,0 L13,3 L0,1 Z " fill="#131D28" transform="translate(12,128)"/>
<path d="M0,0 L2,2 L-4,5 L-4,3 L-8,1 Z " fill="#BDBFC1" transform="translate(138,111)"/>
<path d="M0,0 L7,0 L8,4 L3,4 Z " fill="#25313D" transform="translate(173,107)"/>
<path d="M0,0 L3,1 L3,3 L5,3 L5,5 L2,6 L0,5 Z " fill="#798289" transform="translate(148,95)"/>
<path d="M0,0 L1,2 L4,2 L5,6 L1,6 L-2,2 Z " fill="#3A454F" transform="translate(75,46)"/>
<path d="M0,0 L1,3 L0,8 L-3,7 L-4,4 Z " fill="#556068" transform="translate(38,25)"/>
<path d="M0,0 L7,0 L7,3 L0,3 Z " fill="#D7D8D9" transform="translate(0,122)"/>
<path d="M0,0 L4,2 L1,2 L2,5 L-3,5 L-4,2 L0,2 Z " fill="#969AA0" transform="translate(185,116)"/>
<path d="M0,0 L3,1 L5,3 L-1,5 L-3,3 Z " fill="#18202A" transform="translate(72,105)"/>
<path d="M0,0 L9,1 L9,2 L1,3 L-3,1 Z " fill="#363F49" transform="translate(124,106)"/>
<path d="M0,0 L7,2 L6,5 L4,4 L0,5 L0,2 Z " fill="#1F2C39" transform="translate(98,99)"/>
<path d="M0,0 L4,1 L5,3 L1,3 L0,5 L0,3 L-2,3 L-2,1 Z " fill="#1E2A34" transform="translate(165,89)"/>
<path d="M0,0 L5,0 L7,4 L5,4 L4,2 L-2,4 Z " fill="#2B343D" transform="translate(104,77)"/>
<path d="M0,0 L2,4 L0,8 L-2,4 L-2,1 Z " fill="#49515A" transform="translate(71,68)"/>
<path d="M0,0 L3,4 L-5,4 L-4,1 Z " fill="#5C6068" transform="translate(122,140)"/>
<path d="M0,0 L5,0 L5,3 L0,4 Z " fill="#E3E4E5" transform="translate(20,139)"/>
<path d="M0,0 L7,2 L7,3 L-1,4 Z " fill="#464F57" transform="translate(141,124)"/>
<path d="M0,0 L5,1 L3,3 L-4,2 Z " fill="#ACB0B3" transform="translate(136,125)"/>
<path d="M0,0 L2,0 L3,5 L-3,4 L-3,2 Z " fill="#9AA0A3" transform="translate(160,109)"/>
<path d="M0,0 L4,2 L3,3 L-6,3 L-2,1 Z " fill="#303943" transform="translate(58,86)"/>
<path d="M0,0 L5,1 L5,3 L-2,3 L-2,1 Z " fill="#15212F" transform="translate(74,78)"/>
<path d="M0,0 L2,0 L1,5 L-1,7 L-2,3 Z " fill="#3D4750" transform="translate(15,71)"/>
<path d="M0,0 L4,2 L5,6 L3,6 L3,4 L-1,4 Z " fill="#4E5964" transform="translate(78,54)"/>
<path d="M0,0 L2,0 L2,2 L-1,2 L-2,5 L-7,4 L-3,1 Z " fill="#16212B" transform="translate(97,46)"/>
<path d="M0,0 L3,2 L-2,4 L-2,6 L-4,6 L-3,1 Z " fill="#81898E" transform="translate(133,6)"/>
</svg>
