<?xml version="1.0" encoding="UTF-8"?>
<!-- Generator: visioncortex VTracer 0.6.5 -->
<svg version="1.1" xmlns="http://www.w3.org/2000/svg" width="151" height="154">
<path d="M0,0 L151,0 L151,154 L0,154 Z " fill="#F4F4F4" transform="translate(0,0)"/>
<path d="M0,0 L10,1 L15,2 L29,3 L29,7 L27,8 L44,10 L44,12 L40,13 L40,15 L42,16 L39,17 L39,19 L41,20 L42,24 L43,27 L48,28 L48,30 L45,31 L46,34 L43,36 L44,40 L42,40 L42,42 L45,43 L45,47 L45,51 L50,52 L50,54 L47,56 L47,58 L45,60 L45,63 L53,63 L57,67 L57,77 L55,91 L52,99 L58,99 L58,101 L62,103 L61,106 L66,106 L66,107 L56,108 L58,110 L64,111 L64,112 L57,113 L58,115 L44,116 L44,118 L37,118 L43,119 L43,120 L36,120 L36,122 L32,123 L16,123 L16,121 L-12,121 L-8,119 L-31,118 L-33,115 L-39,114 L-39,112 L-49,112 L-52,111 L-52,113 L-55,113 L-55,111 L-53,110 L-57,107 L-56,106 L-58,104 L-56,104 L-55,101 L-50,101 L-51,96 L-49,96 L-49,92 L-51,91 L-49,83 L-52,82 L-51,81 L-54,80 L-54,78 L-51,75 L-51,73 L-49,73 L-48,67 L-50,67 L-50,65 L-48,64 L-49,61 L-48,59 L-51,59 L-51,57 L-53,56 L-52,53 L-46,51 L-45,48 L-48,47 L-44,43 L-47,42 L-44,42 L-45,38 L-44,36 L-47,35 L-45,35 L-46,31 L-45,29 L-49,28 L-45,27 L-45,25 L-49,24 L-48,21 L-42,18 L-41,16 L-44,16 L-44,14 L-36,13 L-36,14 L-27,16 L-21,16 L-35,13 L-33,11 L-30,9 L-29,7 L-12,3 Z " fill="#1F2A36" transform="translate(73,27)"/>
<path d="M0,0 L10,1 L15,2 L29,3 L29,7 L27,8 L44,10 L44,12 L40,13 L40,15 L42,16 L39,17 L39,19 L41,20 L42,24 L43,27 L48,28 L48,30 L45,31 L46,34 L41,33 L41,31 L35,32 L35,34 L20,38 L17,39 L17,41 L7,41 L7,38 L5,38 L6,43 L-7,42 L5,44 L6,46 L5,48 L-1,46 L-2,45 L-33,42 L-45,39 L-44,36 L-47,35 L-45,35 L-46,31 L-45,29 L-49,28 L-45,27 L-45,25 L-49,24 L-48,21 L-42,18 L-41,16 L-44,16 L-44,14 L-36,13 L-36,14 L-27,16 L-21,16 L-35,13 L-33,11 L-30,9 L-29,7 L-12,3 Z " fill="#4A545D" transform="translate(73,27)"/>
<path d="M0,0 L7,0 L6,2 L-10,5 L-10,7 L-6,9 L-9,10 L-6,11 L-10,13 L1,11 L7,11 L3,13 L-17,17 L-20,18 L-13,17 L-1,14 L10,13 L6,15 L-10,19 L-18,21 L-12,23 L-11,20 L-4,19 L25,20 L25,21 L18,22 L19,24 L5,25 L5,27 L-2,27 L4,28 L4,29 L-3,29 L-3,31 L-7,32 L-23,32 L-23,30 L-51,30 L-47,28 L-70,27 L-72,24 L-78,23 L-78,21 L-88,21 L-91,20 L-91,22 L-94,22 L-94,20 L-92,19 L-96,16 L-95,15 L-97,13 L-95,13 L-94,10 L-89,10 L-90,5 L-88,5 L-87,1 L-78,1 L-76,3 L-87,3 L-87,6 L-80,5 L-60,8 L-35,11 L-35,13 L-46,12 L-58,11 L-45,13 L-48,15 L-44,15 L-44,14 L-25,12 L-15,9 L-18,8 L-22,9 L-19,6 L-12,3 Z " fill="#5F6870" transform="translate(112,118)"/>
<path d="M0,0 L15,1 L16,2 L25,2 L28,4 L26,4 L26,8 L28,9 L30,9 L34,8 L34,11 L38,12 L38,16 L44,14 L49,15 L52,16 L53,18 L55,14 L60,15 L60,17 L63,17 L60,26 L69,26 L69,27 L56,28 L48,28 L43,29 L64,30 L62,32 L57,34 L56,35 L60,37 L58,40 L54,42 L46,42 L46,44 L31,43 L28,41 L38,41 L29,39 L33,37 L4,37 L2,36 L4,28 L1,27 L2,26 L-1,25 L-1,23 L2,20 L2,18 L4,18 L5,12 L3,12 L3,10 L5,9 L4,6 L5,4 L2,4 L2,2 Z M32,13 L30,15 L35,16 L34,13 Z " fill="#0D1C2A" transform="translate(20,82)"/>
<path d="M0,0 L10,1 L15,2 L29,3 L29,7 L27,8 L44,10 L44,12 L40,13 L40,15 L42,16 L39,17 L39,19 L41,20 L42,24 L43,27 L47,27 L47,29 L39,30 L23,30 L23,28 L27,28 L27,26 L22,28 L13,29 L15,30 L15,32 L4,32 L-4,30 L-4,29 L19,26 L15,24 L22,22 L21,21 L16,23 L11,23 L11,25 L14,26 L3,27 L3,25 L-6,24 L-6,23 L2,23 L3,22 L-4,22 L-4,21 L8,19 L-6,19 L-5,17 L-14,16 L-21,16 L-35,13 L-33,11 L-30,9 L-29,7 L-12,3 Z " fill="#202A35" transform="translate(73,27)"/>
<path d="M0,0 L6,0 L6,5 L5,7 L5,13 L-11,16 L-19,19 L-20,20 L-15,21 L-17,23 L-33,27 L-44,28 L-41,30 L-50,29 L-56,28 L-52,26 L-63,24 L-63,23 L-48,24 L-37,26 L-37,24 L-46,24 L-78,20 L-85,19 L-89,19 L-89,16 L-80,15 L-89,14 L-89,13 L-61,13 L-59,15 L-56,17 L-49,18 L-49,19 L-63,19 L-48,21 L-48,19 L-42,18 L-40,15 L-35,14 L-40,13 L-36,9 L-32,8 L-51,7 L-54,5 L-38,4 L-12,2 Z " fill="#252E39" transform="translate(114,105)"/>
<path d="M0,0 L21,1 L49,4 L58,7 L58,5 L64,5 L68,3 L78,1 L89,1 L89,2 L80,4 L80,6 L75,7 L73,9 L75,12 L73,12 L73,14 L75,14 L75,16 L80,16 L80,14 L85,14 L87,17 L76,20 L79,22 L71,22 L70,26 L73,27 L60,27 L60,22 L62,22 L63,18 L60,18 L59,16 L55,16 L54,21 L50,19 L48,16 L44,16 L42,20 L41,17 L38,17 L38,13 L34,14 L34,11 L32,11 L16,11 L7,10 L7,9 L26,9 L25,4 L12,4 L12,3 L0,1 Z M74,9 Z M32,14 L35,15 L35,17 L30,16 Z " fill="#081622" transform="translate(20,81)"/>
<path d="M0,0 L12,1 L14,2 L21,2 L19,0 L24,1 L25,2 L34,3 L31,5 L46,5 L46,7 L41,8 L62,9 L60,11 L55,13 L54,14 L58,16 L56,19 L52,21 L44,21 L44,23 L29,22 L26,20 L36,20 L27,18 L31,16 L2,16 L0,15 L2,7 L-1,6 L0,5 L-3,4 L-3,2 Z " fill="#18212B" transform="translate(22,103)"/>
<path d="M0,0 L6,0 L7,4 L6,6 L8,7 L9,11 L10,14 L14,14 L14,16 L6,17 L-10,17 L-10,15 L-6,15 L-6,13 L-11,15 L-20,16 L-18,17 L-18,19 L-29,19 L-37,17 L-37,16 L-14,13 L-18,11 L-11,9 L-12,8 L-17,10 L-22,10 L-22,12 L-19,13 L-30,14 L-30,12 L-39,11 L-39,10 L-31,10 L-30,9 L-37,9 L-37,8 L-25,6 Z " fill="#29343E" transform="translate(106,40)"/>
<path d="M0,0 L6,0 L2,2 L-14,6 L-22,8 L-16,10 L-15,7 L-8,6 L21,7 L21,8 L14,9 L15,11 L1,12 L1,14 L-6,14 L0,15 L0,16 L-7,16 L-7,18 L-11,19 L-27,19 L-27,17 L-55,17 L-51,15 L-33,13 L-33,10 L-28,8 L-29,6 L-17,4 L-5,1 Z " fill="#323E49" transform="translate(116,131)"/>
<path d="M0,0 L5,1 L5,8 L3,14 L9,14 L9,16 L13,18 L12,21 L17,21 L17,22 L7,23 L9,25 L-19,26 L-22,29 L-30,28 L-28,26 L-10,21 L-19,23 L-26,25 L-32,25 L-30,23 L-18,20 L-9,18 L-20,20 L-25,20 L-21,18 L-19,17 L-23,16 L-20,15 L-22,13 L-22,11 L-16,9 L-9,9 L-8,12 L-3,11 L0,7 Z " fill="#27303B" transform="translate(122,112)"/>
<path d="M0,0 L13,0 L36,3 L36,4 L15,3 L41,6 L41,7 L25,7 L43,9 L43,10 L35,11 L44,12 L44,13 L31,13 L43,14 L49,14 L49,15 L44,15 L44,17 L8,13 L-12,11 L-8,9 L-6,8 L-5,5 L-8,4 L-3,1 Z " fill="#586169" transform="translate(33,70)"/>
<path d="M0,0 L6,0 L6,5 L5,7 L5,13 L-6,15 L-11,15 L-13,14 L-20,14 L-20,13 L-15,12 L-16,10 L-7,8 L-7,10 L-4,9 L-6,7 L0,5 L-9,7 L-22,11 L-34,13 L-40,13 L-36,9 L-32,8 L-51,7 L-54,5 L-38,4 L-12,2 Z " fill="#1C2936" transform="translate(114,105)"/>
<path d="M0,0 L10,1 L15,2 L29,3 L27,4 L27,6 L4,11 L-8,10 L-18,9 L-18,11 L2,14 L2,15 L-35,13 L-33,11 L-30,9 L-29,7 L-12,3 Z " fill="#565F67" transform="translate(73,27)"/>
<path d="M0,0 L4,1 L13,3 L25,3 L26,2 L35,3 L43,4 L47,5 L52,5 L48,7 L45,8 L34,8 L34,9 L2,8 L-1,7 L-1,9 L20,9 L26,11 L23,13 L10,13 L-4,11 L-9,11 L-8,8 L-2,5 L-1,3 L-4,3 L-4,1 Z " fill="#7B8389" transform="translate(33,40)"/>
<path d="M0,0 L15,1 L16,2 L25,2 L28,4 L26,4 L26,8 L28,9 L16,9 L26,10 L27,13 L26,14 L9,13 L6,12 L6,14 L22,15 L25,17 L18,17 L27,19 L27,20 L13,19 L20,20 L20,21 L4,21 L2,20 L2,18 L4,18 L5,12 L3,12 L3,10 L5,9 L4,6 L5,4 L2,4 L2,2 Z " fill="#767D85" transform="translate(20,82)"/>
<path d="M0,0 L18,2 L14,5 L12,6 L23,8 L23,9 L9,8 L-5,6 L-7,5 L-7,7 L6,8 L6,9 L-8,9 L7,11 L12,11 L7,10 L7,9 L14,9 L36,13 L36,14 L28,14 L20,13 L26,14 L25,16 L3,16 L3,14 L-7,14 L-10,13 L-10,15 L-13,15 L-13,13 L-11,12 L-15,9 L-14,8 L-16,6 L-14,6 L-13,3 L-8,3 L-8,1 L-6,2 L-7,4 L-2,3 L-4,1 Z " fill="#404852" transform="translate(31,125)"/>
<path d="M0,0 L9,0 L5,2 L-9,6 L-9,8 L-19,8 L-19,5 L-21,5 L-20,10 L-33,9 L-21,11 L-20,13 L-21,15 L-27,13 L-28,12 L-59,9 L-71,6 L-71,5 L-55,5 L-53,7 L-44,7 L-43,5 L-47,3 L-25,4 L-4,2 Z " fill="#6B7279" transform="translate(99,60)"/>
<path d="M0,0 L9,0 L11,2 L0,2 L0,5 L7,4 L27,7 L52,10 L52,12 L41,11 L29,10 L42,12 L39,14 L43,14 L43,13 L53,13 L53,15 L51,16 L52,18 L36,16 L18,13 L10,12 L12,9 L16,8 L6,7 L4,8 L7,10 L-1,10 L-3,4 L-1,4 Z " fill="#7A8187" transform="translate(25,119)"/>
<path d="M0,0 L6,0 L6,2 L9,3 L8,6 L-5,8 L-10,9 L3,9 L3,10 L-11,12 L-13,13 L-23,13 L-23,15 L-29,15 L-35,13 L-50,11 L-50,10 L-38,10 L-31,11 L-30,7 L-28,7 L-28,10 L-18,10 L-18,8 L-26,8 L-26,7 L-15,6 L-4,3 L-10,2 L-10,1 Z " fill="#121D29" transform="translate(108,58)"/>
<path d="M0,0 L21,0 L19,2 L14,4 L13,5 L17,7 L15,10 L11,12 L3,12 L3,14 L-12,13 L-15,11 L-5,11 L-14,9 L-10,6 L3,6 L-4,3 Z " fill="#7A8288" transform="translate(63,112)"/>
<path d="M0,0 L2,0 L2,2 L-9,4 L-6,7 L-15,9 L-16,12 L-22,13 L-24,12 L-24,14 L-26,13 L-26,11 L-38,10 L-48,9 L-48,8 L-34,8 L-40,7 L-40,6 L-35,5 L-54,3 L-54,2 L-25,2 L-25,4 Z " fill="#2F3943" transform="translate(102,74)"/>
<path d="M0,0 L5,0 L6,7 L11,7 L9,9 L10,11 L0,11 L2,10 L1,9 L-10,10 L-10,12 L-12,12 L-11,15 L-19,15 L-17,14 L-17,12 L-19,12 L-18,9 L-20,7 L-17,5 L-11,5 L-10,2 Z M-18,7 Z " fill="#1E2B36" transform="translate(112,83)"/>
<path d="M0,0 L5,1 L5,8 L3,15 L1,16 L1,18 L-9,18 L-20,20 L-25,20 L-21,18 L-19,17 L-23,16 L-20,15 L-22,13 L-22,11 L-16,9 L-9,9 L-8,12 L-3,11 L0,7 Z " fill="#162430" transform="translate(122,112)"/>
<path d="M0,0 L7,0 L3,2 L-1,3 L1,5 L-4,6 L-4,4 L-11,6 L-9,8 L-10,9 L-5,9 L-8,11 L-13,12 L-26,12 L-25,15 L-33,15 L-33,18 L-44,18 L-45,15 L-39,14 L-37,11 L-32,10 L-31,8 L-16,5 Z " fill="#333F4A" transform="translate(111,109)"/>
<path d="M0,0 L3,1 L5,3 L5,6 L0,9 L-1,12 L-3,12 L-2,7 L-10,11 L-18,12 L-21,12 L-22,15 L-31,14 L-27,12 L-28,10 L-18,8 L-21,5 L-21,3 L-9,1 L-9,3 L-4,3 Z " fill="#2B3540" transform="translate(123,90)"/>
<path d="M0,0 L32,1 L32,0 L37,0 L37,2 L44,2 L43,4 L40,4 L44,5 L44,7 L52,5 L52,3 L62,0 L65,1 L65,3 L59,4 L66,4 L62,7 L50,8 L47,9 L27,8 L26,4 L21,3 L0,2 Z " fill="#363E49" transform="translate(32,47)"/>
<path d="M0,0 L28,0 L30,2 L33,4 L40,5 L40,6 L26,6 L34,7 L31,9 L11,7 L4,6 L0,6 L0,3 L9,2 L0,1 Z " fill="#2A333F" transform="translate(25,118)"/>
<path d="M0,0 L14,1 L18,2 L25,2 L25,1 L37,1 L46,2 L46,3 L38,4 L47,5 L47,6 L34,6 L46,7 L52,7 L52,8 L47,8 L47,10 L11,6 L-9,4 L-5,2 L9,3 L0,1 Z " fill="#848A90" transform="translate(30,77)"/>
<path d="M0,0 L3,0 L2,3 L0,4 L3,6 L-1,7 L5,8 L5,9 L-11,13 L-16,13 L-16,12 L-24,11 L-23,6 L-8,3 L-6,2 L0,2 Z " fill="#152431" transform="translate(100,31)"/>
<path d="M0,0 L6,1 L4,4 L19,4 L26,3 L32,4 L32,5 L25,5 L25,7 L21,8 L5,8 L5,6 L-23,6 L-19,4 L-1,2 Z " fill="#CBD0D4" transform="translate(84,142)"/>
<path d="M0,0 L3,1 L1,3 L17,5 L14,7 L2,6 L-8,5 L-8,7 L12,10 L12,11 L-25,9 L-23,7 L-20,5 L-19,3 Z " fill="#6C757C" transform="translate(63,31)"/>
<path d="M0,0 L6,1 L31,4 L43,5 L48,9 L44,10 L36,10 L16,7 L16,6 L36,7 L15,5 L15,6 L2,6 L-2,3 L1,3 Z " fill="#222C36" transform="translate(28,66)"/>
<path d="M0,0 L7,0 L10,1 L10,3 L15,3 L14,8 L17,9 L17,11 L-23,11 L-23,10 L-7,9 L-7,8 L3,6 L2,2 Z " fill="#B5B8BC" transform="translate(131,127)"/>
<path d="M0,0 L12,1 L14,2 L21,2 L19,0 L24,1 L25,2 L34,3 L31,5 L46,5 L46,7 L41,8 L41,9 L33,9 L19,6 L0,3 Z " fill="#3D4851" transform="translate(22,103)"/>
<path d="M0,0 L5,1 L4,5 L1,7 L5,8 L5,10 L-3,12 L-17,9 L-17,8 L-8,8 L-24,6 L-24,4 L-4,5 L-12,4 L-12,3 L0,1 Z M5,4 L8,5 L5,8 L4,5 Z " fill="#212E3A" transform="translate(50,90)"/>
<path d="M0,0 L6,0 L8,2 L13,3 L13,5 L10,7 L10,9 L7,9 L7,7 L-8,10 L-9,12 L-17,12 L-17,11 L-10,11 L-11,8 L-7,7 L-21,8 L-20,6 L-1,3 L3,3 L-2,2 Z " fill="#3C4751" transform="translate(110,76)"/>
<path d="M0,0 L13,0 L20,1 L20,2 L38,3 L38,4 L15,5 L15,7 L-3,7 L-3,5 L3,5 L3,3 L-2,3 L0,2 Z " fill="#B1B5BA" transform="translate(21,138)"/>
<path d="M0,0 L14,2 L30,2 L30,5 L42,5 L42,7 L48,8 L48,9 L31,9 L23,8 L25,6 L5,5 L0,4 Z " fill="#38404A" transform="translate(29,50)"/>
<path d="M0,0 L9,0 L11,2 L0,2 L0,5 L7,4 L27,7 L52,10 L52,12 L41,11 L9,7 L4,8 L7,10 L-1,10 L-3,4 L-1,4 Z " fill="#7C848A" transform="translate(25,119)"/>
<path d="M0,0 L13,1 L17,3 L16,6 L19,8 L7,8 L28,9 L28,10 L-1,11 L-3,10 L-1,3 L0,5 L2,2 Z " fill="#858D94" transform="translate(25,108)"/>
<path d="M0,0 L5,0 L5,4 L5,7 L11,8 L7,10 L3,12 L-10,12 L-9,10 L-3,10 L-3,8 L-7,7 L-9,2 L-1,1 Z " fill="#898D93" transform="translate(13,128)"/>
<path d="M0,0 L6,0 L5,2 L-3,3 L-26,9 L-16,7 L-12,8 L-17,10 L-22,10 L-22,12 L-19,13 L-30,14 L-30,12 L-39,11 L-39,10 L-31,10 L-30,9 L-37,9 L-37,8 L-25,6 Z " fill="#17202B" transform="translate(106,40)"/>
<path d="M0,0 L7,0 L29,4 L29,5 L21,5 L13,4 L19,5 L18,7 L-4,7 L-4,5 L-9,3 L-9,2 L5,2 L0,1 Z " fill="#303A43" transform="translate(38,134)"/>
<path d="M0,0 L5,1 L8,2 L9,4 L11,0 L16,1 L17,5 L15,7 L12,7 L12,9 L0,9 L-1,5 Z " fill="#273541" transform="translate(64,96)"/>
<path d="M0,0 L15,1 L16,2 L25,2 L28,4 L26,4 L26,8 L28,9 L19,9 L16,6 L14,6 L5,6 L5,4 L2,4 L2,2 Z " fill="#4C555F" transform="translate(20,82)"/>
<path d="M0,0 L4,1 L13,3 L23,4 L23,6 L30,6 L30,7 L5,7 L-1,6 L-1,3 L-4,3 L-4,1 Z " fill="#363F49" transform="translate(33,40)"/>
<path d="M0,0 L4,1 L26,2 L32,4 L29,6 L16,6 L2,4 L-3,4 L-2,1 Z " fill="#7D848C" transform="translate(27,47)"/>
<path d="M0,0 L3,0 L3,2 L-1,2 L-1,4 L24,2 L24,4 L21,5 L22,8 L17,7 L17,5 L-6,5 L-5,7 L-18,8 L-28,8 L-28,7 L-20,6 L-9,6 L-9,4 L-15,4 L-11,2 L-2,1 Z " fill="#37434D" transform="translate(97,53)"/>
<path d="M0,0 L3,1 L3,5 L0,6 L7,6 L7,7 L14,8 L14,9 L7,10 L-9,8 L-12,6 L-10,5 L-15,5 L-12,3 Z " fill="#686F76" transform="translate(73,27)"/>
<path d="M0,0 L3,1 L3,3 L-3,4 L4,4 L0,7 L-12,8 L-15,9 L-33,8 L-34,6 L-24,5 L-15,6 L-10,5 L-10,3 Z " fill="#47525C" transform="translate(94,47)"/>
<path d="M0,0 L8,0 L7,3 L4,4 L4,5 L-9,7 L-19,9 L-19,11 L-24,9 L-24,7 L-20,6 L-14,6 L-8,4 L-14,4 L-13,2 Z " fill="#3B454E" transform="translate(109,64)"/>
<path d="M0,0 L7,0 L6,2 L12,1 L9,3 L-2,7 L-12,6 L-28,3 L-28,2 L-15,3 L-8,4 L-4,1 Z " fill="#1C2834" transform="translate(82,132)"/>
<path d="M0,0 L7,1 L3,4 L-5,5 L-26,4 L-29,2 L-13,1 Z " fill="#222C39" transform="translate(89,108)"/>
<path d="M0,0 L5,1 L5,8 L3,15 L1,16 L1,18 L-3,17 L-3,13 L-8,13 L-8,12 L-3,11 L0,7 Z " fill="#0B1928" transform="translate(122,112)"/>
<path d="M0,0 L23,1 L24,3 L10,4 L10,6 L-2,6 L-6,1 Z " fill="#7D848B" transform="translate(107,139)"/>
<path d="M0,0 L2,1 L1,3 L4,4 L4,8 L1,9 L1,7 L-2,6 L-16,8 L-24,9 L-24,7 L-10,3 L-2,2 Z " fill="#242D37" transform="translate(114,66)"/>
<path d="M0,0 L21,0 L19,2 L14,4 L11,6 L1,5 L-4,3 Z " fill="#47515B" transform="translate(63,112)"/>
<path d="M0,0 L7,0 L10,1 L21,2 L24,5 L13,5 L10,4 L-11,3 L-18,2 L-18,1 L0,1 Z " fill="#485059" transform="translate(43,114)"/>
<path d="M0,0 L14,1 L14,3 L10,4 L10,6 L12,7 L9,7 L9,4 L-10,8 L-18,9 L-14,7 L-4,4 L-7,2 Z " fill="#4C555D" transform="translate(103,36)"/>
<path d="M0,0 L5,0 L6,7 L11,7 L9,9 L10,11 L0,11 L2,10 L1,9 L-4,9 L0,7 L2,7 L2,5 L-2,4 L3,4 L3,2 L-9,4 L-11,5 L-10,2 Z " fill="#101A25" transform="translate(112,83)"/>
<path d="M0,0 L26,2 L31,3 L27,6 L16,6 L14,4 L-1,3 Z " fill="#2D3640" transform="translate(30,62)"/>
<path d="M0,0 L7,1 L7,3 L11,5 L10,8 L15,8 L15,9 L0,10 L0,5 L0,2 Z " fill="#26303E" transform="translate(124,125)"/>
<path d="M0,0 L10,1 L12,3 L10,5 L0,5 L-3,4 L-12,4 L-22,3 L-22,2 Z " fill="#2A333D" transform="translate(53,111)"/>
<path d="M0,0 L21,1 L41,3 L41,4 L30,6 L28,9 L26,9 L25,4 L12,4 L12,3 L0,1 Z " fill="#27323C" transform="translate(20,81)"/>
<path d="M0,0 L6,0 L6,2 L9,3 L8,6 L-5,8 L-8,6 L-8,4 L-4,3 L-10,2 L-10,1 Z " fill="#131E2A" transform="translate(108,58)"/>
<path d="M0,0 L6,1 L3,5 L-3,6 L-23,6 L-19,4 L-1,2 Z " fill="#6C747B" transform="translate(84,142)"/>
<path d="M0,0 L10,0 L17,1 L14,2 L14,4 L19,4 L19,6 L11,7 L4,6 L0,6 L0,3 L9,2 L0,1 Z " fill="#1C2734" transform="translate(25,118)"/>
<path d="M0,0 L9,0 L9,2 L20,3 L23,5 L9,4 L16,5 L16,6 L0,6 L-2,5 L-2,3 L0,3 Z " fill="#687178" transform="translate(24,97)"/>
<path d="M0,0 L4,1 L24,3 L24,4 L12,4 L19,6 L16,7 L3,6 L0,5 L-1,7 L-4,5 L-2,5 L-2,3 L0,3 Z " fill="#707A82" transform="translate(30,57)"/>
<path d="M0,0 L3,1 L25,2 L25,4 L31,5 L31,6 L6,5 L4,3 L4,6 L1,6 L2,2 L-2,1 Z " fill="#434C57" transform="translate(26,54)"/>
<path d="M0,0 L9,0 L5,2 L-9,6 L-9,8 L-19,8 L-19,5 L-24,6 L-25,4 L-4,2 Z " fill="#545F69" transform="translate(99,60)"/>
<path d="M0,0 L6,0 L5,4 L-6,6 L-12,7 L-12,2 Z " fill="#14222F" transform="translate(114,105)"/>
<path d="M0,0 L13,0 L10,2 L3,3 L4,6 L-9,6 L-21,4 L-21,3 L0,3 Z " fill="#0D1722" transform="translate(77,123)"/>
<path d="M0,0 L5,1 L6,3 L6,13 L4,21 L3,21 L4,13 L2,13 L2,18 L1,18 L1,11 L2,9 L-2,10 L-1,7 L4,5 L3,2 Z " fill="#121F2C" transform="translate(124,91)"/>
<path d="M0,0 L5,1 L3,3 L-6,4 L-4,5 L-4,7 L-15,7 L-23,5 L-23,4 L0,1 Z " fill="#18232F" transform="translate(92,52)"/>
<path d="M0,0 L7,0 L6,2 L-10,5 L-10,7 L-6,9 L-13,9 L-18,8 L-22,9 L-19,6 L-12,3 Z " fill="#626B73" transform="translate(112,118)"/>
<path d="M0,0 L6,0 L5,2 L9,4 L-9,5 L-12,8 L-20,7 L-18,5 Z " fill="#0D1722" transform="translate(112,133)"/>
<path d="M0,0 L6,1 L21,3 L22,5 L15,5 L15,6 L2,6 L-2,3 L1,3 Z " fill="#2B333E" transform="translate(28,66)"/>
<path d="M0,0 L3,1 L5,3 L5,6 L0,9 L-1,12 L-3,12 L-2,7 L-4,7 L-4,5 L-10,5 L-10,4 L-4,3 Z " fill="#505A63" transform="translate(123,90)"/>
<path d="M0,0 L9,0 L11,2 L0,2 L0,5 L7,4 L6,7 L4,8 L7,10 L-1,10 L-3,4 L-1,4 Z " fill="#6E787F" transform="translate(25,119)"/>
<path d="M0,0 L11,2 L11,3 L3,4 L-17,4 L-19,1 Z " fill="#5B636A" transform="translate(59,141)"/>
<path d="M0,0 L13,2 L9,4 L5,6 L-8,6 L-7,4 L-1,4 L-1,2 L-5,1 Z " fill="#ABB0B4" transform="translate(11,134)"/>
<path d="M0,0 L13,1 L19,2 L18,4 L12,5 L-4,4 L-4,3 L3,3 L2,2 L-3,2 Z " fill="#3A424C" transform="translate(52,35)"/>
<path d="M0,0 L3,1 L1,3 L17,5 L14,7 L2,6 L-6,5 L-7,2 Z " fill="#A6ACB0" transform="translate(63,31)"/>
<path d="M0,0 L7,0 L10,1 L10,3 L15,3 L15,5 L13,7 L3,6 L2,2 Z " fill="#757980" transform="translate(131,127)"/>
<path d="M0,0 L10,0 L16,1 L16,3 L18,5 L17,6 L10,6 L8,5 L-2,4 L-1,2 L7,2 L0,1 Z " fill="#28313C" transform="translate(26,100)"/>
<path d="M0,0 L13,1 L15,2 L26,2 L26,3 L19,4 L2,4 L-6,3 L-6,2 L0,1 Z " fill="#141D27" transform="translate(64,58)"/>
<path d="M0,0 L3,0 L3,4 L5,4 L5,9 L6,13 L5,18 L4,18 L3,11 L-2,11 L-2,8 L0,8 L0,3 L-2,2 Z " fill="#33404B" transform="translate(123,100)"/>
<path d="M0,0 L3,1 L1,1 L1,3 L3,3 L3,5 L6,4 L14,4 L14,5 L4,7 L-1,7 L-3,6 L-10,6 L-10,5 L-5,4 L-6,2 Z " fill="#121E2A" transform="translate(104,113)"/>
<path d="M0,0 L3,1 L0,4 L-1,1 Z M-7,2 L0,4 L0,6 L-8,8 L-22,5 L-22,4 L-7,4 Z " fill="#192530" transform="translate(55,94)"/>
<path d="M0,0 L12,1 L23,4 L23,5 L11,5 L0,3 Z " fill="#9BA3AA" transform="translate(22,103)"/>
<path d="M0,0 L8,0 L4,4 L1,7 L-5,6 L-5,8 L-7,7 L-6,5 L-2,4 L-5,1 Z " fill="#34404B" transform="translate(83,80)"/>
<path d="M0,0 L5,0 L5,4 L-12,7 L-17,7 L-13,5 L0,1 Z " fill="#1C2732" transform="translate(114,125)"/>
<path d="M0,0 L34,1 L34,2 L4,3 L-3,4 L-2,1 Z " fill="#3F4750" transform="translate(103,137)"/>
<path d="M0,0 L4,1 L4,3 L12,4 L12,5 L7,5 L7,7 L11,6 L11,8 L4,8 L1,7 L-3,6 L-1,3 L1,3 Z " fill="#4A525C" transform="translate(75,27)"/>
<path d="M0,0 L2,0 L2,3 L4,3 L3,7 L0,7 L-20,4 L-20,3 L-8,3 L-1,4 Z " fill="#2A333E" transform="translate(78,65)"/>
<path d="M0,0 L1,2 L-2,3 L-1,6 L-6,5 L-6,3 L-26,3 L-27,1 L-8,1 Z " fill="#6A727B" transform="translate(120,55)"/>
<path d="M0,0 L5,1 L3,3 L-13,7 L-24,7 L-24,6 L-10,4 Z " fill="#15212E" transform="translate(94,125)"/>
<path d="M0,0 L6,0 L6,2 L4,4 L7,4 L7,6 L0,7 L-9,7 L-7,5 L0,3 Z " fill="#212D38" transform="translate(106,73)"/>
<path d="M0,0 L11,0 L14,1 L15,5 L-5,3 L-5,2 L0,1 Z " fill="#8C9399" transform="translate(64,65)"/>
<path d="M0,0 L9,1 L9,2 L1,2 L1,4 L-5,6 L-17,4 L-17,3 L-6,2 Z " fill="#1F2B37" transform="translate(99,62)"/>
<path d="M0,0 L18,0 L20,2 L4,4 L4,2 Z " fill="#4E5761" transform="translate(35,118)"/>
<path d="M0,0 L2,0 L1,3 L10,3 L9,5 L-6,7 L-9,9 L-11,7 L-2,4 L-5,2 Z " fill="#16202C" transform="translate(96,76)"/>
<path d="M0,0 L12,2 L10,4 L-8,3 L-9,1 Z " fill="#878C92" transform="translate(69,52)"/>
<path d="M0,0 L3,1 L3,5 L-15,5 L-12,3 Z " fill="#72787E" transform="translate(73,27)"/>
<path d="M0,0 L13,0 L20,1 L20,2 L12,3 L8,2 L8,4 L-2,3 L0,2 Z " fill="#798189" transform="translate(21,138)"/>
<path d="M0,0 L7,0 L7,2 L2,3 L2,4 L-6,4 L-12,3 L-10,1 Z " fill="#777F86" transform="translate(61,108)"/>
<path d="M0,0 L8,0 L20,2 L21,4 L20,6 L14,4 L13,3 L1,2 Z " fill="#5E6870" transform="translate(58,69)"/>
<path d="M0,0 L4,1 L21,2 L21,3 L2,4 L-3,4 L-2,1 Z " fill="#858C93" transform="translate(27,47)"/>
<path d="M0,0 L22,4 L22,5 L10,5 L-1,3 Z " fill="#B2B8BC" transform="translate(36,39)"/>
<path d="M0,0 L3,1 L3,4 L-7,7 L-10,7 L-10,5 L-7,4 L-7,2 Z " fill="#34404A" transform="translate(87,124)"/>
<path d="M0,0 L6,0 L6,5 L-5,5 L-6,2 L0,1 Z " fill="#313D47" transform="translate(72,122)"/>
<path d="M0,0 L11,0 L11,1 L2,3 L2,5 L-6,6 L-7,4 L-4,1 Z " fill="#14212C" transform="translate(98,82)"/>
<path d="M0,0 L6,0 L8,2 L13,3 L13,5 L10,8 L8,8 L8,4 L1,5 L1,3 L2,2 L-2,1 Z " fill="#343F4B" transform="translate(110,76)"/>
<path d="M0,0 L28,0 L28,1 L19,3 L15,3 L15,1 L0,1 Z " fill="#B9BEC1" transform="translate(42,145)"/>
<path d="M0,0 L5,0 L1,2 L-11,5 L-20,6 L-18,4 L-6,1 Z " fill="#0F1B27" transform="translate(110,131)"/>
<path d="M0,0 L10,1 L10,2 L3,2 L3,4 L-16,4 L-16,3 L-3,2 Z " fill="#878C93" transform="translate(106,145)"/>
<path d="M0,0 L10,0 L10,2 L8,3 L9,5 L-1,4 L-6,3 L-6,2 L2,2 Z " fill="#90969A" transform="translate(68,132)"/>
<path d="M0,0 L21,0 L19,2 L12,3 L0,1 Z " fill="#AFB1B3" transform="translate(63,112)"/>
<path d="M0,0 L7,1 L3,4 L-5,5 L-11,2 L-11,1 Z " fill="#555E66" transform="translate(89,108)"/>
<path d="M0,0 L10,1 L7,3 L8,4 L16,5 L16,6 L8,7 L6,8 L5,6 L2,4 L3,3 L0,2 Z " fill="#2E3844" transform="translate(19,105)"/>
<path d="M0,0 L7,0 L8,0 L13,1 L12,3 L8,4 L-1,4 L-3,1 Z " fill="#303D48" transform="translate(101,47)"/>
<path d="M0,0 L7,1 L5,3 L-1,4 L1,6 L-5,6 L-8,3 L-8,2 Z " fill="#101B27" transform="translate(102,44)"/>
<path d="M0,0 L9,1 L17,2 L17,3 L0,4 L-3,4 L-3,2 Z " fill="#576068" transform="translate(59,42)"/>
<path d="M0,0 L7,0 L29,4 L29,5 L21,5 L8,3 L0,1 Z " fill="#373F48" transform="translate(38,134)"/>
<path d="M0,0 L15,1 L15,2 L8,3 L8,4 L14,5 L14,6 L5,6 L5,4 L2,4 L2,2 Z " fill="#5E676F" transform="translate(20,82)"/>
<path d="M0,0 L19,0 L16,3 L9,3 L0,1 Z " fill="#3F4650" transform="translate(43,40)"/>
<path d="M0,0 L10,1 L11,3 L-9,3 L-5,1 Z " fill="#888F96" transform="translate(70,145)"/>
<path d="M0,0 L2,1 L-8,5 L-11,5 L-12,7 L-21,5 L-21,4 L-9,3 Z " fill="#515B66" transform="translate(89,135)"/>
<path d="M0,0 L6,0 L2,2 L8,3 L8,4 L-4,5 L-6,3 L-5,1 Z " fill="#0E1A26" transform="translate(97,36)"/>
<path d="M0,0 L9,0 L13,2 L11,4 L-3,4 L-3,2 Z " fill="#878F95" transform="translate(27,86)"/>
<path d="M0,0 L5,1 L6,5 L5,6 L0,6 L-1,1 Z " fill="#A9ACB1" transform="translate(75,96)"/>
<path d="M0,0 L9,0 L9,1 L16,2 L16,4 L6,4 L6,1 L1,2 Z " fill="#47515B" transform="translate(74,64)"/>
<path d="M0,0 L6,1 L6,3 L3,5 L-3,5 L-3,2 Z " fill="#525D67" transform="translate(94,140)"/>
<path d="M0,0 L18,2 L18,3 L-2,3 L-4,1 Z " fill="#242D3A" transform="translate(31,125)"/>
<path d="M0,0 L5,0 L2,2 L2,4 L-7,3 L-7,5 L-10,5 L-10,3 Z " fill="#515861" transform="translate(28,135)"/>
<path d="M0,0 L5,0 L6,4 L3,4 L3,2 L-9,4 L-11,5 L-10,2 Z " fill="#0E1823" transform="translate(112,83)"/>
<path d="M0,0 L1,2 L8,3 L10,5 L2,5 L-4,4 Z " fill="#CCCED0" transform="translate(103,32)"/>
<path d="M0,0 L12,0 L9,2 L3,3 L3,5 L-2,3 L-2,1 Z " fill="#747A81" transform="translate(87,70)"/>
<path d="M0,0 L4,2 L6,5 L-4,5 L-2,2 L0,2 Z " fill="#121B26" transform="translate(100,141)"/>
<path d="M0,0 L7,0 L10,3 L4,5 L1,4 L3,4 L3,1 Z " fill="#2B3944" transform="translate(110,120)"/>
<path d="M0,0 L0,3 L-5,5 L-9,4 L-11,2 Z " fill="#36414C" transform="translate(118,96)"/>
<path d="M0,0 L5,1 L6,3 L6,13 L2,8 L2,5 L4,5 L3,2 Z " fill="#25303D" transform="translate(124,91)"/>
<path d="M0,0 L5,0 L7,3 L0,5 L-8,4 L-7,2 L0,2 Z " fill="#15202B" transform="translate(100,95)"/>
<path d="M0,0 L10,1 L11,3 L7,4 L-6,2 L-6,1 Z " fill="#676F77" transform="translate(48,49)"/>
<path d="M0,0 L11,1 L13,3 L-1,3 Z " fill="#222A36" transform="translate(30,62)"/>
<path d="M0,0 L9,0 L7,1 L7,3 L0,3 L-5,2 L-5,1 Z " fill="#737B82" transform="translate(93,30)"/>
<path d="M0,0 L1,2 L13,3 L13,4 L-3,4 Z " fill="#37404A" transform="translate(90,143)"/>
<path d="M0,0 L3,1 L-3,4 L-2,7 L-8,6 L-7,3 Z " fill="#2F3C48" transform="translate(87,138)"/>
<path d="M0,0 L9,0 L15,2 L15,3 L6,3 L0,1 Z " fill="#090E17" transform="translate(38,137)"/>
<path d="M0,0 L6,0 L5,4 L-2,4 L-2,1 Z " fill="#0B1520" transform="translate(114,105)"/>
<path d="M0,0 L3,1 L0,4 L-1,1 Z M-4,4 L0,4 L0,6 L-8,8 L-11,6 Z " fill="#1B2C38" transform="translate(55,94)"/>
<path d="M0,0 L3,0 L2,3 L-3,6 L-8,4 L-6,2 L0,2 Z " fill="#1E2A35" transform="translate(100,31)"/>
<path d="M0,0 L6,1 L6,3 L-7,3 L-6,1 Z " fill="#A2A5A9" transform="translate(10,137)"/>
<path d="M0,0 L4,0 L5,4 L7,6 L-2,6 L0,2 Z " fill="#0B1824" transform="translate(109,121)"/>
<path d="M0,0 L3,1 L3,3 L8,3 L6,5 L7,7 L2,7 L0,3 Z " fill="#242D38" transform="translate(115,87)"/>
<path d="M0,0 L8,0 L11,3 L3,4 L1,5 Z " fill="#4E5862" transform="translate(58,50)"/>
<path d="M0,0 L6,0 L4,4 L3,5 L5,6 L5,8 L0,8 L2,3 L3,1 Z " fill="#545864" transform="translate(95,7)"/>
<path d="M0,0 L9,0 L9,2 L13,3 L5,3 L0,1 Z " fill="#1E2731" transform="translate(29,136)"/>
<path d="M0,0 L7,0 L12,1 L12,2 L-2,3 L-2,1 Z " fill="#596068" transform="translate(127,132)"/>
<path d="M0,0 L1,2 L5,3 L1,4 L1,6 L5,7 L0,8 L-2,7 Z " fill="#676F78" transform="translate(24,111)"/>
<path d="M0,0 L5,0 L2,3 L2,5 L-5,5 L-5,3 L-1,3 Z " fill="#303C48" transform="translate(101,52)"/>
<path d="M0,0 L11,2 L11,3 L-5,3 L-3,1 Z " fill="#6D7379" transform="translate(43,37)"/>
<path d="M0,0 L2,2 L2,5 L-4,5 L-4,3 L-6,2 L-3,1 L0,2 Z " fill="#DEE0E3" transform="translate(21,123)"/>
<path d="M0,0 L5,1 L6,4 L-1,4 L-6,2 L-6,1 Z " fill="#3D4650" transform="translate(65,113)"/>
<path d="M0,0 L8,0 L8,1 L-1,3 L-11,2 L-11,1 Z " fill="#414A53" transform="translate(42,112)"/>
<path d="M0,0 L13,1 L13,3 L1,3 Z " fill="#A1A5A9" transform="translate(104,142)"/>
<path d="M0,0 L4,0 L4,2 L12,2 L12,3 L1,4 L-1,3 Z " fill="#49535C" transform="translate(33,127)"/>
<path d="M0,0 L6,0 L7,1 L17,2 L17,3 L4,3 Z " fill="#1F2731" transform="translate(26,69)"/>
<path d="M0,0 L7,0 L7,2 L3,3 L3,5 L5,6 L2,6 L2,3 L-1,2 Z " fill="#393F48" transform="translate(110,37)"/>
<path d="M0,0 L7,0 L10,1 L10,3 L3,3 Z " fill="#B1B4B9" transform="translate(131,127)"/>
<path d="M0,0 L5,1 L4,4 L4,2 L1,2 L3,6 L-1,5 Z " fill="#D2D4D8" transform="translate(64,96)"/>
<path d="M0,0 L3,0 L3,2 L5,2 L5,4 L-5,3 L-5,2 L0,1 Z " fill="#142432" transform="translate(70,104)"/>
<path d="M0,0 L4,0 L4,4 L-5,3 L-5,2 L0,1 Z " fill="#3B4650" transform="translate(97,101)"/>
<path d="M0,0 L5,1 L2,2 L2,4 L-7,4 L-7,2 L0,2 Z " fill="#30404D" transform="translate(74,101)"/>
<path d="M0,0 L5,0 L6,3 L-3,3 L-3,1 Z " fill="#1E2B37" transform="translate(106,54)"/>
<path d="M0,0 L8,0 L7,3 L1,4 Z " fill="#333F4B" transform="translate(78,42)"/>
<path d="M0,0 L2,1 L1,3 L7,3 L7,4 L0,4 L0,6 L-2,5 L-3,2 L0,2 Z " fill="#242835" transform="translate(23,126)"/>
<path d="M0,0 L8,0 L7,2 L-2,3 L-2,1 Z " fill="#29343F" transform="translate(105,89)"/>
<path d="M0,0 L6,1 L12,2 L12,3 L1,3 Z " fill="#404852" transform="translate(28,66)"/>
<path d="M0,0 L6,0 L5,3 L-4,2 Z " fill="#313942" transform="translate(70,38)"/>
<path d="M0,0 L2,1 L10,1 L9,3 L1,4 L-3,2 L0,2 Z " fill="#19222C" transform="translate(86,73)"/>
<path d="M0,0 L7,0 L5,2 L-3,3 L-3,1 Z " fill="#464D57" transform="translate(93,72)"/>
<path d="M0,0 L5,0 L6,2 L-3,4 L-3,2 Z " fill="#6D767E" transform="translate(59,42)"/>
<path d="M0,0 L9,2 L9,3 L-1,3 L-3,1 Z " fill="#1C2028" transform="translate(19,133)"/>
<path d="M0,0 L7,1 L6,4 L1,4 Z " fill="#3E4A56" transform="translate(124,125)"/>
<path d="M0,0 L2,0 L2,8 L0,10 L-1,1 Z " fill="#0C1A26" transform="translate(119,110)"/>
<path d="M0,0 L12,1 L12,2 L0,3 Z " fill="#838B92" transform="translate(22,103)"/>
<path d="M0,0 L4,2 L4,4 L8,5 L2,5 L0,4 Z " fill="#787F86" transform="translate(112,50)"/>
<path d="M0,0 L4,1 L1,1 L1,3 L-3,4 L-7,2 Z " fill="#26303B" transform="translate(81,118)"/>
<path d="M0,0 L3,1 L5,3 L-3,4 L-2,1 Z " fill="#0F1B27" transform="translate(104,100)"/>
<path d="M0,0 L4,0 L3,4 L-2,4 Z " fill="#212B37" transform="translate(82,69)"/>
<path d="M0,0 L3,1 L3,3 L-2,4 L-4,1 Z " fill="#2F3B45" transform="translate(107,41)"/>
</svg>
