<?xml version="1.0" encoding="UTF-8"?>
<!-- Generator: visioncortex VTracer 0.6.5 -->
<svg version="1.1" xmlns="http://www.w3.org/2000/svg" width="155" height="137">
<path d="M0,0 L155,0 L155,137 L0,137 Z " fill="#F4F4F4" transform="translate(0,0)"/>
<path d="M0,0 L6,0 L6,4 L19,4 L21,5 L21,7 L19,8 L20,11 L29,13 L33,15 L32,18 L30,19 L31,24 L39,29 L39,32 L35,34 L37,41 L40,45 L40,49 L35,49 L37,59 L37,66 L33,65 L31,81 L26,80 L24,85 L22,93 L19,93 L16,95 L18,99 L25,100 L26,101 L29,100 L33,101 L33,103 L37,104 L37,106 L34,108 L26,108 L27,111 L-11,112 L-43,112 L-49,111 L-48,107 L-47,105 L-53,107 L-52,103 L-49,102 L-50,99 L-48,99 L-52,94 L-53,91 L-59,90 L-59,93 L-61,93 L-61,91 L-65,92 L-66,97 L-67,103 L-61,103 L-62,106 L-92,106 L-92,104 L-95,103 L-91,98 L-88,97 L-85,85 L-82,81 L-79,76 L-75,71 L-68,69 L-61,69 L-59,64 L-56,56 L-59,56 L-57,52 L-53,42 L-51,42 L-50,46 L-48,43 L-46,43 L-45,45 L-43,40 L-39,41 L-39,47 L-37,44 L-34,45 L-34,50 L-31,48 L-26,48 L-27,54 L-20,49 L-19,46 L-21,46 L-21,48 L-24,47 L-27,44 L-26,40 L-31,42 L-33,37 L-37,38 L-38,33 L-43,34 L-44,26 L-39,21 L-37,21 L-37,19 L-35,19 L-35,17 L-32,17 L-32,10 L-31,8 L-28,8 L-28,11 L-20,7 L-15,2 L-11,1 L-11,4 L-4,2 Z " fill="#081724" transform="translate(108,15)"/>
<path d="M0,0 L6,0 L6,4 L19,4 L21,5 L21,7 L19,8 L20,11 L29,13 L28,15 L23,14 L20,14 L12,10 L11,14 L8,14 L8,12 L6,12 L6,15 L3,14 L3,11 L0,11 L-1,17 L-4,17 L-5,20 L-8,19 L-8,27 L-2,27 L-2,28 L-8,28 L-7,33 L-9,33 L-9,29 L-14,29 L-14,27 L-10,27 L-11,26 L-15,27 L-16,30 L-21,29 L-20,30 L-18,31 L-18,33 L-16,33 L-15,36 L-13,37 L-13,41 L-11,47 L-9,48 L-10,57 L-10,60 L-14,63 L-17,62 L-23,62 L-27,61 L-27,59 L-30,62 L-34,60 L-39,59 L-38,60 L-37,65 L-39,66 L-40,63 L-45,64 L-47,56 L-55,54 L-52,58 L-48,59 L-50,63 L-50,66 L-46,69 L-45,67 L-43,67 L-44,74 L-40,76 L-39,75 L-37,75 L-36,79 L-34,80 L-34,78 L-32,78 L-32,81 L-38,84 L-41,83 L-42,88 L-45,89 L-46,82 L-50,83 L-52,82 L-53,90 L-59,90 L-59,93 L-61,93 L-61,91 L-65,92 L-66,97 L-67,103 L-61,103 L-62,106 L-92,106 L-92,104 L-95,103 L-91,98 L-88,97 L-85,85 L-82,81 L-79,76 L-75,71 L-68,69 L-61,69 L-59,64 L-56,56 L-59,56 L-57,52 L-53,42 L-51,42 L-50,46 L-48,43 L-46,43 L-45,45 L-43,40 L-39,41 L-39,47 L-37,44 L-34,45 L-34,50 L-31,48 L-26,48 L-27,54 L-20,49 L-19,46 L-21,46 L-21,48 L-24,47 L-27,44 L-26,40 L-31,42 L-33,37 L-37,38 L-38,33 L-43,34 L-44,26 L-39,21 L-37,21 L-37,19 L-35,19 L-35,17 L-32,17 L-32,10 L-31,8 L-28,8 L-28,11 L-20,7 L-15,2 L-11,1 L-11,4 L-4,2 Z " fill="#0C1A27" transform="translate(108,15)"/>
<path d="M0,0 L6,0 L6,4 L19,4 L21,5 L21,7 L19,8 L20,11 L29,13 L28,15 L23,14 L20,14 L12,10 L11,14 L8,14 L8,12 L6,12 L6,15 L3,14 L3,11 L0,11 L-1,17 L-4,17 L-5,20 L-8,19 L-8,27 L-2,27 L-2,28 L-8,28 L-7,33 L-9,33 L-9,29 L-14,29 L-14,27 L-10,27 L-11,26 L-15,27 L-16,29 L-21,27 L-20,24 L-15,22 L-13,17 L-10,17 L-9,12 L-4,11 L-4,14 L-3,10 L-1,9 L-5,8 L-10,12 L-13,16 L-15,16 L-13,12 L-12,10 L-17,9 L-18,13 L-16,14 L-20,15 L-22,14 L-22,16 L-26,16 L-27,18 L-23,17 L-23,19 L-27,19 L-28,23 L-29,21 L-31,21 L-31,24 L-33,25 L-32,29 L-28,32 L-37,33 L-43,34 L-44,26 L-39,21 L-37,21 L-37,19 L-35,19 L-35,17 L-32,17 L-32,10 L-31,8 L-28,8 L-28,11 L-20,7 L-15,2 L-11,1 L-11,4 L-4,2 Z " fill="#303B46" transform="translate(108,15)"/>
<path d="M0,0 L6,0 L10,6 L11,9 L9,9 L9,11 L13,12 L7,13 L8,16 L8,14 L13,14 L10,21 L56,21 L77,22 L77,24 L64,25 L20,26 L7,27 L7,25 L17,24 L3,24 L-3,22 L-4,24 L-4,21 L-32,21 L-32,19 L-35,19 L-35,17 L-43,17 L-44,13 L-40,11 L-37,11 L-36,13 L-33,14 L-33,16 L-7,15 L-8,13 L-8,7 L-6,2 L-2,1 L-2,3 L0,3 Z " fill="#4D545B" transform="translate(49,105)"/>
<path d="M0,0 L4,1 L4,7 L6,4 L9,5 L9,10 L12,8 L17,8 L16,14 L19,13 L19,20 L16,21 L16,19 L13,22 L9,20 L4,19 L5,20 L6,25 L4,26 L3,23 L-2,24 L-4,16 L-12,14 L-9,18 L-5,19 L-7,23 L-7,26 L-5,27 L-4,35 L-6,36 L-8,32 L-10,32 L-11,36 L-13,36 L-15,37 L-14,22 L-13,16 L-16,16 L-14,12 L-10,2 L-8,2 L-7,6 L-5,3 L-3,3 L-2,5 Z " fill="#182431" transform="translate(65,55)"/>
<path d="M0,0 L1,2 L5,1 L14,8 L20,12 L25,17 L29,20 L31,20 L31,18 L34,18 L34,20 L37,21 L35,22 L36,26 L40,28 L40,31 L46,29 L46,34 L51,33 L52,38 L57,37 L56,41 L59,42 L62,45 L62,43 L65,42 L63,47 L58,51 L56,51 L57,45 L49,47 L48,42 L46,41 L44,45 L43,45 L43,38 L40,37 L39,42 L37,43 L37,40 L35,40 L33,44 L32,44 L32,39 L23,35 L23,33 L27,34 L36,37 L37,33 L32,28 L19,17 L13,15 L8,9 L0,3 Z " fill="#71B3AD" transform="translate(25,18)"/>
<path d="M0,0 L4,0 L2,5 L-2,7 L0,13 L-1,16 L-2,20 L-5,20 L-5,27 L-9,31 L-11,32 L-11,36 L-8,35 L-9,38 L-13,40 L-17,41 L-22,43 L-21,47 L-18,50 L-21,55 L-23,55 L-24,58 L-32,57 L-28,55 L-27,51 L-30,53 L-31,50 L-33,51 L-32,48 L-28,46 L-24,46 L-22,39 L-15,28 L-13,28 L-13,21 L-11,16 L-11,11 L-13,12 L-12,8 L-6,3 Z M-12,36 Z " fill="#192632" transform="translate(121,69)"/>
<path d="M0,0 L1,0 L0,9 L-3,18 L0,18 L2,21 L-1,30 L-4,30 L-7,32 L-5,36 L2,37 L3,38 L6,37 L10,38 L10,40 L14,41 L14,43 L11,45 L3,45 L4,48 L-24,48 L-24,47 L-17,47 L-17,42 L-15,39 L-14,35 L-10,29 L-8,29 L-8,26 L-6,26 L-8,22 L-5,17 L-5,9 L-2,8 L-1,1 Z M-6,22 Z " fill="#101E2C" transform="translate(131,78)"/>
<path d="M0,0 L9,0 L9,2 L4,5 L2,5 L1,9 L-4,11 L-5,16 L-7,21 L-8,28 L-10,25 L-13,26 L-13,31 L-11,31 L-11,33 L-14,36 L-17,36 L-17,33 L-21,37 L-24,37 L-24,35 L-27,34 L-23,29 L-20,28 L-17,16 L-14,12 L-11,7 L-7,2 Z " fill="#17232E" transform="translate(40,84)"/>
<path d="M0,0 L5,1 L5,3 L9,4 L10,9 L15,8 L19,12 L20,14 L20,24 L16,28 L10,29 L7,27 L8,20 L13,15 L11,14 L11,16 L8,15 L5,12 L6,8 L1,10 L-1,5 L-5,6 L-6,1 Z " fill="#081725" transform="translate(76,47)"/>
<path d="M0,0 L2,0 L3,4 L5,1 L7,1 L10,5 L11,8 L21,12 L23,15 L18,13 L9,10 L0,8 L5,10 L5,12 L-2,12 L1,16 L5,17 L3,21 L3,24 L5,25 L6,33 L4,34 L2,30 L0,30 L-1,34 L-3,34 L-5,35 L-4,20 L-3,14 L-6,14 L-4,10 Z " fill="#303A45" transform="translate(55,57)"/>
<path d="M0,0 L9,0 L14,2 L11,3 L10,6 L-4,6 L-6,5 L-7,11 L-5,12 L-6,14 L1,14 L1,16 L-2,17 L-3,22 L-7,21 L-6,27 L-8,30 L-12,31 L-13,29 L-16,29 L-13,26 L-17,26 L-17,28 L-19,28 L-19,25 L-24,28 L-26,27 L-25,24 L-22,23 L-23,20 L-18,21 L-16,24 L-10,21 L-9,10 L-7,4 Z " fill="#303B45" transform="translate(81,94)"/>
<path d="M0,0 L46,0 L67,1 L67,3 L54,4 L10,5 L-3,6 L-3,4 L7,3 L-7,3 L-9,1 Z " fill="#81868B" transform="translate(59,126)"/>
<path d="M0,0 L7,1 L7,3 L11,4 L11,6 L8,8 L0,8 L1,11 L-27,11 L-27,10 L-20,10 L-20,5 L-18,4 L0,3 Z " fill="#3B454F" transform="translate(134,115)"/>
<path d="M0,0 L2,0 L1,7 L5,9 L6,8 L8,8 L9,12 L11,13 L11,11 L13,11 L13,14 L7,17 L4,16 L3,21 L0,22 L-1,15 L-5,16 L-7,15 L-8,20 L-10,18 L-10,11 L-8,5 L-4,6 L-3,6 L-2,2 Z " fill="#162532" transform="translate(63,82)"/>
<path d="M0,0 L5,1 L24,8 L29,10 L29,11 L20,12 L15,9 L12,9 L13,14 L17,17 L17,26 L13,22 L1,2 Z " fill="#1B2636" transform="translate(8,5)"/>
<path d="M0,0 L3,0 L4,2 L7,3 L7,5 L11,6 L43,6 L45,9 L50,10 L50,11 L37,11 L36,13 L36,10 L8,10 L8,8 L5,8 L5,6 L-3,6 L-4,2 Z " fill="#ACB0B5" transform="translate(9,116)"/>
<path d="M0,0 L4,1 L2,1 L2,3 L0,3 L0,9 L-2,9 L-1,13 L-6,15 L-9,16 L-8,20 L-5,23 L-8,28 L-10,28 L-11,31 L-19,30 L-15,28 L-14,24 L-17,26 L-18,23 L-20,24 L-19,21 L-15,19 L-11,19 L-9,12 L-2,1 Z " fill="#1D2A37" transform="translate(108,96)"/>
<path d="M0,0 L2,1 L2,5 L7,4 L8,9 L13,8 L12,12 L15,13 L18,16 L18,14 L21,13 L19,18 L14,22 L12,22 L13,16 L5,18 L4,13 L2,12 L0,16 L-1,16 L-1,9 L-1,6 L-1,4 L-5,3 L-6,1 L-1,1 Z " fill="#C3CBCD" transform="translate(69,47)"/>
<path d="M0,0 L2,0 L2,11 L-1,13 L0,16 L-2,17 L-1,21 L3,24 L-6,25 L-12,26 L-13,18 L-8,13 L-6,13 L-6,11 L-4,11 L-4,9 L-1,9 L-1,2 Z " fill="#2D3641" transform="translate(77,23)"/>
<path d="M0,0 L5,1 L4,3 L2,3 L2,5 L4,6 L2,6 L1,8 L-2,6 L-4,6 L-5,10 L-8,11 L-10,16 L-15,17 L-17,15 L-15,15 L-13,10 L-18,14 L-21,17 L-22,17 L-22,12 L-18,12 L-18,10 L-22,11 L-21,8 L-17,9 L-17,7 L-12,7 L-13,4 L-12,2 L-7,3 L-9,7 L-10,9 L-5,4 Z " fill="#25303D" transform="translate(103,22)"/>
<path d="M0,0 L6,0 L10,6 L10,8 L6,8 L6,10 L4,11 L-8,11 L-7,6 L-6,2 L-2,1 L-2,3 L0,3 Z " fill="#DFE0E2" transform="translate(49,105)"/>
<path d="M0,0 L2,0 L1,3 L3,5 L0,8 L-1,10 L1,11 L-3,12 L-5,11 L-5,13 L-9,13 L-10,15 L-6,14 L-6,16 L-10,16 L-11,20 L-12,18 L-16,17 L-12,16 L-13,8 L-11,5 L-11,8 L-3,4 Z " fill="#414B56" transform="translate(91,18)"/>
<path d="M0,0 L5,1 L5,3 L9,4 L10,9 L9,12 L13,14 L11,14 L11,16 L8,15 L5,12 L6,8 L1,10 L-1,5 L-5,6 L-6,1 Z " fill="#121C27" transform="translate(76,47)"/>
<path d="M0,0 L7,0 L7,2 L2,5 L0,5 L-1,9 L-6,11 L-7,16 L-9,20 L-14,19 L-14,17 L-12,17 L-12,10 L-9,8 L-6,9 L-6,5 L-2,3 L1,3 Z " fill="#242F3A" transform="translate(42,84)"/>
<path d="M0,0 L6,2 L4,6 L4,9 L6,10 L7,18 L5,19 L3,15 L1,15 L0,19 L-2,19 L-4,20 L-3,8 L-1,8 Z " fill="#323D48" transform="translate(54,72)"/>
<path d="M0,0 L7,3 L9,4 L9,6 L6,7 L6,13 L8,13 L9,16 L9,24 L6,26 L7,19 L4,18 L4,14 L2,14 L-2,6 L0,6 L0,4 L-2,3 L0,3 Z " fill="#0D1A27" transform="translate(95,48)"/>
<path d="M0,0 L5,1 L5,10 L11,10 L11,11 L5,11 L6,16 L4,16 L4,12 L-1,12 L-1,10 L3,10 L2,9 L-2,10 L-3,12 L-8,10 L-7,7 L-2,5 Z " fill="#0D1925" transform="translate(95,32)"/>
<path d="M0,0 L1,2 L5,1 L14,8 L20,12 L19,16 L14,16 L8,9 L0,3 Z " fill="#2B3541" transform="translate(25,18)"/>
<path d="M0,0 L3,1 L3,3 L-4,5 L-4,9 L-9,10 L-10,17 L-12,17 L-13,19 L-13,17 L-15,17 L-14,12 L-11,7 L-7,2 Z " fill="#4D545C" transform="translate(40,84)"/>
<path d="M0,0 L15,0 L18,2 L10,2 L11,5 L-5,5 L-8,1 Z " fill="#82878D" transform="translate(124,121)"/>
<path d="M0,0 L3,1 L4,3 L4,10 L0,9 L-2,25 L-5,24 L-5,22 L-7,21 L-4,16 L-2,5 Z " fill="#192839" transform="translate(141,71)"/>
<path d="M0,0 L3,1 L2,5 L4,6 L6,5 L19,5 L18,8 L14,9 L14,7 L9,7 L4,11 L1,15 L-1,15 L1,11 L2,9 L-2,7 L-2,4 Z " fill="#333D47" transform="translate(94,16)"/>
<path d="M0,0 L1,0 L2,5 L7,4 L6,8 L9,9 L12,12 L12,10 L15,9 L13,14 L8,18 L6,18 L6,12 L3,9 L-4,4 Z " fill="#DFE1E2" transform="translate(75,51)"/>
<path d="M0,0 L4,1 L2,1 L2,3 L0,3 L0,9 L-2,9 L-1,13 L-6,15 L-9,16 L-10,19 L-11,17 L-9,12 L-2,1 Z " fill="#24303B" transform="translate(108,96)"/>
<path d="M0,0 L11,0 L11,3 L9,3 L9,9 L6,6 L5,5 L5,9 L0,9 L-1,11 L0,7 L-1,2 Z " fill="#14212D" transform="translate(75,99)"/>
<path d="M0,0 L4,2 L4,4 L6,4 L5,8 L-1,16 L-3,16 L-3,9 Z " fill="#26323D" transform="translate(112,78)"/>
<path d="M0,0 L1,2 L-1,2 L-1,4 L3,5 L-13,9 L-17,7 L-18,4 L-4,3 L-4,1 Z " fill="#48515B" transform="translate(59,112)"/>
<path d="M0,0 L10,5 L11,9 L7,11 L4,14 L1,5 Z " fill="#172735" transform="translate(136,38)"/>
<path d="M0,0 L4,1 L13,4 L13,1 L17,3 L16,9 L14,10 L14,7 L12,7 L10,11 L9,11 L9,6 L0,2 Z " fill="#E6E7E7" transform="translate(48,51)"/>
<path d="M0,0 L4,1 L5,6 L7,10 L3,11 L1,10 L0,15 L-2,13 L-2,6 Z " fill="#17222E" transform="translate(55,87)"/>
<path d="M0,0 L7,2 L4,3 L3,6 L-11,6 L-12,4 L-8,2 L-1,1 Z " fill="#2B3641" transform="translate(88,94)"/>
<path d="M0,0 L7,0 L6,2 L-3,4 L-6,7 L-7,11 L-5,12 L-6,16 L-8,20 L-10,20 L-9,10 L-7,4 Z " fill="#3D4853" transform="translate(81,94)"/>
<path d="M0,0 L4,0 L5,1 L5,0 L10,0 L7,7 L-2,7 L-2,4 L-4,2 L0,2 Z " fill="#5C646A" transform="translate(52,119)"/>
<path d="M0,0 L3,3 L3,5 L5,6 L4,15 L4,18 L0,21 L-3,20 L-9,20 L-10,18 L-4,18 L0,16 L1,14 L1,4 Z " fill="#2F3842" transform="translate(94,57)"/>
<path d="M0,0 L6,1 L11,2 L10,5 L8,6 L8,12 L5,11 L4,6 L2,6 L2,4 L0,4 Z " fill="#141F2A" transform="translate(130,28)"/>
<path d="M0,0 L2,4 L6,9 L6,13 L0,13 L-1,12 L-1,4 Z " fill="#111924" transform="translate(142,51)"/>
<path d="M0,0 L5,0 L5,2 L3,3 L4,6 L13,8 L12,10 L7,9 L4,9 L-2,6 L-2,4 L-4,2 Z " fill="#404A54" transform="translate(124,20)"/>
<path d="M0,0 L6,1 L9,4 L8,7 L6,8 L4,9 L-1,4 Z " fill="#E8EBEB" transform="translate(20,13)"/>
<path d="M0,0 L5,2 L-1,9 L-4,9 L-4,7 L-7,6 L-3,1 Z " fill="#3A4752" transform="translate(20,112)"/>
<path d="M0,0 L7,0 L7,2 L4,3 L3,8 L-1,7 L0,13 L-4,11 L-3,9 L-6,8 L-1,4 Z " fill="#212D36" transform="translate(75,108)"/>
<path d="M0,0 L2,0 L1,7 L1,13 L-1,15 L-3,13 L-5,10 L-4,8 L-3,6 L-2,2 Z " fill="#222C37" transform="translate(63,82)"/>
<path d="M0,0 L2,0 L6,5 L8,8 L8,16 L5,18 L6,11 L3,10 L3,6 L1,6 L-1,1 Z " fill="#1A2834" transform="translate(96,56)"/>
<path d="M0,0 L6,2 L5,4 L6,5 L7,10 L5,11 L4,8 L-1,9 L-2,2 L0,2 Z " fill="#15212D" transform="translate(64,70)"/>
<path d="M0,0 L10,1 L12,0 L11,7 L9,9 L7,9 L8,4 L-1,3 L-2,1 Z " fill="#EAEBEA" transform="translate(42,58)"/>
<path d="M0,0 L5,1 L4,3 L2,3 L2,5 L4,6 L2,6 L1,8 L-2,6 L-4,6 L-5,10 L-8,10 L-6,5 Z M-9,10 Z " fill="#151F2C" transform="translate(103,22)"/>
<path d="M0,0 L6,0 L4,5 L-10,5 L-10,4 L-4,2 Z " fill="#3E4750" transform="translate(108,15)"/>
<path d="M0,0 L9,1 L13,2 L13,5 L9,5 L9,7 L2,5 L5,4 L5,2 L0,2 Z " fill="#212D3A" transform="translate(55,65)"/>
<path d="M0,0 L1,0 L1,5 L-1,5 L0,8 L-5,8 L-5,10 L-3,11 L-9,12 L-8,8 L-4,4 L-2,4 L-2,2 L0,2 Z " fill="#545F65" transform="translate(73,32)"/>
<path d="M0,0 L2,0 L3,4 L5,1 L7,1 L8,8 L-1,6 Z " fill="#28303B" transform="translate(55,57)"/>
<path d="M0,0 L5,1 L4,4 L-1,3 L-2,6 L-6,5 L-6,1 Z " fill="#101D2A" transform="translate(76,47)"/>
<path d="M0,0 L7,1 L7,3 L11,4 L11,6 L-1,5 Z " fill="#8E939A" transform="translate(134,115)"/>
<path d="M0,0 L1,2 L3,2 L2,6 L0,12 L-3,12 L-2,3 Z " fill="#2E353F" transform="translate(24,99)"/>
<path d="M0,0 L8,1 L9,6 L7,9 L5,8 L7,5 L2,5 Z " fill="#09131D" transform="translate(53,69)"/>
<path d="M0,0 L2,2 L3,5 L13,9 L15,12 L10,10 L1,7 L-6,5 L-3,4 L0,5 L-1,1 Z " fill="#44505A" transform="translate(63,60)"/>
<path d="M0,0 L5,1 L0,6 L-4,10 L-5,10 L-5,5 L-1,5 L-1,3 L-5,4 L-4,1 L0,2 Z " fill="#15202C" transform="translate(86,29)"/>
<path d="M0,0 L7,0 L8,3 L-8,3 L-8,1 Z " fill="#979B9F" transform="translate(127,123)"/>
<path d="M0,0 L5,2 L5,6 L8,7 L9,10 L5,11 L-1,2 Z " fill="#649899" transform="translate(60,44)"/>
<path d="M0,0 L7,1 L3,2 L3,4 L9,4 L9,5 L-2,6 L-1,1 Z " fill="#F9F9F9" transform="translate(43,110)"/>
<path d="M0,0 L18,0 L19,3 L16,3 L16,1 L8,2 L8,3 L1,3 Z " fill="#CCCECF" transform="translate(87,130)"/>
<path d="M0,0 L4,1 L3,4 L5,5 L2,8 L0,5 L-2,7 L-3,4 L-5,5 L-4,2 Z " fill="#39444F" transform="translate(93,115)"/>
<path d="M0,0 L3,0 L2,6 L5,5 L4,11 L-1,10 L-2,7 L-1,5 L1,5 Z " fill="#202C39" transform="translate(79,63)"/>
<path d="M0,0 L2,1 L2,5 L4,7 L6,11 L1,9 L-1,4 L-5,3 L-6,1 L-1,1 Z " fill="#ABC4C6" transform="translate(69,47)"/>
<path d="M0,0 L5,2 L6,4 L0,4 L-1,8 L-2,6 L-4,7 L-3,3 Z M4,0 L8,1 L5,2 Z " fill="#25303A" transform="translate(112,74)"/>
<path d="M0,0 L8,6 L9,10 L5,8 L-1,3 Z " fill="#61B3AE" transform="translate(45,32)"/>
<path d="M0,0 L6,2 L4,6 L1,6 L-1,10 L-3,8 L-1,8 Z " fill="#252F3A" transform="translate(54,72)"/>
<path d="M0,0 L2,1 L2,5 L8,5 L8,6 L2,6 L3,11 L1,11 L1,7 L-4,7 L-4,5 L0,5 Z " fill="#BEC4C7" transform="translate(98,37)"/>
<path d="M0,0 L1,0 L2,5 L7,4 L7,6 L5,6 L5,9 L0,7 L-4,3 Z " fill="#EAEFF0" transform="translate(75,51)"/>
<path d="M0,0 L10,2 L11,4 L2,5 L-1,1 Z " fill="#111A25" transform="translate(26,12)"/>
<path d="M0,0 L3,1 L-2,5 L-3,7 L-7,7 L-6,3 L-4,1 L-4,3 L-2,3 L-2,1 Z " fill="#0E1722" transform="translate(66,119)"/>
<path d="M0,0 L4,1 L2,1 L2,3 L0,3 L0,6 L-3,7 L-7,11 L-5,6 L-2,1 Z " fill="#3A4550" transform="translate(108,96)"/>
<path d="M0,0 L3,1 L3,5 L2,7 L-3,6 L-2,1 Z " fill="#29343E" transform="translate(101,26)"/>
<path d="M0,0 L2,0 L2,3 L5,3 L6,1 L6,3 L10,2 L16,3 L16,4 L-2,4 Z " fill="#07111B" transform="translate(21,117)"/>
<path d="M0,0 L5,1 L6,4 L4,7 L4,5 L-1,8 L-3,7 L-2,4 L1,3 Z " fill="#212B36" transform="translate(58,114)"/>
<path d="M0,0 L2,1 L2,7 L-2,9 L-2,14 L-3,14 L-3,7 Z " fill="#404B55" transform="translate(112,80)"/>
<path d="M0,0 L5,0 L5,2 L-3,6 L-5,6 L-3,2 Z " fill="#686E76" transform="translate(37,67)"/>
<path d="M0,0 L4,2 L5,3 L5,8 L0,9 L-1,7 L1,7 L1,5 L3,5 L0,2 Z " fill="#2F3A45" transform="translate(108,46)"/>
<path d="M0,0 L3,0 L4,2 L8,2 L8,6 L6,7 L1,5 Z " fill="#1B2833" transform="translate(87,50)"/>
<path d="M0,0 L2,0 L3,5 L5,6 L3,6 L3,8 L0,9 L-3,4 L-3,2 L-1,2 L0,2 Z " fill="#A7A9AB" transform="translate(68,28)"/>
<path d="M0,0 L5,1 L9,6 L7,9 L4,6 L0,1 Z " fill="#57616E" transform="translate(8,5)"/>
<path d="M0,0 L4,2 L4,4 L11,5 L8,7 L5,7 L5,5 L0,5 Z " fill="#2A3642" transform="translate(122,110)"/>
<path d="M0,0 L2,0 L2,6 L0,6 L-1,8 L-1,6 L-3,6 L-2,1 Z " fill="#5E676F" transform="translate(28,95)"/>
<path d="M0,0 L1,4 L0,7 L-1,10 L-5,9 L-2,9 L-2,7 L-4,7 L-2,2 Z " fill="#19222D" transform="translate(51,77)"/>
<path d="M0,0 L3,1 L1,1 L-1,7 L-1,9 L-5,8 L-4,4 Z " fill="#2E3A45" transform="translate(89,31)"/>
<path d="M0,0 L5,1 L4,6 L1,6 L1,4 L-2,4 L-2,2 L0,2 Z " fill="#24313D" transform="translate(115,23)"/>
<path d="M0,0 L2,0 L2,9 L-1,8 L-1,6 L-3,5 Z " fill="#1A2734" transform="translate(137,87)"/>
<path d="M0,0 L1,3 L4,4 L4,6 L2,6 L2,8 L-1,9 L-2,3 Z " fill="#121D28" transform="translate(107,45)"/>
<path d="M0,0 L5,0 L2,1 L2,3 L-7,3 L-9,1 Z " fill="#82888E" transform="translate(59,126)"/>
<path d="M0,0 L2,1 L1,5 L-5,7 L-3,2 Z " fill="#101C28" transform="translate(93,119)"/>
<path d="M0,0 L7,2 L4,3 L3,6 L-1,6 Z " fill="#1C2833" transform="translate(88,94)"/>
<path d="M0,0 L1,4 L-4,5 L-8,7 L-7,3 Z " fill="#39434E" transform="translate(35,89)"/>
<path d="M0,0 L2,0 L2,3 L6,2 L6,4 L2,4 L1,8 L0,6 L-4,5 L0,4 Z " fill="#C0C4C8" transform="translate(79,30)"/>
<path d="M0,0 L1,0 L1,6 L7,6 L6,9 L-1,9 Z " fill="#28303B" transform="translate(40,112)"/>
<path d="M0,0 L3,1 L3,5 L1,5 L1,7 L-3,6 L-2,3 L-2,5 L0,5 L-1,1 Z " fill="#09101C" transform="translate(77,63)"/>
<path d="M0,0 L4,1 L3,10 L1,7 Z " fill="#15222D" transform="translate(65,55)"/>
<path d="M0,0 L3,0 L1,5 L-4,4 L-3,1 Z " fill="#040D17" transform="translate(88,55)"/>
<path d="M0,0 L3,0 L4,2 L7,3 L7,5 L1,5 L-3,2 Z " fill="#9A9DA1" transform="translate(9,116)"/>
<path d="M0,0 L4,5 L6,4 L7,8 L2,8 L0,4 Z " fill="#2D3843" transform="translate(64,58)"/>
<path d="M0,0 L6,1 L6,2 L1,2 L0,5 L-3,5 L-2,1 Z " fill="#141F29" transform="translate(68,44)"/>
<path d="M0,0 L3,0 L3,2 L6,3 L2,6 L-2,2 L0,2 Z " fill="#BCC2C6" transform="translate(56,36)"/>
<path d="M0,0 L5,0 L5,2 L0,5 L-4,2 Z " fill="#192231" transform="translate(124,20)"/>
<path d="M0,0 L8,0 L7,3 L1,3 Z " fill="#E9EAEA" transform="translate(134,123)"/>
<path d="M0,0 L5,1 L2,5 L-3,5 Z " fill="#1D2733" transform="translate(16,114)"/>
<path d="M0,0 L2,1 L2,3 L5,2 L4,5 L-1,7 L-2,3 L0,3 Z M1,3 Z " fill="#14212D" transform="translate(108,102)"/>
<path d="M0,0 L5,1 L4,10 L2,9 L3,1 Z " fill="#454C55" transform="translate(49,70)"/>
<path d="M0,0 L8,1 L9,3 L-1,3 L-2,1 Z " fill="#9A9FA4" transform="translate(42,58)"/>
<path d="M0,0 L2,4 L5,8 L0,9 L-1,4 Z " fill="#293440" transform="translate(142,51)"/>
<path d="M0,0 L6,2 L8,5 L8,9 L6,9 L4,4 L1,3 Z " fill="#323C46" transform="translate(80,47)"/>
<path d="M0,0 L4,1 L8,8 L4,6 L2,2 L0,2 Z " fill="#3C4047" transform="translate(52,22)"/>
<path d="M0,0 L2,2 L12,3 L12,4 L1,6 L-1,4 Z " fill="#56606A" transform="translate(96,17)"/>
<path d="M0,0 L4,2 L4,4 L-8,4 L-8,3 L-1,2 Z " fill="#4F5760" transform="translate(115,122)"/>
<path d="M0,0 L2,0 L2,3 L4,4 L2,4 L2,6 L5,7 L1,8 L-1,6 L0,2 Z " fill="#11202D" transform="translate(74,115)"/>
<path d="M0,0 L4,1 L4,3 L1,6 L-2,6 L-1,1 Z " fill="#24323E" transform="translate(25,114)"/>
<path d="M0,0 L1,2 L4,1 L4,3 L-1,5 L-2,8 L-3,6 L-1,1 Z " fill="#2C3945" transform="translate(100,107)"/>
<path d="M0,0 L4,2 L10,5 L6,7 L0,3 Z " fill="#040E18" transform="translate(98,46)"/>
<path d="M0,0 L6,3 L7,7 L4,6 L3,4 L-1,2 Z " fill="#323D49" transform="translate(140,40)"/>
<path d="M0,0 L1,0 L1,5 L-1,5 L0,8 L-3,8 L-4,4 L-2,4 L-2,2 L0,2 Z " fill="#464F57" transform="translate(73,32)"/>
<path d="M0,0 L5,1 L4,5 L0,4 Z " fill="#4D5862" transform="translate(40,29)"/>
<path d="M0,0 L4,2 L4,6 L0,6 Z " fill="#B6C1C3" transform="translate(24,14)"/>
<path d="M0,0 L1,3 L3,4 L-1,6 L-1,11 L-3,9 L-1,2 Z " fill="#11202E" transform="translate(115,114)"/>
<path d="M0,0 L1,0 L1,5 L-3,6 L-4,3 Z " fill="#525C66" transform="translate(88,64)"/>
<path d="M0,0 L2,0 L2,8 L-2,6 L-2,2 Z " fill="#242E3B" transform="translate(76,37)"/>
<path d="M0,0 L1,4 L-1,6 L-7,5 L-4,4 L-3,2 L0,2 Z " fill="#17232F" transform="translate(93,33)"/>
<path d="M0,0 L6,2 L6,4 L-1,4 L-2,2 L0,2 Z " fill="#162330" transform="translate(120,25)"/>
<path d="M0,0 L5,1 L3,5 L-1,4 Z " fill="#182331" transform="translate(91,24)"/>
<path d="M0,0 L1,3 L7,0 L9,1 L2,5 L-1,5 Z " fill="#3D4650" transform="translate(79,23)"/>
<path d="M0,0 L1,2 L3,3 L0,4 L1,7 L-5,6 L-2,3 L0,3 Z " fill="#132230" transform="translate(104,107)"/>
<path d="M0,0 L4,3 L4,5 L0,6 L-2,5 Z " fill="#192836" transform="translate(56,79)"/>
<path d="M0,0 L4,1 L11,4 L8,5 L0,2 Z " fill="#797C81" transform="translate(48,51)"/>
<path d="M0,0 L5,1 L8,4 L1,3 L-1,1 Z " fill="#42454C" transform="translate(32,47)"/>
<path d="M0,0 L4,1 L5,5 L1,5 Z " fill="#0B1929" transform="translate(140,43)"/>
<path d="M0,0 L4,1 L1,3 L-8,2 L-8,1 Z " fill="#9A9FA4" transform="translate(48,122)"/>
<path d="M0,0 L4,1 L3,4 L5,5 L2,8 Z " fill="#2C3843" transform="translate(93,115)"/>
<path d="M0,0 L3,0 L3,2 L8,1 L8,3 L-1,3 Z " fill="#12202D" transform="translate(124,115)"/>
<path d="M0,0 L2,0 L2,2 L8,2 L8,3 L-2,4 L-1,1 Z " fill="#DDDFDF" transform="translate(44,112)"/>
<path d="M0,0 L2,4 L-2,5 L-4,4 L-4,1 Z " fill="#11202D" transform="translate(60,93)"/>
<path d="M0,0 L8,0 L8,2 L6,2 L6,4 L2,2 L1,4 Z " fill="#121D28" transform="translate(63,88)"/>
<path d="M0,0 L5,0 L3,1 L1,8 L0,8 Z " fill="#293642" transform="translate(138,79)"/>
<path d="M0,0 L0,3 L-5,6 L-7,5 L-3,1 Z " fill="#161F2A" transform="translate(99,74)"/>
<path d="M0,0 L2,0 L3,4 L2,6 L-1,5 Z " fill="#18222D" transform="translate(98,67)"/>
<path d="M0,0 L1,2 L-3,6 L-4,4 L-6,4 L-6,2 L-2,3 L-2,1 Z " fill="#E6E9E9" transform="translate(89,60)"/>
<path d="M0,0 L2,3 L6,5 L4,5 L4,7 L1,6 L-2,3 L-1,1 Z " fill="#37434F" transform="translate(83,56)"/>
<path d="M0,0 L3,1 L2,5 L-3,6 Z " fill="#1C232E" transform="translate(94,16)"/>
<path d="M0,0 L4,0 L5,3 L-3,3 Z " fill="#A5A7AA" transform="translate(130,123)"/>
<path d="M0,0 L6,1 L7,4 L1,4 Z " fill="#C4C7CA" transform="translate(5,118)"/>
<path d="M0,0 L7,0 L7,4 L5,4 L5,2 L0,1 Z " fill="#24303D" transform="translate(108,37)"/>
<path d="M0,0 L4,0 L2,4 L-3,4 Z " fill="#0A101B" transform="translate(110,15)"/>
<path d="M0,0 L5,4 L6,8 L4,9 L0,2 Z " fill="#232E3C" transform="translate(12,10)"/>
<path d="M0,0 L4,1 L3,4 L-3,4 L-2,1 Z " fill="#1C2836" transform="translate(22,10)"/>
</svg>
