<?xml version="1.0" encoding="UTF-8"?>
<!-- Generator: visioncortex VTracer 0.6.5 -->
<svg version="1.1" xmlns="http://www.w3.org/2000/svg" width="176" height="131">
<path d="M0,0 L176,0 L176,131 L0,131 Z " fill="#F5F5F5" transform="translate(0,0)"/>
<path d="M0,0 L8,0 L16,3 L19,6 L26,8 L26,4 L30,6 L36,13 L41,25 L46,23 L44,27 L44,31 L45,33 L58,24 L67,17 L72,12 L80,6 L84,5 L82,9 L75,15 L72,18 L66,21 L52,32 L49,33 L49,35 L43,39 L41,50 L38,53 L33,52 L32,50 L28,51 L30,54 L34,55 L33,59 L31,62 L25,63 L23,65 L12,67 L7,73 L14,74 L17,77 L20,78 L22,84 L22,90 L29,89 L28,94 L22,99 L40,101 L40,102 L51,104 L51,105 L46,106 L42,109 L33,109 L28,108 L28,110 L24,111 L-48,111 L-48,109 L-54,110 L-54,111 L-59,111 L-59,109 L-63,109 L-63,107 L-66,105 L-73,104 L-73,103 L-62,103 L-62,101 L-60,101 L-60,103 L-58,101 L-32,99 L-21,99 L-19,98 L-9,99 L-7,100 L-7,98 L-4,98 L-4,100 L8,100 L11,101 L11,97 L7,96 L7,92 L3,92 L3,90 L-2,91 L-28,91 L-33,95 L-42,97 L-48,97 L-48,95 L-57,93 L-58,89 L-61,89 L-62,85 L-64,83 L-72,83 L-71,78 L-61,69 L-56,69 L-53,74 L-46,77 L-44,75 L-43,68 L-46,68 L-43,59 L-42,56 L-44,55 L-44,53 L-41,51 L-47,51 L-52,53 L-52,59 L-55,60 L-55,57 L-57,57 L-58,61 L-61,61 L-62,59 L-64,59 L-64,55 L-66,55 L-65,51 L-61,47 L-59,47 L-57,42 L-48,36 L-43,35 L-34,35 L-30,33 L-28,30 L-33,29 L-31,25 L-22,19 L-16,16 L-15,14 L-21,13 L-20,10 L-13,7 L4,6 Z " fill="#0D1B29" transform="translate(74,15)"/>
<path d="M0,0 L8,0 L16,3 L19,6 L26,8 L26,4 L30,6 L36,13 L41,25 L46,23 L44,27 L44,31 L45,33 L58,24 L67,17 L72,12 L80,6 L84,5 L82,9 L75,15 L72,18 L66,21 L52,32 L49,33 L49,35 L44,38 L41,38 L40,41 L36,39 L37,34 L39,30 L37,23 L35,23 L34,26 L33,24 L34,21 L32,21 L32,19 L25,20 L24,17 L18,18 L12,13 L12,11 L10,12 L10,15 L15,17 L13,21 L13,25 L6,24 L6,22 L4,22 L4,17 L-1,17 L-1,15 L-4,16 L-3,19 L-13,19 L-13,21 L-15,21 L-15,23 L-17,23 L-18,25 L-18,23 L-21,25 L-22,28 L-15,28 L-17,29 L-19,33 L-22,34 L-23,32 L-27,33 L-29,37 L-24,40 L-24,38 L-19,39 L-17,43 L-19,46 L-21,44 L-26,42 L-34,41 L-39,40 L-45,41 L-45,43 L-51,43 L-51,45 L-54,47 L-57,47 L-57,49 L-63,51 L-64,49 L-59,47 L-57,42 L-48,36 L-43,35 L-34,35 L-30,33 L-28,30 L-33,29 L-31,25 L-22,19 L-16,16 L-15,14 L-21,13 L-20,10 L-13,7 L4,6 Z " fill="#424D56" transform="translate(74,15)"/>
<path d="M0,0 L10,1 L12,2 L12,0 L15,0 L15,2 L27,2 L35,3 L40,1 L59,3 L59,4 L70,6 L70,7 L65,8 L61,11 L52,11 L47,10 L47,12 L43,13 L-29,13 L-29,11 L-35,12 L-35,13 L-40,13 L-40,11 L-44,11 L-44,9 L-47,7 L-54,6 L-54,5 L-43,5 L-43,3 L-41,3 L-41,5 L-39,3 L-13,1 L-2,1 Z " fill="#858A91" transform="translate(55,113)"/>
<path d="M0,0 L2,0 L0,5 L-7,17 L-12,28 L-16,39 L-23,47 L-33,51 L-52,51 L-52,44 L-47,40 L-45,40 L-45,38 L-28,25 L-22,22 L-20,22 L-18,18 L-11,12 L-14,11 L-20,10 L-20,8 Z " fill="#EAF2F2" transform="translate(168,10)"/>
<path d="M0,0 L2,0 L6,5 L10,6 L15,5 L17,8 L22,8 L22,10 L24,10 L24,14 L25,12 L27,12 L29,16 L29,19 L31,20 L28,20 L29,24 L28,28 L30,28 L33,25 L33,28 L31,39 L28,42 L23,41 L21,35 L18,35 L17,32 L21,31 L13,29 L12,24 L13,21 L10,20 L9,20 L9,23 L5,23 L5,21 L-3,19 L-7,20 L-7,17 L-7,13 L-5,12 L3,14 L2,10 L3,8 L1,7 L4,6 L-1,4 Z " fill="#0B1825" transform="translate(84,26)"/>
<path d="M0,0 L2,3 L5,9 L11,14 L11,16 L17,14 L21,10 L20,14 L24,16 L17,18 L13,23 L20,24 L23,27 L26,28 L28,34 L28,40 L35,39 L34,44 L28,49 L22,52 L17,51 L17,47 L13,46 L14,39 L12,39 L13,35 L16,33 L16,29 L17,25 L10,25 L8,27 L-8,29 L-8,27 L7,25 L10,21 L5,20 L-2,19 L3,14 L6,14 L0,7 Z M15,35 L14,39 L16,38 Z " fill="#101F2C" transform="translate(68,65)"/>
<path d="M0,0 L4,2 L10,9 L15,21 L20,19 L18,23 L18,27 L19,29 L32,20 L41,13 L46,8 L54,2 L58,1 L56,5 L49,11 L46,14 L40,17 L26,28 L23,29 L23,31 L18,34 L15,34 L14,37 L10,35 L11,30 L13,26 L11,19 L9,19 L8,22 L7,20 L8,17 L6,17 L6,15 L-1,16 L-2,13 L-8,14 L-12,10 L-11,6 L-8,4 L0,4 Z " fill="#212C38" transform="translate(100,19)"/>
<path d="M0,0 L7,0 L14,2 L20,3 L20,7 L17,7 L17,9 L21,8 L22,12 L21,16 L18,18 L12,18 L16,16 L18,16 L18,14 L12,15 L3,9 L1,8 L1,10 L-4,12 L-9,14 L-9,20 L-12,21 L-12,18 L-14,18 L-15,22 L-18,22 L-19,20 L-21,20 L-21,16 L-23,16 L-22,12 L-16,10 L-14,10 L-14,8 L-8,6 L-8,4 L-2,4 L-2,2 Z " fill="#0E1C2A" transform="translate(31,54)"/>
<path d="M0,0 L8,0 L16,3 L19,6 L23,8 L16,10 L15,14 L12,13 L12,11 L10,12 L10,15 L15,17 L13,21 L13,25 L6,24 L6,22 L4,22 L4,17 L-1,17 L-1,15 L-9,15 L-9,13 L-3,12 L-3,10 L0,9 L-6,8 L-2,6 L4,6 Z " fill="#323C46" transform="translate(74,15)"/>
<path d="M0,0 L13,1 L16,0 L24,0 L24,1 L55,1 L57,5 L40,6 L6,6 L6,4 L-3,4 L-3,6 L-15,6 L-15,5 L-31,4 L-31,3 L-10,3 L-5,4 L-5,2 L-35,2 L-35,1 Z " fill="#535B63" transform="translate(50,117)"/>
<path d="M0,0 L7,1 L8,6 L6,10 L3,12 L2,15 L4,15 L4,18 L-1,18 L-1,16 L-6,17 L-15,17 L-18,14 L-10,10 L-9,6 L-9,3 L-2,2 Z M5,11 L6,14 L4,15 Z " fill="#0A1A27" transform="translate(78,89)"/>
<path d="M0,0 L10,1 L12,2 L12,0 L15,0 L15,2 L27,2 L37,3 L45,3 L43,5 L26,6 L12,6 L11,5 L4,6 L-5,5 L-31,5 L-39,4 L-39,3 L-13,1 L-2,1 Z " fill="#788088" transform="translate(55,113)"/>
<path d="M0,0 L2,3 L5,9 L11,14 L11,16 L17,14 L21,10 L20,14 L24,16 L17,18 L13,23 L20,24 L23,27 L26,28 L27,33 L25,35 L23,31 L18,28 L17,25 L10,25 L8,27 L-8,29 L-8,27 L7,25 L10,21 L5,20 L-2,19 L3,14 L6,14 L0,7 Z " fill="#1A2B37" transform="translate(68,65)"/>
<path d="M0,0 L25,0 L26,2 L28,2 L28,4 L26,5 L-17,5 L-18,1 Z " fill="#EAEBEB" transform="translate(52,126)"/>
<path d="M0,0 L21,2 L21,3 L32,5 L32,6 L27,7 L23,10 L14,10 L9,9 L9,11 L2,12 L-9,11 L-9,10 L-3,9 L-1,6 L12,5 L5,4 L5,3 L-1,3 Z " fill="#94989E" transform="translate(93,114)"/>
<path d="M0,0 L4,0 L4,2 L6,2 L7,5 L12,7 L10,11 L10,15 L3,14 L3,12 L1,12 L1,7 L-4,7 L-4,5 L-12,5 L-12,3 L0,1 Z " fill="#1D2631" transform="translate(77,25)"/>
<path d="M0,0 L2,0 L3,2 L33,3 L33,5 L17,5 L17,6 L31,8 L31,9 L8,9 L8,10 L3,10 L3,8 L-1,8 L-1,6 L-4,4 L-11,3 L-11,2 L0,2 Z " fill="#C6C8CB" transform="translate(12,116)"/>
<path d="M0,0 L5,0 L8,5 L12,8 L10,8 L10,10 L3,11 L4,7 L-3,7 L-6,9 L-6,12 L-3,14 L-11,14 L-10,9 Z " fill="#303B45" transform="translate(13,84)"/>
<path d="M0,0 L10,1 L12,2 L12,0 L15,0 L15,2 L13,3 L-5,4 L-5,5 L-31,5 L-39,4 L-39,3 L-13,1 L-2,1 Z " fill="#ACB1B6" transform="translate(55,113)"/>
<path d="M0,0 L7,0 L7,2 L9,2 L9,0 L11,0 L12,4 L16,5 L13,10 L6,9 L2,6 L-4,6 L-4,3 Z " fill="#06131F" transform="translate(85,60)"/>
<path d="M0,0 L5,0 L5,2 L9,2 L10,6 L13,7 L13,11 L-2,10 L-3,5 L-1,5 L-2,1 Z " fill="#F5F6F6" transform="translate(72,105)"/>
<path d="M0,0 L0,3 L-8,10 L-11,13 L-17,16 L-31,27 L-34,28 L-35,30 L-35,28 L-37,27 L-26,20 L-16,12 L-11,7 L-3,1 Z " fill="#82CCC9" transform="translate(157,20)"/>
<path d="M0,0 L3,1 L4,3 L8,4 L7,8 L5,11 L-1,12 L-4,14 L-6,12 L-4,12 L-4,6 L-11,3 L-12,1 L-2,3 Z " fill="#172431" transform="translate(100,66)"/>
<path d="M0,0 L2,0 L0,5 L-8,19 L-9,19 L-9,12 L-6,8 L-11,9 L-19,9 L-18,7 Z " fill="#192434" transform="translate(168,10)"/>
<path d="M0,0 L3,4 L5,6 L9,4 L7,8 L7,12 L8,14 L11,14 L9,18 L6,18 L4,20 L3,22 L-1,20 L0,15 L2,11 L-1,2 Z " fill="#343D49" transform="translate(111,34)"/>
<path d="M0,0 L8,0 L8,1 L39,1 L40,3 L24,3 L24,4 L-1,4 L-7,3 L-3,1 Z " fill="#323842" transform="translate(66,117)"/>
<path d="M0,0 L4,1 L8,3 L4,4 L4,6 L8,8 L0,9 L-13,8 L-10,5 L-4,3 Z " fill="#F7F7F8" transform="translate(46,105)"/>
<path d="M0,0 L11,0 L20,1 L22,2 L22,0 L27,1 L29,5 L27,8 L25,6 L20,4 L12,3 L7,2 L1,3 L1,5 L-5,5 L-5,7 L-9,9 L-8,5 L-3,4 L-2,2 L0,3 Z " fill="#2D3944" transform="translate(28,53)"/>
<path d="M0,0 L20,0 L22,1 L22,3 L3,1 L3,4 L-3,6 L-5,7 L-6,10 L-8,10 L-8,12 L-14,14 L-15,12 L-10,10 L-8,5 Z " fill="#444F59" transform="translate(25,52)"/>
<path d="M0,0 L0,3 L-3,4 L-3,6 L-15,6 L-15,5 L-31,4 L-31,3 L-10,3 L-5,4 L-5,2 L-35,2 L-35,1 Z " fill="#414851" transform="translate(50,117)"/>
<path d="M0,0 L3,1 L2,3 L4,3 L4,8 L0,8 L1,12 L-5,11 L-5,5 L-9,6 L-9,4 L-6,4 L-5,1 L-1,1 Z " fill="#202C37" transform="translate(57,57)"/>
<path d="M0,0 L25,0 L26,2 L28,2 L28,4 L23,5 L23,2 L-13,2 L-13,1 Z " fill="#BCBEC1" transform="translate(52,126)"/>
<path d="M0,0 L10,0 L10,1 L18,2 L18,0 L27,0 L27,2 L37,2 L37,3 L5,3 L-8,2 L-8,1 Z " fill="#777D83" transform="translate(29,121)"/>
<path d="M0,0 L2,3 L5,9 L11,14 L11,16 L13,17 L6,17 L5,20 L-2,19 L3,14 L6,14 L0,7 Z " fill="#2A3946" transform="translate(68,65)"/>
<path d="M0,0 L2,0 L3,2 L33,3 L33,5 L-4,5 L-4,4 L-11,3 L-11,2 L0,2 Z " fill="#838A91" transform="translate(12,116)"/>
<path d="M0,0 L3,3 L7,4 L5,7 L4,9 L0,8 L-3,9 L-3,7 L-9,7 L-12,5 L-11,1 L-5,3 L-3,4 L-3,6 L1,6 Z " fill="#283542" transform="translate(92,43)"/>
<path d="M0,0 L2,2 L1,3 L-1,14 L-4,17 L-9,16 L-9,13 L-5,12 L-6,8 L-2,3 Z " fill="#131F2C" transform="translate(116,51)"/>
<path d="M0,0 L4,1 L3,3 L8,1 L10,5 L6,6 L5,7 L1,7 L1,9 L-4,7 L-6,5 L-3,4 L-2,2 L0,2 Z " fill="#13202D" transform="translate(49,46)"/>
<path d="M0,0 L2,0 L2,2 L-1,2 L-1,7 L-3,7 L-2,12 L-7,11 L-8,14 L-9,14 L-9,7 L-4,1 Z " fill="#202E3B" transform="translate(34,89)"/>
<path d="M0,0 L5,0 L2,5 L2,13 L-2,21 L-4,27 L-5,23 L-1,13 L0,7 L-2,6 L-1,4 L-10,3 L-9,1 L-1,1 Z " fill="#B2CBCE" transform="translate(158,17)"/>
<path d="M0,0 L18,1 L18,2 L10,3 L10,5 L4,6 L5,4 L-4,4 L-5,2 Z " fill="#45505A" transform="translate(61,22)"/>
<path d="M0,0 L2,0 L6,5 L11,7 L11,9 L13,9 L13,12 L3,10 L3,8 L1,7 L4,6 L-1,4 Z M11,5 Z " fill="#131E2A" transform="translate(84,26)"/>
<path d="M0,0 L9,0 L11,3 L11,7 L8,7 L7,3 L5,3 L5,5 L3,5 L3,3 L-4,4 L-8,6 L-5,2 Z " fill="#2B3844" transform="translate(89,57)"/>
<path d="M0,0 L22,0 L26,2 L17,2 L12,1 L12,3 L5,4 L-6,3 L-6,2 L0,1 Z " fill="#BDC1C5" transform="translate(90,122)"/>
<path d="M0,0 L3,1 L2,3 L8,4 L4,9 L1,9 L1,5 L-2,7 L-9,8 L-7,4 L-2,4 L-2,2 L0,2 Z " fill="#212C36" transform="translate(61,34)"/>
<path d="M0,0 L2,1 L14,2 L10,4 L-1,5 L-13,5 L-13,4 L-6,3 L-5,1 Z " fill="#D9DCDD" transform="translate(32,111)"/>
<path d="M0,0 L4,1 L9,0 L9,8 L2,7 L2,5 L0,5 Z " fill="#1E2A37" transform="translate(78,32)"/>
<path d="M0,0 L6,0 L6,2 L13,4 L15,7 L5,7 Z " fill="#162433" transform="translate(74,15)"/>
<path d="M0,0 L6,2 L4,12 L0,15 L-2,15 L1,6 L2,3 L0,2 Z " fill="#2A3744" transform="translate(30,68)"/>
<path d="M0,0 L5,0 L5,3 L3,3 L7,7 L1,10 L-1,4 L-3,2 Z " fill="#132230" transform="translate(100,56)"/>
<path d="M0,0 L0,3 L-8,10 L-11,13 L-13,13 L-13,11 L-11,11 L-12,8 L-3,1 Z " fill="#3C4350" transform="translate(157,20)"/>
<path d="M0,0 L2,0 L3,2 L6,2 L4,6 L1,6 L-1,8 L-2,10 L-6,8 L-5,3 L0,3 Z " fill="#243040" transform="translate(116,46)"/>
<path d="M0,0 L7,0 L14,2 L20,3 L18,4 L17,6 L12,5 L8,7 L8,3 L0,3 Z " fill="#1F2B37" transform="translate(31,54)"/>
<path d="M0,0 L14,0 L9,4 L6,6 L6,4 L-1,3 Z " fill="#1E2A36" transform="translate(54,25)"/>
<path d="M0,0 L21,2 L20,4 L12,5 L5,4 L5,3 L-1,3 Z " fill="#C4C8CB" transform="translate(93,114)"/>
<path d="M0,0 L1,3 L3,4 L0,10 L-2,10 L-4,17 L-7,14 L-6,12 L-4,12 L-4,7 L-1,7 Z " fill="#172532" transform="translate(37,84)"/>
<path d="M0,0 L3,1 L4,3 L8,4 L7,8 L5,11 L1,10 L3,9 L1,3 L0,4 L-2,5 Z " fill="#2E3A48" transform="translate(100,66)"/>
<path d="M0,0 L3,1 L3,3 L1,3 L0,6 L-3,7 L-20,7 L-18,5 L-6,5 L-2,3 Z " fill="#2D3742" transform="translate(46,45)"/>
<path d="M0,0 L3,1 L11,2 L11,4 L9,4 L9,6 L7,6 L7,8 L3,8 L3,6 L0,5 Z " fill="#DBDCDD" transform="translate(119,116)"/>
<path d="M0,0 L8,0 L8,1 L14,2 L10,4 L-1,4 L-7,3 L-3,1 Z " fill="#242C36" transform="translate(66,117)"/>
<path d="M0,0 L9,0 L12,3 L15,4 L16,9 L14,11 L12,7 L7,4 L6,1 L0,1 Z " fill="#353F4A" transform="translate(79,89)"/>
<path d="M0,0 L3,3 L-1,5 L-2,8 L-6,7 L-9,9 L-9,5 L-2,3 L-2,1 Z " fill="#16222D" transform="translate(25,91)"/>
<path d="M0,0 L17,0 L14,3 L-1,3 L-7,2 L-7,1 Z " fill="#90969D" transform="translate(81,123)"/>
<path d="M0,0 L10,1 L12,2 L12,0 L15,0 L15,2 L13,3 L-4,3 Z " fill="#A9AEB4" transform="translate(55,113)"/>
<path d="M0,0 L1,0 L1,6 L8,5 L6,7 L-2,11 L-5,11 L-2,8 L-1,1 Z " fill="#1F2D3A" transform="translate(95,99)"/>
<path d="M0,0 L1,2 L0,5 L-2,5 L-2,7 L-9,7 L-8,3 Z " fill="#24313E" transform="translate(17,63)"/>
<path d="M0,0 L2,4 L3,3 L5,4 L4,7 L0,8 L-2,12 L-5,11 L-3,8 L-1,8 L-1,2 Z " fill="#1B2835" transform="translate(35,72)"/>
<path d="M0,0 L4,2 L6,7 L5,10 L0,7 Z " fill="#17212E" transform="translate(100,19)"/>
<path d="M0,0 L8,1 L7,3 L10,6 L5,6 L5,4 L-2,4 Z " fill="#272F39" transform="translate(51,117)"/>
<path d="M0,0 L10,2 L10,3 L3,3 L2,6 L-5,5 Z " fill="#718B8C" transform="translate(71,79)"/>
<path d="M0,0 L5,5 L6,11 L3,11 L0,7 L2,7 L0,3 Z " fill="#475058" transform="translate(105,23)"/>
<path d="M0,0 L10,0 L16,1 L16,2 L11,3 L11,4 L4,4 L4,2 Z " fill="#A6A8AD" transform="translate(109,118)"/>
<path d="M0,0 L0,3 L-11,5 L-18,3 L-18,2 L-4,1 Z " fill="#E2E3E4" transform="translate(102,124)"/>
<path d="M0,0 L3,1 L3,3 L-7,3 L-15,2 L-15,1 Z " fill="#868B91" transform="translate(31,115)"/>
<path d="M0,0 L4,0 L4,3 L-3,6 L-6,4 Z " fill="#30404D" transform="translate(63,84)"/>
<path d="M0,0 L6,0 L5,3 L9,2 L9,6 L3,5 L3,3 Z " fill="#16232E" transform="translate(56,55)"/>
<path d="M0,0 L2,0 L0,5 L-1,7 L-3,7 L-4,5 L-8,3 Z " fill="#343D4B" transform="translate(168,10)"/>
<path d="M0,0 L2,0 L5,4 L-4,5 L-4,4 L-11,3 L-11,2 L0,2 Z " fill="#A1A4A8" transform="translate(12,116)"/>
<path d="M0,0 L2,1 L-2,7 L-9,6 L-6,3 Z " fill="#0F1924" transform="translate(51,37)"/>
<path d="M0,0 L6,0 L9,0 L16,2 L14,3 L8,4 L0,2 Z " fill="#353E49" transform="translate(73,30)"/>
<path d="M0,0 L8,1 L8,2 L2,4 L-6,4 L-5,2 Z " fill="#2F3945" transform="translate(155,15)"/>
<path d="M0,0 L2,1 L-1,5 L1,6 L-1,6 L-1,8 L-7,10 L-8,8 L-3,6 L-1,1 Z " fill="#404A53" transform="translate(18,56)"/>
<path d="M0,0 L4,1 L2,1 L2,4 L-3,6 L-4,8 L-6,8 L-4,2 Z " fill="#545E66" transform="translate(23,53)"/>
<path d="M0,0 L3,3 L7,4 L5,7 L4,9 L0,8 L-2,7 L1,6 Z " fill="#BBC1C6" transform="translate(92,43)"/>
<path d="M0,0 L7,0 L9,2 L-4,4 L-5,2 Z " fill="#5F6870" transform="translate(61,22)"/>
<path d="M0,0 L1,2 L0,4 L4,6 L-3,8 L-5,9 L-8,7 L-2,3 Z " fill="#384954" transform="translate(88,75)"/>
<path d="M0,0 L2,0 L2,2 L7,3 L8,6 L1,6 L2,3 L-1,2 Z " fill="#313D49" transform="translate(63,28)"/>
<path d="M0,0 L7,0 L7,2 L9,3 L-3,3 L-3,1 Z " fill="#222E3B" transform="translate(68,27)"/>
<path d="M0,0 L4,2 L3,6 L-1,5 L-1,3 L-3,2 Z " fill="#C1C4C7" transform="translate(104,64)"/>
<path d="M0,0 L2,3 L1,5 L-5,5 L-5,7 L-9,9 L-8,5 L-3,4 L-2,2 L0,3 Z " fill="#222E3A" transform="translate(28,53)"/>
<path d="M0,0 L5,1 L7,5 L5,8 L3,6 L1,4 L1,2 Z " fill="#434C54" transform="translate(50,53)"/>
<path d="M0,0 L6,0 L5,4 L2,4 L1,5 L-5,5 L-1,3 Z " fill="#0B1825" transform="translate(72,32)"/>
<path d="M0,0 L3,1 L2,3 L6,5 L-3,5 Z " fill="#05101B" transform="translate(90,75)"/>
<path d="M0,0 L2,0 L1,3 L-13,3 L-13,2 Z " fill="#5B646B" transform="translate(80,116)"/>
<path d="M0,0 L5,1 L4,3 L-4,4 L-5,2 Z " fill="#253340" transform="translate(37,107)"/>
<path d="M0,0 L4,1 L3,7 L1,6 L1,4 L-3,5 L-3,3 L0,3 Z " fill="#1A2834" transform="translate(51,58)"/>
<path d="M0,0 L9,0 L5,1 L5,3 L-2,3 L-2,1 Z " fill="#F4F5F6" transform="translate(47,128)"/>
<path d="M0,0 L3,0 L3,4 L-3,7 L-2,3 Z " fill="#3C4752" transform="translate(29,91)"/>
<path d="M0,0 L6,2 L5,6 L3,6 L2,10 L1,6 L2,3 L0,2 Z " fill="#424E57" transform="translate(30,68)"/>
<path d="M0,0 L6,2 L6,6 L4,6 L3,9 L2,7 L3,4 L1,4 Z " fill="#1A242E" transform="translate(105,32)"/>
<path d="M0,0 L5,1 L6,3 L-4,3 L-4,1 Z " fill="#0E1926" transform="translate(83,19)"/>
<path d="M0,0 L8,2 L10,4 L10,6 L5,4 L0,2 Z " fill="#4D5762" transform="translate(80,15)"/>
<path d="M0,0 L2,3 L-1,9 L-4,9 L-2,2 L0,2 Z " fill="#2D3943" transform="translate(56,59)"/>
<path d="M0,0 L3,4 L4,11 L2,11 L-1,2 Z " fill="#2D3842" transform="translate(111,34)"/>
<path d="M0,0 L9,0 L4,4 L2,4 L2,2 L0,2 Z " fill="#0E1A27" transform="translate(59,25)"/>
<path d="M0,0 L9,0 L10,5 L6,3 L6,1 L0,1 Z " fill="#49525C" transform="translate(79,89)"/>
<path d="M0,0 L2,1 L1,4 L-9,5 L-8,3 L0,2 Z " fill="#0B1521" transform="translate(61,38)"/>
<path d="M0,0 L2,1 L2,3 L0,3 L-1,6 L-6,8 Z " fill="#7AA5A7" transform="translate(144,28)"/>
<path d="M0,0 L6,1 L6,3 L2,5 L-1,1 Z " fill="#192634" transform="translate(45,82)"/>
<path d="M0,0 L4,0 L3,5 L-2,4 L-2,1 Z " fill="#253140" transform="translate(109,63)"/>
<path d="M0,0 L5,1 L4,7 L-1,6 Z " fill="#A1ACB1" transform="translate(111,49)"/>
<path d="M0,0 L3,1 L-2,6 L-4,6 L-4,4 L-2,4 L-3,1 Z " fill="#212935" transform="translate(148,27)"/>
<path d="M0,0 L4,1 L4,3 L1,3 L2,6 L-1,6 L-1,1 Z " fill="#14212D" transform="translate(62,43)"/>
<path d="M0,0 L3,1 L2,5 L-3,4 L-2,2 L0,2 Z " fill="#202A35" transform="translate(72,39)"/>
<path d="M0,0 L6,2 L3,4 L-2,3 Z " fill="#293946" transform="translate(19,105)"/>
<path d="M0,0 L4,2 L7,4 L7,6 L3,5 Z " fill="#1A3F48" transform="translate(72,75)"/>
</svg>
