<?xml version="1.0" encoding="UTF-8"?>
<!-- Generator: visioncortex VTracer 0.6.5 -->
<svg version="1.1" xmlns="http://www.w3.org/2000/svg" width="166" height="164">
<path d="M0,0 L166,0 L166,164 L0,164 Z " fill="#F5F5F5" transform="translate(0,0)"/>
<path d="M0,0 L9,0 L8,3 L17,5 L28,9 L28,12 L26,12 L26,15 L24,15 L25,27 L30,31 L30,34 L38,36 L37,39 L35,39 L37,43 L48,47 L50,51 L48,52 L49,58 L54,60 L58,65 L58,68 L55,69 L58,78 L62,86 L62,92 L61,95 L64,106 L64,112 L62,112 L64,120 L65,121 L66,129 L69,133 L77,134 L79,137 L76,140 L57,140 L57,142 L53,144 L-17,144 L-21,143 L-44,143 L-44,141 L-50,141 L-54,139 L-54,137 L-70,137 L-70,136 L-64,136 L-64,134 L-55,132 L-56,121 L-55,99 L-52,94 L-50,83 L-52,82 L-51,75 L-41,57 L-45,56 L-44,53 L-35,48 L-30,46 L-31,43 L-33,42 L-33,39 L-28,37 L-21,37 L-22,30 L-17,29 L-17,27 L-15,27 L-16,15 L-18,11 L-18,8 L-8,4 Z " fill="#0F1E2B" transform="translate(75,7)"/>
<path d="M0,0 L1,3 L0,7 L-1,21 L-1,37 L2,37 L3,41 L3,38 L1,29 L-1,26 L0,22 L2,26 L5,20 L6,19 L4,18 L5,14 L7,14 L9,10 L10,9 L18,9 L19,12 L21,12 L22,9 L22,13 L24,13 L23,9 L25,9 L28,13 L30,18 L33,24 L33,30 L36,28 L37,31 L40,31 L34,38 L28,47 L25,53 L26,52 L34,51 L39,46 L42,45 L42,47 L45,44 L49,36 L45,35 L45,33 L47,33 L47,26 L46,22 L49,13 L50,3 L52,3 L55,6 L53,16 L52,20 L55,24 L53,25 L53,32 L54,26 L55,26 L56,44 L58,44 L59,49 L56,53 L55,62 L50,72 L46,74 L45,79 L44,83 L42,83 L42,85 L24,86 L9,85 L9,83 L11,83 L11,81 L15,81 L15,79 L17,80 L15,84 L17,84 L18,78 L15,78 L15,76 L17,76 L17,74 L12,73 L11,68 L13,62 L10,62 L9,59 L7,58 L6,55 L4,62 L2,62 L1,72 L3,77 L4,85 L0,84 L-2,85 L-4,80 L-6,80 L-7,83 L-9,79 L-10,77 L-9,72 L-11,70 L-21,70 L-21,68 L-14,68 L-13,63 L-11,63 L-11,61 L-15,61 L-15,53 L-13,53 L-14,50 L-16,50 L-15,45 L-18,45 L-18,41 L-16,41 L-13,32 L-21,33 L-21,28 L-17,29 L-16,23 L-13,19 L-12,16 L-8,15 L-6,11 L-3,8 L-5,8 L-4,4 Z M-10,79 Z " fill="#071623" transform="translate(44,56)"/>
<path d="M0,0 L9,0 L8,3 L17,5 L28,9 L28,12 L26,12 L26,15 L24,15 L25,27 L30,31 L30,34 L38,36 L37,39 L32,42 L36,46 L35,47 L24,49 L24,43 L22,44 L23,47 L21,47 L21,45 L19,45 L20,49 L18,49 L20,53 L18,66 L16,73 L17,78 L16,82 L14,82 L15,84 L18,85 L17,89 L13,96 L10,95 L6,97 L3,101 L-3,102 L-5,101 L-6,105 L-7,102 L-1,91 L8,81 L5,80 L4,78 L1,80 L1,73 L-2,67 L-5,61 L-6,58 L-8,58 L-7,62 L-12,61 L-13,59 L-21,59 L-24,63 L-26,63 L-27,67 L-24,68 L-26,70 L-28,75 L-30,76 L-28,82 L-27,87 L-26,90 L-28,90 L-29,86 L-32,86 L-33,82 L-33,70 L-32,56 L-31,50 L-35,54 L-36,57 L-34,57 L-35,60 L-39,64 L-37,65 L-41,66 L-43,65 L-44,70 L-47,74 L-48,78 L-51,77 L-49,71 L-41,57 L-45,56 L-44,53 L-35,48 L-30,46 L-31,43 L-33,42 L-33,39 L-28,37 L-21,37 L-22,30 L-17,29 L-17,27 L-15,27 L-16,15 L-18,11 L-18,8 L-8,4 Z M33,44 L34,46 Z " fill="#0D1B28" transform="translate(75,7)"/>
<path d="M0,0 L1,3 L0,7 L-1,21 L-1,37 L2,37 L3,41 L3,38 L2,33 L3,30 L4,31 L7,25 L8,27 L7,33 L7,37 L9,37 L9,40 L13,40 L13,42 L17,44 L20,46 L19,41 L19,30 L23,33 L25,28 L26,32 L28,32 L27,37 L24,41 L23,49 L21,49 L19,54 L21,54 L20,56 L15,54 L15,57 L15,59 L21,61 L26,65 L29,69 L23,67 L23,69 L19,70 L13,64 L13,62 L10,62 L9,59 L7,58 L6,55 L4,62 L2,62 L1,72 L3,77 L4,85 L0,84 L-2,85 L-4,80 L-6,80 L-7,83 L-9,79 L-10,77 L-9,72 L-11,70 L-21,70 L-21,68 L-14,68 L-13,63 L-11,63 L-11,61 L-15,61 L-15,53 L-13,53 L-14,50 L-16,50 L-15,45 L-18,45 L-18,41 L-16,41 L-13,32 L-21,33 L-21,28 L-17,29 L-16,23 L-13,19 L-12,16 L-8,15 L-6,11 L-3,8 L-5,8 L-4,4 Z M-10,79 Z " fill="#0A1825" transform="translate(44,56)"/>
<path d="M0,0 L6,0 L6,7 L3,11 L3,9 L1,9 L1,13 L4,13 L4,17 L7,17 L6,21 L4,21 L5,28 L8,29 L8,31 L6,31 L5,36 L-2,36 L-2,38 L4,37 L12,37 L10,39 L11,41 L10,46 L12,46 L13,48 L15,48 L18,51 L22,52 L20,41 L19,39 L21,30 L23,30 L23,24 L25,22 L26,26 L29,27 L29,30 L32,30 L32,35 L31,38 L32,41 L36,42 L36,44 L34,44 L34,46 L37,46 L36,52 L34,52 L35,48 L34,49 L30,49 L30,51 L28,51 L28,53 L33,53 L36,55 L36,58 L45,58 L53,60 L53,58 L42,57 L42,56 L56,56 L56,58 L62,57 L68,58 L68,59 L83,59 L86,58 L107,59 L107,61 L103,63 L33,63 L29,62 L6,62 L6,60 L0,60 L-4,58 L-4,56 L-20,56 L-20,55 L-14,55 L-14,53 L-5,51 L-6,40 L-5,18 L-2,13 Z M9,47 Z " fill="#293642" transform="translate(25,88)"/>
<path d="M0,0 L5,0 L5,5 L7,5 L9,1 L13,2 L8,6 L8,15 L12,15 L10,10 L15,12 L19,11 L16,15 L17,18 L15,18 L13,16 L11,16 L11,26 L13,32 L15,32 L13,36 L10,32 L8,27 L7,24 L5,24 L6,28 L1,27 L0,25 L-8,25 L-11,29 L-13,29 L-14,33 L-11,34 L-13,36 L-15,41 L-17,42 L-15,48 L-14,53 L-13,56 L-15,56 L-16,52 L-19,52 L-20,48 L-20,36 L-19,22 L-18,16 L-22,20 L-23,23 L-21,23 L-22,26 L-26,30 L-24,31 L-28,32 L-30,31 L-31,36 L-34,40 L-35,44 L-38,43 L-36,37 L-28,23 L-32,22 L-31,19 L-22,14 L-17,12 L-18,9 L-20,8 L-20,5 L-15,3 L-4,2 Z " fill="#3E4751" transform="translate(62,41)"/>
<path d="M0,0 L5,0 L5,2 L9,5 L-1,4 L-6,7 L3,4 L9,7 L9,8 L17,8 L17,10 L-6,11 L16,12 L16,13 L8,13 L8,29 L11,29 L11,15 L15,15 L16,26 L17,32 L-21,33 L-22,30 L-17,29 L-17,27 L-15,27 L-16,15 L-18,11 L-18,8 L-8,4 Z " fill="#727980" transform="translate(75,7)"/>
<path d="M0,0 L2,1 L2,3 L5,4 L6,6 L6,12 L5,15 L8,26 L8,32 L6,32 L8,40 L9,41 L10,49 L13,53 L18,54 L18,55 L-1,55 L-1,57 L1,58 L-5,57 L-5,59 L-9,58 L-9,56 L-13,55 L-12,45 L-10,44 L-7,36 L-3,28 L-1,6 L0,3 Z " fill="#0B1A27" transform="translate(131,87)"/>
<path d="M0,0 L12,1 L12,3 L49,3 L49,5 L59,5 L67,7 L67,5 L56,4 L56,3 L70,3 L70,5 L76,4 L82,5 L82,6 L97,6 L100,5 L121,6 L121,8 L117,10 L47,10 L43,9 L20,9 L20,7 L14,7 L10,5 L10,3 L-6,3 L-6,2 L0,2 Z " fill="#96999E" transform="translate(11,141)"/>
<path d="M0,0 L4,1 L3,3 L12,5 L23,9 L23,12 L21,12 L21,15 L19,15 L20,27 L25,31 L25,34 L31,35 L31,36 L19,36 L15,38 L10,37 L11,33 L1,33 L1,32 L12,32 L10,26 L10,15 L6,15 L6,29 L3,29 L3,13 L-17,12 L-17,11 L-11,10 L12,10 L12,8 L10,9 L-3,9 L-3,8 L2,7 L-4,5 L-13,9 L-16,8 L-6,3 L2,4 L-1,1 Z " fill="#36414C" transform="translate(80,7)"/>
<path d="M0,0 L1,2 L0,8 L0,12 L2,12 L2,15 L6,15 L6,17 L10,19 L13,21 L12,16 L12,5 L16,8 L18,3 L19,7 L21,7 L20,12 L17,16 L16,24 L14,24 L12,29 L14,29 L13,31 L8,29 L8,32 L8,34 L14,36 L19,40 L22,44 L16,42 L16,44 L12,45 L6,39 L6,37 L3,37 L2,34 L0,33 L-5,22 L-6,15 L-3,15 L-5,10 L-5,5 L-3,6 Z " fill="#0E1C28" transform="translate(51,81)"/>
<path d="M0,0 L7,3 L9,5 L5,12 L11,12 L13,14 L12,17 L7,16 L7,18 L9,18 L9,20 L7,20 L8,24 L3,30 L6,30 L6,34 L1,33 L2,36 L-3,36 L-3,38 L-8,39 L-7,46 L-10,55 L-11,51 L-9,44 L-13,45 L-13,48 L-15,48 L-14,41 L-9,36 L-6,28 L-4,18 L-2,15 L-2,11 L-4,11 L-5,4 L-3,1 Z M3,2 L4,4 Z " fill="#29333E" transform="translate(104,89)"/>
<path d="M0,0 L6,0 L6,7 L3,11 L3,9 L1,9 L1,13 L4,13 L4,17 L7,17 L6,21 L4,21 L5,28 L8,29 L8,31 L6,31 L5,36 L-2,36 L-2,38 L4,37 L12,37 L12,38 L7,39 L8,46 L4,46 L4,43 L2,43 L4,54 L2,54 L1,47 L-1,47 L-1,53 L-5,51 L-6,40 L-5,18 L-2,13 Z " fill="#333D49" transform="translate(25,88)"/>
<path d="M0,0 L2,4 L5,0 L10,0 L11,7 L15,7 L13,2 L18,4 L22,3 L19,7 L20,10 L18,10 L16,8 L14,8 L14,18 L16,24 L18,24 L16,28 L13,24 L11,19 L10,16 L8,16 L9,20 L4,19 L3,17 L-5,17 L-8,21 L-10,21 L-11,25 L-8,26 L-10,28 L-12,33 L-14,34 L-15,31 L-14,17 L-10,12 L-9,8 L-2,9 L-4,5 L-1,4 L-5,4 L-5,2 Z " fill="#424B56" transform="translate(59,49)"/>
<path d="M0,0 L6,0 L9,2 L9,0 L17,0 L18,3 L14,4 L14,8 L17,12 L23,29 L21,36 L18,36 L17,32 L18,31 L15,30 L14,28 L12,30 L10,28 L10,23 L8,23 L8,17 L5,16 L7,16 L8,12 L1,9 L-5,5 L-4,3 L-2,4 L-3,1 Z " fill="#0E1B27" transform="translate(107,55)"/>
<path d="M0,0 L5,4 L14,7 L14,8 L7,8 L7,10 L-2,8 L-3,10 L-4,12 L-6,13 L-1,16 L7,19 L5,23 L-3,22 L-4,24 L-2,24 L-2,30 L-4,31 L-6,30 L-6,32 L0,34 L1,36 L-3,35 L-12,31 L-14,29 L-13,22 L-10,15 L-13,14 L-13,12 L-16,12 L-15,5 L-13,5 L-13,2 L-10,3 L-9,8 L1,6 L-3,1 Z M-1,4 Z " fill="#1A2834" transform="translate(109,47)"/>
<path d="M0,0 L22,0 L21,2 L21,17 L-6,18 L-4,16 L-1,16 L-1,14 L1,14 Z " fill="#494F58" transform="translate(59,20)"/>
<path d="M0,0 L8,2 L6,3 L6,5 L4,5 L4,7 L2,7 L3,10 L-1,9 L-5,18 L-4,21 L-2,22 L-17,22 L-14,20 L-20,20 L-21,19 L-23,20 L-23,22 L-38,21 L-40,20 L-40,17 L-48,17 L-48,16 L-43,15 L-15,15 L-15,13 L-13,13 L-12,9 L-12,11 L-10,11 L-10,8 L-6,7 L-7,15 L-5,8 L-5,2 Z " fill="#19232E" transform="translate(101,126)"/>
<path d="M0,0 L14,0 L14,2 L20,1 L26,2 L26,3 L41,3 L44,2 L65,3 L65,5 L61,7 L-9,7 L-6,4 L1,3 L3,2 L11,4 L11,2 L0,1 Z " fill="#73787E" transform="translate(67,144)"/>
<path d="M0,0 L6,0 L6,7 L3,11 L3,9 L1,9 L1,13 L4,13 L4,17 L7,17 L6,21 L4,21 L5,27 L2,28 L1,32 L-1,34 L-1,27 L-3,27 L-3,36 L-4,36 L-5,31 L-5,18 L-2,13 Z " fill="#47515B" transform="translate(25,88)"/>
<path d="M0,0 L1,3 L0,7 L-2,29 L-3,29 L-4,21 L-15,29 L-13,32 L-21,33 L-21,28 L-17,29 L-16,23 L-13,19 L-12,16 L-8,15 L-6,11 L-3,8 L-5,8 L-4,4 Z " fill="#131F2C" transform="translate(44,56)"/>
<path d="M0,0 L2,1 L2,4 L5,5 L5,8 L8,8 L8,13 L3,20 L2,25 L-1,30 L-2,30 L-4,19 L-5,17 L-3,8 L-1,8 L-1,2 Z " fill="#E6E7E9" transform="translate(49,110)"/>
<path d="M0,0 L4,1 L0,2 L1,5 L-1,5 L-1,7 L-3,7 L-3,9 L-5,9 L-6,15 L-1,16 L-1,18 L3,18 L3,20 L-1,20 L0,23 L-5,23 L-5,25 L-10,26 L-9,33 L-12,42 L-13,38 L-11,31 L-15,32 L-15,35 L-17,35 L-16,28 L-11,23 L-8,15 L-6,5 Z " fill="#3D4752" transform="translate(106,102)"/>
<path d="M0,0 L5,0 L5,5 L7,5 L9,1 L13,2 L8,6 L7,8 L1,10 L-2,14 L-3,9 L-8,10 L-4,10 L-4,12 L-6,14 L-5,17 L-11,16 L-9,12 L-14,12 L-12,7 L-10,5 L-15,4 L-15,3 L-4,2 Z " fill="#68717B" transform="translate(62,41)"/>
<path d="M0,0 L22,0 L20,3 L19,14 L10,15 L9,4 L5,2 L5,14 L4,14 L3,4 L2,2 L0,2 Z " fill="#31353E" transform="translate(59,20)"/>
<path d="M0,0 L2,1 L3,8 L0,9 L0,11 L2,12 L0,17 L5,22 L1,21 L0,29 L-4,31 L-5,26 L-3,26 L-4,23 L-6,23 L-5,18 L-8,18 L-8,14 L-6,14 L-2,4 Z " fill="#172431" transform="translate(34,83)"/>
<path d="M0,0 L5,0 L5,2 L9,5 L-1,4 L-6,7 L3,4 L9,7 L9,8 L17,8 L17,10 L-6,11 L-16,13 L-18,11 L-18,8 L-8,4 Z " fill="#7D848A" transform="translate(75,7)"/>
<path d="M0,0 L1,2 L0,8 L0,12 L2,12 L2,15 L6,15 L6,17 L8,17 L7,24 L9,27 L4,25 L-2,21 L0,26 L-1,30 L-5,22 L-6,15 L-3,15 L-5,10 L-5,5 L-3,6 Z " fill="#26303C" transform="translate(51,81)"/>
<path d="M0,0 L14,1 L13,4 L8,7 L12,11 L11,12 L0,14 L0,8 L-4,7 L-3,1 Z M9,9 L10,11 Z " fill="#0C1824" transform="translate(99,42)"/>
<path d="M0,0 L1,2 L3,2 L2,7 L0,8 L-2,12 L-4,15 L-5,29 L-6,31 L-3,38 L-2,43 L-1,46 L-3,46 L-4,42 L-7,42 L-8,38 L-8,26 L-7,12 L-3,1 L0,2 Z " fill="#565F69" transform="translate(50,51)"/>
<path d="M0,0 L12,1 L12,3 L49,3 L49,5 L44,6 L40,5 L40,6 L13,6 L10,5 L10,3 L-6,3 L-6,2 L0,2 Z " fill="#545A63" transform="translate(11,141)"/>
<path d="M0,0 L2,1 L3,5 L1,4 L-1,10 L-4,11 L-4,13 L-8,12 L-8,17 L-10,17 L-10,20 L-8,20 L-8,22 L-13,23 L-15,22 L-16,26 L-17,23 L-11,12 L-2,2 Z " fill="#35404B" transform="translate(85,86)"/>
<path d="M0,0 L4,0 L4,2 L12,4 L13,6 L5,5 L4,7 L6,7 L6,13 L4,14 L2,13 L2,15 L8,17 L9,19 L5,18 L-4,14 L-6,10 L-4,10 L-2,8 L3,8 L-2,6 L0,2 Z " fill="#424C55" transform="translate(101,64)"/>
<path d="M0,0 L5,2 L9,1 L6,5 L7,8 L5,8 L3,6 L1,6 L1,16 L3,22 L5,22 L3,26 L0,22 L-2,17 L-3,14 L-5,14 L-4,18 L-6,18 L-7,10 L-5,10 L-6,6 L-4,2 L-1,6 L2,5 Z " fill="#1E2B37" transform="translate(72,51)"/>
<path d="M0,0 L3,4 L3,6 L8,8 L12,13 L12,16 L9,17 L12,26 L14,31 L12,31 L11,29 L9,33 L7,22 L1,6 L-4,2 L0,2 Z " fill="#27323E" transform="translate(121,59)"/>
<path d="M0,0 L6,0 L8,2 L3,7 L-1,17 L2,18 L0,20 L-2,25 L-4,26 L-5,23 L-4,9 L0,4 Z " fill="#2B3643" transform="translate(49,57)"/>
<path d="M0,0 L2,1 L24,1 L24,3 L26,5 L24,5 L24,7 L22,7 L21,9 L19,9 L18,11 L16,11 L18,7 L20,5 L17,6 L16,8 L14,8 L14,3 L5,6 L1,6 Z " fill="#262E39" transform="translate(53,38)"/>
<path d="M0,0 L29,1 L26,3 L20,5 L20,7 L5,6 L3,5 L3,2 L-5,2 L-5,1 Z " fill="#3B444E" transform="translate(58,141)"/>
<path d="M0,0 L5,4 L14,7 L14,8 L7,8 L7,10 L-2,8 L-3,10 L-4,12 L-8,12 L-11,12 L-12,9 L-15,8 L-15,5 L-13,5 L-13,2 L-10,3 L-9,8 L1,6 L-3,1 Z M-1,4 Z M-15,9 Z " fill="#24323E" transform="translate(109,47)"/>
<path d="M0,0 L4,2 L15,6 L20,11 L21,13 L15,11 L15,13 L11,14 L5,8 L5,6 L2,6 L1,3 L-1,1 Z " fill="#0E1D2C" transform="translate(52,112)"/>
<path d="M0,0 L7,3 L9,5 L5,11 L2,12 L1,8 L-1,7 L0,14 L-2,15 L-2,11 L-4,11 L-5,4 L-3,1 Z M3,2 L4,4 Z " fill="#3E4953" transform="translate(104,89)"/>
<path d="M0,0 L3,1 L5,3 L2,6 L-9,6 L-22,5 L-19,3 L-19,1 Z " fill="#94989E" transform="translate(149,141)"/>
<path d="M0,0 L5,1 L6,12 L9,13 L10,18 L1,17 L0,14 L3,13 L0,12 Z " fill="#677078" transform="translate(93,22)"/>
<path d="M0,0 L1,2 L8,3 L7,17 L6,17 L6,5 L1,5 L-2,6 L-2,4 L-6,4 L-6,18 L-9,18 L-9,2 L0,2 Z " fill="#232C38" transform="translate(92,18)"/>
<path d="M0,0 L1,4 L3,4 L2,7 L-2,11 L0,12 L-4,13 L-6,12 L-7,17 L-10,21 L-11,25 L-14,24 L-12,18 L-5,6 L-2,5 Z " fill="#3F4751" transform="translate(38,60)"/>
<path d="M0,0 L2,1 L3,4 L7,5 L7,7 L5,7 L5,9 L8,9 L7,15 L5,15 L6,11 L5,12 L0,13 L-2,12 L-2,14 L-5,13 L-3,8 L-2,3 Z " fill="#2B3743" transform="translate(54,125)"/>
<path d="M0,0 L8,2 L6,3 L6,5 L4,5 L4,7 L2,7 L3,10 L-1,9 L-4,14 L-6,13 L-5,8 L-5,2 Z " fill="#27323D" transform="translate(101,126)"/>
<path d="M0,0 L6,0 L6,7 L3,11 L3,9 L1,9 L1,13 L4,13 L3,15 L-1,15 L-2,17 L1,17 L1,19 L3,19 L3,21 L-4,20 L-3,14 L-2,13 Z " fill="#454D57" transform="translate(25,88)"/>
<path d="M0,0 L2,1 L2,7 L4,10 L5,18 L8,22 L13,23 L13,24 L-2,24 L-2,21 L0,21 L0,18 L3,18 L0,11 Z " fill="#111D2A" transform="translate(136,118)"/>
<path d="M0,0 L8,0 L8,1 L3,2 L4,9 L0,9 L0,6 L-2,6 L0,17 L-2,17 L-3,10 L-5,10 L-5,16 L-9,14 L-6,8 L-4,8 L-5,4 Z " fill="#2F3943" transform="translate(29,125)"/>
<path d="M0,0 L6,1 L8,3 L5,5 L4,7 L-2,6 L-4,8 L-3,13 L-7,16 L-8,13 L-8,6 L-6,6 L-4,2 L0,2 Z " fill="#1E2A34" transform="translate(77,43)"/>
<path d="M0,0 L60,1 L60,2 L7,3 L7,5 L-1,4 Z " fill="#E9EAEB" transform="translate(55,150)"/>
<path d="M0,0 L30,0 L30,1 L22,1 L22,13 L18,14 L18,3 L19,2 L0,2 Z " fill="#A9B0B5" transform="translate(61,19)"/>
<path d="M0,0 L2,0 L3,7 L5,7 L3,0 L8,0 L8,9 L-1,9 L-1,7 L-7,7 L-6,5 L0,6 L-1,2 Z " fill="#0E1926" transform="translate(24,135)"/>
<path d="M0,0 L1,4 L3,4 L2,9 L-1,13 L-3,13 L-4,16 L-6,13 L-6,2 L-2,5 Z " fill="#13202B" transform="translate(69,84)"/>
<path d="M0,0 L3,1 L1,2 L1,4 L6,4 L9,6 L8,9 L8,7 L-15,7 L-12,5 L-8,2 L-4,4 L-3,1 L0,2 Z " fill="#1F2B36" transform="translate(52,137)"/>
<path d="M0,0 L4,1 L6,2 L6,0 L14,0 L15,3 L11,4 L11,6 L-1,5 L-2,1 Z " fill="#0A1521" transform="translate(110,55)"/>
<path d="M0,0 L4,2 L4,13 L10,12 L11,2 L12,2 L12,14 L1,14 L0,12 Z " fill="#A4AAB0" transform="translate(65,22)"/>
<path d="M0,0 L3,1 L-5,5 L-5,7 L-7,7 L-5,10 L-2,9 L-2,11 L-4,13 L-3,16 L-9,15 L-7,11 L-12,11 L-10,6 L-8,4 L-13,3 L-13,2 L-2,1 Z " fill="#818990" transform="translate(60,42)"/>
<path d="M0,0 L8,1 L7,5 L3,12 L1,11 L2,8 L1,6 L-2,9 L-5,8 L-1,4 L-2,2 L0,2 Z " fill="#12202D" transform="translate(85,91)"/>
<path d="M0,0 L5,0 L6,2 L1,3 L2,10 L-1,19 L-2,15 L0,8 L-4,9 L-4,12 L-6,12 L-5,5 Z " fill="#4C565F" transform="translate(95,125)"/>
<path d="M0,0 L4,0 L5,3 L8,3 L7,7 L5,7 L6,12 L3,11 L3,9 L-2,11 L-2,7 L-4,7 L-3,4 L-1,4 L-1,6 L4,7 L4,5 L2,5 L2,3 L-1,3 Z " fill="#586168" transform="translate(24,102)"/>
<path d="M0,0 L4,0 L4,2 L6,2 L5,9 L7,12 L2,10 L-4,6 L-5,2 L-3,2 L-1,4 Z " fill="#232F3B" transform="translate(53,96)"/>
<path d="M0,0 L2,0 L4,7 L2,7 L0,11 L-4,14 L-10,14 L-10,12 L-3,12 L-2,7 L0,7 L0,5 L-4,5 L-3,2 Z " fill="#14222F" transform="translate(33,112)"/>
<path d="M0,0 L12,1 L12,3 L5,5 L3,6 L-7,5 L-7,2 L0,2 Z " fill="#E2E3E4" transform="translate(132,147)"/>
<path d="M0,0 L1,3 L9,3 L5,4 L6,6 L9,7 L9,5 L12,6 L23,7 L23,8 L-6,8 L-6,7 L0,6 L-1,1 Z " fill="#4F575C" transform="translate(117,139)"/>
<path d="M0,0 L2,1 L3,8 L0,9 L0,11 L2,12 L0,14 L0,12 L-5,16 L-5,10 L-4,10 L-2,4 Z " fill="#2D3945" transform="translate(34,83)"/>
<path d="M0,0 L2,0 L3,6 L-2,11 L0,13 L-8,14 L-8,9 L-4,10 L-3,4 Z " fill="#2F3B46" transform="translate(31,75)"/>
<path d="M0,0 L2,4 L1,11 L-4,14 L-6,12 L-6,5 L-2,4 Z " fill="#1A2530" transform="translate(38,67)"/>
<path d="M0,0 L7,1 L5,6 L5,8 L3,8 L2,12 L0,13 L-1,3 Z " fill="#36424E" transform="translate(20,125)"/>
<path d="M0,0 L2,1 L2,3 L5,4 L4,8 L5,9 L3,10 L2,14 L-1,17 L-1,6 L0,3 Z " fill="#071420" transform="translate(131,87)"/>
<path d="M0,0 L4,1 L9,7 L8,8 L-3,10 L-2,5 L1,2 Z M6,5 L7,7 Z " fill="#11212F" transform="translate(102,46)"/>
<path d="M0,0 L5,0 L4,5 L3,12 L1,12 L2,15 L1,19 L-1,19 L0,15 L-2,14 L-1,8 L1,8 L0,2 Z " fill="#353F4A" transform="translate(64,49)"/>
<path d="M0,0 L1,0 L1,11 L4,10 L4,12 L2,14 L1,17 L-11,17 L-11,16 L0,16 L-2,10 L-2,1 Z " fill="#2D3641" transform="translate(92,23)"/>
<path d="M0,0 L5,4 L14,7 L14,8 L7,8 L7,10 L1,8 L0,4 L-3,1 Z M-1,4 Z " fill="#212D38" transform="translate(109,47)"/>
<path d="M0,0 L11,0 L11,15 L10,15 L9,4 L5,2 L5,14 L4,14 L3,4 L2,2 L0,2 Z " fill="#3B424C" transform="translate(59,20)"/>
<path d="M0,0 L3,3 L2,7 L0,13 L-3,13 L-3,11 L-5,10 Z " fill="#0A1621" transform="translate(100,134)"/>
<path d="M0,0 L7,1 L15,5 L15,6 L3,6 L3,5 L8,4 L2,2 L-7,6 L-10,5 Z " fill="#2A313B" transform="translate(74,10)"/>
<path d="M0,0 L12,1 L12,3 L16,3 L16,5 L13,6 L10,5 L10,3 L-6,3 L-6,2 L0,2 Z " fill="#7E868D" transform="translate(11,141)"/>
<path d="M0,0 L9,0 L3,8 L-2,4 L-2,1 Z " fill="#161D27" transform="translate(44,45)"/>
<path d="M0,0 L1,2 L3,2 L3,7 L1,7 L1,9 L-7,11 L-7,9 L-4,8 L-12,7 L-12,6 L-2,6 L-2,4 L0,4 Z " fill="#202D38" transform="translate(88,135)"/>
<path d="M0,0 L3,1 L4,4 L14,6 L13,10 L7,8 L7,6 L0,8 Z " fill="#25313D" transform="translate(103,96)"/>
<path d="M0,0 L3,1 L3,14 L-5,15 L-2,14 L-2,12 L0,12 Z " fill="#90979D" transform="translate(60,22)"/>
<path d="M0,0 L4,1 L3,3 L12,5 L17,7 L14,9 L9,9 L4,6 L4,4 L-1,2 Z " fill="#4F5760" transform="translate(80,7)"/>
<path d="M0,0 L4,1 L0,2 L1,5 L-1,5 L-1,7 L-3,7 L-3,9 L-5,9 L-6,14 L-7,14 L-7,7 L-3,2 Z " fill="#6E757C" transform="translate(106,102)"/>
<path d="M0,0 L6,2 L5,4 L3,4 L4,6 L6,5 L6,8 L4,8 L4,10 L6,10 L5,13 L-2,10 L-2,8 L1,8 L2,2 L0,2 Z " fill="#2C3640" transform="translate(105,69)"/>
<path d="M0,0 L1,0 L1,5 L-1,5 L-1,8 L1,8 L1,10 L-4,11 L-6,10 L-7,14 L-8,11 L-6,7 L-3,7 L-2,3 Z " fill="#28313B" transform="translate(76,98)"/>
<path d="M0,0 L6,2 L8,4 L1,5 L-9,5 L-7,3 Z " fill="#6C747B" transform="translate(76,11)"/>
<path d="M0,0 L3,0 L2,6 L0,6 L-2,10 L-5,14 L-5,7 L-4,4 L-2,4 L-2,2 L0,2 Z " fill="#1A2530" transform="translate(107,129)"/>
<path d="M0,0 L2,0 L1,7 L0,12 L-6,12 L-4,11 L-4,9 L-2,9 L-2,1 Z " fill="#101D2A" transform="translate(93,133)"/>
<path d="M0,0 L4,0 L4,10 L0,11 Z " fill="#BCBFC2" transform="translate(86,22)"/>
<path d="M0,0 L4,2 L2,2 L0,7 L-5,8 L-5,2 Z " fill="#36414C" transform="translate(101,126)"/>
<path d="M0,0 L1,4 L3,4 L2,7 L-4,11 L-6,10 L-5,6 L-2,5 Z " fill="#5F676F" transform="translate(38,60)"/>
<path d="M0,0 L6,0 L16,4 L13,7 L5,4 L5,2 L0,2 Z " fill="#2D3842" transform="translate(100,62)"/>
<path d="M0,0 L2,0 L1,6 L-5,10 L-6,12 L-8,12 L-6,6 L-2,4 Z " fill="#525B63" transform="translate(57,58)"/>
<path d="M0,0 L4,2 L9,4 L7,5 L10,10 L12,14 L5,8 L5,6 L2,6 L1,3 L-1,1 Z " fill="#25313E" transform="translate(52,112)"/>
<path d="M0,0 L5,2 L4,7 L0,6 L-1,8 L-3,9 L-3,3 Z " fill="#303B46" transform="translate(102,84)"/>
<path d="M0,0 L7,0 L9,2 L11,0 L12,3 L17,3 L13,6 L11,9 L7,3 L0,1 Z " fill="#27323D" transform="translate(110,82)"/>
<path d="M0,0 L5,0 L5,5 L7,5 L9,1 L13,2 L8,6 L7,8 L3,7 L3,2 L-1,6 Z " fill="#555E68" transform="translate(62,41)"/>
<path d="M0,0 L4,0 L4,2 L12,4 L13,6 L5,5 L2,5 L2,7 L-2,5 L0,2 Z " fill="#475057" transform="translate(101,64)"/>
<path d="M0,0 L4,2 L3,9 L0,10 L-5,9 L-5,5 L-3,5 L-3,8 L1,8 L1,6 L-1,5 Z " fill="#1D2732" transform="translate(32,126)"/>
<path d="M0,0 L4,1 L3,3 L2,2 L2,5 L4,6 L5,4 L5,7 L-1,9 L-2,11 L-4,8 L-1,1 Z " fill="#2F3741" transform="translate(99,65)"/>
<path d="M0,0 L1,3 L-1,17 L-2,17 L-3,8 L-5,8 L-4,4 Z " fill="#1C2531" transform="translate(44,56)"/>
<path d="M0,0 L13,1 L9,3 L7,3 L7,5 L-1,4 Z " fill="#DADADB" transform="translate(55,150)"/>
<path d="M0,0 L3,1 L3,5 L1,5 L2,9 L-5,8 L-5,4 L0,5 Z " fill="#172734" transform="translate(110,118)"/>
<path d="M0,0 L5,2 L4,7 L3,9 L-1,9 Z " fill="#5B646E" transform="translate(98,115)"/>
<path d="M0,0 L3,1 L1,7 L-2,7 L-1,12 L-6,11 L-5,7 L-3,7 L-3,5 L-1,5 Z " fill="#4B545E" transform="translate(106,104)"/>
<path d="M0,0 L2,2 L2,8 L6,8 L5,11 L3,11 L2,14 L0,11 Z " fill="#192733" transform="translate(63,86)"/>
<path d="M0,0 L2,0 L3,4 L2,6 L4,6 L4,10 L-3,10 L-2,8 L0,8 L-1,5 Z " fill="#15212C" transform="translate(113,72)"/>
<path d="M0,0 L3,1 L3,11 L0,12 Z " fill="#E2E4E5" transform="translate(72,22)"/>
<path d="M0,0 L2,1 L2,7 L4,10 L4,18 L2,16 L0,11 Z " fill="#2A3743" transform="translate(136,118)"/>
<path d="M0,0 L3,2 L3,12 L1,12 L1,7 L-2,6 Z M0,2 Z " fill="#13222E" transform="translate(54,82)"/>
<path d="M0,0 L14,1 L12,2 L12,4 L-3,3 L0,2 Z " fill="#3A4049" transform="translate(66,144)"/>
<path d="M0,0 L4,2 L2,5 L5,5 L5,9 L3,8 L4,6 L0,6 L0,4 L-5,3 L-5,1 L0,2 Z " fill="#353E48" transform="translate(105,114)"/>
<path d="M0,0 L1,2 L-1,2 L0,10 L-2,11 L-2,7 L-4,7 L-5,1 Z " fill="#566068" transform="translate(104,93)"/>
<path d="M0,0 L6,0 L6,7 L3,11 L3,9 L1,9 L1,7 L3,7 L2,3 Z " fill="#3A4550" transform="translate(25,88)"/>
<path d="M0,0 L5,2 L2,8 L-1,7 L-2,1 Z " fill="#303C47" transform="translate(108,91)"/>
<path d="M0,0 L3,4 L6,9 L6,11 L4,11 L3,9 L1,13 L0,5 Z " fill="#1C2731" transform="translate(129,79)"/>
<path d="M0,0 L1,0 L2,13 L0,15 L-4,16 L-11,16 L-11,15 L-1,14 Z " fill="#575D66" transform="translate(64,22)"/>
<path d="M0,0 L9,0 L9,2 L12,3 L1,3 Z " fill="#BEC2C5" transform="translate(12,144)"/>
<path d="M0,0 L4,3 L5,10 L6,15 L4,14 L1,7 Z " fill="#35414D" transform="translate(45,96)"/>
<path d="M0,0 L1,2 L3,2 L2,7 L-1,8 L-4,11 L-3,6 Z " fill="#575F68" transform="translate(50,51)"/>
<path d="M0,0 L1,3 L9,3 L5,4 L6,7 L0,6 L-1,1 Z " fill="#424C54" transform="translate(117,139)"/>
<path d="M0,0 L4,0 L5,6 L1,5 L-1,6 L-2,1 Z " fill="#08111A" transform="translate(43,135)"/>
<path d="M0,0 L5,2 L9,1 L6,5 L7,8 L5,8 L3,6 L0,7 L0,5 L2,5 Z " fill="#C9CED2" transform="translate(72,51)"/>
<path d="M0,0 L6,1 L4,2 L4,4 L2,4 L1,6 L-1,6 L-2,8 L-4,8 L-2,4 Z " fill="#37404B" transform="translate(73,41)"/>
<path d="M0,0 L10,0 L10,3 L2,3 L0,2 Z " fill="#545B63" transform="translate(130,142)"/>
<path d="M0,0 L2,1 L3,6 L-1,8 L-3,4 Z " fill="#465059" transform="translate(54,125)"/>
<path d="M0,0 L2,1 L1,5 L3,5 L1,9 L-2,8 L-2,4 L0,4 L-1,1 Z " fill="#2C353F" transform="translate(31,105)"/>
<path d="M0,0 L7,2 L7,3 L0,3 L0,5 L-3,4 L-4,1 Z " fill="#38424B" transform="translate(116,52)"/>
<path d="M0,0 L4,1 L5,5 L1,8 Z " fill="#111B25" transform="translate(69,51)"/>
<path d="M0,0 L1,3 L-2,10 L-5,9 L-3,3 Z " fill="#586168" transform="translate(29,75)"/>
<path d="M0,0 L2,4 L2,10 L3,14 L0,16 L-1,13 Z " fill="#242F3C" transform="translate(45,67)"/>
<path d="M0,0 L6,2 L7,0 L7,3 L4,4 L3,9 L1,7 Z " fill="#38434F" transform="translate(126,72)"/>
<path d="M0,0 L5,1 L7,3 L7,6 L2,5 Z " fill="#0D1826" transform="translate(125,68)"/>
<path d="M0,0 L6,2 L1,6 L-3,1 Z " fill="#0A141E" transform="translate(75,48)"/>
<path d="M0,0 L3,3 L-3,4 L-3,2 L-8,2 L-8,4 L-10,4 L-9,1 Z " fill="#E0E0E1" transform="translate(115,152)"/>
<path d="M0,0 L5,0 L6,2 L1,3 L0,6 L-4,5 Z " fill="#636E77" transform="translate(95,125)"/>
<path d="M0,0 L1,2 L0,4 L3,4 L3,6 L5,6 L5,8 L-2,7 L-1,1 Z " fill="#3E4551" transform="translate(23,101)"/>
<path d="M0,0 L4,2 L5,5 L2,7 L1,4 L-2,3 Z " fill="#2D3741" transform="translate(49,94)"/>
<path d="M0,0 L2,1 L4,10 L5,13 L3,13 L0,7 Z " fill="#3D4650" transform="translate(44,84)"/>
<path d="M0,0 L6,2 L8,4 L0,5 Z " fill="#1E2B37" transform="translate(23,84)"/>
<path d="M0,0 L2,4 L1,13 L-1,13 L-2,5 L0,5 L-1,1 Z " fill="#26323E" transform="translate(67,56)"/>
<path d="M0,0 L5,1 L3,5 L-1,6 L-1,1 Z " fill="#1B2632" transform="translate(52,57)"/>
<path d="M0,0 L3,1 L6,0 L6,2 L4,4 L5,7 L-1,6 Z " fill="#CDD2D4" transform="translate(52,51)"/>
<path d="M0,0 L1,4 L-1,9 L-4,5 L-1,4 L-5,4 L-5,2 Z " fill="#1F2832" transform="translate(59,49)"/>
<path d="M0,0 L5,0 L4,13 L0,14 L2,12 L2,2 Z " fill="#4F565E" transform="translate(72,21)"/>
<path d="M0,0 L8,0 L6,3 L5,14 L4,14 L4,1 Z " fill="#191E28" transform="translate(73,20)"/>
<path d="M0,0 L7,1 L5,5 L1,6 Z " fill="#4F5962" transform="translate(20,125)"/>
<path d="M0,0 L5,1 L4,7 L2,7 L3,3 L2,4 L-1,4 Z " fill="#182837" transform="translate(57,133)"/>
<path d="M0,0 L6,0 L5,3 L-2,4 L-2,1 Z " fill="#424C55" transform="translate(44,45)"/>
<path d="M0,0 L1,0 L1,6 L-4,7 L-2,2 Z " fill="#7F8892" transform="translate(65,42)"/>
<path d="M0,0 L1,0 L1,10 L-2,10 L-2,1 Z " fill="#3A404B" transform="translate(92,23)"/>
<path d="M0,0 L5,3 L5,4 L-6,5 L-3,3 Z " fill="#0C1A28" transform="translate(43,139)"/>
<path d="M0,0 L1,2 L1,6 L-1,6 L-2,11 L-3,11 L-3,4 Z " fill="#899199" transform="translate(102,105)"/>
<path d="M0,0 L2,1 L1,5 L-2,9 L-5,8 L-1,4 L-2,2 L0,2 Z " fill="#1A2734" transform="translate(85,91)"/>
<path d="M0,0 L2,1 L3,8 L0,9 L0,4 L-1,2 Z " fill="#1C2A38" transform="translate(34,83)"/>
<path d="M0,0 L3,1 L1,6 L-3,4 Z " fill="#0B1C2B" transform="translate(31,82)"/>
<path d="M0,0 L1,2 L0,4 L3,5 L-1,9 L-2,2 Z " fill="#3B464F" transform="translate(48,70)"/>
<path d="M0,0 L2,4 L1,8 L-1,7 L-2,8 L-3,5 Z " fill="#2C353F" transform="translate(38,67)"/>
<path d="M0,0 L2,0 L3,8 L0,7 L-1,2 Z " fill="#091421" transform="translate(24,135)"/>
<path d="M0,0 L3,0 L1,6 L-1,6 L-1,4 L-3,3 Z " fill="#2B3540" transform="translate(54,65)"/>
<path d="M0,0 L7,0 L4,1 L3,3 L2,5 L-1,4 Z " fill="#46525B" transform="translate(103,54)"/>
<path d="M0,0 L5,2 L4,4 L-2,6 L-2,1 Z " fill="#4A5462" transform="translate(55,46)"/>
<path d="M0,0 L6,0 L6,2 L10,3 L0,3 Z " fill="#CCCED0" transform="translate(125,149)"/>
<path d="M0,0 L3,0 L3,2 L0,4 L0,7 L-2,7 L-2,1 Z " fill="#3F4A54" transform="translate(98,127)"/>
<path d="M0,0 L2,0 L2,3 L4,3 L4,6 L-1,5 L-1,2 L1,3 Z " fill="#07111D" transform="translate(104,56)"/>
<path d="M0,0 L2,1 L2,3 L0,3 L-1,7 L-4,7 L-3,3 Z " fill="#525B65" transform="translate(63,50)"/>
<path d="M0,0 L1,0 L1,5 L-7,6 L-4,5 L-4,3 L0,2 Z " fill="#757C84" transform="translate(62,31)"/>
<path d="M0,0 L1,0 L1,6 L-5,6 L-3,5 L-3,3 Z " fill="#07131E" transform="translate(92,139)"/>
<path d="M0,0 L4,2 L1,7 L-1,6 L1,2 L-1,1 Z " fill="#35404A" transform="translate(108,103)"/>
<path d="M0,0 L5,0 L4,3 L-1,5 Z " fill="#252E39" transform="translate(29,101)"/>
<path d="M0,0 L5,2 L2,6 L-1,1 Z " fill="#24323E" transform="translate(109,87)"/>
<path d="M0,0 L4,0 L3,5 L-1,4 Z " fill="#283441" transform="translate(103,86)"/>
<path d="M0,0 L5,0 L5,4 L1,4 Z " fill="#434C57" transform="translate(64,49)"/>
<path d="M0,0 L2,0 L2,3 L0,3 L0,5 L-4,5 L-3,2 Z " fill="#192530" transform="translate(33,112)"/>
<path d="M0,0 L3,2 L2,5 L-4,3 Z " fill="#1F2C36" transform="translate(114,101)"/>
<path d="M0,0 L4,0 L4,2 L6,3 L2,4 L0,3 Z " fill="#18222D" transform="translate(53,96)"/>
<path d="M0,0 L3,0 L2,3 L0,3 L-1,6 L-2,1 Z " fill="#26323D" transform="translate(66,94)"/>
<path d="M0,0 L4,1 L3,5 L-1,5 Z " fill="#545D66" transform="translate(25,90)"/>
<path d="M0,0 L9,2 L10,4 L0,3 Z " fill="#6F767D" transform="translate(104,66)"/>
<path d="M0,0 L6,1 L4,4 L0,3 L-2,1 Z " fill="#07111C" transform="translate(105,44)"/>
<path d="M0,0 L5,2 L5,3 L-5,3 L-3,1 Z " fill="#4F5760" transform="translate(72,13)"/>
</svg>
