<?xml version="1.0" encoding="UTF-8"?>
<!-- Generator: visioncortex VTracer 0.6.5 -->
<svg version="1.1" xmlns="http://www.w3.org/2000/svg" width="171" height="135">
<path d="M0,0 L171,0 L171,135 L0,135 Z " fill="#F5F5F5" transform="translate(0,0)"/>
<path d="M0,0 L12,1 L22,3 L23,7 L28,9 L34,13 L37,20 L40,25 L42,34 L44,39 L49,43 L54,49 L56,56 L56,61 L64,61 L69,66 L70,72 L61,73 L66,74 L66,75 L78,76 L78,78 L65,79 L65,80 L47,82 L43,84 L42,85 L23,86 L23,88 L16,88 L16,90 L-35,90 L-35,89 L-22,88 L-38,87 L-38,86 L-14,85 L4,83 L5,81 L3,81 L3,83 L-21,85 L-57,85 L-70,86 L-70,82 L-80,82 L-80,81 L-73,81 L-73,79 L-91,79 L-91,77 L-87,76 L-87,74 L-84,74 L-88,71 L-83,72 L-83,70 L-87,69 L-82,69 L-81,64 L-78,61 L-72,61 L-71,56 L-66,51 L-59,50 L-56,49 L-50,38 L-44,33 L-35,19 L-27,11 L-27,6 L-25,6 L-25,9 L-14,3 L-13,2 Z " fill="#0C1B28" transform="translate(91,36)"/>
<path d="M0,0 L12,1 L22,3 L23,7 L28,9 L33,13 L28,13 L26,12 L26,17 L23,17 L22,14 L22,15 L18,16 L16,15 L15,17 L13,17 L10,14 L10,11 L5,13 L9,15 L10,17 L12,17 L13,20 L10,20 L10,22 L3,24 L3,22 L0,21 L0,24 L2,24 L4,29 L6,31 L2,31 L2,33 L0,33 L0,35 L8,34 L8,36 L2,37 L-4,35 L-5,34 L-5,28 L-5,24 L-10,25 L-10,27 L-11,30 L-13,30 L-14,33 L-16,32 L-17,29 L-18,27 L-24,30 L-31,31 L-34,32 L-36,31 L-36,33 L-29,33 L-21,30 L-18,30 L-19,33 L-28,36 L-27,42 L-29,44 L-36,45 L-39,47 L-31,45 L-20,45 L-11,50 L-13,51 L-17,49 L-22,49 L-26,49 L-28,48 L-26,50 L-18,52 L-18,57 L-19,55 L-24,55 L-24,58 L-26,58 L-27,55 L-29,58 L-31,57 L-31,54 L-34,59 L-36,59 L-36,57 L-38,57 L-38,59 L-45,60 L-50,55 L-50,60 L-54,59 L-56,55 L-55,47 L-50,38 L-44,33 L-35,19 L-27,11 L-27,6 L-25,6 L-25,9 L-14,3 L-13,2 Z M-27,37 Z " fill="#222F3B" transform="translate(91,36)"/>
<path d="M0,0 L7,1 L8,3 L1,2 L1,4 L5,6 L0,8 L-10,7 L-7,11 L-18,11 L-18,13 L-15,13 L-15,15 L-23,17 L-21,18 L-10,18 L-5,17 L16,16 L13,19 L14,20 L24,20 L18,18 L18,16 L24,15 L24,13 L28,12 L22,11 L24,9 L37,10 L47,10 L56,12 L56,10 L67,10 L68,12 L71,10 L79,9 L89,9 L91,8 L91,10 L97,12 L97,13 L117,14 L117,16 L104,17 L104,18 L86,20 L82,22 L81,23 L62,24 L62,26 L55,26 L55,28 L4,28 L4,27 L17,26 L1,25 L1,24 L25,23 L43,21 L44,19 L42,19 L42,21 L18,23 L-18,23 L-31,24 L-31,20 L-41,20 L-41,19 L-34,19 L-34,17 L-52,17 L-52,15 L-48,14 L-48,12 L-45,12 L-49,9 L-44,10 L-44,8 L-48,7 L-43,7 L-41,9 L-22,11 L-18,9 L-13,9 L-13,6 L-17,5 L-6,1 Z " fill="#1F2C37" transform="translate(52,98)"/>
<path d="M0,0 L12,1 L22,3 L23,7 L28,9 L33,13 L28,13 L26,12 L26,17 L23,17 L22,14 L22,15 L18,16 L16,15 L15,17 L13,17 L10,14 L10,11 L5,13 L9,15 L10,17 L12,17 L13,20 L10,20 L10,22 L3,24 L3,22 L0,21 L0,24 L2,24 L4,29 L6,31 L2,31 L2,33 L0,33 L0,35 L8,34 L8,36 L2,37 L-4,35 L-5,34 L-5,28 L-5,24 L-10,25 L-10,27 L-11,30 L-13,30 L-14,33 L-16,32 L-17,29 L-18,27 L-25,29 L-30,29 L-29,26 L-27,25 L-26,22 L-29,20 L-24,17 L-22,17 L-22,14 L-18,15 L-18,12 L-10,12 L-14,11 L-19,10 L-18,8 L-1,3 L-2,1 Z " fill="#2A3541" transform="translate(91,36)"/>
<path d="M0,0 L5,2 L10,8 L12,4 L12,6 L20,6 L25,11 L26,17 L17,18 L22,19 L19,21 L-3,21 L-3,20 L12,19 L7,16 L5,17 L-4,17 L-11,18 L-15,20 L-17,18 L-27,17 L-27,19 L-36,18 L-50,18 L-52,16 L-42,15 L-41,11 L-38,10 L-37,8 L-38,13 L-36,13 L-35,9 L-27,5 L-20,4 L-19,1 L-16,2 L-13,6 L-12,4 L-4,6 L-4,3 Z " fill="#091A28" transform="translate(135,91)"/>
<path d="M0,0 L7,1 L8,3 L1,2 L1,4 L5,6 L0,8 L-10,7 L-7,11 L-18,11 L-18,13 L-15,13 L-15,15 L-23,17 L-21,18 L-10,18 L-5,17 L16,16 L13,19 L16,22 L12,22 L12,20 L1,21 L-23,22 L-28,24 L-31,24 L-31,20 L-41,20 L-41,19 L-34,19 L-34,17 L-52,17 L-52,15 L-48,14 L-48,12 L-45,12 L-49,9 L-44,10 L-44,8 L-48,7 L-43,7 L-41,9 L-22,11 L-18,9 L-13,9 L-13,6 L-17,5 L-6,1 Z " fill="#383E49" transform="translate(52,98)"/>
<path d="M0,0 L15,1 L15,3 L2,4 L2,5 L-16,7 L-20,9 L-21,10 L-40,11 L-40,13 L-47,13 L-47,15 L-98,15 L-98,14 L-85,13 L-101,12 L-101,11 L-77,10 L-59,8 L-58,6 L-30,5 L-30,3 L-33,2 L-26,2 L-26,3 L-21,3 L-21,2 Z " fill="#4A5158" transform="translate(154,111)"/>
<path d="M0,0 L9,1 L9,2 L-7,6 L-13,8 L-5,9 L-5,11 L-12,12 L-13,15 L-17,13 L-17,16 L-22,19 L-20,21 L-22,25 L-25,28 L-16,26 L-19,29 L-27,29 L-28,26 L-32,27 L-35,34 L-31,37 L-31,39 L-36,43 L-41,42 L-42,44 L-42,42 L-46,43 L-44,38 L-38,30 L-30,18 L-22,10 L-22,5 L-20,5 L-20,8 L-9,2 L-8,1 Z " fill="#586169" transform="translate(86,37)"/>
<path d="M0,0 L5,2 L5,4 L1,5 L1,7 L5,9 L5,11 L7,11 L7,13 L12,15 L12,21 L3,24 L-16,22 L-18,20 L-17,14 L-14,11 L-8,11 L-7,6 L-2,1 Z " fill="#28333F" transform="translate(27,86)"/>
<path d="M0,0 L5,0 L6,4 L3,9 L4,13 L3,17 L-1,19 L1,21 L-1,21 L-1,23 L-7,21 L-18,18 L-20,13 L-15,10 L-10,9 L-9,7 L-20,11 L-27,10 L-27,8 L-23,7 L-13,5 L-7,4 L-6,9 L-2,5 L-2,2 Z M-18,14 L-17,16 Z " fill="#1B2835" transform="translate(82,59)"/>
<path d="M0,0 L14,0 L23,3 L23,1 L28,1 L28,4 L26,5 L24,4 L24,8 L19,8 L19,6 L14,9 L9,8 L8,10 L-4,14 L-7,16 L-8,19 L-10,19 L-8,14 L-5,11 L-11,14 L-12,16 L-14,16 L-12,11 L-15,12 L-13,8 L-5,7 L-5,5 L-12,7 L-8,3 L-1,1 Z " fill="#303C47" transform="translate(107,85)"/>
<path d="M0,0 L6,0 L7,4 L12,6 L17,10 L12,10 L10,9 L10,14 L7,14 L6,11 L6,12 L2,13 L0,12 L-1,14 L-3,14 L-6,11 L-6,8 L-11,10 L-7,12 L-6,14 L-4,14 L-3,17 L-6,17 L-6,19 L-13,21 L-15,17 L-16,12 L-13,12 L-16,9 L-13,7 L-13,4 L-8,1 L0,2 L4,4 L4,2 Z " fill="#27333F" transform="translate(107,39)"/>
<path d="M0,0 L4,0 L6,5 L1,4 L1,6 L8,6 L16,3 L19,3 L18,6 L9,9 L10,15 L8,17 L1,18 L-5,22 L-7,22 L-8,24 L-9,23 L-14,24 L-16,27 L-17,26 L-19,28 L-18,20 L-13,11 L-10,8 L-8,9 L-13,15 L-14,17 L-6,15 L-6,17 L-1,13 L1,13 L1,11 L-5,11 L-3,9 L-5,7 L-3,7 L-1,1 Z M10,10 Z " fill="#2F3A45" transform="translate(54,63)"/>
<path d="M0,0 L13,1 L23,1 L28,2 L25,4 L20,5 L20,3 L15,4 L6,5 L9,6 L10,10 L5,10 L5,11 L10,12 L10,13 L-6,14 L-50,14 L-47,12 L-12,11 L-12,13 L0,11 L-6,9 L-6,7 L0,6 L0,4 L4,3 L-2,2 Z " fill="#404A53" transform="translate(76,107)"/>
<path d="M0,0 L8,0 L11,4 L15,6 L14,13 L3,13 L4,9 L-3,10 L-1,13 L-5,11 L-11,11 L-11,13 L-16,13 L-16,11 L-19,11 L-19,9 L-15,8 L-10,8 L-11,5 L-1,5 L2,3 L0,2 Z " fill="#13212E" transform="translate(53,100)"/>
<path d="M0,0 L9,1 L9,2 L-7,6 L-13,8 L-5,9 L-5,11 L-12,12 L-13,15 L-17,13 L-17,16 L-22,19 L-30,22 L-28,18 L-22,10 L-22,5 L-20,5 L-20,8 L-9,2 L-8,1 Z " fill="#656D74" transform="translate(86,37)"/>
<path d="M0,0 L6,0 L4,1 L4,3 L18,3 L18,5 L32,5 L32,7 L2,8 L2,10 L-13,10 L-13,7 L-6,8 L-7,4 L-11,3 L-10,2 L-1,1 Z " fill="#111B26" transform="translate(92,109)"/>
<path d="M0,0 L4,1 L6,1 L14,0 L15,2 L13,4 L7,3 L7,5 L14,5 L18,6 L18,8 L8,6 L8,8 L12,8 L13,12 L14,15 L16,15 L16,17 L12,16 L12,22 L10,23 L4,21 L4,23 L1,22 L3,21 L4,19 L7,18 L8,13 L0,14 L0,12 L2,12 L2,10 L4,9 L2,7 L2,3 L0,3 Z M8,20 Z " fill="#1C2833" transform="translate(91,57)"/>
<path d="M0,0 L4,1 L10,2 L21,2 L26,1 L47,0 L44,3 L47,6 L43,6 L43,4 L32,5 L8,6 L3,8 L0,8 L0,4 L-10,4 L-10,3 L-3,3 L-3,1 Z " fill="#B6BABE" transform="translate(21,114)"/>
<path d="M0,0 L25,1 L25,3 L18,3 L18,5 L-33,5 L-33,4 L-8,2 L-5,1 Z " fill="#979BA0" transform="translate(89,121)"/>
<path d="M0,0 L12,1 L19,2 L18,4 L20,5 L20,7 L12,5 L6,6 L3,9 L4,11 L-5,12 L-8,13 L-7,9 L-7,5 L-1,3 L-2,1 Z " fill="#3F4B55" transform="translate(91,36)"/>
<path d="M0,0 L4,1 L3,2 L8,1 L9,4 L19,3 L20,1 L25,1 L26,6 L17,9 L-2,7 L-4,5 L-4,2 Z " fill="#0F1925" transform="translate(13,101)"/>
<path d="M0,0 L6,2 L8,2 L9,5 L6,8 L-6,12 L-9,14 L-10,17 L-12,17 L-10,12 L-7,9 L-13,12 L-14,14 L-16,14 L-14,7 L-4,5 L-4,3 L-2,3 L-2,1 Z " fill="#242F3B" transform="translate(109,87)"/>
<path d="M0,0 L7,0 L12,5 L13,11 L4,12 L9,13 L6,15 L3,15 L3,12 L1,12 L1,9 L-2,9 L-2,7 L0,7 L1,3 L3,4 Z M1,7 L1,9 L3,8 Z " fill="#1B2A38" transform="translate(148,97)"/>
<path d="M0,0 L7,1 L8,3 L1,2 L1,4 L5,6 L0,8 L-10,7 L-7,11 L-16,11 L-22,14 L-24,15 L-22,11 L-18,9 L-13,9 L-13,6 L-17,5 L-6,1 Z " fill="#545C66" transform="translate(52,98)"/>
<path d="M0,0 L13,1 L11,4 L11,6 L-12,6 L-12,5 L-5,5 L-5,3 L-26,2 L-26,1 Z " fill="#B9BCBF" transform="translate(138,117)"/>
<path d="M0,0 L15,1 L15,3 L2,4 L2,5 L-13,6 L-20,5 L-21,2 Z " fill="#93979D" transform="translate(154,111)"/>
<path d="M0,0 L9,0 L10,2 L43,3 L43,4 L13,5 L13,7 L-2,7 L-2,4 L5,5 L4,1 Z " fill="#1C2631" transform="translate(81,112)"/>
<path d="M0,0 L2,1 L-3,7 L-4,9 L4,7 L5,10 L3,10 L1,15 L-4,16 L-6,19 L-7,18 L-9,20 L-8,12 L-3,3 Z " fill="#39434E" transform="translate(44,71)"/>
<path d="M0,0 L6,0 L7,4 L12,6 L17,10 L12,10 L10,9 L10,14 L7,14 L6,11 L1,11 L0,8 L2,7 L2,4 L4,4 L4,2 Z " fill="#162331" transform="translate(107,39)"/>
<path d="M0,0 L5,0 L7,2 L14,3 L16,9 L-4,10 L-4,8 L0,7 L0,5 L3,5 L-1,2 L4,3 L4,1 Z " fill="#8C9097" transform="translate(4,105)"/>
<path d="M0,0 L3,1 L3,4 L1,5 L2,7 L6,7 L4,11 L2,10 L1,14 L-8,15 L-7,12 L-5,11 L-4,8 L-7,6 L-2,3 L0,3 Z " fill="#3A4651" transform="translate(69,50)"/>
<path d="M0,0 L5,2 L5,4 L1,5 L1,7 L4,8 L4,10 L1,11 L-5,9 L-6,13 L-8,10 L-6,4 Z " fill="#788288" transform="translate(27,86)"/>
<path d="M0,0 L11,0 L20,5 L18,6 L14,4 L9,4 L5,4 L-2,6 L-2,4 L-8,5 L-4,1 Z " fill="#39444F" transform="translate(60,81)"/>
<path d="M0,0 L1,2 L3,2 L3,4 L8,6 L7,8 L2,7 L1,10 L-9,10 L-8,6 L-3,4 L-2,1 Z " fill="#3F4952" transform="translate(31,95)"/>
<path d="M0,0 L11,0 L11,2 L15,1 L22,1 L22,2 L17,3 L-27,3 L-24,1 Z " fill="#414750" transform="translate(53,118)"/>
<path d="M0,0 L4,0 L9,5 L5,5 L5,7 L3,7 L3,9 L11,8 L11,10 L5,11 L-1,9 L-2,8 L-2,2 Z " fill="#212E39" transform="translate(88,62)"/>
<path d="M0,0 L2,1 L1,3 L9,3 L9,5 L4,9 L-1,8 L-2,10 L-2,8 L-6,9 L-4,4 Z " fill="#57606A" transform="translate(46,71)"/>
<path d="M0,0 L0,3 L1,4 L1,11 L-1,13 L-4,13 L-5,11 L-9,9 L-8,6 L-4,6 L-7,2 L-2,2 Z " fill="#192531" transform="translate(36,84)"/>
<path d="M0,0 L8,0 L7,5 L4,5 L8,8 L3,7 L3,9 L10,9 L10,10 L-1,10 L-1,2 Z " fill="#DEE0E1" transform="translate(1,103)"/>
<path d="M0,0 L4,1 L2,7 L-3,10 L-11,13 L-9,9 L-4,4 Z " fill="#68727B" transform="translate(67,46)"/>
<path d="M0,0 L8,2 L4,3 L0,5 L0,8 L-8,6 L-9,9 L-11,8 L-11,6 L-13,5 L-7,2 L0,4 Z " fill="#192632" transform="translate(131,89)"/>
<path d="M0,0 L1,2 L0,4 L8,5 L9,9 L8,11 L3,10 L2,7 L-1,8 L-1,5 L-3,5 L-4,8 L-6,2 Z " fill="#16222F" transform="translate(101,46)"/>
<path d="M0,0 L5,1 L6,3 L0,3 L0,5 L-2,5 L-2,7 L-12,10 L-15,12 L-13,8 L-5,7 L-5,5 L-12,7 L-8,3 L-1,1 Z " fill="#5C6770" transform="translate(107,85)"/>
<path d="M0,0 L6,0 L7,3 L4,4 L4,6 L9,6 L8,9 L-1,7 L-3,2 Z M-1,3 L0,5 Z " fill="#242F3B" transform="translate(65,70)"/>
<path d="M0,0 L2,0 L2,3 L4,4 L-3,6 L-4,8 L-10,10 L-14,14 L-16,14 L-14,7 L-4,5 L-4,3 L-2,3 L-2,1 Z " fill="#3A444E" transform="translate(109,87)"/>
<path d="M0,0 L2,1 L2,3 L4,3 L4,5 L0,4 L0,10 L-2,11 L-8,9 L-8,11 L-11,10 L-9,9 L-8,7 L-5,6 L-5,4 L-1,4 L-2,1 Z M-4,8 Z " fill="#14222F" transform="translate(103,69)"/>
<path d="M0,0 L2,4 L7,12 L7,18 L5,20 L1,8 L-2,3 Z " fill="#22303E" transform="translate(124,49)"/>
<path d="M0,0 L3,1 L-1,3 L-22,4 L-23,2 L-18,1 Z " fill="#70777F" transform="translate(65,114)"/>
<path d="M0,0 L4,1 L3,4 L0,7 L9,5 L6,8 L-2,8 L-3,5 L-6,6 L-5,2 L-3,3 Z " fill="#4B555F" transform="translate(61,58)"/>
<path d="M0,0 L9,0 L8,2 L10,4 L8,6 L8,4 L4,5 L2,4 L1,6 L-2,7 L-4,5 L-2,1 L0,2 Z " fill="#34404A" transform="translate(85,47)"/>
<path d="M0,0 L7,0 L7,1 L20,3 L17,5 L7,5 L0,4 L3,3 L3,1 Z " fill="#646A72" transform="translate(121,113)"/>
<path d="M0,0 L2,0 L3,4 L-2,4 L-2,5 L3,6 L3,7 L-8,7 L-8,4 L-10,2 L-1,1 Z " fill="#39434D" transform="translate(83,113)"/>
<path d="M0,0 L1,2 L8,2 L12,4 L6,7 L-3,5 Z " fill="#09131E" transform="translate(36,95)"/>
<path d="M0,0 L9,1 L9,3 L3,4 L3,7 L-10,7 L-10,6 L2,6 L2,4 L-8,2 L-8,1 Z " fill="#626871" transform="translate(18,108)"/>
<path d="M0,0 L3,0 L2,3 L-4,5 L-2,1 Z M-6,5 L-4,6 L-6,10 L-19,12 L-17,11 L-17,9 L-7,8 Z " fill="#192530" transform="translate(99,96)"/>
<path d="M0,0 L2,0 L4,4 L13,5 L16,6 L14,6 L15,9 L7,10 L7,8 L5,8 L5,6 L1,4 Z " fill="#07131E" transform="translate(84,67)"/>
<path d="M0,0 L8,1 L7,4 L5,5 L5,3 L2,6 L-6,6 L-4,2 Z " fill="#303B47" transform="translate(99,40)"/>
<path d="M0,0 L9,1 L9,2 L-7,6 L-13,7 L-9,4 L-6,1 Z " fill="#778188" transform="translate(86,37)"/>
<path d="M0,0 L5,0 L3,2 L-3,3 L-4,8 L-13,11 L-16,13 L-14,9 L-10,7 L-5,7 L-5,4 L-9,3 Z " fill="#707981" transform="translate(44,100)"/>
<path d="M0,0 L2,2 L0,2 Z M-5,2 L0,2 L0,5 L2,5 L2,8 L-17,8 L-17,7 L-2,6 L-6,3 Z " fill="#07131E" transform="translate(149,104)"/>
<path d="M0,0 L3,1 L3,3 L7,3 L8,1 L8,4 L6,5 L0,5 L5,6 L2,8 L-1,8 L-1,5 L-3,5 L-3,2 Z " fill="#16242F" transform="translate(152,104)"/>
<path d="M0,0 L2,1 L-3,7 L-4,12 L-5,19 L-7,18 L-9,20 L-8,12 L-3,3 Z " fill="#444C55" transform="translate(44,71)"/>
<path d="M0,0 L11,0 L16,5 L12,3 L6,3 L6,5 L1,5 L1,3 L-2,3 L-2,1 Z " fill="#25303B" transform="translate(36,108)"/>
<path d="M0,0 L3,0 L4,5 L3,11 L-1,7 L-4,2 L-1,2 Z " fill="#182836" transform="translate(143,90)"/>
<path d="M0,0 L25,1 L25,2 L5,3 L-5,2 L-5,1 Z " fill="#858B91" transform="translate(89,121)"/>
<path d="M0,0 L4,1 L3,4 L7,6 L2,6 L2,4 L-8,5 L-9,3 L-3,1 L0,2 Z " fill="#293742" transform="translate(108,108)"/>
<path d="M0,0 L4,1 L4,3 L8,4 L6,4 L6,7 L8,8 L2,10 L2,7 L4,7 L4,5 L-2,5 L0,3 L-2,1 Z " fill="#414C57" transform="translate(51,69)"/>
<path d="M0,0 L5,0 L5,3 L0,2 L-1,5 L-11,5 L-11,3 L-1,1 Z " fill="#323E48" transform="translate(33,100)"/>
<path d="M0,0 L9,1 L14,3 L14,1 L19,1 L19,4 L17,5 L-1,2 Z " fill="#4A555E" transform="translate(116,85)"/>
<path d="M0,0 L4,0 L4,2 L6,3 L1,5 L-7,4 L-6,2 Z " fill="#2C3742" transform="translate(79,42)"/>
<path d="M0,0 L8,0 L4,3 L0,5 L-1,7 L-4,7 L-3,1 Z " fill="#36404C" transform="translate(90,39)"/>
<path d="M0,0 L7,0 L5,4 L4,6 L7,7 L7,9 L0,9 L2,5 L3,3 L0,2 Z " fill="#5C606A" transform="translate(89,9)"/>
<path d="M0,0 L5,0 L7,2 L14,3 L11,6 L5,6 L-1,3 L2,2 L4,3 L4,1 Z " fill="#9DA2A8" transform="translate(4,105)"/>
<path d="M0,0 L7,0 L5,5 L4,6 L7,7 L7,9 L1,9 L2,5 L4,2 L0,2 Z " fill="#666B75" transform="translate(76,13)"/>
<path d="M0,0 L8,1 L11,4 L0,4 L-4,2 Z " fill="#1D2833" transform="translate(31,113)"/>
<path d="M0,0 L4,2 L6,6 L3,7 L-4,6 L-3,4 L0,5 L0,3 L-2,2 L0,2 Z " fill="#14222F" transform="translate(41,91)"/>
<path d="M0,0 L9,0 L6,3 L-2,4 L-4,3 L-4,1 Z " fill="#0F1822" transform="translate(59,66)"/>
<path d="M0,0 L4,1 L3,4 L0,4 L-2,8 L-5,6 L-5,8 L-7,7 L-2,2 Z " fill="#858F95" transform="translate(67,46)"/>
<path d="M0,0 L5,0 L5,2 L9,1 L16,1 L16,2 L11,3 L-4,3 L0,2 Z " fill="#6D7279" transform="translate(59,118)"/>
<path d="M0,0 L14,1 L11,3 L-1,4 Z " fill="#B6BABF" transform="translate(27,116)"/>
<path d="M0,0 L6,1 L8,3 L3,2 L3,4 L10,4 L10,5 L-1,5 Z " fill="#F7F7F8" transform="translate(1,108)"/>
<path d="M0,0 L4,1 L3,2 L5,4 L-2,6 L-4,5 L-4,2 Z " fill="#1C2935" transform="translate(13,101)"/>
<path d="M0,0 L13,1 L13,2 L-2,3 L-9,2 L-9,1 Z " fill="#B3B6BA" transform="translate(143,114)"/>
<path d="M0,0 L6,0 L7,4 L0,4 L-6,5 L-6,3 L0,2 Z " fill="#4E5961" transform="translate(76,111)"/>
<path d="M0,0 L10,0 L8,2 L0,6 L-1,9 L-3,9 L-1,4 L2,1 Z " fill="#29353F" transform="translate(100,95)"/>
<path d="M0,0 L2,1 L0,4 L2,5 L-1,6 L-1,8 L-6,8 L-7,4 L-5,4 L-5,6 L-3,6 L-1,1 Z " fill="#12212E" transform="translate(60,89)"/>
<path d="M0,0 L2,4 L7,9 L4,9 L-5,6 L-3,4 L0,4 Z " fill="#232F3C" transform="translate(133,71)"/>
<path d="M0,0 L1,2 L0,8 L2,10 L-4,11 L-5,7 Z " fill="#4E5861" transform="translate(51,63)"/>
<path d="M0,0 L6,0 L7,4 L-5,3 L-5,1 L0,1 Z " fill="#13202C" transform="translate(103,59)"/>
<path d="M0,0 L10,2 L10,3 L5,4 L1,6 L-1,4 Z " fill="#05101C" transform="translate(119,105)"/>
<path d="M0,0 L2,1 L2,5 L13,5 L13,7 L7,8 L1,6 L0,5 Z " fill="#606973" transform="translate(86,65)"/>
<path d="M0,0 L4,0 L5,4 L3,8 L0,8 Z " fill="#182531" transform="translate(83,59)"/>
<path d="M0,0 L1,2 L6,4 L11,8 L6,8 L-1,4 Z " fill="#2B3541" transform="translate(113,41)"/>
<path d="M0,0 L8,0 L4,1 L4,3 L8,5 L4,6 L0,4 Z " fill="#172938" transform="translate(111,108)"/>
<path d="M0,0 L3,1 L3,4 L-2,6 L-3,8 L-7,6 L-2,3 L0,3 Z " fill="#46515C" transform="translate(69,50)"/>
<path d="M0,0 L2,0 L1,5 L3,6 L2,7 L-3,7 L-3,2 Z " fill="#676B73" transform="translate(57,33)"/>
<path d="M0,0 L5,0 L3,4 L5,5 L5,7 L-1,7 L1,3 Z " fill="#6E727B" transform="translate(102,9)"/>
<path d="M0,0 L2,1 L2,2 L3,4 L2,6 L0,6 L-1,10 L-3,7 L-1,1 Z " fill="#4E5861" transform="translate(22,89)"/>
<path d="M0,0 L2,1 L1,3 L4,4 L2,6 L-2,5 L-4,9 L-6,9 L-4,4 Z " fill="#90989D" transform="translate(46,71)"/>
<path d="M0,0 L6,0 L6,2 L-4,5 L-7,4 L-3,1 Z " fill="#0A121E" transform="translate(58,79)"/>
<path d="M0,0 L4,0 L4,3 L7,2 L5,6 L1,4 Z " fill="#222E39" transform="translate(54,85)"/>
<path d="M0,0 L4,0 L6,5 L0,5 L-2,3 Z " fill="#36404A" transform="translate(54,63)"/>
<path d="M0,0 L5,1 L6,5 L0,4 Z " fill="#14212D" transform="translate(153,98)"/>
<path d="M0,0 L6,0 L6,2 L2,4 L-3,4 L-2,1 Z " fill="#353F4C" transform="translate(64,61)"/>
<path d="M0,0 L7,1 L6,3 L-6,3 L-6,1 Z " fill="#A5AAAF" transform="translate(158,108)"/>
<path d="M0,0 L7,1 L9,5 L0,2 Z " fill="#142130" transform="translate(53,100)"/>
<path d="M0,0 L8,1 L8,5 L3,5 L2,1 Z " fill="#26323D" transform="translate(123,88)"/>
<path d="M0,0 L6,1 L6,2 L-3,5 L-9,7 L-6,4 Z " fill="#3A414A" transform="translate(78,38)"/>
<path d="M0,0 L5,2 L5,4 L0,5 L0,3 L-3,2 Z " fill="#535D65" transform="translate(27,86)"/>
<path d="M0,0 L8,2 L5,4 L0,4 L-1,1 Z " fill="#142231" transform="translate(64,77)"/>
<path d="M0,0 L4,0 L6,2 L3,3 L2,5 L-1,6 L-2,2 Z " fill="#2C3843" transform="translate(88,62)"/>
<path d="M0,0 L4,0 L4,2 L13,1 L12,3 L2,3 Z " fill="#0E151E" transform="translate(64,116)"/>
<path d="M0,0 L6,0 L7,4 L-4,2 Z " fill="#04111D" transform="translate(125,110)"/>
<path d="M0,0 L5,5 L2,7 L-5,5 L-2,3 L1,3 Z " fill="#2C3A46" transform="translate(60,100)"/>
<path d="M0,0 L7,0 L5,1 L4,6 L1,6 L1,4 L3,4 Z " fill="#2E3B44" transform="translate(148,97)"/>
<path d="M0,0 L2,1 L0,7 L-1,10 L-2,9 L-4,11 L-3,6 Z " fill="#5D6770" transform="translate(39,80)"/>
<path d="M0,0 L7,0 L6,4 L2,5 Z " fill="#3A444E" transform="translate(73,48)"/>
<path d="M0,0 L2,0 L3,4 L-4,3 L-6,1 L-1,1 Z " fill="#2A3640" transform="translate(83,113)"/>
<path d="M0,0 L5,0 L7,4 L9,5 L4,5 L4,3 L0,1 Z " fill="#050E18" transform="translate(43,110)"/>
<path d="M0,0 L3,0 L3,2 L7,4 L-2,4 Z " fill="#1D2C38" transform="translate(58,109)"/>
<path d="M0,0 L1,2 L4,2 L4,4 L-4,4 Z " fill="#4C5760" transform="translate(33,109)"/>
<path d="M0,0 L3,1 L0,4 L-4,4 L-4,1 Z " fill="#1A2835" transform="translate(27,104)"/>
<path d="M0,0 L5,2 L4,4 L-3,3 L-3,1 Z " fill="#3E4652" transform="translate(48,102)"/>
<path d="M0,0 L5,0 L5,2 L-2,5 L-5,4 Z " fill="#5C686F" transform="translate(14,98)"/>
<path d="M0,0 L9,1 L9,2 L-1,4 Z " fill="#646F78" transform="translate(86,37)"/>
<path d="M0,0 L7,0 L6,2 L-2,3 L-4,2 Z " fill="#5A656D" transform="translate(26,100)"/>
<path d="M0,0 L0,3 L-7,6 L-7,2 Z " fill="#1C2834" transform="translate(28,97)"/>
<path d="M0,0 L4,1 L4,3 L0,7 L-2,7 Z " fill="#2B3742" transform="translate(95,94)"/>
<path d="M0,0 L6,2 L2,4 L-4,3 L-3,1 Z " fill="#1C2833" transform="translate(109,92)"/>
<path d="M0,0 L8,1 L12,0 L9,3 L1,3 Z " fill="#798188" transform="translate(58,63)"/>
<path d="M0,0 L5,0 L6,3 L1,4 L-1,2 Z " fill="#1A2430" transform="translate(33,102)"/>
<path d="M0,0 L4,1 L5,3 L0,4 Z " fill="#17232F" transform="translate(28,90)"/>
<path d="M0,0 L6,0 L6,2 L1,5 Z " fill="#4E5863" transform="translate(49,74)"/>
<path d="M0,0 L7,2 L3,3 L1,2 L0,4 L-2,4 L-2,1 Z " fill="#202F3B" transform="translate(106,49)"/>
<path d="M0,0 L2,0 L3,4 L2,6 L-1,6 Z " fill="#2B3643" transform="translate(87,40)"/>
<path d="M0,0 L1,2 L4,3 L4,5 L-2,5 L-1,1 Z " fill="#5D636D" transform="translate(79,17)"/>
</svg>
