<?xml version="1.0" encoding="UTF-8"?>
<!-- Generator: visioncortex VTracer 0.6.5 -->
<svg version="1.1" xmlns="http://www.w3.org/2000/svg" width="165" height="142">
<path d="M0,0 L165,0 L165,142 L0,142 Z " fill="#F6F6F6" transform="translate(0,0)"/>
<path d="M0,0 L10,0 L22,4 L30,11 L37,20 L43,35 L46,57 L47,59 L47,68 L45,68 L50,82 L51,83 L52,92 L60,98 L63,105 L72,107 L74,107 L74,109 L77,109 L77,111 L82,111 L81,113 L78,113 L78,116 L81,116 L81,118 L70,119 L70,121 L59,122 L57,123 L61,124 L61,126 L69,126 L69,127 L56,127 L56,125 L51,125 L51,127 L39,128 L36,129 L36,131 L25,131 L28,129 L28,127 L32,124 L26,124 L25,129 L10,130 L-6,130 L-12,128 L-14,124 L-15,126 L-31,126 L-31,124 L-49,124 L-44,125 L-44,126 L-55,126 L-56,124 L-44,121 L-46,116 L-46,118 L-68,117 L-70,115 L-63,114 L-62,111 L-56,107 L-50,106 L-48,100 L-44,96 L-40,93 L-40,84 L-36,71 L-36,55 L-33,43 L-31,32 L-27,21 L-20,11 L-11,4 Z " fill="#091825" transform="translate(75,6)"/>
<path d="M0,0 L10,0 L22,4 L30,11 L37,20 L38,24 L36,26 L31,16 L27,12 L19,12 L18,14 L20,15 L17,16 L17,18 L12,21 L8,21 L12,25 L17,23 L17,25 L14,27 L16,33 L13,32 L12,30 L6,32 L8,28 L7,24 L2,26 L2,35 L-2,35 L-4,37 L-5,43 L-8,43 L-8,39 L-10,39 L-12,45 L-11,46 L-11,70 L-13,69 L-14,53 L-16,49 L-15,40 L-12,32 L-11,24 L-14,26 L-13,31 L-15,31 L-17,29 L-18,32 L-16,33 L-16,35 L-18,35 L-18,37 L-16,37 L-17,46 L-18,48 L-20,48 L-22,61 L-24,61 L-23,70 L-21,66 L-17,64 L-19,68 L-14,66 L-13,76 L-12,81 L-14,89 L-16,98 L-9,94 L-9,87 L-6,85 L-7,90 L-2,90 L-1,91 L1,84 L3,68 L4,68 L5,83 L8,89 L5,89 L5,93 L7,94 L7,96 L4,97 L3,100 L5,100 L6,107 L4,107 L2,115 L6,116 L6,120 L2,122 L4,123 L4,125 L-3,126 L-4,127 L15,127 L22,126 L18,121 L44,121 L45,119 L61,119 L61,115 L58,114 L73,113 L71,108 L74,107 L74,109 L77,109 L77,111 L82,111 L81,113 L78,113 L78,116 L81,116 L81,118 L70,119 L70,121 L59,122 L57,123 L61,124 L61,126 L69,126 L69,127 L56,127 L56,125 L51,125 L51,127 L39,128 L36,129 L36,131 L25,131 L28,129 L28,127 L32,124 L26,124 L25,129 L10,130 L-6,130 L-12,128 L-14,124 L-15,126 L-31,126 L-31,124 L-49,124 L-44,125 L-44,126 L-55,126 L-56,124 L-44,121 L-46,116 L-46,118 L-68,117 L-70,115 L-63,114 L-62,111 L-56,107 L-50,106 L-48,100 L-44,96 L-40,93 L-40,84 L-36,71 L-36,55 L-33,43 L-31,32 L-27,21 L-20,11 L-11,4 Z " fill="#0F1C28" transform="translate(75,6)"/>
<path d="M0,0 L10,0 L22,4 L30,11 L37,20 L38,24 L36,26 L31,16 L27,12 L19,12 L18,14 L20,15 L17,16 L17,18 L12,21 L8,21 L12,25 L17,23 L17,25 L14,27 L16,33 L13,32 L12,30 L6,32 L8,28 L7,24 L2,26 L2,35 L-2,35 L-4,37 L-5,43 L-8,43 L-8,39 L-10,39 L-12,45 L-11,46 L-11,70 L-13,69 L-14,53 L-16,49 L-15,40 L-12,32 L-11,24 L-14,26 L-13,31 L-15,31 L-17,29 L-21,32 L-19,26 L-21,26 L-24,27 L-25,33 L-28,34 L-29,46 L-31,65 L-31,74 L-33,74 L-34,79 L-38,89 L-40,86 L-37,75 L-36,65 L-36,55 L-33,43 L-31,32 L-27,21 L-20,11 L-11,4 Z " fill="#222D39" transform="translate(75,6)"/>
<path d="M0,0 L1,2 L0,11 L-1,13 L3,14 L3,18 L-1,20 L1,21 L1,23 L-6,24 L-7,25 L12,25 L19,24 L15,19 L41,19 L42,17 L58,17 L58,13 L55,12 L70,11 L68,6 L71,5 L71,7 L74,7 L74,9 L79,9 L78,11 L75,11 L75,14 L78,14 L78,16 L67,17 L67,19 L56,20 L54,21 L58,22 L58,24 L66,24 L66,25 L53,25 L53,23 L48,23 L48,25 L36,26 L33,27 L33,29 L22,29 L25,27 L25,25 L29,22 L23,22 L22,27 L7,28 L-9,28 L-15,26 L-17,22 L-18,24 L-34,24 L-34,22 L-52,22 L-47,23 L-47,24 L-58,24 L-59,22 L-53,20 L-26,18 L-7,18 L-7,16 L-12,17 L-14,16 L-24,16 L-22,13 L-12,11 L-9,9 L-6,4 L-5,6 L-7,14 L-4,14 L-4,9 Z " fill="#787D84" transform="translate(78,108)"/>
<path d="M0,0 L3,3 L5,6 L5,9 L10,10 L10,12 L22,13 L22,11 L20,11 L20,9 L29,12 L31,13 L31,16 L35,17 L36,19 L20,19 L19,22 L-5,22 L-3,26 L-10,28 L-29,28 L-32,26 L-19,23 L-15,21 L-16,19 L-14,19 L-14,17 L-6,13 L2,13 L-1,10 L0,8 L2,8 L2,4 L-1,5 Z " fill="#0E1B28" transform="translate(100,106)"/>
<path d="M0,0 L9,0 L8,4 L5,3 L6,5 L11,8 L12,10 L3,7 L2,2 L-3,5 L-8,8 L-10,8 L-9,12 L-14,17 L-16,22 L-10,20 L-13,24 L-12,29 L-14,29 L-16,27 L-20,30 L-18,24 L-20,24 L-23,25 L-24,31 L-27,32 L-28,44 L-30,63 L-30,72 L-32,72 L-33,77 L-37,87 L-39,84 L-36,73 L-35,63 L-35,53 L-32,41 L-30,30 L-26,19 L-19,9 L-17,7 L-10,4 L-4,1 Z " fill="#5D666E" transform="translate(74,8)"/>
<path d="M0,0 L0,3 L-4,13 L1,11 L3,17 L4,23 L5,30 L1,30 L-1,32 L-2,38 L-5,38 L-5,34 L-7,34 L-9,40 L-8,41 L-8,65 L-10,64 L-11,48 L-13,44 L-12,35 L-9,27 L-9,18 L-14,20 L-14,16 L-10,10 L-8,8 L-8,5 L-2,2 Z " fill="#3D4751" transform="translate(72,11)"/>
<path d="M0,0 L2,0 L1,7 L-1,13 L-3,13 L-2,17 L1,17 L-1,22 L-6,23 L-8,26 L-1,27 L-1,29 L-8,29 L-12,32 L-6,33 L-2,32 L-3,34 L1,36 L-9,36 L-13,34 L-13,36 L-35,35 L-37,33 L-30,32 L-29,29 L-23,25 L-17,24 L-15,18 L-11,14 L-6,12 L-3,7 L-1,7 Z M2,13 L5,14 L4,19 L2,19 L1,15 Z " fill="#323C45" transform="translate(42,88)"/>
<path d="M0,0 L3,2 L2,6 L0,9 L4,6 L6,7 L4,13 L5,14 L6,18 L4,20 L5,25 L5,33 L8,34 L8,26 L7,21 L9,21 L9,23 L11,23 L10,36 L12,36 L12,38 L7,40 L6,44 L6,53 L2,54 L1,53 L0,35 L-3,34 L-5,28 L-4,24 L-2,30 L0,22 L-2,22 L-3,24 L-7,20 L-7,12 L-4,12 L-5,6 L-4,3 L0,2 Z " fill="#121F2C" transform="translate(81,29)"/>
<path d="M0,0 L1,2 L0,11 L-1,13 L3,14 L3,18 L-1,20 L1,22 L-11,22 L-11,24 L-16,23 L-17,22 L-18,24 L-34,24 L-34,22 L-52,22 L-47,23 L-47,24 L-58,24 L-59,22 L-53,20 L-26,18 L-7,18 L-7,16 L-12,17 L-14,16 L-24,16 L-22,13 L-12,11 L-9,9 L-6,4 L-5,6 L-7,14 L-4,14 L-4,9 Z " fill="#2D3843" transform="translate(78,108)"/>
<path d="M0,0 L2,4 L4,10 L6,6 L10,4 L8,8 L13,6 L14,16 L15,21 L13,29 L11,38 L8,41 L8,32 L9,23 L7,23 L7,25 L5,25 L5,34 L1,34 L0,28 L3,19 L1,19 L1,13 L-1,13 L-1,4 Z " fill="#1E2A37" transform="translate(48,66)"/>
<path d="M0,0 L1,0 L2,15 L5,21 L2,21 L2,25 L4,26 L4,28 L1,29 L0,32 L2,32 L3,39 L1,39 L0,42 L-1,39 L-4,48 L-7,48 L-7,42 L-6,38 L-7,29 L-9,31 L-17,34 L-19,30 L-12,26 L-12,19 L-9,17 L-10,22 L-5,22 L-4,23 L-2,16 Z " fill="#0F1F2D" transform="translate(78,74)"/>
<path d="M0,0 L3,2 L1,7 L5,9 L5,11 L3,11 L3,13 L5,13 L4,22 L3,24 L1,24 L-1,37 L-3,37 L-3,35 L-5,35 L-5,24 L-9,22 L-8,10 L-5,7 L-3,3 Z " fill="#3A434E" transform="translate(54,30)"/>
<path d="M0,0 L1,0 L1,12 L-3,18 L-7,20 L-18,21 L-20,15 L-17,15 L-20,14 L-19,11 L-14,10 L-14,4 L-12,3 L-9,6 L-1,2 Z " fill="#091825" transform="translate(71,101)"/>
<path d="M0,0 L1,2 L0,5 L6,7 L4,8 L2,7 L5,11 L4,13 L7,14 L15,14 L18,15 L22,14 L22,18 L-18,18 L-19,14 L-12,14 L-10,12 L-11,10 L-5,9 L-4,5 Z " fill="#0B1621" transform="translate(49,109)"/>
<path d="M0,0 L2,0 L2,2 L5,2 L5,4 L10,4 L9,6 L6,6 L6,9 L9,9 L9,11 L-2,12 L-2,14 L-13,15 L-15,16 L-11,17 L-11,19 L-3,19 L-3,20 L-16,20 L-16,18 L-21,18 L-22,20 L-22,18 L-31,18 L-31,15 L-28,14 L-27,12 L-11,12 L-11,8 L-14,7 L1,6 L-1,1 Z " fill="#7C8289" transform="translate(147,113)"/>
<path d="M0,0 L1,0 L0,13 L2,13 L2,19 L-1,18 L-2,27 L0,27 L1,25 L1,29 L-1,29 L-2,33 L-6,37 L-7,41 L-11,46 L-14,50 L-16,49 L-14,45 L-14,40 L-12,40 L-6,27 L-6,19 L-4,4 L-2,1 L0,2 Z " fill="#1B2632" transform="translate(49,52)"/>
<path d="M0,0 L6,1 L15,4 L14,7 L4,7 L2,6 L2,4 L-6,6 L-7,8 L-1,8 L3,11 L3,13 L-4,15 L-23,15 L-26,13 L-13,10 L-9,8 L-10,6 L-8,6 L-8,4 Z " fill="#1F2D3A" transform="translate(94,119)"/>
<path d="M0,0 L10,0 L10,1 L2,2 L8,3 L8,4 L-2,4 L-2,6 L2,7 L3,9 L-3,11 L-4,13 L-19,13 L-27,11 L-27,10 L-34,9 L-34,7 L-20,6 L-5,6 L-4,1 Z " fill="#EBEBEB" transform="translate(105,129)"/>
<path d="M0,0 L1,0 L1,9 L3,9 L1,26 L1,35 L-1,35 L-2,40 L-6,50 L-8,47 L-5,36 L-4,26 L-4,16 Z " fill="#586169" transform="translate(43,45)"/>
<path d="M0,0 L3,0 L4,9 L12,15 L15,22 L23,25 L25,30 L22,31 L9,32 L9,30 L12,30 L12,28 L10,27 L15,27 L12,24 L8,16 L8,14 L3,14 L-2,5 L-1,3 L0,2 Z M11,24 Z " fill="#212E39" transform="translate(123,89)"/>
<path d="M0,0 L2,0 L2,2 L4,2 L3,15 L5,15 L5,17 L0,19 L-1,23 L-1,32 L-5,33 L-6,32 L-6,13 L-2,9 L-2,12 L1,13 L1,5 Z " fill="#323D47" transform="translate(88,50)"/>
<path d="M0,0 L1,0 L0,9 L-1,12 L1,12 L0,17 L-2,17 L-3,22 L-5,21 L-6,15 L-8,17 L-16,20 L-18,16 L-11,12 L-11,5 L-8,3 L-9,8 L-4,8 L-3,9 Z " fill="#1E2C39" transform="translate(77,88)"/>
<path d="M0,0 L27,0 L25,5 L9,5 L9,3 L-9,3 L-4,4 L-4,5 L-15,5 L-16,3 L-10,1 Z " fill="#94999F" transform="translate(35,127)"/>
<path d="M0,0 L2,1 L2,6 L7,6 L9,8 L9,11 L4,12 L4,14 L-2,16 L-2,13 L-7,15 L-4,5 L-2,1 Z " fill="#3E4751" transform="translate(75,9)"/>
<path d="M0,0 L2,4 L4,10 L9,10 L10,13 L9,17 L7,21 L5,22 L3,27 L3,34 L1,34 L0,28 L3,19 L1,19 L1,13 L-1,13 L-1,4 Z " fill="#434E59" transform="translate(48,66)"/>
<path d="M0,0 L1,0 L3,8 L3,17 L1,17 L5,30 L3,31 L1,34 L-2,18 L-2,12 L-5,12 L-5,5 L-3,5 L-2,8 Z " fill="#26333F" transform="translate(119,57)"/>
<path d="M0,0 L5,2 L2,8 L0,8 L0,12 L-2,14 L-7,15 L-11,13 L-11,11 L-5,11 L-5,7 L-11,7 L-9,6 L-8,2 L0,2 Z " fill="#11202E" transform="translate(86,115)"/>
<path d="M0,0 L0,3 L-5,15 L-8,18 L-14,20 L-14,16 L-10,10 L-8,8 L-8,5 L-2,2 Z " fill="#232C37" transform="translate(72,11)"/>
<path d="M0,0 L7,1 L9,3 L3,4 L7,8 L12,6 L12,8 L9,10 L11,16 L8,15 L7,13 L1,15 L3,11 L2,7 L-3,9 L-3,3 Z " fill="#172431" transform="translate(80,23)"/>
<path d="M0,0 L9,0 L8,4 L5,3 L6,5 L11,8 L12,10 L3,7 L2,2 L-3,5 L-5,7 L-11,7 L-18,13 L-18,10 L-9,3 Z " fill="#848C93" transform="translate(74,8)"/>
<path d="M0,0 L4,0 L4,2 L8,3 L6,5 L8,7 L-4,7 L-4,9 L-9,8 L-9,7 L-20,6 L-19,3 L0,3 Z " fill="#4C555F" transform="translate(71,123)"/>
<path d="M0,0 L3,1 L-1,7 L-1,9 L5,7 L2,11 L3,16 L1,16 L-1,14 L-5,17 L-3,11 L-5,11 L-8,11 L-7,4 L-4,4 L-3,1 Z " fill="#5C646C" transform="translate(59,21)"/>
<path d="M0,0 L13,0 L22,1 L26,0 L25,2 L29,4 L19,4 L15,2 L15,4 L-7,3 L-9,1 Z " fill="#7A828A" transform="translate(14,120)"/>
<path d="M0,0 L4,0 L5,4 L4,9 L6,9 L6,11 L2,12 L2,16 L0,16 L-1,11 L-3,10 L-3,3 Z " fill="#0F202E" transform="translate(67,51)"/>
<path d="M0,0 L4,2 L3,6 L1,9 L0,13 L-4,18 L-7,22 L-9,21 L-7,17 L-7,12 L-5,12 Z " fill="#1F2A35" transform="translate(42,80)"/>
<path d="M0,0 L1,2 L0,5 L6,7 L4,8 L2,7 L2,10 L-4,12 L-2,14 L-6,15 L-12,14 L-10,12 L-11,10 L-5,9 L-4,5 Z " fill="#263341" transform="translate(49,109)"/>
<path d="M0,0 L13,2 L13,3 L6,4 L5,5 L22,6 L19,8 L3,8 L-3,6 L-3,4 L0,3 Z " fill="#92989F" transform="translate(66,128)"/>
<path d="M0,0 L3,1 L3,8 L7,7 L8,8 L8,22 L6,23 L3,20 L2,12 L4,13 L5,18 L7,10 L5,10 L4,12 L0,8 Z " fill="#27343E" transform="translate(74,41)"/>
<path d="M0,0 L2,0 L2,8 L-2,20 L-4,21 L-3,13 L-5,13 L-5,11 L-3,11 L-3,9 L-6,8 L-4,4 L-2,5 L-2,7 L0,7 L-2,2 Z " fill="#1F2A35" transform="translate(62,30)"/>
<path d="M0,0 L10,0 L12,1 L12,3 L10,4 L10,7 L3,8 L4,5 L7,5 L6,3 L-1,3 L-10,6 L-14,9 L-16,8 L-11,4 Z " fill="#4C535A" transform="translate(75,6)"/>
<path d="M0,0 L3,0 L4,9 L2,9 L1,14 L-3,24 L-5,21 L-2,10 Z " fill="#737C83" transform="translate(40,71)"/>
<path d="M0,0 L2,1 L1,7 L-7,7 L-9,9 L-10,18 L-14,14 L-12,14 L-14,8 L-8,6 L-8,4 L-3,3 L-2,1 L0,2 Z " fill="#28333E" transform="translate(87,17)"/>
<path d="M0,0 L3,1 L1,2 L2,6 L-7,9 L-8,11 L-13,12 L-11,7 L-6,1 L-4,2 L-7,6 Z " fill="#606870" transform="translate(63,14)"/>
<path d="M0,0 L13,0 L11,2 L15,3 L15,5 L23,5 L23,6 L10,6 L10,4 L5,4 L4,6 L4,4 L-5,4 L-5,1 Z " fill="#BDC0C2" transform="translate(121,127)"/>
<path d="M0,0 L2,1 L2,4 L6,6 L-7,7 L-8,3 L-15,3 L-15,1 L-2,1 L0,2 Z " fill="#C6C9CC" transform="translate(29,122)"/>
<path d="M0,0 L2,3 L3,7 L3,14 L5,14 L6,12 L6,16 L4,16 L2,20 L1,17 L-1,15 L-1,6 Z " fill="#172330" transform="translate(44,65)"/>
<path d="M0,0 L2,3 L4,8 L4,18 L2,20 L1,14 L-2,15 L-2,10 L0,9 L-1,1 Z " fill="#0E1B28" transform="translate(114,33)"/>
<path d="M0,0 L2,1 L5,10 L4,14 L0,16 L-1,15 L-1,9 L-2,7 L0,7 L-1,1 Z " fill="#16232F" transform="translate(77,34)"/>
<path d="M0,0 L6,0 L7,3 L5,4 L-14,4 L-17,2 L-4,1 Z " fill="#1E2631" transform="translate(85,130)"/>
<path d="M0,0 L8,0 L10,4 L7,5 L-6,6 L-6,4 L-3,4 L-3,2 L-5,1 L0,1 Z " fill="#1F2D3A" transform="translate(138,115)"/>
<path d="M0,0 L2,0 L2,2 L5,2 L5,4 L10,4 L9,6 L6,6 L6,9 L9,9 L8,11 L-1,9 L0,4 Z " fill="#B3B7BB" transform="translate(147,113)"/>
<path d="M0,0 L1,2 L0,9 L0,20 L-2,20 L-2,18 L-4,18 L-3,5 L-2,1 Z " fill="#525961" transform="translate(53,47)"/>
<path d="M0,0 L1,0 L1,8 L0,11 L-4,12 L-1,18 L-5,16 L-4,4 Z " fill="#555E66" transform="translate(50,36)"/>
<path d="M0,0 L8,2 L8,5 L4,4 L2,8 L-3,9 L-3,5 L-2,2 L0,2 Z " fill="#424A53" transform="translate(87,7)"/>
<path d="M0,0 L2,1 L2,3 L9,3 L9,5 L-17,6 L-16,3 L0,3 Z " fill="#979A9F" transform="translate(136,122)"/>
<path d="M0,0 L3,3 L5,6 L5,9 L10,10 L10,12 L8,14 L4,13 L-1,10 L0,8 L2,8 L2,4 L-1,5 Z " fill="#1C2935" transform="translate(100,106)"/>
<path d="M0,0 L2,1 L-2,7 L-4,8 L-3,10 L-9,13 L-10,16 L-13,15 L-10,8 L-2,4 Z " fill="#7E858A" transform="translate(38,96)"/>
<path d="M0,0 L21,0 L20,3 L4,3 L4,1 Z " fill="#8F9399" transform="translate(40,129)"/>
<path d="M0,0 L1,0 L0,9 L-1,12 L1,12 L0,17 L-2,17 L-3,22 L-5,21 L-5,14 L-2,7 Z " fill="#525D67" transform="translate(77,88)"/>
<path d="M0,0 L9,3 L11,4 L11,7 L15,8 L16,10 L10,10 L10,8 L7,8 L8,4 L0,5 L2,4 L2,2 L0,2 Z " fill="#273744" transform="translate(120,115)"/>
<path d="M0,0 L1,0 L2,15 L5,21 L2,21 L-1,26 L-2,23 L-1,14 Z " fill="#25313C" transform="translate(78,74)"/>
<path d="M0,0 L13,0 L13,1 L5,1 L5,3 L-14,3 L-14,1 Z " fill="#C0C4C7" transform="translate(85,135)"/>
<path d="M0,0 L3,2 L2,4 L10,6 L10,7 L2,7 L2,5 L-5,6 L-7,3 L-5,1 Z " fill="#1E2D3A" transform="translate(51,118)"/>
<path d="M0,0 L3,0 L2,9 L1,11 L-1,11 L-3,15 L-4,8 L0,4 Z " fill="#2E3742" transform="translate(56,43)"/>
<path d="M0,0 L3,2 L2,6 L0,9 L4,7 L2,11 L0,15 L-2,9 L-4,3 L0,2 Z " fill="#0D1925" transform="translate(81,29)"/>
<path d="M0,0 L4,1 L3,7 L1,7 L-1,8 L0,19 L-2,19 L-3,13 L-5,12 L-4,10 Z " fill="#172430" transform="translate(121,87)"/>
<path d="M0,0 L2,0 L5,3 L10,1 L10,3 L7,5 L9,11 L6,10 L5,8 L-1,10 L1,6 Z " fill="#D1D4D8" transform="translate(82,28)"/>
<path d="M0,0 L3,0 L2,5 L-1,8 L-3,8 L-4,12 L-7,12 L-5,7 L-2,4 L-2,1 Z " fill="#313A44" transform="translate(66,15)"/>
<path d="M0,0 L4,0 L3,5 L0,6 L-2,5 L-12,5 L-10,2 Z " fill="#444F5B" transform="translate(66,119)"/>
<path d="M0,0 L7,0 L13,2 L13,4 L0,4 Z " fill="#8B8F95" transform="translate(53,134)"/>
<path d="M0,0 L2,0 L2,8 L1,11 L-3,10 L-3,3 Z " fill="#1F2E3A" transform="translate(67,51)"/>
<path d="M0,0 L2,0 L2,5 L-6,10 L-8,6 L-1,2 Z " fill="#48535C" transform="translate(67,98)"/>
<path d="M0,0 L9,0 L8,4 L5,3 L6,5 L11,8 L12,10 L3,7 L2,2 L0,2 Z " fill="#737B81" transform="translate(74,8)"/>
<path d="M0,0 L4,1 L4,3 L7,6 L-6,6 L-4,5 L-3,1 L-1,1 L-1,4 L2,4 Z " fill="#16222F" transform="translate(112,122)"/>
<path d="M0,0 L3,1 L2,6 L0,6 L-1,2 Z M-3,3 L-1,5 L-3,9 L-7,10 L-8,6 L-6,6 L-5,4 Z " fill="#263541" transform="translate(44,101)"/>
<path d="M0,0 L2,1 L3,7 L2,9 L-2,8 L-4,9 L-3,4 L-2,1 Z " fill="#58616A" transform="translate(75,9)"/>
<path d="M0,0 L3,1 L0,2 L1,6 L-8,6 L-8,2 Z " fill="#D1D4D6" transform="translate(13,115)"/>
<path d="M0,0 L10,0 L10,1 L2,2 L8,3 L8,4 L-5,5 L-4,1 Z " fill="#BABFC3" transform="translate(105,129)"/>
<path d="M0,0 L10,1 L13,4 L8,4 L9,7 L4,6 L4,3 Z " fill="#05101A" transform="translate(111,120)"/>
<path d="M0,0 L2,0 L2,9 L3,13 L-1,12 L-1,2 Z " fill="#3C4550" transform="translate(91,90)"/>
<path d="M0,0 L1,3 L-1,13 L-4,11 L-4,4 L-2,4 L-2,2 L0,2 Z " fill="#091420" transform="translate(57,87)"/>
<path d="M0,0 L3,2 L1,7 L3,9 L1,11 L-2,9 L-3,3 Z " fill="#303741" transform="translate(54,30)"/>
<path d="M0,0 L2,1 L-1,4 L0,9 L-2,9 L-4,7 L-8,10 L-6,4 L-7,1 L-2,2 Z " fill="#D8DCDF" transform="translate(62,28)"/>
<path d="M0,0 L12,1 L15,3 L1,4 Z " fill="#222C36" transform="translate(30,123)"/>
<path d="M0,0 L2,1 L4,10 L2,12 L-1,11 Z " fill="#192632" transform="translate(64,65)"/>
<path d="M0,0 L2,0 L1,9 L0,12 L-3,12 L-3,4 L-1,4 Z " fill="#212D39" transform="translate(42,59)"/>
<path d="M0,0 L2,4 L0,4 L-2,10 L-2,13 L-3,18 L-5,14 L-3,4 Z " fill="#24303B" transform="translate(65,41)"/>
<path d="M0,0 L12,1 L13,4 L7,4 L-3,2 Z " fill="#CBCDCF" transform="translate(26,129)"/>
<path d="M0,0 L4,1 L5,5 L3,5 L4,11 L2,10 L1,5 L-1,5 Z " fill="#11222F" transform="translate(127,102)"/>
<path d="M0,0 L2,1 L0,4 L5,2 L4,8 L1,7 L-1,9 L-2,2 Z " fill="#162330" transform="translate(56,70)"/>
<path d="M0,0 L2,0 L2,2 L4,2 L3,16 L1,16 L1,5 Z " fill="#27313C" transform="translate(88,50)"/>
<path d="M0,0 L11,2 L10,5 L4,5 L5,2 L1,3 Z " fill="#34404B" transform="translate(98,121)"/>
<path d="M0,0 L9,1 L9,2 L3,3 L-7,3 L-9,1 Z " fill="#979DA3" transform="translate(14,120)"/>
<path d="M0,0 L1,0 L0,12 L-3,12 L-3,5 L-2,3 L0,3 Z " fill="#0B1522" transform="translate(49,52)"/>
<path d="M0,0 L4,0 L2,4 L-1,4 L-2,6 L-2,4 L-4,4 L-4,6 L-6,6 L-7,3 L-5,1 L-1,3 Z " fill="#46505A" transform="translate(78,15)"/>
<path d="M0,0 L5,2 L5,4 L-3,4 L-3,6 L-5,6 L-3,1 Z " fill="#6F7882" transform="translate(22,112)"/>
<path d="M0,0 L5,2 L10,7 L10,9 L6,7 L0,3 Z " fill="#2B343F" transform="translate(95,10)"/>
<path d="M0,0 L2,1 L2,5 L4,5 L3,7 L-8,4 L-8,3 L-1,3 Z " fill="#D1D4D7" transform="translate(61,129)"/>
<path d="M0,0 L8,1 L12,0 L12,4 L7,4 L0,1 Z " fill="#111D2B" transform="translate(59,123)"/>
<path d="M0,0 L2,0 L4,6 L5,17 L3,16 Z " fill="#1E2A37" transform="translate(101,54)"/>
<path d="M0,0 L5,0 L5,2 L7,3 L4,4 L-10,3 L-10,2 L0,2 Z " fill="#FCFCFC" transform="translate(126,131)"/>
<path d="M0,0 L7,0 L3,2 L-3,4 L-12,4 L-12,3 L-3,1 Z " fill="#394550" transform="translate(84,128)"/>
<path d="M0,0 L2,1 L2,3 L5,3 L6,1 L6,4 L3,4 L3,10 L0,10 Z " fill="#1D2A35" transform="translate(60,107)"/>
<path d="M0,0 L1,2 L-1,6 L-6,5 L-5,1 Z " fill="#15222F" transform="translate(34,107)"/>
<path d="M0,0 L3,3 L4,10 L-1,9 Z " fill="#182836" transform="translate(93,90)"/>
<path d="M0,0 L1,0 L1,14 L-1,14 L-2,16 L-2,1 Z " fill="#838B91" transform="translate(45,40)"/>
<path d="M0,0 L2,0 L1,9 L-2,9 L-2,3 Z " fill="#09141F" transform="translate(73,113)"/>
<path d="M0,0 L3,0 L4,4 L0,5 L3,11 L-1,9 Z " fill="#4D565F" transform="translate(46,43)"/>
<path d="M0,0 L4,1 L0,9 L-1,7 L-3,7 L-4,4 L-1,4 Z " fill="#12202C" transform="translate(91,43)"/>
<path d="M0,0 L2,2 L2,10 L-1,10 L-1,1 Z " fill="#3B434C" transform="translate(68,39)"/>
<path d="M0,0 L3,0 L3,7 L1,10 L-2,5 L-1,3 L0,2 Z " fill="#222E39" transform="translate(123,89)"/>
<path d="M0,0 L1,0 L3,9 L-1,11 L-2,3 Z " fill="#1C2A37" transform="translate(85,59)"/>
<path d="M0,0 L1,0 L1,10 L-1,12 L-2,10 L-2,3 L0,3 Z " fill="#28343F" transform="translate(117,41)"/>
<path d="M0,0 L3,1 L-2,8 L-5,9 L-3,4 Z " fill="#49515B" transform="translate(59,21)"/>
<path d="M0,0 L10,0 L8,1 L8,3 L-3,3 Z " fill="#95969A" transform="translate(103,134)"/>
<path d="M0,0 L13,2 L13,3 L1,5 Z " fill="#717C84" transform="translate(66,128)"/>
<path d="M0,0 L3,0 L5,6 L4,8 L1,7 Z " fill="#05121C" transform="translate(130,107)"/>
<path d="M0,0 L3,2 L-3,5 L-4,8 L-7,7 L-5,2 L-1,1 Z " fill="#5F6A73" transform="translate(32,104)"/>
<path d="M0,0 L1,4 L-2,15 L-4,12 L-1,1 Z " fill="#5A626C" transform="translate(39,80)"/>
<path d="M0,0 L4,2 L3,6 L-2,7 Z " fill="#38444F" transform="translate(42,80)"/>
<path d="M0,0 L11,0 L12,4 L9,4 L9,2 L-1,2 Z " fill="#DDDFE1" transform="translate(139,124)"/>
<path d="M0,0 L6,0 L8,4 L1,4 Z " fill="#131E2D" transform="translate(140,115)"/>
<path d="M0,0 L2,2 L3,9 L-1,8 L-1,1 Z " fill="#06111D" transform="translate(58,104)"/>
<path d="M0,0 L2,0 L2,9 L-1,8 L-1,2 Z " fill="#2D3641" transform="translate(51,91)"/>
<path d="M0,0 L1,2 L-1,8 L-4,10 L-3,1 Z " fill="#131D27" transform="translate(74,39)"/>
<path d="M0,0 L5,1 L1,2 L0,5 L0,3 L-7,4 L-7,2 Z " fill="#E5E7E9" transform="translate(52,132)"/>
<path d="M0,0 L1,2 L0,11 L-4,11 L-1,1 Z " fill="#4A545D" transform="translate(78,108)"/>
<path d="M0,0 L2,0 L2,8 L-1,7 L-2,2 Z " fill="#26303A" transform="translate(62,30)"/>
<path d="M0,0 L4,1 L2,2 L2,5 L-5,6 L-4,3 L-1,3 L-2,1 Z " fill="#575E68" transform="translate(83,8)"/>
<path d="M0,0 L10,1 L10,2 L-3,3 L-6,1 Z " fill="#555E69" transform="translate(104,127)"/>
<path d="M0,0 L4,2 L12,3 L12,4 L0,5 Z " fill="#EDEFF1" transform="translate(23,124)"/>
<path d="M0,0 L6,2 L6,4 L-5,5 L-5,3 L0,3 Z " fill="#192430" transform="translate(124,121)"/>
<path d="M0,0 L3,0 L3,2 L9,3 L8,5 L-1,4 L1,2 Z " fill="#3E4953" transform="translate(38,119)"/>
<path d="M0,0 L4,2 L2,6 L2,4 L-4,4 L-2,3 L-2,1 Z " fill="#0E1B27" transform="translate(79,118)"/>
<path d="M0,0 L2,1 L0,4 L2,4 L2,2 L8,2 L5,3 L5,5 L-1,5 L-2,2 Z " fill="#3E4854" transform="translate(17,114)"/>
<path d="M0,0 L8,2 L9,0 L9,3 L2,4 L-1,1 Z " fill="#2D3743" transform="translate(25,111)"/>
<path d="M0,0 L3,0 L2,8 L0,9 L0,5 L-2,4 Z " fill="#4B5560" transform="translate(34,103)"/>
<path d="M0,0 L3,3 L1,6 L-2,9 L-2,2 L0,2 Z " fill="#162430" transform="translate(41,99)"/>
<path d="M0,0 L2,0 L2,5 L0,4 L-4,7 L-5,4 L-4,2 Z " fill="#49535B" transform="translate(71,22)"/>
<path d="M0,0 L2,1 L0,5 L-5,6 L-6,3 L-2,3 L-2,1 Z " fill="#333C47" transform="translate(89,10)"/>
<path d="M0,0 L2,1 L3,10 L0,9 Z " fill="#26323F" transform="translate(43,71)"/>
<path d="M0,0 L2,0 L3,4 L5,6 L4,10 L2,10 Z " fill="#414A54" transform="translate(50,35)"/>
<path d="M0,0 L2,3 L2,7 L0,7 L-1,10 L-2,7 Z " fill="#1A2835" transform="translate(79,106)"/>
<path d="M0,0 L4,4 L7,6 L2,7 L0,4 Z " fill="#36424D" transform="translate(125,96)"/>
<path d="M0,0 L2,0 L3,8 L-1,9 Z " fill="#212933" transform="translate(84,74)"/>
<path d="M0,0 L1,3 L5,4 L3,4 L2,7 L0,7 L0,5 L-2,4 Z " fill="#0E1D2B" transform="translate(64,47)"/>
<path d="M0,0 L6,1 L9,3 L4,4 L0,2 Z " fill="#1F2C39" transform="translate(75,126)"/>
<path d="M0,0 L6,1 L3,2 L3,4 L7,4 L7,7 L2,5 L2,2 L0,2 Z " fill="#0A1725" transform="translate(129,117)"/>
<path d="M0,0 L5,1 L5,2 L-1,4 L-5,4 L-5,2 Z " fill="#6E7880" transform="translate(46,117)"/>
<path d="M0,0 L5,0 L1,4 L-4,3 Z " fill="#101924" transform="translate(27,115)"/>
<path d="M0,0 L2,0 L3,5 L0,6 L-2,1 Z " fill="#2A3340" transform="translate(48,47)"/>
<path d="M0,0 L1,3 L-2,8 L-4,5 L-2,1 Z " fill="#444D55" transform="translate(66,36)"/>
<path d="M0,0 L5,5 L-1,5 L-1,1 Z " fill="#1A232B" transform="translate(58,34)"/>
<path d="M0,0 L2,1 L2,5 L-3,4 L-4,1 L0,2 Z " fill="#A5AAB1" transform="translate(29,122)"/>
<path d="M0,0 L5,1 L6,4 L0,5 L2,4 L2,2 L0,2 Z " fill="#212E39" transform="translate(120,115)"/>
<path d="M0,0 L7,2 L6,4 L-1,3 Z " fill="#2E3C4B" transform="translate(139,112)"/>
<path d="M0,0 L3,1 L4,6 L3,9 L1,9 L1,3 Z " fill="#1E303E" transform="translate(114,106)"/>
<path d="M0,0 L3,0 L4,4 L2,5 L0,8 Z " fill="#243039" transform="translate(120,83)"/>
<path d="M0,0 L1,2 L0,5 L2,6 L1,8 L-3,8 L-1,1 Z " fill="#868F94" transform="translate(51,25)"/>
<path d="M0,0 L2,1 L-3,6 L-7,8 L-5,4 Z " fill="#9DA6AB" transform="translate(62,13)"/>
<path d="M0,0 L3,1 L3,3 L-2,4 L-4,2 Z " fill="#17242E" transform="translate(94,129)"/>
<path d="M0,0 L3,1 L3,3 L1,5 L-3,4 L-2,1 Z " fill="#273441" transform="translate(107,115)"/>
<path d="M0,0 L1,2 L0,5 L2,6 L-5,7 Z " fill="#5E6873" transform="translate(49,109)"/>
<path d="M0,0 L1,0 L2,8 L0,10 L-1,3 Z " fill="#33404C" transform="translate(119,57)"/>
<path d="M0,0 L3,0 L2,9 L0,5 Z " fill="#25323E" transform="translate(56,43)"/>
<path d="M0,0 L2,3 L3,7 L0,7 L-1,1 Z " fill="#29333D" transform="translate(114,33)"/>
</svg>
