<?xml version="1.0" encoding="UTF-8"?>
<!-- Generator: visioncortex VTracer 0.6.5 -->
<svg version="1.1" xmlns="http://www.w3.org/2000/svg" width="161" height="147">
<path d="M0,0 L161,0 L161,147 L0,147 Z " fill="#F4F5F5" transform="translate(0,0)"/>
<path d="M0,0 L3,0 L3,2 L13,0 L19,0 L18,4 L20,6 L27,9 L27,12 L25,12 L30,22 L30,30 L31,33 L41,34 L46,29 L47,27 L47,19 L43,16 L43,13 L46,13 L45,7 L49,8 L49,5 L54,7 L56,7 L58,30 L54,40 L47,46 L43,47 L43,55 L48,57 L53,63 L55,68 L55,75 L54,79 L61,87 L63,94 L62,102 L61,105 L66,107 L68,116 L74,116 L78,120 L89,121 L89,123 L81,124 L81,126 L77,128 L64,128 L64,130 L46,131 L44,134 L29,135 L1,135 L-16,134 L-16,133 L-42,132 L-44,130 L-50,129 L-50,128 L-39,128 L-39,126 L-48,126 L-48,125 L-61,124 L-58,121 L-53,119 L-51,117 L-46,116 L-44,108 L-40,105 L-42,98 L-42,90 L-38,83 L-34,79 L-36,74 L-36,66 L-32,58 L-28,54 L-26,54 L-26,47 L-31,45 L-37,41 L-40,34 L-42,29 L-42,20 L-41,18 L-40,8 L-37,7 L-37,9 L-35,9 L-34,5 L-32,5 L-31,7 L-28,7 L-30,13 L-27,13 L-28,17 L-31,18 L-32,25 L-30,30 L-26,33 L-17,34 L-14,33 L-14,22 L-12,13 L-11,9 L-5,8 L-3,2 Z " fill="#0A1927" transform="translate(71,7)"/>
<path d="M0,0 L3,0 L3,2 L13,0 L19,0 L18,4 L20,6 L27,9 L27,12 L25,12 L30,22 L30,30 L31,33 L35,35 L34,44 L30,43 L31,36 L20,39 L20,42 L22,44 L17,47 L14,48 L14,50 L12,49 L11,50 L3,52 L3,54 L-4,53 L-8,54 L-15,53 L-15,56 L-13,56 L-13,58 L-17,56 L-18,51 L-22,51 L-22,54 L-20,54 L-20,58 L-6,61 L15,62 L16,66 L15,68 L17,68 L17,71 L7,69 L7,71 L1,74 L-1,74 L0,71 L-6,71 L-6,69 L-13,70 L-16,71 L-18,70 L-19,72 L-19,70 L-25,71 L-30,63 L-32,66 L-33,72 L-36,74 L-36,66 L-32,58 L-28,54 L-26,54 L-26,47 L-31,45 L-37,41 L-40,34 L-42,29 L-42,20 L-41,18 L-40,8 L-37,7 L-37,9 L-35,9 L-34,5 L-32,5 L-31,7 L-28,7 L-30,13 L-27,13 L-28,17 L-31,18 L-32,25 L-30,30 L-26,33 L-17,34 L-14,33 L-14,22 L-12,13 L-11,9 L-5,8 L-3,2 Z " fill="#232D37" transform="translate(71,7)"/>
<path d="M0,0 L3,0 L3,2 L13,0 L19,0 L18,4 L20,6 L27,9 L27,12 L25,12 L30,22 L30,34 L18,39 L10,41 L-2,41 L-10,38 L-9,41 L-14,39 L-15,33 L-14,27 L-13,18 L-12,13 L-11,9 L-5,8 L-3,2 Z " fill="#0E1B27" transform="translate(71,7)"/>
<path d="M0,0 L3,1 L2,9 L0,13 L4,13 L4,16 L13,18 L12,16 L18,18 L18,16 L23,17 L24,20 L30,19 L51,18 L51,20 L43,21 L43,23 L39,25 L26,25 L26,27 L8,28 L6,31 L-9,32 L-37,32 L-54,31 L-54,30 L-80,29 L-82,27 L-88,26 L-88,25 L-77,25 L-77,23 L-86,23 L-86,22 L-79,21 L-70,21 L-69,17 L-68,16 L-62,16 L-61,18 L-68,18 L-69,22 L-64,21 L-51,21 L-47,23 L-47,21 L-43,20 L-47,18 L-43,17 L-36,17 L-34,18 L-34,20 L-18,20 L-17,21 L4,21 L4,23 L6,22 L6,18 L3,18 L2,20 L0,20 L0,17 L-6,20 L-16,20 L-16,18 L-7,17 L-5,17 L-5,6 L-2,5 L-3,2 Z " fill="#19242F" transform="translate(109,110)"/>
<path d="M0,0 L7,1 L19,6 L27,6 L33,7 L44,7 L58,4 L61,5 L60,8 L58,8 L58,6 L47,9 L45,9 L45,12 L39,11 L34,14 L29,15 L21,12 L14,10 L10,8 L12,14 L10,14 L10,16 L15,17 L15,19 L11,19 L9,25 L6,30 L9,30 L9,34 L7,34 L6,37 L-2,39 L-4,40 L-2,36 L3,36 L4,24 L3,22 L1,24 L1,30 L-4,33 L-4,36 L-11,38 L-9,40 L-5,42 L-24,42 L-21,39 L-16,37 L-14,35 L-9,34 L-7,26 L-3,23 L-5,16 L-5,8 L-1,1 Z " fill="#162533" transform="translate(34,89)"/>
<path d="M0,0 L5,0 L5,2 L-3,3 L-3,5 L-7,7 L-20,7 L-20,9 L-38,10 L-40,13 L-55,14 L-83,14 L-100,13 L-100,12 L-126,11 L-128,9 L-134,8 L-134,7 L-123,7 L-123,5 L-100,5 L-97,7 L-84,7 L-84,6 L-60,7 L-58,7 L-58,6 L-27,5 L-27,3 L-18,2 L-16,1 Z " fill="#51575C" transform="translate(155,128)"/>
<path d="M0,0 L4,0 L4,7 L9,9 L14,15 L16,20 L16,27 L15,31 L22,39 L24,46 L23,54 L22,57 L27,59 L29,68 L35,68 L39,72 L45,73 L45,74 L29,75 L28,76 L21,76 L23,75 L21,72 L17,71 L17,73 L6,71 L6,62 L8,57 L9,51 L11,52 L10,59 L14,58 L18,56 L18,53 L18,50 L21,51 L21,43 L18,42 L19,38 L17,38 L15,36 L13,36 L12,34 L8,33 L8,27 L10,27 L11,29 L12,27 L12,18 L6,11 L2,7 L0,7 L0,5 L2,5 Z " fill="#0E1D2A" transform="translate(110,55)"/>
<path d="M0,0 L2,1 L3,3 L8,4 L22,7 L43,8 L44,12 L43,14 L45,14 L45,17 L35,15 L35,17 L29,20 L27,20 L28,17 L22,17 L22,15 L15,16 L12,17 L10,16 L9,18 L9,16 L3,17 L-2,9 L-4,12 L-5,18 L-8,20 L-8,12 L-4,4 Z " fill="#404A55" transform="translate(43,61)"/>
<path d="M0,0 L2,0 L3,2 L6,2 L4,8 L7,8 L6,12 L3,13 L2,20 L4,25 L8,28 L16,31 L11,38 L10,42 L4,41 L-3,36 L-6,29 L-8,24 L-8,15 L-7,13 L-6,3 L-3,2 L-3,4 L-1,4 Z " fill="#1F2B37" transform="translate(37,12)"/>
<path d="M0,0 L4,3 L7,8 L17,8 L21,6 L26,6 L25,9 L32,8 L30,12 L35,9 L38,9 L38,7 L46,8 L41,13 L33,13 L29,15 L17,13 L16,10 L13,12 L1,12 L0,15 L7,16 L7,18 L0,17 L3,19 L17,23 L17,25 L19,26 L13,27 L7,24 L-2,21 L-5,19 L-3,15 L-4,14 L-4,8 L-2,4 Z " fill="#242F3B" transform="translate(40,69)"/>
<path d="M0,0 L5,2 L7,2 L9,25 L6,29 L4,26 L0,26 L-1,31 L-3,31 L-4,35 L-11,35 L-13,34 L-14,30 L-6,28 L-2,22 L-2,14 L-6,11 L-6,8 L-3,8 L-4,2 L0,3 Z " fill="#131F2B" transform="translate(120,12)"/>
<path d="M0,0 L3,0 L3,2 L13,0 L19,0 L15,1 L15,5 L15,6 L10,6 L10,8 L6,10 L-5,11 L-6,13 L0,13 L-1,19 L-8,20 L-9,26 L-11,26 L-11,28 L-14,27 L-13,18 L-12,13 L-11,9 L-5,8 L-3,2 Z " fill="#5B646E" transform="translate(71,7)"/>
<path d="M0,0 L6,0 L7,2 L0,2 L-1,6 L4,5 L17,5 L21,7 L21,5 L25,4 L21,2 L25,1 L32,1 L34,2 L34,4 L50,4 L51,5 L68,6 L68,7 L38,8 L39,5 L33,6 L29,7 L23,6 L23,8 L30,8 L31,10 L-6,10 L-7,8 L5,8 L-18,7 L-18,6 L-11,5 L-2,5 L-1,1 Z " fill="#444C54" transform="translate(41,126)"/>
<path d="M0,0 L6,2 L12,3 L22,4 L33,4 L47,1 L50,2 L49,5 L47,5 L47,3 L36,6 L34,6 L34,9 L28,8 L23,11 L18,12 L10,9 L3,7 L-1,5 L1,10 L-5,9 L-5,5 L-7,5 L-7,3 L0,1 Z " fill="#2B3641" transform="translate(45,92)"/>
<path d="M0,0 L5,0 L7,7 L2,9 L2,11 L-3,9 L-3,12 L-9,12 L-13,13 L-14,16 L-18,16 L-18,14 L-22,17 L-27,16 L-28,12 L-21,8 L-17,9 L-15,10 L-15,7 L-2,4 L-2,6 L1,3 L-5,3 L-5,1 Z " fill="#1D2934" transform="translate(94,91)"/>
<path d="M0,0 L23,0 L26,2 L39,2 L39,1 L63,2 L63,3 L69,4 L69,5 L30,6 L-3,6 L-5,4 L-11,3 L-11,2 L0,2 Z " fill="#8D9397" transform="translate(32,133)"/>
<path d="M0,0 L2,1 L2,6 L6,7 L6,5 L14,7 L26,7 L35,6 L32,8 L17,11 L17,14 L13,15 L14,12 L10,11 L10,13 L0,13 L-1,16 L-4,15 L-8,16 L-9,21 L-10,21 L-10,14 L-8,14 L-7,9 L-3,4 L-4,2 Z " fill="#535D66" transform="translate(55,40)"/>
<path d="M0,0 L7,0 L7,2 L-4,4 L-3,6 L2,6 L1,11 L-1,13 L0,15 L-1,17 L-6,17 L-6,20 L-13,21 L-12,15 L-14,15 L-13,11 L-15,10 L-16,8 L-8,7 L-8,5 L-13,7 L-16,6 L-9,2 Z " fill="#1E2C39" transform="translate(100,60)"/>
<path d="M0,0 L4,0 L4,2 L10,2 L11,6 L8,7 L1,8 L-1,12 L1,11 L14,11 L15,13 L4,13 L-1,16 L-3,17 L-7,17 L-5,20 L-5,23 L-10,21 L-11,15 L-9,10 L-7,10 L-7,8 L-5,8 L-4,2 Z " fill="#232E38" transform="translate(67,25)"/>
<path d="M0,0 L4,0 L4,7 L9,9 L14,15 L16,20 L16,27 L15,31 L22,39 L24,46 L23,54 L21,57 L19,57 L18,53 L18,50 L21,51 L21,43 L18,42 L19,38 L17,38 L15,36 L13,36 L12,34 L8,33 L8,27 L10,27 L11,29 L12,27 L12,18 L6,11 L2,7 L0,7 L0,5 L2,5 Z " fill="#24303B" transform="translate(110,55)"/>
<path d="M0,0 L7,1 L12,4 L10,6 L4,6 L5,14 L1,16 L1,18 L-1,18 L0,22 L-2,23 L-5,16 L-5,8 L-1,1 Z " fill="#36414B" transform="translate(34,89)"/>
<path d="M0,0 L24,1 L25,5 L24,7 L26,7 L26,10 L16,8 L16,10 L10,13 L8,13 L9,10 L5,8 L10,6 L-1,3 Z " fill="#323C47" transform="translate(62,68)"/>
<path d="M0,0 L5,0 L5,2 L-3,3 L-3,5 L-7,7 L-20,7 L-20,9 L-40,9 L-43,6 L-27,5 L-27,3 L-18,2 L-16,1 Z " fill="#9EA1A6" transform="translate(155,128)"/>
<path d="M0,0 L4,0 L4,8 L-1,12 L-6,13 L-7,16 L-12,15 L-13,12 L-7,8 L-8,6 L-7,3 Z M-16,12 L-14,13 L-14,16 L-19,16 L-18,14 L-16,14 Z " fill="#131E2A" transform="translate(98,43)"/>
<path d="M0,0 L5,1 L6,6 L8,5 L8,7 L15,7 L12,16 L6,15 L-1,10 L-1,1 Z " fill="#121E2B" transform="translate(35,38)"/>
<path d="M0,0 L3,1 L4,7 L-1,10 L-1,13 L-8,15 L-6,17 L-2,19 L-21,19 L-18,16 L-13,14 L-11,12 L-6,11 L-4,3 Z " fill="#25313D" transform="translate(31,112)"/>
<path d="M0,0 L2,0 L3,2 L6,2 L4,8 L7,8 L6,12 L3,13 L1,20 L-3,22 L-3,9 L-4,8 L-4,2 L-3,4 L-1,4 Z " fill="#121F2B" transform="translate(37,12)"/>
<path d="M0,0 L2,1 L3,3 L6,4 L8,7 L5,11 L8,12 L1,14 L-2,9 L-4,12 L-5,18 L-8,20 L-8,12 L-4,4 Z " fill="#616972" transform="translate(43,61)"/>
<path d="M0,0 L5,1 L4,11 L0,10 L1,3 L-10,6 L-10,9 L-8,11 L-13,14 L-16,15 L-16,17 L-18,16 L-19,17 L-24,18 L-24,15 L-18,12 L-16,13 L-16,11 L-18,10 L-16,10 L-16,8 L-9,4 Z " fill="#25303A" transform="translate(101,40)"/>
<path d="M0,0 L4,1 L4,8 L1,11 L0,16 L-2,16 L-3,20 L-10,20 L-12,19 L-13,15 L-5,13 L-1,7 Z " fill="#283440" transform="translate(119,27)"/>
<path d="M0,0 L3,1 L1,5 L0,4 L1,8 L-1,11 L-3,11 L-3,14 L2,14 L2,20 L0,20 L0,17 L-6,20 L-16,20 L-16,18 L-7,17 L-5,17 L-5,6 L-2,5 L-3,2 Z " fill="#1E2A36" transform="translate(109,110)"/>
<path d="M0,0 L2,1 L0,8 L0,9 L5,10 L4,13 L0,13 L-1,16 L-4,15 L-8,16 L-9,21 L-10,21 L-10,14 L-8,14 L-7,9 L-3,4 L-4,2 Z " fill="#687179" transform="translate(55,40)"/>
<path d="M0,0 L15,0 L42,1 L42,2 L27,3 L-1,3 L-18,2 L-18,1 Z " fill="#83868B" transform="translate(73,139)"/>
<path d="M0,0 L23,0 L26,2 L3,2 L26,3 L26,4 L18,5 L18,6 L-3,6 L-5,4 L-11,3 L-11,2 L0,2 Z " fill="#BCC0C2" transform="translate(32,133)"/>
<path d="M0,0 L9,0 L9,2 L18,2 L30,4 L28,6 L3,6 L6,4 L-7,3 L-7,1 L0,1 Z " fill="#343840" transform="translate(71,131)"/>
<path d="M0,0 L5,0 L7,7 L2,9 L2,11 L-3,9 L-3,12 L-10,12 L-8,8 L-4,8 L-5,6 L-4,4 L-2,4 L-2,6 L1,3 L-5,3 L-5,1 Z " fill="#1C2833" transform="translate(94,91)"/>
<path d="M0,0 L7,1 L6,7 L-1,8 L-2,14 L-4,14 L-4,16 L-7,15 L-6,6 L-3,2 L-2,7 Z " fill="#303945" transform="translate(64,19)"/>
<path d="M0,0 L13,0 L13,1 L6,1 L6,3 L4,4 L-10,5 L-14,7 L-14,5 L-18,4 L-32,3 L-32,2 L0,2 Z " fill="#CED0D2" transform="translate(135,135)"/>
<path d="M0,0 L3,1 L5,3 L0,12 L3,12 L3,16 L1,16 L0,19 L-8,21 L-10,22 L-8,18 L-3,18 L-2,3 Z " fill="#464F59" transform="translate(40,107)"/>
<path d="M0,0 L8,1 L3,6 L-5,6 L-9,8 L-13,7 L-14,2 L-6,1 L-8,5 L-3,2 L0,2 Z " fill="#1C2733" transform="translate(78,76)"/>
<path d="M0,0 L1,0 L1,6 L3,7 L1,25 L-2,26 L-3,22 L-3,13 L-2,11 L-1,1 Z " fill="#39434E" transform="translate(32,14)"/>
<path d="M0,0 L4,2 L7,9 L7,19 L4,19 L2,15 L1,19 L-1,19 L0,12 L2,12 L3,9 L2,4 L0,4 Z " fill="#182432" transform="translate(94,20)"/>
<path d="M0,0 L11,2 L12,6 L-4,6 L-7,7 L-5,2 Z " fill="#060E17" transform="translate(72,31)"/>
<path d="M0,0 L5,2 L7,3 L4,6 L2,7 L2,10 L-1,10 L-2,13 L-6,11 L-6,8 L-3,8 L-4,2 L0,3 Z " fill="#3C4651" transform="translate(120,12)"/>
<path d="M0,0 L6,0 L2,1 L2,5 L2,6 L-3,6 L-3,8 L-7,10 L-17,10 L-15,7 L-3,4 L-2,1 Z " fill="#3E4853" transform="translate(84,7)"/>
<path d="M0,0 L7,1 L12,4 L10,6 L-1,6 L-1,8 L-4,8 L-3,4 Z " fill="#4B525B" transform="translate(34,89)"/>
<path d="M0,0 L1,3 L1,5 L-3,6 L-9,8 L-14,7 L-12,6 L-12,4 L-14,3 L-9,1 Z " fill="#3A444D" transform="translate(84,48)"/>
<path d="M0,0 L20,0 L21,1 L38,2 L38,3 L8,4 L9,1 L0,1 Z " fill="#5E666D" transform="translate(71,130)"/>
<path d="M0,0 L4,2 L-2,4 L0,6 L4,8 L-15,8 L-12,5 L-7,3 L-5,1 Z " fill="#49535C" transform="translate(25,123)"/>
<path d="M0,0 L5,1 L5,4 L1,5 L0,8 L-5,7 L-6,4 Z M-9,4 L-7,5 L-7,8 L-12,8 L-11,6 L-9,6 Z " fill="#19242F" transform="translate(91,51)"/>
<path d="M0,0 L4,1 L2,6 L-7,6 L-10,4 L-10,2 L-2,1 L0,2 Z " fill="#333D48" transform="translate(65,51)"/>
<path d="M0,0 L4,1 L4,8 L-2,15 L-4,17 L-6,15 L-4,13 L-1,7 Z " fill="#2C3740" transform="translate(119,27)"/>
<path d="M0,0 L4,4 L4,8 L1,8 L1,10 L-1,10 L0,15 L-4,14 L-4,8 L-2,4 Z " fill="#343E48" transform="translate(40,69)"/>
<path d="M0,0 L2,0 L3,2 L6,2 L4,8 L6,9 L3,9 L3,7 L-4,8 L-4,2 L-3,4 L-1,4 Z " fill="#454F5A" transform="translate(37,12)"/>
<path d="M0,0 L1,2 L7,2 L8,6 L5,7 L-2,8 L-4,9 L-2,1 Z " fill="#2B3643" transform="translate(70,25)"/>
<path d="M0,0 L5,0 L5,2 L-3,3 L-3,5 L-8,5 L-9,4 L-16,3 L-16,2 Z " fill="#ACB1B6" transform="translate(155,128)"/>
<path d="M0,0 L7,0 L11,2 L17,3 L17,4 L1,5 L0,3 L-3,1 Z M6,1 Z " fill="#212D38" transform="translate(138,125)"/>
<path d="M0,0 L5,2 L0,7 L-3,9 L-6,9 L-6,11 L-11,11 L-11,8 L-3,6 L-2,4 L0,4 Z " fill="#1B2835" transform="translate(43,119)"/>
<path d="M0,0 L2,1 L2,3 L-2,4 L-2,7 L0,7 L0,9 L-7,11 L-7,7 L-5,7 L-5,2 Z " fill="#36424E" transform="translate(51,54)"/>
<path d="M0,0 L1,4 L0,9 L2,12 L2,15 L-3,13 L-4,7 L-2,2 L0,2 Z " fill="#2D3844" transform="translate(60,33)"/>
<path d="M0,0 L6,0 L14,3 L13,6 L7,7 L4,3 L1,3 Z " fill="#19242E" transform="translate(49,100)"/>
<path d="M0,0 L9,0 L9,2 L15,3 L15,4 L-7,3 L-7,1 L0,1 Z " fill="#252D37" transform="translate(71,131)"/>
<path d="M0,0 L4,1 L7,8 L7,15 L5,18 L4,16 L3,6 L0,2 Z " fill="#2F3944" transform="translate(119,67)"/>
<path d="M0,0 L0,3 L0,5 L-2,5 L-4,15 L-7,17 L-7,9 L-4,3 Z " fill="#6D767D" transform="translate(42,64)"/>
<path d="M0,0 L22,0 L21,2 L12,3 L2,2 Z " fill="#4F5963" transform="translate(64,69)"/>
<path d="M0,0 L13,0 L15,4 L3,5 L3,3 L1,2 Z " fill="#C7CACD" transform="translate(17,131)"/>
<path d="M0,0 L6,2 L6,0 L11,1 L12,4 L6,6 L6,4 L4,3 L4,6 L0,5 L0,1 Z " fill="#20303D" transform="translate(121,126)"/>
<path d="M0,0 L5,1 L4,11 L0,10 L1,3 L-7,5 L-7,3 Z " fill="#212C38" transform="translate(101,40)"/>
<path d="M0,0 L5,1 L4,4 L2,4 L2,2 L-9,5 L-23,5 L-23,4 L-6,2 Z " fill="#45505B" transform="translate(90,93)"/>
<path d="M0,0 L5,0 L4,5 L-1,4 Z M0,5 L2,6 L3,9 L2,11 L-2,10 L-2,8 L-4,7 Z " fill="#18232F" transform="translate(97,66)"/>
<path d="M0,0 L10,3 L11,6 L2,7 L-1,8 L1,4 L-2,1 Z " fill="#343E49" transform="translate(49,64)"/>
<path d="M0,0 L8,2 L5,5 L2,5 L2,8 L4,8 L4,10 L0,8 L-1,3 L-3,2 Z " fill="#25323E" transform="translate(54,55)"/>
<path d="M0,0 L11,0 L9,4 L5,5 L-1,3 Z " fill="#202F3D" transform="translate(66,17)"/>
<path d="M0,0 L2,4 L0,14 L-3,13 L-2,4 Z " fill="#5C646D" transform="translate(60,21)"/>
<path d="M0,0 L11,0 L13,4 L2,4 L2,2 Z " fill="#030E1A" transform="translate(63,92)"/>
<path d="M0,0 L2,0 L3,2 L5,0 L9,7 L5,9 L4,7 L0,6 Z " fill="#1D2A35" transform="translate(118,82)"/>
<path d="M0,0 L5,1 L6,5 L4,8 L-1,6 L-1,1 Z " fill="#0B1520" transform="translate(35,38)"/>
<path d="M0,0 L2,0 L2,2 L9,2 L10,4 L-7,4 L-9,2 L0,1 Z " fill="#6C7179" transform="translate(137,129)"/>
<path d="M0,0 L7,0 L9,1 L9,3 L5,3 L5,5 L8,6 L4,6 L4,4 L0,3 L-4,1 Z " fill="#3B444C" transform="translate(66,127)"/>
<path d="M0,0 L2,0 L4,4 L8,6 L10,7 L10,16 L8,16 L7,8 L0,5 Z " fill="#1A2836" transform="translate(77,27)"/>
<path d="M0,0 L10,0 L15,1 L12,3 L10,3 L10,5 L8,5 L8,3 L0,4 Z " fill="#3B444F" transform="translate(57,73)"/>
<path d="M0,0 L2,1 L3,3 L6,4 L8,7 L3,8 L0,6 L-1,4 L-4,6 L-2,2 Z " fill="#505863" transform="translate(43,61)"/>
<path d="M0,0 L5,0 L6,8 L4,8 L3,4 L-1,4 L-2,6 L-2,2 L0,2 Z " fill="#3B4652" transform="translate(33,95)"/>
<path d="M0,0 L7,0 L11,1 L11,3 L5,5 L4,7 L2,7 L3,3 L1,2 Z " fill="#28333D" transform="translate(84,68)"/>
<path d="M0,0 L3,1 L1,6 L-1,12 L-2,8 L-4,5 L-3,1 Z " fill="#3C4752" transform="translate(63,15)"/>
<path d="M0,0 L3,1 L0,8 L-2,8 L-2,10 L-5,10 L-4,6 Z " fill="#1C2833" transform="translate(45,109)"/>
<path d="M0,0 L2,0 L1,3 L-2,5 L-12,5 L-12,3 L-3,2 Z " fill="#3D4750" transform="translate(105,125)"/>
<path d="M0,0 L12,2 L14,5 L6,5 L0,2 Z " fill="#07121D" transform="translate(39,85)"/>
<path d="M0,0 L3,1 L4,5 L0,6 L-2,4 L-4,5 L-4,2 L-6,1 L-1,1 Z " fill="#141F2B" transform="translate(85,102)"/>
<path d="M0,0 L4,1 L4,4 L1,3 L0,5 L-2,8 L-4,8 L-5,4 Z " fill="#2A353F" transform="translate(86,96)"/>
<path d="M0,0 L5,1 L10,2 L10,4 L12,5 L6,6 L4,5 L4,2 Z " fill="#1B2836" transform="translate(47,90)"/>
<path d="M0,0 L3,0 L4,4 L-4,7 L-3,2 Z " fill="#363D47" transform="translate(71,7)"/>
<path d="M0,0 L2,0 L2,2 L0,2 L0,4 L-2,4 L-4,8 L-7,8 L-7,6 L-5,6 L-6,2 Z " fill="#13202C" transform="translate(101,97)"/>
<path d="M0,0 L12,0 L12,3 L6,2 L0,5 Z " fill="#353F49" transform="translate(67,98)"/>
<path d="M0,0 L9,2 L9,4 L0,4 L-2,6 L-4,4 L-2,4 L-2,2 L0,2 Z " fill="#1B2733" transform="translate(41,77)"/>
<path d="M0,0 L2,1 L1,5 L-3,7 L-6,13 L-7,9 L-3,4 L-4,2 Z " fill="#717981" transform="translate(55,40)"/>
<path d="M0,0 L5,1 L5,3 L7,4 L0,6 L-1,11 L-2,11 L-2,4 L0,4 Z " fill="#545B65" transform="translate(47,50)"/>
<path d="M0,0 L6,0 L7,2 L2,3 L2,5 L-3,5 L-2,1 Z " fill="#13212F" transform="translate(43,127)"/>
<path d="M0,0 L5,2 L7,3 L4,6 L-1,6 Z " fill="#48515E" transform="translate(120,12)"/>
<path d="M0,0 L4,1 L2,2 L1,5 L-2,4 L-3,6 L-6,4 Z " fill="#27333E" transform="translate(73,99)"/>
<path d="M0,0 L1,2 L4,3 L4,5 L-2,5 L-2,7 L-5,7 L-4,4 Z " fill="#8D9298" transform="translate(35,90)"/>
<path d="M0,0 L3,0 L2,4 L4,4 L4,7 L-4,5 L-1,4 Z " fill="#3E4852" transform="translate(84,71)"/>
<path d="M0,0 L8,0 L8,1 L2,1 L2,3 L9,3 L9,4 L-2,4 L-2,2 L0,2 Z " fill="#60686C" transform="translate(62,131)"/>
<path d="M0,0 L2,1 L0,8 L-2,8 L-3,10 L-3,4 Z " fill="#646C74" transform="translate(29,113)"/>
<path d="M0,0 L2,4 L1,11 L0,7 L-3,6 L-1,2 Z " fill="#08121D" transform="translate(37,109)"/>
<path d="M0,0 L4,4 L3,6 L-1,6 L-2,8 L-1,2 Z " fill="#414B57" transform="translate(40,69)"/>
<path d="M0,0 L7,1 L6,3 L-3,4 L-5,5 L-3,1 Z " fill="#47525B" transform="translate(71,29)"/>
<path d="M0,0 L7,0 L7,2 L1,4 L-2,3 L-1,1 Z " fill="#333D48" transform="translate(60,96)"/>
<path d="M0,0 L3,0 L4,4 L6,3 L8,7 L2,6 L2,2 L0,2 Z " fill="#2A3743" transform="translate(38,95)"/>
<path d="M0,0 L5,1 L6,3 L-5,3 L-3,1 Z " fill="#2E3843" transform="translate(75,49)"/>
<path d="M0,0 L0,3 L0,6 L-6,7 L-4,1 Z " fill="#A4AAB0" transform="translate(70,20)"/>
<path d="M0,0 L2,0 L2,5 L-1,5 L-1,7 L-3,7 L-3,1 L-2,3 L0,3 Z " fill="#162331" transform="translate(36,13)"/>
<path d="M0,0 L5,0 L2,4 L-4,4 L-2,1 L0,2 Z " fill="#1A2937" transform="translate(81,13)"/>
<path d="M0,0 L7,1 L6,3 L2,3 L2,5 L-2,3 Z " fill="#232B35" transform="translate(60,128)"/>
<path d="M0,0 L1,2 L6,2 L6,8 L4,8 L4,5 L2,5 L2,3 L0,3 Z " fill="#2B353F" transform="translate(105,122)"/>
<path d="M0,0 L5,2 L4,7 L3,5 L0,5 Z " fill="#13202C" transform="translate(114,81)"/>
<path d="M0,0 L3,2 L3,5 L-4,6 L-4,3 L-1,2 Z " fill="#192733" transform="translate(91,75)"/>
<path d="M0,0 L1,2 L5,2 L5,4 L-2,6 L-2,2 L0,2 Z " fill="#26323F" transform="translate(46,59)"/>
<path d="M0,0 L5,0 L4,3 L2,3 L2,5 L-2,4 Z " fill="#1B2530" transform="translate(72,56)"/>
<path d="M0,0 L2,4 L-2,10 L-5,8 L-3,6 Z " fill="#535B62" transform="translate(118,34)"/>
<path d="M0,0 L2,3 L2,8 L-1,8 L-2,3 Z " fill="#273643" transform="translate(99,31)"/>
<path d="M0,0 L2,3 L3,9 L1,13 L0,9 Z " fill="#6E767B" transform="translate(29,27)"/>
<path d="M0,0 L1,0 L2,12 L0,14 L-1,10 Z " fill="#747B83" transform="translate(31,15)"/>
<path d="M0,0 L13,0 L13,1 L7,1 L7,3 L3,2 Z " fill="#D1D3D4" transform="translate(100,141)"/>
<path d="M0,0 L4,1 L4,5 L0,4 Z " fill="#919CA2" transform="translate(135,81)"/>
<path d="M0,0 L5,0 L4,2 L2,2 L2,4 L-3,4 L-3,1 Z " fill="#2C3743" transform="translate(61,75)"/>
<path d="M0,0 L2,1 L-1,2 L-1,4 L-7,5 L-8,2 Z " fill="#3B444B" transform="translate(114,40)"/>
<path d="M0,0 L1,2 L3,3 L1,3 L0,7 L-2,7 L-3,2 Z " fill="#182430" transform="translate(67,25)"/>
<path d="M0,0 L2,0 L2,5 L-3,5 L-1,1 Z " fill="#678D92" transform="translate(23,81)"/>
<path d="M0,0 L4,0 L5,3 L3,3 L2,7 L0,5 L2,5 L2,3 L0,3 Z " fill="#12202E" transform="translate(49,58)"/>
<path d="M0,0 L4,0 L4,6 L0,7 L0,5 L2,5 Z " fill="#22323E" transform="translate(110,55)"/>
<path d="M0,0 L7,2 L6,4 L0,4 Z " fill="#394853" transform="translate(44,40)"/>
<path d="M0,0 L2,1 L2,6 L1,3 L-7,5 L-7,3 Z " fill="#1B2630" transform="translate(101,40)"/>
<path d="M0,0 L6,0 L5,6 L0,5 Z " fill="#B9BEC2" transform="translate(81,21)"/>
<path d="M0,0 L2,0 L5,4 L-2,4 L-3,2 Z " fill="#162331" transform="translate(54,79)"/>
<path d="M0,0 L1,2 L4,3 L-3,5 L-4,1 Z " fill="#73787F" transform="translate(47,70)"/>
<path d="M0,0 L9,2 L7,4 L1,4 Z " fill="#182634" transform="translate(106,45)"/>
<path d="M0,0 L1,4 L0,8 L-3,6 L-2,2 L0,2 Z " fill="#424A52" transform="translate(60,33)"/>
<path d="M0,0 L2,1 L1,7 L-2,7 Z " fill="#3F4751" transform="translate(31,112)"/>
<path d="M0,0 L8,1 L7,3 L2,3 L0,2 Z " fill="#1E2A37" transform="translate(78,76)"/>
<path d="M0,0 L4,0 L4,5 L1,6 L-1,4 L1,2 Z " fill="#424C55" transform="translate(58,68)"/>
<path d="M0,0 L3,4 L-1,5 L-2,7 L-2,4 L-2,1 Z " fill="#58626B" transform="translate(56,44)"/>
<path d="M0,0 L3,1 L3,6 L0,7 Z " fill="#636A71" transform="translate(119,27)"/>
</svg>
