<?xml version="1.0" encoding="UTF-8"?>
<!-- Generator: visioncortex VTracer 0.6.5 -->
<svg version="1.1" xmlns="http://www.w3.org/2000/svg" width="165" height="132">
<path d="M0,0 L165,0 L165,132 L0,132 Z " fill="#F4F4F4" transform="translate(0,0)"/>
<path d="M0,0 L3,0 L3,3 L13,0 L16,0 L16,4 L30,4 L31,7 L29,7 L29,9 L39,12 L42,13 L41,18 L48,24 L52,27 L52,29 L49,29 L53,35 L59,42 L59,44 L56,44 L62,56 L62,60 L60,60 L66,70 L66,77 L69,82 L72,85 L74,92 L76,96 L67,96 L67,99 L65,101 L59,102 L59,103 L20,103 L16,100 L13,101 L-34,101 L-34,100 L-50,98 L-49,91 L-44,86 L-41,80 L-38,71 L-39,63 L-37,54 L-39,54 L-38,47 L-36,44 L-35,31 L-30,25 L-30,20 L-25,18 L-22,12 L-18,11 L-14,5 L-10,6 L-4,3 Z " fill="#0B1926" transform="translate(69,18)"/>
<path d="M0,0 L3,0 L3,3 L13,0 L16,0 L16,4 L30,4 L31,7 L29,7 L29,9 L39,12 L42,14 L36,15 L36,12 L34,12 L35,15 L32,15 L28,11 L24,10 L21,10 L21,8 L11,6 L15,5 L15,2 L10,2 L11,8 L10,10 L16,12 L13,13 L9,11 L7,18 L4,17 L3,11 L4,9 L0,9 L-1,14 L-5,18 L-11,19 L-12,17 L-14,17 L-15,20 L-19,19 L-19,17 L-23,21 L-22,31 L-23,34 L-25,34 L-26,32 L-30,42 L-32,42 L-31,47 L-29,48 L-30,57 L-31,57 L-31,50 L-33,50 L-33,59 L-34,61 L-36,61 L-37,65 L-39,67 L-38,61 L-37,54 L-39,54 L-38,47 L-36,44 L-35,31 L-30,25 L-30,20 L-25,18 L-22,12 L-18,11 L-14,5 L-10,6 L-4,3 Z " fill="#343F4A" transform="translate(69,18)"/>
<path d="M0,0 L2,1 L2,3 L10,3 L10,6 L5,6 L5,8 L-8,8 L-8,10 L-6,12 L-22,11 L-22,13 L-37,14 L-37,17 L-39,17 L-39,15 L-42,17 L-53,17 L-54,16 L-61,15 L-61,17 L-63,17 L-63,15 L-79,16 L-79,14 L-108,13 L-108,11 L-114,10 L-115,11 L-120,11 L-120,9 L-131,8 L-129,7 L-129,5 L-134,4 L-134,3 L-125,2 L-125,5 L-115,5 L-108,6 L-108,7 L-66,7 L-66,6 L-57,6 L-57,7 L-50,8 L-50,9 L-34,9 L-34,8 L-12,7 L-8,6 L-8,3 L0,2 Z " fill="#A1A5A9" transform="translate(144,111)"/>
<path d="M0,0 L4,0 L5,6 L7,4 L9,1 L13,4 L14,12 L12,11 L12,8 L9,9 L6,14 L0,14 L-4,15 L-4,24 L-6,22 L-6,19 L-8,20 L-10,24 L-12,20 L-14,20 L-18,26 L-26,26 L-27,33 L-26,30 L-24,30 L-24,33 L-22,31 L-24,28 L-19,30 L-13,33 L-9,29 L-10,34 L-13,37 L-17,36 L-17,34 L-18,38 L-23,38 L-24,44 L-27,46 L-29,45 L-31,38 L-32,33 L-30,33 L-28,24 L-26,22 L-25,25 L-23,25 L-23,18 L-24,12 L-21,8 L-17,9 L-17,11 L-15,11 L-14,7 L-10,9 L-4,7 L-1,4 Z " fill="#192531" transform="translate(69,27)"/>
<path d="M0,0 L5,0 L7,5 L0,6 L1,11 L-3,10 L-4,8 L-6,13 L-10,11 L-13,15 L-13,21 L-11,24 L-8,25 L-8,21 L-4,22 L0,20 L0,22 L8,22 L8,20 L12,21 L12,23 L14,24 L14,20 L18,22 L21,23 L19,13 L16,10 L12,12 L8,8 L7,11 L5,11 L5,7 L9,5 L10,3 L19,3 L26,11 L27,13 L27,19 L25,19 L22,25 L20,26 L12,26 L8,25 L-1,25 L-7,27 L-12,27 L-15,24 L-17,27 L-18,25 L-18,14 L-14,8 L-8,3 Z " fill="#273340" transform="translate(62,64)"/>
<path d="M0,0 L2,3 L5,4 L5,0 L8,0 L9,3 L11,3 L12,1 L15,2 L16,4 L18,4 L20,2 L25,8 L25,16 L22,17 L18,13 L18,17 L15,16 L15,14 L12,13 L12,15 L4,15 L4,13 L-1,16 L-1,14 L-4,14 L-4,18 L-8,17 L-10,14 L-10,8 L-5,3 L-2,6 Z " fill="#071623" transform="translate(58,71)"/>
<path d="M0,0 L3,1 L1,11 L5,10 L6,20 L3,21 L9,24 L7,25 L5,24 L3,30 L-1,38 L14,36 L15,33 L22,33 L24,34 L34,35 L32,38 L26,39 L26,40 L-13,40 L-13,39 L-3,37 L-1,32 L1,29 L-5,31 L-8,35 L-7,29 L-10,30 L-12,34 L-13,30 L-6,22 L-2,21 L-1,12 L-2,3 Z M5,12 Z " fill="#1F2A36" transform="translate(102,81)"/>
<path d="M0,0 L2,1 L2,3 L10,3 L10,6 L5,6 L5,8 L-8,8 L-8,10 L-6,12 L-22,11 L-22,13 L-34,14 L-72,14 L-73,8 L-66,7 L-66,6 L-57,6 L-57,7 L-50,8 L-50,9 L-34,9 L-34,8 L-12,7 L-8,6 L-8,3 L0,2 Z " fill="#95999D" transform="translate(144,111)"/>
<path d="M0,0 L3,0 L3,3 L13,0 L16,0 L16,4 L30,4 L31,7 L29,7 L29,9 L39,12 L42,14 L36,15 L36,12 L34,12 L35,15 L32,15 L28,11 L24,10 L21,10 L21,8 L11,6 L15,5 L15,2 L10,2 L11,8 L10,10 L16,12 L13,13 L9,11 L7,18 L4,17 L3,11 L4,9 L0,9 L-1,14 L-5,18 L-11,19 L-14,15 L-12,15 L-11,11 L-8,11 L-7,8 L-4,8 L-3,2 Z " fill="#3E4852" transform="translate(69,18)"/>
<path d="M0,0 L4,1 L4,3 L2,4 L2,7 L6,6 L5,10 L7,10 L5,15 L3,18 L-5,18 L-6,25 L-5,22 L-3,22 L-3,25 L-1,23 L-3,20 L2,22 L8,25 L12,21 L11,26 L8,29 L4,28 L4,26 L3,30 L-2,30 L-3,36 L-6,38 L-8,37 L-10,30 L-11,25 L-9,25 L-7,16 L-5,14 L-4,17 L-2,17 L-2,10 L-3,4 Z " fill="#212D38" transform="translate(48,35)"/>
<path d="M0,0 L4,1 L7,7 L39,7 L40,12 L34,11 L34,12 L-13,12 L-13,11 L-19,10 L-19,9 L-9,8 L-9,10 L-2,10 L-2,8 L0,8 L-1,5 L-4,5 Z " fill="#38414B" transform="translate(48,107)"/>
<path d="M0,0 L9,0 L16,8 L17,10 L17,16 L15,16 L12,22 L10,23 L4,23 L7,21 L11,20 L9,10 L6,7 L2,9 L-2,5 L-3,8 L-5,8 L-5,4 L-1,2 Z " fill="#1A2835" transform="translate(72,67)"/>
<path d="M0,0 L1,2 L0,5 L-3,6 L-4,8 L-7,8 L-8,12 L-10,12 L-11,17 L-15,16 L-15,14 L-19,18 L-19,23 L-21,22 L-22,24 L-24,24 L-26,28 L-26,17 L-21,15 L-18,9 L-14,8 L-10,2 L-6,3 Z " fill="#48525C" transform="translate(65,21)"/>
<path d="M0,0 L2,0 L3,10 L2,14 L1,18 L6,19 L6,21 L-2,22 L-3,26 L-4,29 L-2,31 L-12,31 L-11,24 L-6,19 L-3,13 L0,4 Z " fill="#333C46" transform="translate(31,85)"/>
<path d="M0,0 L4,0 L4,3 L14,3 L21,4 L21,5 L53,6 L53,8 L15,8 L14,9 L9,9 L9,7 L-2,6 L0,5 L0,3 L-5,2 L-5,1 Z " fill="#797D82" transform="translate(15,113)"/>
<path d="M0,0 L7,0 L9,1 L19,2 L17,5 L11,6 L11,7 L-28,7 L-28,6 L-3,3 L-1,3 Z " fill="#4A5058" transform="translate(117,114)"/>
<path d="M0,0 L9,0 L9,1 L16,2 L16,3 L38,4 L38,5 L26,6 L-7,6 L-7,2 L0,1 Z " fill="#71757C" transform="translate(78,117)"/>
<path d="M0,0 L5,0 L5,3 L11,6 L13,8 L15,7 L20,9 L18,10 L18,12 L10,13 L6,15 L4,10 L0,8 Z " fill="#2D3741" transform="translate(79,20)"/>
<path d="M0,0 L8,6 L10,10 L7,10 L11,16 L16,22 L13,23 L12,22 L13,29 L10,26 L7,17 L7,14 L5,14 L2,9 L0,5 Z " fill="#1D2935" transform="translate(111,37)"/>
<path d="M0,0 L5,1 L9,3 L7,4 L5,3 L3,9 L-1,17 L-3,16 L-1,11 L1,8 L-5,10 L-8,14 L-7,8 L-9,7 L-6,6 L-4,2 Z " fill="#232E39" transform="translate(102,102)"/>
<path d="M0,0 L2,3 L2,22 L1,24 L-1,24 L-2,28 L-4,30 L-3,24 L-2,17 L-4,17 L-3,10 L-1,7 Z " fill="#414B56" transform="translate(34,55)"/>
<path d="M0,0 L5,2 L6,11 L4,10 L4,7 L1,8 L-2,13 L-7,13 L-7,11 L-9,11 L-9,8 L-7,8 L-6,3 L-4,3 L-2,5 Z " fill="#29333F" transform="translate(77,28)"/>
<path d="M0,0 L3,0 L3,2 L41,2 L41,3 L35,4 L-1,4 L-1,3 L-7,2 L-7,1 Z " fill="#656B71" transform="translate(36,115)"/>
<path d="M0,0 L2,0 L2,2 L10,2 L10,0 L14,1 L14,3 L16,4 L16,0 L20,2 L19,5 L14,6 L10,5 L1,5 L-8,7 L-6,6 L-6,1 L-2,2 Z " fill="#4D5661" transform="translate(60,84)"/>
<path d="M0,0 L3,1 L3,9 L1,13 L-1,13 L-1,15 L-10,16 L-12,14 L-11,13 L-4,13 L-2,8 L-4,8 L-3,3 Z " fill="#162431" transform="translate(94,50)"/>
<path d="M0,0 L13,0 L13,2 L11,2 L11,4 L21,7 L24,9 L18,10 L18,7 L16,7 L17,10 L14,10 L10,6 L6,5 L3,5 L3,3 L-1,1 Z " fill="#323B46" transform="translate(87,23)"/>
<path d="M0,0 L3,1 L3,2 L41,3 L41,6 L39,6 L39,4 L36,6 L25,6 L24,5 L17,4 L17,6 L15,6 L15,4 L-1,5 Z " fill="#CECFD0" transform="translate(66,122)"/>
<path d="M0,0 L4,0 L4,3 L10,3 L10,5 L16,5 L16,8 L9,9 L9,7 L-2,6 L0,5 L0,3 L-5,2 L-5,1 Z " fill="#9FA2A7" transform="translate(15,113)"/>
<path d="M0,0 L2,0 L5,9 L4,14 L3,19 L4,25 L1,21 L-2,11 L-1,9 Z " fill="#1C2934" transform="translate(36,68)"/>
<path d="M0,0 L3,0 L3,4 L17,4 L17,5 L-2,6 L2,5 L2,2 L-3,2 L-2,8 L-3,10 L3,12 L0,13 L-4,11 L-7,6 L-10,5 L-10,3 Z " fill="#60676E" transform="translate(82,18)"/>
<path d="M0,0 L3,4 L6,9 L6,13 L4,13 L6,19 L3,20 L0,11 L-2,11 L-2,9 L0,9 L-1,2 Z " fill="#1D2A37" transform="translate(125,65)"/>
<path d="M0,0 L5,0 L7,5 L0,6 L-2,7 L-9,7 L-11,5 L-6,2 Z " fill="#26303B" transform="translate(62,64)"/>
<path d="M0,0 L1,2 L0,5 L-3,6 L-4,8 L-15,12 L-14,8 L-10,2 L-6,3 Z " fill="#69727A" transform="translate(65,21)"/>
<path d="M0,0 L25,0 L29,3 L4,3 L4,1 Z " fill="#B1B3B7" transform="translate(32,121)"/>
<path d="M0,0 L2,1 L2,7 L4,7 L4,12 L6,16 L2,17 L2,19 L-2,18 L-1,14 L0,10 Z " fill="#182532" transform="translate(33,85)"/>
<path d="M0,0 L2,0 L2,4 L5,5 L4,7 L2,7 L0,11 L-2,12 L-4,10 L-2,10 L-3,8 L-7,9 L-5,4 L-1,4 Z " fill="#202A34" transform="translate(55,34)"/>
<path d="M0,0 L3,0 L4,8 L-3,10 L-6,6 L-4,6 L-3,2 L0,2 Z " fill="#323B47" transform="translate(61,27)"/>
<path d="M0,0 L1,4 L-1,8 L-5,11 L-7,7 L-10,6 L-9,2 L-7,3 L-1,1 Z " fill="#28323E" transform="translate(66,33)"/>
<path d="M0,0 L2,0 L3,10 L2,14 L-1,16 L-4,16 L-1,7 Z " fill="#4C555E" transform="translate(31,85)"/>
<path d="M0,0 L2,1 L2,8 L0,7 L-1,9 L-3,9 L-5,13 L-5,2 Z " fill="#4C545B" transform="translate(44,36)"/>
<path d="M0,0 L9,0 L9,1 L16,2 L16,3 L11,4 L-3,4 L-7,2 L0,1 Z " fill="#62686F" transform="translate(78,117)"/>
<path d="M0,0 L9,0 L13,2 L8,3 L1,2 L0,4 L-3,7 L-5,7 L-6,5 L-9,3 Z " fill="#222E3B" transform="translate(61,88)"/>
<path d="M0,0 L7,2 L8,4 L4,3 L2,9 L-2,17 L-4,16 L-2,11 L-1,7 Z " fill="#1B2733" transform="translate(103,102)"/>
<path d="M0,0 L6,0 L8,2 L13,0 L9,4 L3,3 L5,6 L1,9 L2,4 L0,4 L-1,8 L-2,4 Z " fill="#111B27" transform="translate(43,53)"/>
<path d="M0,0 L4,1 L4,3 L6,2 L6,0 L8,0 L10,5 L1,5 L1,8 L-1,8 L-4,4 L-4,2 L0,2 Z " fill="#15212C" transform="translate(97,30)"/>
<path d="M0,0 L6,1 L6,5 L2,4 L1,2 L-1,7 L-6,5 L-6,2 Z M-7,5 Z " fill="#646B72" transform="translate(57,70)"/>
<path d="M0,0 L3,0 L5,5 L4,9 L1,8 L-2,5 L-3,8 L-5,8 L-5,4 L-1,2 Z " fill="#5B656E" transform="translate(72,67)"/>
<path d="M0,0 L5,2 L11,5 L15,1 L14,6 L11,9 L7,8 L7,4 L1,6 L1,2 Z " fill="#4B545F" transform="translate(45,55)"/>
<path d="M0,0 L7,1 L8,4 L6,8 L3,8 L3,6 L-1,6 Z " fill="#1D2834" transform="translate(102,76)"/>
<path d="M0,0 L5,2 L7,6 L7,10 L3,8 L-2,3 L0,3 Z " fill="#C1C3C6" transform="translate(109,16)"/>
<path d="M0,0 L3,0 L3,2 L14,2 L14,4 L-1,4 L-1,3 L-7,2 L-7,1 Z " fill="#535961" transform="translate(36,115)"/>
<path d="M0,0 L4,1 L4,3 L6,4 L6,0 L10,2 L9,5 L4,6 L-2,4 L-2,2 L0,2 Z " fill="#666D74" transform="translate(70,84)"/>
<path d="M0,0 L8,0 L9,4 L13,5 L8,7 L4,7 L3,3 Z " fill="#1E2A37" transform="translate(80,27)"/>
<path d="M0,0 L2,1 L2,4 L0,4 L0,2 L-2,2 L-3,7 L-5,7 L-5,9 L-7,9 L-7,6 L-9,5 L-8,2 Z " fill="#182530" transform="translate(37,105)"/>
<path d="M0,0 L2,1 L2,3 L10,3 L10,5 L-8,5 L-8,3 L0,2 Z " fill="#555E68" transform="translate(144,111)"/>
<path d="M0,0 L4,1 L2,3 L0,3 L-2,7 L-6,9 L-8,13 L-9,9 L-2,1 Z " fill="#3F4751" transform="translate(98,102)"/>
<path d="M0,0 L2,1 L1,8 L-2,12 L-4,7 L-3,3 Z " fill="#444C55" transform="translate(38,45)"/>
<path d="M0,0 L5,2 L5,5 L-11,5 L-11,4 L-1,3 Z " fill="#2D363F" transform="translate(117,114)"/>
<path d="M0,0 L4,5 L9,7 L9,9 L2,10 L-1,6 Z " fill="#16232F" transform="translate(46,85)"/>
<path d="M0,0 L8,6 L10,10 L5,9 L0,5 Z " fill="#333A45" transform="translate(111,37)"/>
<path d="M0,0 L3,3 L4,6 L4,13 L1,15 L-5,15 L-2,13 L2,12 Z " fill="#303A45" transform="translate(81,75)"/>
<path d="M0,0 L7,0 L7,2 L4,2 L3,5 L-1,6 L-2,9 L-2,6 L-7,5 L-7,4 L1,4 Z " fill="#182533" transform="translate(68,65)"/>
<path d="M0,0 L2,0 L3,3 L10,4 L13,2 L18,2 L16,4 L13,4 L13,6 L3,6 L0,2 Z " fill="#212B35" transform="translate(73,46)"/>
<path d="M0,0 L1,2 L0,4 L5,5 L5,6 L-5,6 L-4,1 Z M2,2 Z " fill="#202A36" transform="translate(24,110)"/>
<path d="M0,0 L3,0 L3,2 L-2,4 L-5,15 L-6,15 L-6,8 L-2,2 Z " fill="#3C4550" transform="translate(50,70)"/>
<path d="M0,0 L7,1 L5,10 L2,9 L1,3 L2,1 Z " fill="#36404A" transform="translate(71,26)"/>
<path d="M0,0 L1,3 L2,10 L3,12 L-1,12 L-3,3 L0,2 Z " fill="#2F3B48" transform="translate(134,88)"/>
<path d="M0,0 L3,1 L2,6 L0,6 L0,11 L-2,9 L-2,3 Z " fill="#303B47" transform="translate(102,81)"/>
<path d="M0,0 L2,0 L2,2 L-1,5 L2,6 L-1,7 L-6,5 L-6,7 L-8,6 L-7,2 L-2,2 Z " fill="#828890" transform="translate(84,54)"/>
<path d="M0,0 L7,0 L7,3 L3,5 L-2,5 Z " fill="#EBECEC" transform="translate(136,119)"/>
<path d="M0,0 L11,1 L11,2 L16,3 L16,4 L7,5 L6,3 L0,2 Z " fill="#858A90" transform="translate(25,116)"/>
<path d="M0,0 L12,0 L12,1 L7,1 L7,3 L-2,3 L0,2 Z " fill="#B6B9BF" transform="translate(142,116)"/>
<path d="M0,0 L1,0 L1,8 L0,10 L-2,10 L-3,14 L-5,16 L-4,10 L-2,6 L0,6 Z " fill="#3C4751" transform="translate(35,69)"/>
<path d="M0,0 L6,0 L10,3 L-3,3 L-3,1 Z " fill="#D1D2D4" transform="translate(51,121)"/>
<path d="M0,0 L2,3 L2,5 L4,6 L3,15 L2,15 L2,8 L0,8 Z " fill="#38444F" transform="translate(36,60)"/>
<path d="M0,0 L3,1 L3,4 L-6,5 L-8,3 L-7,2 L0,2 Z " fill="#1E2D3A" transform="translate(90,61)"/>
<path d="M0,0 L2,0 L0,4 L-2,9 L-5,9 L-4,4 Z " fill="#989BA1" transform="translate(31,24)"/>
<path d="M0,0 L2,1 L3,9 L2,16 L-1,15 L0,10 Z " fill="#29353F" transform="translate(33,85)"/>
<path d="M0,0 L2,1 L4,8 L2,12 L1,7 L-2,6 Z " fill="#15202B" transform="translate(33,79)"/>
<path d="M0,0 L2,0 L1,5 L7,4 L6,7 L-1,7 Z " fill="#172532" transform="translate(40,110)"/>
<path d="M0,0 L2,1 L0,3 L3,3 L2,7 L-3,7 L-2,2 Z " fill="#313B45" transform="translate(103,93)"/>
<path d="M0,0 L3,0 L3,4 L-3,5 L-2,1 Z " fill="#343B44" transform="translate(69,18)"/>
<path d="M0,0 L3,1 L0,5 L-2,5 L-2,3 L-12,3 L-12,2 L0,2 Z " fill="#CFD1D3" transform="translate(122,122)"/>
<path d="M0,0 L9,1 L5,3 L-4,3 L0,2 Z " fill="#545C66" transform="translate(127,115)"/>
<path d="M0,0 L8,0 L9,5 L6,4 L7,3 L0,2 Z " fill="#3C454F" transform="translate(79,114)"/>
<path d="M0,0 L6,2 L4,3 L4,5 L-2,4 Z " fill="#23313E" transform="translate(93,27)"/>
<path d="M0,0 L6,0 L6,2 L4,3 L-2,3 L-4,1 Z " fill="#80848C" transform="translate(136,116)"/>
<path d="M0,0 L10,0 L14,1 L14,3 L8,3 L8,1 L0,1 Z " fill="#B6B8BC" transform="translate(146,113)"/>
<path d="M0,0 L3,2 L1,5 L-5,4 L-2,1 Z " fill="#303941" transform="translate(56,66)"/>
<path d="M0,0 L1,4 L-4,8 L-6,7 L-4,3 L0,3 Z " fill="#101821" transform="translate(54,35)"/>
<path d="M0,0 L3,0 L1,8 L-1,7 L-1,1 Z " fill="#091420" transform="translate(92,110)"/>
<path d="M0,0 L2,1 L3,6 L5,4 L6,8 L2,9 Z " fill="#7D8087" transform="translate(132,32)"/>
<path d="M0,0 L3,1 L3,3 L0,4 Z M-1,4 L0,7 L-4,9 L-5,7 Z " fill="#1F2B37" transform="translate(77,32)"/>
<path d="M0,0 L2,1 L2,8 L0,7 L0,5 L-3,4 L-1,3 L-4,1 Z " fill="#5D666C" transform="translate(44,36)"/>
<path d="M0,0 L7,0 L6,2 L-1,3 Z " fill="#CACBCD" transform="translate(25,119)"/>
<path d="M0,0 L4,0 L4,3 L-5,2 L-5,1 Z " fill="#919499" transform="translate(15,113)"/>
<path d="M0,0 L2,1 L0,6 L2,6 L2,13 L1,13 L1,7 L-1,7 Z " fill="#838A8F" transform="translate(31,65)"/>
<path d="M0,0 L3,1 L0,6 L-3,7 L-1,1 Z " fill="#393E46" transform="translate(55,23)"/>
<path d="M0,0 L3,1 L3,2 L9,3 L9,4 L-1,5 Z " fill="#D6D8D9" transform="translate(66,122)"/>
<path d="M0,0 L1,4 L0,5 L-5,5 L-4,2 Z " fill="#2D3742" transform="translate(102,102)"/>
<path d="M0,0 L2,4 L0,9 L-3,9 Z " fill="#586068" transform="translate(30,92)"/>
<path d="M0,0 L3,4 L1,9 L0,9 L-1,2 Z " fill="#26333F" transform="translate(125,65)"/>
<path d="M0,0 L5,2 L0,7 L-1,4 Z " fill="#202B36" transform="translate(61,37)"/>
<path d="M0,0 L3,3 L3,7 L-1,5 L-1,2 L0,2 Z " fill="#9B9FA2" transform="translate(113,19)"/>
<path d="M0,0 L4,1 L8,3 L-2,3 L0,2 Z " fill="#BCBDC0" transform="translate(15,116)"/>
<path d="M0,0 L3,1 L1,6 L-3,4 L-1,4 Z " fill="#3C4651" transform="translate(58,29)"/>
<path d="M0,0 L6,1 L6,3 L3,4 L-1,1 Z " fill="#47525B" transform="translate(87,23)"/>
<path d="M0,0 L6,0 L4,1 L3,4 L0,4 Z " fill="#515B64" transform="translate(65,23)"/>
</svg>
