<?xml version="1.0" encoding="UTF-8"?>
<!-- Generator: visioncortex VTracer 0.6.5 -->
<svg version="1.1" xmlns="http://www.w3.org/2000/svg" width="167" height="148">
<path d="M0,0 L167,0 L167,148 L0,148 Z " fill="#F4F4F4" transform="translate(0,0)"/>
<path d="M0,0 L4,0 L4,4 L22,4 L21,7 L25,9 L34,11 L37,14 L35,16 L42,22 L46,26 L47,31 L53,43 L54,53 L57,64 L58,67 L58,74 L56,74 L59,85 L59,92 L63,93 L66,97 L66,102 L72,104 L73,109 L62,109 L62,112 L51,112 L51,115 L49,116 L39,117 L36,120 L24,120 L14,119 L11,118 L5,119 L34,121 L34,122 L18,122 L-10,121 L-10,123 L36,123 L36,124 L-11,124 L-11,120 L-17,120 L-17,118 L-21,119 L-41,119 L-42,117 L-24,116 L-17,116 L-26,115 L-26,114 L-45,113 L-45,111 L-56,111 L-65,110 L-65,108 L-68,107 L-65,107 L-64,103 L-59,100 L-57,99 L-56,86 L-53,77 L-50,50 L-44,33 L-37,22 L-30,15 L-29,10 L-25,9 L-20,8 L-18,4 L-12,5 L-3,2 Z " fill="#0C1A27" transform="translate(79,16)"/>
<path d="M0,0 L4,0 L4,4 L16,4 L17,6 L16,8 L12,9 L12,11 L10,11 L9,16 L7,15 L7,18 L2,18 L1,22 L4,22 L4,26 L7,28 L2,27 L-1,23 L-4,29 L-2,29 L-2,31 L-6,30 L-7,29 L-7,37 L-8,42 L-7,46 L-5,46 L-2,44 L-4,37 L-1,38 L0,40 L7,38 L4,42 L6,46 L7,49 L3,47 L0,45 L-4,50 L-2,53 L-6,51 L-8,47 L-12,46 L-12,49 L-14,49 L-14,54 L-12,53 L-10,54 L-10,57 L-5,57 L-6,63 L-10,62 L-11,65 L-13,61 L-19,60 L-21,64 L-25,65 L-30,67 L-31,74 L-34,75 L-33,79 L-34,79 L-33,86 L-28,94 L-19,97 L-19,95 L-16,96 L-18,99 L-9,98 L-10,100 L-20,100 L-25,98 L-34,98 L-38,93 L-40,93 L-37,102 L-35,102 L-35,104 L-32,102 L-29,102 L-28,107 L-28,109 L-30,109 L-30,112 L-45,113 L-45,111 L-56,111 L-65,110 L-65,108 L-68,107 L-65,107 L-64,103 L-59,100 L-57,99 L-56,86 L-53,77 L-50,50 L-44,33 L-37,22 L-30,15 L-29,10 L-25,9 L-20,8 L-18,4 L-12,5 L-3,2 Z M-11,57 Z " fill="#1A2530" transform="translate(79,16)"/>
<path d="M0,0 L4,0 L4,4 L16,4 L17,6 L16,8 L12,9 L12,11 L10,11 L9,16 L7,15 L7,18 L2,18 L1,22 L4,22 L4,26 L7,28 L2,27 L-1,23 L-4,29 L-2,29 L-2,31 L-6,30 L-7,29 L-7,37 L-8,42 L-7,46 L-5,46 L-2,44 L-4,37 L-1,38 L0,40 L7,38 L4,42 L6,46 L7,49 L3,47 L0,45 L-4,50 L-2,53 L-6,51 L-8,47 L-12,46 L-12,49 L-14,49 L-15,52 L-19,52 L-20,55 L-22,51 L-20,51 L-20,43 L-18,42 L-17,39 L-20,40 L-24,49 L-30,54 L-33,53 L-28,48 L-30,45 L-33,46 L-34,48 L-36,48 L-35,44 L-34,40 L-35,37 L-32,38 L-32,40 L-27,36 L-25,36 L-27,41 L-29,41 L-26,45 L-24,45 L-22,33 L-17,22 L-16,18 L-10,11 L-16,13 L-17,17 L-22,16 L-23,19 L-26,19 L-28,22 L-22,20 L-20,20 L-21,24 L-24,25 L-24,27 L-26,27 L-26,29 L-30,31 L-33,31 L-33,29 L-37,31 L-38,35 L-37,37 L-40,48 L-41,58 L-42,65 L-42,93 L-44,92 L-44,49 L-45,51 L-47,51 L-47,54 L-45,54 L-46,59 L-47,59 L-47,65 L-46,66 L-46,82 L-47,82 L-49,73 L-51,75 L-49,75 L-50,90 L-53,99 L-51,104 L-58,108 L-57,104 L-53,104 L-53,102 L-60,104 L-64,106 L-62,101 L-57,99 L-56,86 L-53,77 L-50,50 L-44,33 L-37,22 L-30,15 L-29,10 L-25,9 L-20,8 L-18,4 L-12,5 L-3,2 Z " fill="#505963" transform="translate(79,16)"/>
<path d="M0,0 L6,0 L8,2 L8,4 L9,2 L16,3 L21,15 L22,24 L18,34 L13,36 L11,35 L10,38 L1,39 L2,36 L0,35 L0,37 L-7,36 L-12,31 L-16,24 L-16,18 L-15,15 L-13,13 L-11,7 L-4,3 L-2,3 Z " fill="#051422" transform="translate(60,76)"/>
<path d="M0,0 L1,0 L2,8 L0,10 L-2,9 L-3,15 L-9,17 L-8,13 L-10,13 L-8,9 L-6,6 L-12,8 L-13,12 L-18,11 L-19,14 L-22,14 L-24,17 L-18,15 L-16,15 L-17,19 L-20,20 L-20,22 L-22,22 L-22,24 L-26,26 L-29,26 L-29,24 L-33,26 L-34,30 L-33,32 L-36,43 L-37,53 L-38,60 L-38,88 L-40,87 L-40,44 L-41,46 L-43,46 L-43,49 L-41,49 L-42,54 L-43,54 L-43,60 L-42,61 L-42,77 L-43,77 L-45,68 L-47,70 L-45,70 L-46,85 L-49,94 L-47,99 L-54,103 L-53,99 L-49,99 L-49,97 L-56,99 L-60,101 L-58,96 L-53,94 L-52,81 L-49,72 L-46,45 L-40,28 L-33,17 L-27,11 L-24,11 L-24,9 L-11,2 L-2,1 L-4,2 L-3,4 Z " fill="#576069" transform="translate(75,21)"/>
<path d="M0,0 L1,2 L0,4 L3,5 L3,7 L1,9 L5,13 L7,9 L12,13 L13,27 L13,29 L14,36 L12,42 L12,47 L14,50 L12,50 L11,53 L9,52 L9,54 L7,54 L7,50 L1,49 L1,45 L-1,44 L-1,41 L2,41 L3,35 L1,34 L5,33 L7,34 L7,32 L5,32 L5,30 L3,29 L5,26 L1,28 L1,26 L-2,25 L-2,22 L-4,25 L-5,24 L-5,17 L-3,15 L-1,16 L-1,15 L-5,14 L-6,22 L-7,22 L-8,14 L-6,8 L-3,8 L-3,5 Z " fill="#091724" transform="translate(110,74)"/>
<path d="M0,0 L1,0 L1,45 L5,55 L5,57 L9,58 L9,59 L-3,60 L-3,63 L-12,64 L-21,63 L-21,61 L-24,60 L-21,60 L-20,56 L-17,56 L-17,57 L-14,55 L-9,55 L-9,57 L-13,57 L-13,60 L-8,56 L-8,53 L-10,52 L-8,43 L-6,43 L-6,30 L-5,28 L-7,28 L-6,25 L-4,24 L-3,28 L-3,19 L-4,18 L-4,10 L-2,10 L-1,7 L-3,7 L-3,4 L-1,4 Z " fill="#0C1A28" transform="translate(35,63)"/>
<path d="M0,0 L1,2 L17,2 L21,3 L21,5 L62,5 L59,8 L42,9 L25,10 L49,10 L49,12 L55,12 L55,16 L32,16 L32,14 L22,14 L22,11 L2,11 L2,9 L13,8 L3,7 L3,5 L-4,5 L-5,1 Z " fill="#82888F" transform="translate(13,124)"/>
<path d="M0,0 L6,0 L5,3 L9,5 L18,7 L21,10 L19,12 L26,18 L30,22 L31,27 L37,39 L38,49 L39,56 L37,57 L35,51 L33,41 L32,35 L29,35 L29,41 L27,41 L27,37 L25,37 L26,35 L29,33 L27,25 L25,24 L23,20 L16,14 L16,17 L11,15 L6,11 L6,13 L-4,11 L-4,13 L2,15 L2,17 L-2,17 L-2,19 L-4,19 L-5,21 L-5,19 L-7,19 L-7,13 L-10,12 L-11,9 L-9,9 L-8,9 L-6,9 L-6,7 L-4,7 L-4,5 L-6,4 L0,4 Z " fill="#2A3540" transform="translate(95,20)"/>
<path d="M0,0 L1,2 L5,1 L6,5 L10,3 L12,1 L13,9 L12,14 L13,18 L15,18 L18,16 L16,9 L19,10 L20,12 L27,10 L24,14 L26,18 L27,21 L23,19 L20,17 L16,22 L18,25 L14,23 L12,19 L8,18 L8,21 L6,21 L5,24 L1,24 L0,27 L-2,23 L0,23 L0,15 L2,14 L3,11 L0,12 L-4,21 L-10,26 L-13,25 L-8,20 L-10,17 L-13,18 L-14,20 L-16,20 L-15,16 L-14,12 L-15,9 L-12,10 L-12,12 L-7,8 L-5,8 L-7,13 L-9,13 L-6,17 L-4,17 L-2,5 Z " fill="#1B2631" transform="translate(59,44)"/>
<path d="M0,0 L1,2 L0,4 L3,3 L0,17 L-1,17 L-1,26 L2,26 L7,34 L16,37 L16,35 L19,36 L17,39 L26,38 L25,40 L15,40 L10,38 L1,38 L-3,33 L-5,33 L-2,42 L0,42 L0,44 L3,42 L6,42 L7,47 L7,49 L5,49 L5,52 L-10,53 L-10,51 L-14,50 L-12,50 L-12,47 L-1,45 L-4,44 L-8,35 L-8,27 L-6,24 L-5,27 L-3,5 Z " fill="#202E3A" transform="translate(44,76)"/>
<path d="M0,0 L5,0 L5,2 L10,2 L11,4 L5,4 L5,7 L7,8 L-3,9 L-3,11 L-11,11 L-14,10 L-14,12 L-23,14 L-22,18 L-29,18 L-29,15 L-39,16 L-53,15 L-82,14 L-82,13 L-62,11 L-48,11 L-49,13 L-39,13 L-42,10 L-22,9 L-23,5 L-11,6 L-11,3 L0,3 Z " fill="#A7ABB0" transform="translate(152,122)"/>
<path d="M0,0 L1,2 L4,3 L2,9 L1,11 L4,11 L4,15 L7,17 L2,16 L-1,12 L-4,18 L-2,18 L-2,20 L-6,19 L-8,18 L-11,22 L-14,22 L-15,18 L-19,19 L-18,14 L-16,7 L-14,5 L-14,7 L-12,7 L-13,11 L-9,8 L-7,9 L-6,3 L-5,5 L0,4 Z " fill="#333E4A" transform="translate(79,27)"/>
<path d="M0,0 L3,4 L5,6 L13,6 L23,9 L24,13 L20,15 L21,18 L23,19 L11,19 L11,22 L-4,22 L-4,21 L8,21 L8,18 L10,18 L10,16 L8,15 L10,15 L8,11 L6,13 L3,13 L3,11 L0,12 L-2,7 L-2,2 L0,2 Z " fill="#0F1D2B" transform="translate(41,107)"/>
<path d="M0,0 L4,0 L4,2 L6,3 L3,5 L-2,6 L38,8 L38,9 L22,9 L-6,8 L-6,10 L40,10 L40,11 L-7,11 L-7,7 L-13,7 L-13,5 L-17,6 L-37,6 L-38,4 L-20,3 L-13,3 L-22,2 L-22,1 Z " fill="#494F57" transform="translate(75,129)"/>
<path d="M0,0 L4,2 L0,4 L-2,4 L-2,11 L0,7 L1,12 L4,14 L7,13 L7,17 L7,19 L9,19 L9,21 L5,22 L5,28 L3,29 L1,28 L1,31 L4,32 L3,36 L8,37 L8,39 L6,40 L4,43 L4,38 L0,38 L-1,42 L-3,42 L-3,37 L-6,37 L-7,41 L-8,38 L-4,34 L-2,33 L-2,15 L-4,12 L-4,3 L-3,1 Z " fill="#1E2934" transform="translate(108,87)"/>
<path d="M0,0 L1,0 L2,8 L0,10 L-2,9 L-3,15 L-9,17 L-8,13 L-10,13 L-8,9 L-6,6 L-12,8 L-13,12 L-18,11 L-19,14 L-26,15 L-27,13 L-26,11 L-24,11 L-24,9 L-11,2 L-2,1 L-4,2 L-3,4 Z " fill="#767C81" transform="translate(75,21)"/>
<path d="M0,0 L16,1 L16,2 L5,3 L29,3 L29,5 L35,5 L35,9 L12,9 L12,7 L2,7 L2,4 L-18,4 L-18,2 Z " fill="#82898D" transform="translate(33,131)"/>
<path d="M0,0 L1,2 L5,1 L6,5 L10,3 L12,1 L13,6 L12,7 L5,6 L5,9 L0,10 L-3,20 L-10,26 L-13,25 L-8,20 L-10,17 L-13,18 L-14,20 L-16,20 L-15,16 L-14,12 L-15,9 L-12,10 L-12,12 L-7,8 L-5,8 L-7,13 L-9,13 L-6,17 L-4,17 L-2,5 Z " fill="#28333E" transform="translate(59,44)"/>
<path d="M0,0 L3,3 L5,2 L7,3 L7,6 L12,6 L11,12 L7,11 L6,14 L4,10 L-2,9 L-4,13 L-6,14 L-8,12 L-10,11 L-9,6 L-4,1 Z M6,6 Z " fill="#212D39" transform="translate(62,67)"/>
<path d="M0,0 L6,0 L5,3 L9,5 L15,6 L12,7 L12,9 L5,7 L0,8 L4,12 L-4,11 L-4,13 L2,15 L2,17 L-2,17 L-2,19 L-4,19 L-5,21 L-5,19 L-7,19 L-7,13 L-10,12 L-11,9 L-9,9 L-8,9 L-6,9 L-6,7 L-4,7 L-4,5 L-6,4 L0,4 Z " fill="#37424D" transform="translate(95,20)"/>
<path d="M0,0 L1,0 L3,19 L3,26 L2,35 L5,37 L15,38 L15,40 L6,40 L7,44 L-9,44 L-8,40 L-6,40 L-5,38 L-5,42 L-3,42 L-3,40 L-1,40 L1,37 L-1,35 L0,28 L1,22 L-1,15 L1,15 L0,11 Z " fill="#182734" transform="translate(122,86)"/>
<path d="M0,0 L6,1 L11,3 L11,1 L15,3 L21,7 L21,4 L25,6 L24,9 L24,7 L20,8 L19,11 L17,11 L17,13 L15,13 L15,15 L12,14 L9,7 L7,7 L7,5 L1,3 Z " fill="#12202D" transform="translate(90,30)"/>
<path d="M0,0 L4,0 L4,4 L9,4 L9,5 L4,5 L4,7 L-3,7 L-4,6 L-8,10 L-8,7 L-17,9 L-26,14 L-28,14 L-28,16 L-30,15 L-29,10 L-25,9 L-20,8 L-18,4 L-12,5 L-3,2 Z " fill="#515961" transform="translate(79,16)"/>
<path d="M0,0 L13,0 L41,1 L41,2 L31,3 L28,6 L16,6 L6,5 L2,4 Z " fill="#4A525A" transform="translate(87,130)"/>
<path d="M0,0 L1,3 L3,1 L4,5 L1,6 L4,6 L11,4 L10,8 L7,9 L7,11 L5,11 L5,13 L1,15 L-2,15 L-2,13 L0,13 L1,9 L-7,13 L-6,9 L-6,6 Z " fill="#3E4652" transform="translate(48,32)"/>
<path d="M0,0 L2,4 L-2,6 L-1,9 L1,10 L-11,10 L-11,13 L-26,13 L-26,12 L-14,12 L-14,9 L-12,9 L-11,5 L-8,1 L-1,1 Z " fill="#08131E" transform="translate(63,116)"/>
<path d="M0,0 L4,2 L2,28 L0,27 L-2,22 L-2,5 Z " fill="#18232E" transform="translate(38,76)"/>
<path d="M0,0 L1,2 L17,2 L21,3 L21,5 L25,6 L3,7 L3,5 L-4,5 L-5,1 Z " fill="#AEB1B5" transform="translate(13,124)"/>
<path d="M0,0 L1,0 L1,11 L-2,20 L0,25 L-7,29 L-6,25 L-2,25 L-2,23 L-9,25 L-13,27 L-11,22 L-6,20 L-5,10 L-3,10 Z " fill="#2F3943" transform="translate(28,95)"/>
<path d="M0,0 L16,1 L16,2 L5,3 L24,4 L24,5 L3,5 L2,7 L2,4 L-18,4 L-18,2 Z " fill="#D7DADC" transform="translate(33,131)"/>
<path d="M0,0 L5,0 L5,2 L10,2 L11,4 L5,4 L5,7 L7,8 L-14,7 L-11,6 L-11,3 L0,3 Z " fill="#CACCD0" transform="translate(152,122)"/>
<path d="M0,0 L4,5 L4,4 L6,3 L6,1 L10,1 L10,3 L12,3 L12,7 L8,8 L9,11 L8,13 L-1,11 L0,8 L-2,8 Z " fill="#1D2834" transform="translate(77,37)"/>
<path d="M0,0 L1,0 L1,16 L0,34 L-1,36 L-3,35 L-3,19 L-4,18 L-4,10 L-2,10 L-1,7 L-3,7 L-3,4 L-1,4 Z " fill="#1A242F" transform="translate(35,63)"/>
<path d="M0,0 L1,2 L0,4 L3,5 L3,7 L1,9 L4,14 L-1,15 L-5,14 L-6,22 L-7,22 L-8,14 L-6,8 L-3,8 L-3,5 Z " fill="#13212D" transform="translate(110,74)"/>
<path d="M0,0 L4,2 L0,4 L-2,4 L-2,11 L0,7 L1,12 L4,14 L7,13 L5,17 L1,20 L0,23 L3,24 L1,26 L0,32 L-1,32 L-2,15 L-4,12 L-4,3 L-3,1 Z " fill="#2A3641" transform="translate(108,87)"/>
<path d="M0,0 L2,0 L2,14 L1,16 L-1,16 L-1,27 L-3,27 L-4,17 L-4,7 L-1,5 Z " fill="#222E39" transform="translate(93,68)"/>
<path d="M0,0 L0,3 L-1,5 L4,2 L6,2 L5,6 L-1,8 L-5,15 L-6,16 L-5,18 L-7,23 L-10,23 L-9,16 L-4,3 Z " fill="#697177" transform="translate(43,39)"/>
<path d="M0,0 L3,0 L2,4 L1,6 L0,12 L-2,12 L-2,15 L-4,15 L-6,19 L-6,24 L-8,24 L-8,17 L-10,17 L-9,13 L-4,9 Z " fill="#1D2935" transform="translate(59,55)"/>
<path d="M0,0 L3,1 L6,0 L4,4 L3,6 L8,6 L12,8 L10,13 L9,11 L5,13 L5,11 L2,10 L2,7 L0,10 L-1,9 L-1,2 Z M8,13 L9,15 L7,14 Z " fill="#1C2834" transform="translate(106,89)"/>
<path d="M0,0 L4,0 L2,4 L-1,5 L-3,14 L-5,14 L-6,9 L-15,13 L-16,11 L-11,7 L-9,7 L-8,5 L-3,5 L-2,3 L-4,2 Z " fill="#212835" transform="translate(65,27)"/>
<path d="M0,0 L2,3 L2,10 L0,10 L-1,15 L-3,15 L-5,20 L-6,16 L-5,2 L-3,4 L-2,2 L0,2 Z " fill="#202D39" transform="translate(135,80)"/>
<path d="M0,0 L7,1 L16,7 L15,11 L10,9 L5,5 L5,7 L3,7 L3,5 L-2,3 Z " fill="#1D2A36" transform="translate(96,26)"/>
<path d="M0,0 L14,0 L13,2 L25,3 L25,5 L-20,3 L-20,2 Z " fill="#B9BEC1" transform="translate(90,133)"/>
<path d="M0,0 L2,1 L2,2 L5,0 L10,0 L10,2 L6,2 L7,7 L12,7 L11,9 L-2,8 L-2,6 L-5,5 L-2,5 L-1,1 Z " fill="#232C37" transform="translate(16,118)"/>
<path d="M0,0 L4,1 L-10,6 L-12,8 L-7,9 L-7,11 L-12,10 L-13,13 L-20,14 L-21,12 L-20,10 L-18,10 L-18,8 L-5,1 Z " fill="#858B90" transform="translate(69,22)"/>
<path d="M0,0 L1,2 L0,4 L3,3 L0,17 L-1,17 L-2,28 L-3,28 L-4,23 L-3,5 Z " fill="#37424C" transform="translate(44,76)"/>
<path d="M0,0 L23,0 L23,1 L17,2 L17,4 L9,4 L9,3 L3,3 L0,5 L-11,5 L-11,4 L-1,3 Z " fill="#999BA0" transform="translate(132,129)"/>
<path d="M0,0 L5,2 L6,6 L2,4 L2,2 L-1,4 L-8,6 L-15,6 L-17,5 L-17,3 L-13,1 L-10,1 L-10,3 L-1,1 Z " fill="#1E2C3A" transform="translate(91,123)"/>
<path d="M0,0 L1,2 L3,2 L2,6 L6,3 L8,5 L5,13 L3,9 L2,12 L-3,11 L-2,3 Z " fill="#424D57" transform="translate(64,32)"/>
<path d="M0,0 L1,0 L1,5 L7,7 L8,12 L-2,11 L-8,8 L-5,7 L-2,8 Z " fill="#192937" transform="translate(144,113)"/>
<path d="M0,0 L5,0 L3,4 L2,7 L4,7 L6,3 L10,5 L10,7 L12,8 L9,10 L2,9 L0,7 Z " fill="#121B25" transform="translate(41,57)"/>
<path d="M0,0 L1,0 L2,7 L5,9 L5,11 L3,11 L3,14 L1,14 L0,18 L-3,17 L-3,11 Z " fill="#2D3843" transform="translate(40,57)"/>
<path d="M0,0 L4,1 L3,2 L10,4 L10,6 L8,7 L6,10 L6,5 L2,5 L1,9 L-1,9 L-1,4 L-4,4 L-5,8 L-6,5 L-2,1 Z " fill="#3A4550" transform="translate(106,120)"/>
<path d="M0,0 L2,3 L4,8 L4,13 L5,16 L-4,15 L-3,11 L0,9 L0,6 L-2,5 Z " fill="#0F1A28" transform="translate(27,110)"/>
<path d="M0,0 L2,0 L2,2 L11,1 L9,4 L0,7 L1,10 L2,12 L-3,12 L-3,7 L-5,6 L-2,1 Z " fill="#323D48" transform="translate(44,45)"/>
<path d="M0,0 L3,0 L4,3 L2,8 L3,16 L1,20 L-4,20 L-1,10 Z " fill="#192632" transform="translate(94,89)"/>
<path d="M0,0 L2,2 L3,7 L3,14 L1,22 L1,27 L-4,26 L-10,27 L-9,24 L-3,23 L1,13 Z " fill="#414B55" transform="translate(80,87)"/>
<path d="M0,0 L3,1 L4,3 L11,1 L8,5 L10,9 L11,12 L7,10 L4,8 L1,11 L-1,11 L0,8 L2,7 Z " fill="#DCE0E4" transform="translate(75,53)"/>
<path d="M0,0 L2,0 L0,5 L-2,5 L1,9 L1,11 L-5,9 L-7,12 L-9,12 L-8,8 L-7,4 L-8,1 L-5,2 L-5,4 Z " fill="#D4D9DD" transform="translate(52,52)"/>
<path d="M0,0 L26,0 L26,1 L36,2 L36,3 L15,3 L15,1 L3,1 L3,3 L0,3 Z " fill="#B0B3B7" transform="translate(57,142)"/>
<path d="M0,0 L4,1 L3,4 L-8,10 L-10,10 L-10,12 L-12,11 L-11,6 L-7,5 L-2,4 Z " fill="#414851" transform="translate(61,20)"/>
<path d="M0,0 L1,2 L4,3 L2,9 L1,11 L4,11 L4,15 L7,17 L2,16 L-1,12 L-1,7 L-3,8 L-2,4 L0,4 Z " fill="#323C47" transform="translate(79,27)"/>
<path d="M0,0 L2,0 L4,2 L13,6 L13,8 L9,8 L9,10 L7,10 L6,12 L6,10 L4,10 L4,4 L1,3 Z " fill="#28333E" transform="translate(84,29)"/>
<path d="M0,0 L4,0 L4,5 L14,4 L21,5 L21,6 L-3,6 L-1,5 Z " fill="#07111C" transform="translate(108,125)"/>
<path d="M0,0 L1,2 L3,2 L0,12 L-2,20 L-4,16 L-2,6 Z " fill="#6B7279" transform="translate(27,89)"/>
<path d="M0,0 L4,5 L7,12 L-1,11 L0,8 L-2,8 Z " fill="#212E3B" transform="translate(77,37)"/>
<path d="M0,0 L5,0 L4,6 L-11,6 L-11,3 L0,3 Z " fill="#83888E" transform="translate(152,122)"/>
<path d="M0,0 L2,1 L2,17 L1,17 L-1,8 L-4,8 L-4,3 Z " fill="#46525D" transform="translate(31,81)"/>
<path d="M0,0 L2,1 L1,9 L-2,15 L-8,20 L-11,19 L-6,14 L-2,11 L-1,2 Z " fill="#2F3B45" transform="translate(57,50)"/>
<path d="M0,0 L10,1 L10,3 L-12,3 L-12,1 Z " fill="#B1B4B8" transform="translate(57,137)"/>
<path d="M0,0 L10,0 L13,3 L-6,3 L-6,1 Z " fill="#9B9FA5" transform="translate(21,132)"/>
<path d="M0,0 L5,2 L12,4 L12,2 L15,3 L13,6 L22,5 L21,7 L11,7 L0,2 Z " fill="#414B56" transform="translate(48,109)"/>
<path d="M0,0 L1,2 L3,2 L4,6 L-3,10 L-2,6 L2,6 L2,4 L-5,6 L-9,8 L-7,3 Z " fill="#576169" transform="translate(24,114)"/>
<path d="M0,0 L2,0 L3,10 L4,17 L2,18 L0,12 L-1,1 Z " fill="#303A45" transform="translate(130,59)"/>
<path d="M0,0 L3,3 L6,3 L5,8 L4,10 L2,10 L0,7 L-4,7 L-3,1 L-1,4 Z " fill="#28343F" transform="translate(40,99)"/>
<path d="M0,0 L4,0 L4,2 L6,3 L0,4 L0,2 L-3,3 L-22,2 L-22,1 Z " fill="#37414A" transform="translate(75,129)"/>
<path d="M0,0 L3,0 L3,3 L-3,5 L-4,8 L-10,6 L-7,3 Z " fill="#5D636A" transform="translate(66,24)"/>
<path d="M0,0 L2,1 L6,9 L7,13 L4,13 L3,15 L0,7 Z " fill="#222D39" transform="translate(76,74)"/>
<path d="M0,0 L2,0 L3,6 L-2,10 L-4,5 L-3,2 L-1,2 Z " fill="#25323D" transform="translate(63,56)"/>
<path d="M0,0 L1,3 L3,1 L4,5 L-2,8 L-7,9 L-5,5 Z " fill="#5A616A" transform="translate(48,32)"/>
<path d="M0,0 L7,1 L6,5 L5,7 L3,7 L3,5 L-2,3 Z " fill="#26313D" transform="translate(96,26)"/>
<path d="M0,0 L1,0 L3,7 L3,16 L1,17 L-1,7 Z " fill="#2A3641" transform="translate(135,94)"/>
<path d="M0,0 L4,2 L3,9 L1,9 L1,11 L-1,11 L-1,3 Z " fill="#091621" transform="translate(38,76)"/>
<path d="M0,0 L1,0 L1,16 L-2,12 L-1,7 L-3,7 L-3,4 L-1,4 Z " fill="#29323D" transform="translate(35,63)"/>
<path d="M0,0 L2,0 L2,4 L7,4 L7,5 L2,5 L2,7 L-5,7 L-3,3 Z " fill="#121923" transform="translate(81,16)"/>
<path d="M0,0 L9,1 L11,3 L-1,3 L-11,2 L-11,1 Z " fill="#666C73" transform="translate(104,133)"/>
<path d="M0,0 L10,0 L10,1 L3,3 L0,5 L-11,5 L-11,4 L-1,3 Z " fill="#4C5259" transform="translate(132,129)"/>
<path d="M0,0 L1,0 L1,10 L-3,10 L-5,6 L-1,4 Z " fill="#0E1620" transform="translate(55,51)"/>
<path d="M0,0 L4,0 L2,4 L-1,5 L-2,8 L-5,7 L-2,3 L-4,2 Z " fill="#1C2431" transform="translate(65,27)"/>
<path d="M0,0 L2,0 L2,2 L11,1 L9,4 L1,6 L-1,4 L1,4 L1,2 L-2,3 L-2,1 Z " fill="#25303D" transform="translate(44,45)"/>
<path d="M0,0 L7,0 L6,2 L-1,2 L-1,4 L1,5 L-2,6 L-6,4 L-4,4 L-4,1 Z " fill="#38444F" transform="translate(36,122)"/>
<path d="M0,0 L6,2 L7,7 L-1,6 L2,4 L0,3 Z " fill="#212E3B" transform="translate(145,118)"/>
<path d="M0,0 L4,5 L4,10 L2,10 L2,16 L1,16 L0,5 L-1,1 Z " fill="#1F2B36" transform="translate(90,74)"/>
<path d="M0,0 L2,0 L2,2 L5,1 L5,4 L0,6 L-1,8 L-2,2 L0,2 Z M6,1 Z " fill="#0D1D2C" transform="translate(49,77)"/>
<path d="M0,0 L2,0 L1,4 L-4,6 L-7,5 L-7,3 Z " fill="#5F6870" transform="translate(57,36)"/>
<path d="M0,0 L5,2 L11,3 L8,4 L8,6 L-1,3 L-3,1 Z " fill="#464F58" transform="translate(99,23)"/>
<path d="M0,0 L9,0 L13,1 L13,3 L3,3 L0,2 Z " fill="#787D82" transform="translate(21,126)"/>
<path d="M0,0 L1,2 L-1,9 L2,10 L0,12 L-1,18 L-2,18 L-2,3 Z " fill="#45505B" transform="translate(109,101)"/>
<path d="M0,0 L1,0 L1,11 L-3,14 L-2,6 Z " fill="#38424B" transform="translate(28,95)"/>
<path d="M0,0 L1,4 L4,4 L2,9 L1,14 L0,14 L-1,3 Z " fill="#182532" transform="translate(82,80)"/>
<path d="M0,0 L2,0 L4,4 L-3,7 L-2,2 Z " fill="#444E59" transform="translate(55,71)"/>
<path d="M0,0 L1,3 L0,13 L0,18 L-2,15 L-2,2 Z " fill="#4C565D" transform="translate(38,61)"/>
<path d="M0,0 L3,2 L4,6 L8,9 L8,11 L9,13 L5,11 L3,7 L1,7 Z " fill="#26323C" transform="translate(68,56)"/>
<path d="M0,0 L2,3 L4,8 L4,11 L0,9 L0,6 L-2,5 Z " fill="#162534" transform="translate(27,110)"/>
<path d="M0,0 L11,3 L10,5 L3,4 L0,3 Z " fill="#1E2934" transform="translate(52,113)"/>
<path d="M0,0 L4,0 L4,4 L2,4 L3,10 L1,10 L-1,4 Z " fill="#192632" transform="translate(37,105)"/>
<path d="M0,0 L4,4 L2,6 L-4,5 L-2,1 Z " fill="#1B2833" transform="translate(110,83)"/>
<path d="M0,0 L3,0 L2,4 L0,8 L-3,9 Z " fill="#151F2B" transform="translate(59,55)"/>
<path d="M0,0 L5,1 L6,7 L3,7 L2,4 L0,3 Z " fill="#313B46" transform="translate(120,41)"/>
<path d="M0,0 L6,0 L9,3 L8,4 L3,4 L0,2 Z " fill="#1C2531" transform="translate(107,27)"/>
<path d="M0,0 L5,2 L3,7 L2,5 L-1,4 Z M1,7 L2,9 L0,8 Z " fill="#12212F" transform="translate(113,95)"/>
<path d="M0,0 L1,0 L1,7 L-2,10 L-3,6 Z " fill="#192734" transform="translate(47,80)"/>
<path d="M0,0 L1,2 L0,4 L3,4 L3,8 L6,10 L1,9 L-2,5 Z " fill="#525A63" transform="translate(80,34)"/>
<path d="M0,0 L5,1 L3,6 L1,5 Z M-1,5 L1,5 L3,10 L0,9 Z " fill="#202D39" transform="translate(102,35)"/>
<path d="M0,0 L5,2 L6,6 L2,4 L2,2 L-1,4 L-4,4 L-4,2 Z " fill="#1B2934" transform="translate(91,123)"/>
<path d="M0,0 L2,0 L2,5 L-3,4 L-9,5 L-8,2 L0,2 Z " fill="#2D3741" transform="translate(79,109)"/>
<path d="M0,0 L4,1 L-2,6 L-4,9 L-5,6 L-4,4 L-2,4 L-2,1 Z " fill="#1B2633" transform="translate(45,67)"/>
<path d="M0,0 L8,4 L6,5 L6,7 L3,7 L3,5 L0,4 Z " fill="#182532" transform="translate(71,44)"/>
<path d="M0,0 L0,3 L-6,14 L-7,11 L-3,2 Z " fill="#757C82" transform="translate(43,39)"/>
<path d="M0,0 L4,1 L5,5 L3,4 L3,7 L-2,7 Z " fill="#5E6870" transform="translate(83,27)"/>
<path d="M0,0 L6,2 L10,5 L2,4 L1,6 L-2,2 L0,2 Z " fill="#323D48" transform="translate(89,27)"/>
<path d="M0,0 L3,1 L2,2 L6,4 L-3,4 L-3,2 L-5,1 Z " fill="#999DA3" transform="translate(118,133)"/>
<path d="M0,0 L11,0 L10,2 L5,1 L5,3 L0,3 Z " fill="#434952" transform="translate(52,126)"/>
<path d="M0,0 L6,0 L8,2 L3,2 L2,4 L-2,4 L-2,2 Z " fill="#D6D8D9" transform="translate(5,123)"/>
<path d="M0,0 L1,0 L1,9 L-3,9 Z " fill="#404853" transform="translate(93,100)"/>
<path d="M0,0 L5,0 L4,6 L0,5 L-1,1 Z " fill="#192530" transform="translate(69,73)"/>
<path d="M0,0 L2,0 L1,4 L-4,8 L-7,7 L-2,2 Z " fill="#44505A" transform="translate(53,62)"/>
<path d="M0,0 L1,2 L7,2 L5,7 L2,7 L2,3 L0,3 Z " fill="#16202C" transform="translate(87,37)"/>
<path d="M0,0 L6,0 L2,5 L0,5 L-1,1 Z " fill="#0C1622" transform="translate(47,51)"/>
<path d="M0,0 L4,0 L4,2 L-5,4 L-6,7 L-5,2 Z " fill="#131E2A" transform="translate(49,49)"/>
<path d="M0,0 L2,1 L4,5 L3,8 L1,8 L-1,2 Z " fill="#2B3642" transform="translate(59,33)"/>
<path d="M0,0 L1,3 L3,3 L1,8 L-1,8 L0,4 L-2,4 Z " fill="#687076" transform="translate(67,30)"/>
<path d="M0,0 L3,0 L1,5 L-1,8 L-2,1 Z " fill="#29343F" transform="translate(46,70)"/>
<path d="M0,0 L4,2 L3,7 L0,6 Z " fill="#343D46" transform="translate(37,68)"/>
<path d="M0,0 L3,4 L3,8 L0,9 L-1,1 Z " fill="#10202F" transform="translate(127,59)"/>
<path d="M0,0 L3,2 L3,4 L-1,4 L-2,7 L-4,6 L-4,3 L-1,3 Z " fill="#202C38" transform="translate(88,50)"/>
<path d="M0,0 L2,0 L3,4 L0,4 L-1,6 L-3,6 L-3,2 Z " fill="#1E2A35" transform="translate(58,39)"/>
<path d="M0,0 L3,0 L3,3 L-5,5 L-4,2 Z " fill="#555E66" transform="translate(66,24)"/>
<path d="M0,0 L4,1 L3,4 L-2,5 Z " fill="#2E3640" transform="translate(61,20)"/>
<path d="M0,0 L3,0 L1,6 L-3,6 L-1,2 Z " fill="#121F2C" transform="translate(112,89)"/>
<path d="M0,0 L2,4 L2,9 L0,10 L-1,1 Z " fill="#28343F" transform="translate(67,71)"/>
<path d="M0,0 L2,0 L2,2 L0,2 L0,8 L-2,8 L-2,4 L-4,4 L-3,2 Z " fill="#172734" transform="translate(124,53)"/>
<path d="M0,0 L3,0 L3,2 L-1,4 L-5,4 L-5,2 Z " fill="#313D47" transform="translate(84,125)"/>
<path d="M0,0 L3,0 L1,6 L-4,5 L-1,3 Z " fill="#132231" transform="translate(102,124)"/>
<path d="M0,0 L5,0 L5,2 L1,2 L0,4 L-3,3 Z " fill="#27323F" transform="translate(21,118)"/>
<path d="M0,0 L3,0 L5,0 L3,4 L-1,6 Z " fill="#333E48" transform="translate(110,100)"/>
<path d="M0,0 L4,0 L2,4 L0,5 L-3,1 Z " fill="#152636" transform="translate(56,76)"/>
<path d="M0,0 L2,0 L2,2 L0,2 L0,5 L-5,3 L-5,1 Z " fill="#26313D" transform="translate(43,66)"/>
<path d="M0,0 L2,0 L3,3 L0,6 L-3,5 L-2,2 L0,2 Z " fill="#8A9196" transform="translate(51,30)"/>
<path d="M0,0 L6,0 L4,4 L0,3 Z " fill="#161C26" transform="translate(95,20)"/>
</svg>
