<?xml version="1.0" encoding="UTF-8"?>
<!-- Generator: visioncortex VTracer 0.6.5 -->
<svg version="1.1" xmlns="http://www.w3.org/2000/svg" width="142" height="160">
<path d="M0,0 L142,0 L142,160 L0,160 Z " fill="#F4F4F5" transform="translate(0,0)"/>
<path d="M0,0 L13,0 L17,3 L17,9 L16,7 L14,7 L12,13 L7,14 L10,17 L11,14 L18,15 L19,19 L14,23 L5,23 L4,25 L9,28 L14,37 L15,42 L14,58 L12,64 L10,64 L9,78 L10,83 L15,81 L22,79 L20,74 L19,73 L18,61 L20,51 L25,44 L25,40 L31,35 L32,31 L41,30 L41,28 L45,29 L53,31 L55,31 L58,36 L60,38 L59,51 L54,51 L56,53 L55,57 L50,60 L49,58 L42,56 L38,56 L36,63 L37,70 L38,74 L45,72 L45,76 L43,81 L42,91 L50,93 L52,96 L44,99 L43,101 L37,102 L37,104 L39,104 L43,109 L47,118 L48,129 L53,130 L55,132 L64,134 L60,136 L57,138 L57,139 L50,140 L49,141 L44,141 L44,143 L31,144 L31,145 L25,146 L25,147 L19,148 L-28,148 L-29,146 L-36,145 L-36,144 L-45,143 L-45,142 L-50,141 L-50,139 L-64,139 L-62,135 L-64,134 L-55,133 L-53,129 L-50,128 L-51,120 L-47,109 L-46,105 L-48,99 L-53,97 L-52,94 L-45,95 L-40,100 L-36,97 L-38,93 L-41,90 L-44,82 L-44,71 L-38,58 L-38,52 L-43,51 L-45,51 L-45,53 L-50,53 L-54,54 L-56,52 L-56,48 L-54,48 L-53,45 L-49,45 L-47,38 L-49,38 L-49,40 L-51,40 L-51,37 L-53,37 L-54,40 L-55,37 L-57,37 L-57,39 L-59,39 L-60,34 L-57,29 L-50,27 L-34,27 L-34,30 L-28,30 L-26,33 L-28,33 L-22,40 L-21,47 L-20,53 L-21,60 L-24,68 L-26,68 L-25,78 L-22,82 L-16,82 L-14,86 L-12,86 L-13,82 L-13,73 L-10,64 L-6,56 L-4,52 L-4,41 L-8,37 L-9,40 L-11,40 L-12,38 L-18,36 L-22,30 L-22,18 L-19,15 L-17,10 L-11,7 L-11,4 L-8,2 Z " fill="#0B1926" transform="translate(70,8)"/>
<path d="M0,0 L16,0 L16,3 L22,3 L24,6 L22,6 L28,13 L29,20 L30,26 L29,33 L26,41 L24,41 L24,46 L22,43 L19,47 L20,54 L18,54 L17,58 L15,58 L14,61 L12,61 L12,64 L16,66 L21,70 L24,69 L24,71 L22,71 L22,73 L26,75 L21,74 L20,77 L22,77 L21,81 L15,83 L7,83 L6,85 L13,86 L17,90 L21,93 L19,93 L19,95 L28,94 L33,96 L30,97 L30,99 L32,99 L32,101 L28,103 L21,103 L22,108 L19,107 L19,102 L16,103 L16,101 L12,104 L11,99 L7,100 L7,98 L5,98 L3,102 L2,100 L0,100 L-1,93 L3,82 L4,78 L2,72 L-3,70 L-2,67 L5,68 L10,73 L14,70 L12,66 L9,63 L6,55 L6,44 L12,31 L12,25 L7,24 L5,24 L5,26 L0,26 L-4,27 L-6,25 L-6,21 L-4,21 L-3,18 L1,18 L3,11 L1,11 L1,13 L-1,13 L-1,10 L-3,10 L-4,13 L-5,10 L-7,10 L-7,12 L-9,12 L-10,7 L-7,2 Z " fill="#12212E" transform="translate(20,35)"/>
<path d="M0,0 L4,1 L12,3 L14,3 L17,8 L19,10 L18,23 L13,23 L15,25 L14,29 L9,32 L8,30 L1,28 L-3,28 L-5,35 L-4,42 L-3,46 L4,44 L4,48 L2,53 L1,63 L9,65 L11,68 L1,67 L1,65 L-1,65 L-2,71 L-7,75 L-6,70 L-4,70 L-3,62 L-7,63 L-9,65 L-8,68 L-13,69 L-13,67 L-23,68 L-24,72 L-27,73 L-27,66 L-22,62 L-20,58 L-18,58 L-18,53 L-23,53 L-19,51 L-21,46 L-22,45 L-23,33 L-21,23 L-16,16 L-16,12 L-10,7 L-9,3 L0,2 Z " fill="#172532" transform="translate(111,36)"/>
<path d="M0,0 L4,1 L12,3 L14,3 L17,8 L19,10 L18,23 L13,23 L15,25 L14,29 L9,32 L8,30 L-2,27 L0,26 L-3,18 L-2,25 L-6,21 L-8,17 L-10,17 L-9,20 L-7,20 L-7,22 L-9,22 L-11,27 L-12,23 L-13,21 L-15,25 L-17,25 L-18,35 L-17,36 L-15,37 L-15,39 L-17,39 L-17,41 L-19,41 L-20,45 L-22,45 L-23,33 L-21,23 L-16,16 L-16,12 L-10,7 L-9,3 L0,2 Z " fill="#35424D" transform="translate(111,36)"/>
<path d="M0,0 L8,1 L8,2 L-4,4 L9,5 L11,6 L11,4 L20,5 L39,5 L44,4 L44,3 L53,3 L53,1 L62,2 L58,4 L55,6 L55,7 L48,8 L47,9 L42,9 L42,11 L29,12 L29,13 L23,14 L23,15 L17,16 L-30,16 L-31,14 L-38,13 L-38,12 L-47,11 L-47,10 L-52,9 L-52,7 L-66,7 L-64,3 L-66,2 L-58,1 L-58,2 L-47,3 L-38,6 L-38,7 L-9,7 L-7,5 L-9,4 L-9,2 Z " fill="#5F6469" transform="translate(72,140)"/>
<path d="M0,0 L2,1 L1,6 L2,11 L2,15 L0,15 L1,18 L-6,19 L-6,21 L-1,21 L-1,24 L-5,25 L-5,29 L0,28 L0,33 L-2,33 L-2,36 L2,38 L7,42 L10,41 L10,43 L8,43 L8,45 L12,47 L7,46 L6,49 L8,49 L7,53 L1,55 L-7,55 L-8,57 L-1,58 L3,62 L7,65 L5,65 L5,67 L14,66 L19,68 L16,69 L16,71 L18,71 L18,73 L14,75 L7,75 L8,80 L5,79 L5,74 L2,75 L2,73 L-2,76 L-3,71 L-7,72 L-7,70 L-9,70 L-11,74 L-12,72 L-14,72 L-15,65 L-11,54 L-10,50 L-12,44 L-17,42 L-16,39 L-9,40 L-4,45 L0,42 L-2,38 L-5,35 L-8,27 L-8,16 L-2,3 L0,3 Z " fill="#25313D" transform="translate(34,63)"/>
<path d="M0,0 L13,0 L17,3 L17,9 L16,7 L14,7 L12,13 L7,14 L10,17 L11,14 L18,15 L19,19 L14,23 L4,23 L5,19 L1,15 L2,11 L5,8 L0,8 L-1,6 L-3,7 L-3,5 L-5,5 L-5,11 L-2,12 L-3,16 L-5,16 L-7,14 L-12,15 L-15,19 L-17,24 L-17,26 L-8,24 L-9,29 L-14,31 L-16,28 L-19,29 L-20,31 L-22,24 L-22,18 L-19,15 L-17,10 L-11,7 L-11,4 L-8,2 Z " fill="#333F4A" transform="translate(70,8)"/>
<path d="M0,0 L1,0 L1,5 L7,6 L7,10 L5,10 L5,12 L7,13 L5,13 L3,17 L-1,25 L-5,29 L-1,30 L-2,40 L-2,42 L5,44 L1,46 L0,54 L5,55 L1,57 L-4,58 L-6,61 L-7,62 L-6,64 L-15,65 L-15,62 L-12,59 L-8,49 L-8,43 L-10,42 L-10,29 L-7,20 L-3,12 L-1,8 Z " fill="#2D3842" transform="translate(67,52)"/>
<path d="M0,0 L16,0 L16,4 L18,5 L12,6 L9,11 L10,18 L11,23 L5,24 L5,26 L0,26 L-4,27 L-6,25 L-6,21 L-4,21 L-3,18 L1,18 L3,11 L1,11 L1,13 L-1,13 L-1,10 L-3,10 L-4,13 L-5,10 L-7,10 L-7,12 L-9,12 L-10,7 L-7,2 Z " fill="#172430" transform="translate(20,35)"/>
<path d="M0,0 L8,1 L8,2 L-4,4 L9,5 L11,6 L11,4 L16,4 L19,6 L43,7 L43,8 L-4,8 L-4,10 L-7,11 L-47,11 L-47,10 L-52,9 L-52,7 L-66,7 L-64,3 L-66,2 L-58,1 L-58,2 L-47,3 L-38,6 L-38,7 L-9,7 L-7,5 L-9,4 L-9,2 Z " fill="#4D565D" transform="translate(72,140)"/>
<path d="M0,0 L2,3 L3,5 L4,16 L9,17 L11,19 L11,22 L5,23 L5,24 L-3,25 L-22,25 L-22,24 L-11,23 L-11,21 L-9,21 L-11,16 L-15,15 L-17,16 L-17,14 L-19,14 L-20,16 L-23,13 L-24,15 L-26,15 L-24,11 L-21,9 L-10,10 L-10,6 L-3,7 L1,9 L0,8 Z M-9,7 Z " fill="#15222E" transform="translate(114,121)"/>
<path d="M0,0 L3,0 L3,3 L5,4 L7,6 L7,16 L14,16 L18,20 L8,19 L8,17 L6,17 L5,23 L0,27 L1,22 L3,22 L4,14 L0,15 L-2,17 L-1,20 L-6,21 L-6,19 L-16,20 L-17,24 L-20,25 L-20,18 L-12,16 L-12,14 L-10,13 L-9,7 L-6,7 L-6,4 L-2,1 Z " fill="#14222F" transform="translate(104,84)"/>
<path d="M0,0 L6,0 L8,1 L10,4 L14,4 L16,4 L17,9 L19,10 L19,14 L14,14 L10,13 L2,11 L-11,10 L-5,3 L-1,2 Z " fill="#17222D" transform="translate(23,133)"/>
<path d="M0,0 L6,0 L8,3 L6,3 L10,9 L5,15 L1,16 L-1,20 L-7,19 L-7,10 L-8,7 L-4,2 Z " fill="#101D29" transform="translate(36,38)"/>
<path d="M0,0 L1,0 L1,5 L7,6 L7,10 L5,10 L5,12 L7,13 L5,13 L3,17 L-1,25 L-5,29 L-3,31 L-5,34 L-7,33 L-7,39 L-10,38 L-10,29 L-7,20 L-3,12 L-1,8 Z " fill="#474F58" transform="translate(67,52)"/>
<path d="M0,0 L4,2 L7,7 L8,12 L7,28 L3,33 L0,33 L-1,31 L2,23 L2,20 L0,20 L-2,16 L-3,11 L-1,9 L2,10 L2,8 L-2,7 Z M-2,12 Z " fill="#0B1622" transform="translate(77,38)"/>
<path d="M0,0 L2,1 L1,14 L-4,14 L-2,16 L-3,20 L-8,23 L-9,21 L-12,19 L-11,17 L-9,16 L-9,14 L-16,14 L-17,13 L-17,8 L-12,6 L-4,9 L-6,5 L-4,3 L0,3 Z " fill="#07101B" transform="translate(128,45)"/>
<path d="M0,0 L3,1 L3,10 L12,8 L11,12 L9,12 L9,17 L7,14 L4,18 L5,25 L3,25 L2,29 L0,29 L-1,31 L-2,28 L-6,28 L-7,23 L-2,23 L-2,20 L-7,20 L-7,18 L-1,16 L-1,14 L1,14 L1,10 L-1,9 L1,9 L1,6 L-1,5 Z " fill="#1C2835" transform="translate(35,64)"/>
<path d="M0,0 L4,2 L11,6 L8,7 L6,6 L6,11 L8,8 L10,8 L8,13 L4,16 L2,16 L2,21 L0,21 L-1,19 L-7,17 L-11,11 L-11,5 L-10,5 L-9,10 L-4,8 L-2,11 L2,10 L3,5 L-3,6 L-1,1 Z " fill="#18242E" transform="translate(59,27)"/>
<path d="M0,0 L6,3 L5,6 L3,10 L3,12 L6,13 L6,15 L2,16 L4,25 L6,25 L6,19 L7,19 L7,28 L3,28 L2,26 L-5,24 L-8,15 L-8,12 L-4,11 L0,12 L0,5 L-2,1 Z M2,17 Z " fill="#192531" transform="translate(73,33)"/>
<path d="M0,0 L2,3 L5,7 L4,1 L6,2 L8,7 L8,10 L3,15 L2,18 L-3,19 L-6,18 L-6,13 L-9,11 L-9,9 L-7,9 L-5,3 L-3,7 L-3,10 L-1,6 L1,6 L1,4 L-2,5 L-2,1 Z " fill="#0B1724" transform="translate(103,52)"/>
<path d="M0,0 L2,4 L9,2 L9,6 L7,11 L6,21 L5,21 L4,12 L1,10 L1,6 L-6,9 L-7,14 L-10,14 L-12,20 L-14,20 L-14,22 L-21,25 L-20,22 L-17,20 L-15,16 L-13,16 L-13,11 L-18,11 L-18,10 L-9,8 L-1,4 Z " fill="#293542" transform="translate(106,78)"/>
<path d="M0,0 L2,1 L1,6 L2,11 L2,15 L0,15 L1,18 L-6,19 L-6,21 L-1,21 L-1,24 L-5,25 L-3,32 L-4,35 L-6,32 L-8,27 L-8,16 L-2,3 L0,3 Z " fill="#4B535C" transform="translate(34,63)"/>
<path d="M0,0 L1,0 L1,5 L-1,5 L-1,8 L3,10 L8,14 L11,13 L11,15 L9,15 L9,17 L13,19 L8,18 L7,21 L9,21 L8,25 L2,27 L-1,26 L-1,21 L1,17 L1,14 L-1,10 L-3,6 L-3,1 Z " fill="#1A2735" transform="translate(33,91)"/>
<path d="M0,0 L9,1 L5,3 L2,5 L2,6 L-5,7 L-11,9 L-30,8 L-34,6 L-39,5 L-39,4 L-14,4 L-9,3 L-9,2 L0,2 Z " fill="#A1A4A9" transform="translate(125,141)"/>
<path d="M0,0 L3,0 L2,5 L-2,6 L-2,9 L-4,9 L-4,12 L-5,13 L-4,15 L-11,18 L-14,20 L-16,20 L-17,24 L-20,25 L-20,18 L-12,16 L-12,14 L-10,13 L-9,7 L-6,7 L-6,4 L-2,1 Z " fill="#15222F" transform="translate(104,84)"/>
<path d="M0,0 L2,0 L1,10 L1,12 L8,14 L4,16 L3,23 L-2,20 L-4,15 L-5,13 L-7,12 L-6,7 L-4,3 L-2,3 Z " fill="#232E39" transform="translate(64,82)"/>
<path d="M0,0 L6,0 L6,2 L11,1 L13,3 L12,5 L14,6 L12,6 L12,10 L7,11 L7,9 L5,9 L3,13 L2,11 L0,11 L-1,4 Z " fill="#3E4751" transform="translate(20,124)"/>
<path d="M0,0 L8,0 L8,5 L5,7 L5,10 L2,11 L-3,9 L-4,15 L-7,18 L-9,17 L-6,14 L-5,3 Z " fill="#162532" transform="translate(85,89)"/>
<path d="M0,0 L6,1 L1,11 L0,16 L7,13 L10,13 L9,18 L4,20 L2,17 L-1,18 L-2,20 L-4,13 L-4,7 L-1,4 Z " fill="#4C555F" transform="translate(52,19)"/>
<path d="M0,0 L19,0 L39,1 L39,2 L33,3 L-14,3 L-15,1 Z " fill="#999CA1" transform="translate(56,153)"/>
<path d="M0,0 L2,2 L3,6 L3,0 L7,4 L8,4 L8,12 L7,15 L-2,17 L-3,10 L-2,8 L-4,7 L-1,5 L0,4 Z " fill="#0C1824" transform="translate(40,57)"/>
<path d="M0,0 L2,0 L3,5 L2,7 L0,7 L-1,17 L0,18 L2,19 L2,21 L0,21 L0,23 L-2,23 L-3,27 L-5,27 L-6,15 L-4,5 Z " fill="#505A62" transform="translate(94,54)"/>
<path d="M0,0 L1,4 L-1,10 L1,12 L3,11 L3,18 L0,25 L-3,25 L-4,18 L-8,17 L-6,17 L-6,9 L-5,7 L-2,7 Z " fill="#0C1823" transform="translate(76,62)"/>
<path d="M0,0 L6,0 L6,3 L4,11 L-11,10 L-5,3 L-1,2 Z " fill="#1A242F" transform="translate(23,133)"/>
<path d="M0,0 L1,4 L1,6 L3,6 L4,13 L-4,16 L-7,10 L-7,4 L-3,5 L-3,3 L-1,3 Z " fill="#252E39" transform="translate(97,72)"/>
<path d="M0,0 L5,0 L5,1 L16,2 L21,4 L21,7 L11,8 L11,6 L-3,6 L-1,2 L-3,1 Z " fill="#777E86" transform="translate(9,141)"/>
<path d="M0,0 L3,1 L4,6 L0,10 L2,12 L0,15 L-2,14 L-2,20 L-5,19 L-5,10 L-3,2 L-1,2 Z " fill="#5B646C" transform="translate(62,71)"/>
<path d="M0,0 L8,1 L6,5 L10,6 L8,6 L8,8 L3,7 L4,3 L-2,4 L-3,8 L-6,8 L-7,12 L-9,12 L-10,7 L-7,2 Z " fill="#4B545D" transform="translate(20,35)"/>
<path d="M0,0 L5,1 L5,3 L10,2 L10,5 L7,7 L8,12 L11,14 L8,16 L3,12 L1,8 L-1,7 Z " fill="#13202E" transform="translate(65,13)"/>
<path d="M0,0 L6,0 L5,3 L2,3 L3,5 L8,8 L8,9 L-6,10 L-5,2 Z " fill="#121E2A" transform="translate(112,41)"/>
<path d="M0,0 L7,1 L12,7 L10,11 L7,14 L4,5 L-1,3 Z " fill="#2F3B47" transform="translate(18,102)"/>
<path d="M0,0 L2,1 L0,7 L-3,7 L-5,13 L-7,13 L-7,15 L-14,18 L-13,15 L-10,13 L-8,9 L-6,9 L-6,4 L-11,4 L-11,3 L-2,1 Z " fill="#525A62" transform="translate(99,85)"/>
<path d="M0,0 L2,4 L3,11 L0,18 L-2,16 L-6,17 L-4,12 L-2,12 L-4,5 Z " fill="#0B1724" transform="translate(42,77)"/>
<path d="M0,0 L3,1 L1,1 L1,3 L5,4 L-7,9 L-9,11 L-14,11 L-10,6 L-9,3 L0,2 Z " fill="#555F67" transform="translate(111,36)"/>
<path d="M0,0 L3,0 L5,2 L1,7 L-2,8 L-4,13 L-9,15 L-7,8 L-3,1 L0,2 Z " fill="#111C28" transform="translate(60,21)"/>
<path d="M0,0 L2,1 Z M-1,1 L4,3 L4,12 L2,11 L2,9 L-3,9 L-3,7 L-5,7 L-5,9 L-7,9 L-7,6 L-5,6 L-5,3 Z " fill="#0E1C28" transform="translate(107,87)"/>
<path d="M0,0 L2,1 L1,6 L2,11 L2,15 L0,15 L1,18 L-4,19 L-2,13 L-5,12 L-2,3 L0,3 Z " fill="#293643" transform="translate(34,63)"/>
<path d="M0,0 L4,1 L4,2 L-3,4 L2,8 L-1,9 L-5,9 L-11,9 L-12,4 L-9,4 L-6,1 Z M-10,6 Z " fill="#1A2935" transform="translate(65,138)"/>
<path d="M0,0 L5,0 L8,2 L32,3 L32,4 L-4,4 L-4,2 L-13,2 L-13,1 L-2,1 L0,2 Z " fill="#353B44" transform="translate(83,144)"/>
<path d="M0,0 L4,1 L2,5 L2,10 L-5,12 L-8,16 L-9,12 L-2,4 Z " fill="#5E676F" transform="translate(31,107)"/>
<path d="M0,0 L4,5 L5,10 L4,26 L3,26 L3,21 L1,21 L1,11 L-1,1 Z " fill="#222E3A" transform="translate(80,40)"/>
<path d="M0,0 L5,1 L6,4 L2,8 L-1,9 L-3,13 L-7,12 L-3,9 L-1,1 Z " fill="#07121C" transform="translate(38,45)"/>
<path d="M0,0 L13,0 L9,3 L9,6 L-6,5 L-8,3 L0,1 Z " fill="#25303B" transform="translate(74,140)"/>
<path d="M0,0 L1,0 L1,5 L5,5 L4,10 L1,16 L-2,16 L-3,18 L-3,12 L-1,8 Z " fill="#6C737A" transform="translate(67,52)"/>
<path d="M0,0 L3,0 L5,0 L5,2 L12,1 L11,3 L6,5 L8,7 L3,9 L-1,8 L-2,3 L0,3 Z " fill="#2D3845" transform="translate(16,53)"/>
<path d="M0,0 L5,2 L6,3 L6,9 L5,7 L3,7 L2,9 L-5,7 L-4,3 L-3,2 Z " fill="#19232F" transform="translate(81,8)"/>
<path d="M0,0 L7,0 L10,9 L4,11 L1,2 Z " fill="#2A3640" transform="translate(64,46)"/>
<path d="M0,0 L2,3 L14,3 L15,1 L19,0 L20,3 L25,4 L26,2 L29,4 L28,5 L-3,5 L0,4 Z M20,1 Z " fill="#06101C" transform="translate(35,143)"/>
<path d="M0,0 L3,1 L3,3 L1,3 L3,5 L2,9 L-3,12 L-4,10 L-7,8 L-6,6 L-4,5 L-3,2 L0,2 Z " fill="#182432" transform="translate(123,56)"/>
<path d="M0,0 L1,0 L1,5 L-1,5 L-1,8 L3,10 L8,14 L11,13 L11,15 L9,15 L9,17 L13,19 L8,18 L3,14 L-2,9 L-3,4 L-3,1 Z " fill="#39444F" transform="translate(33,91)"/>
<path d="M0,0 L11,3 L13,6 L3,5 L3,3 L1,3 L0,9 L-5,13 L-4,8 L-2,8 Z " fill="#1F2F3D" transform="translate(109,98)"/>
<path d="M0,0 L2,1 L2,8 L0,13 L-1,11 L-3,11 L-4,8 L-6,7 L-4,3 L0,3 Z " fill="#1F2834" transform="translate(128,45)"/>
<path d="M0,0 L7,1 L8,3 L5,3 L5,5 L7,5 L7,7 L3,9 L-1,9 L-2,6 L1,2 Z " fill="#2C3843" transform="translate(45,129)"/>
<path d="M0,0 L3,1 L4,6 L2,6 L2,8 L8,8 L8,9 L-9,9 L-9,8 L-4,8 L-3,3 L-1,4 L1,2 L-1,1 Z " fill="#07111D" transform="translate(101,136)"/>
<path d="M0,0 L13,0 L10,6 L1,5 L-1,4 Z " fill="#0F1E2D" transform="translate(26,117)"/>
<path d="M0,0 L3,1 L3,10 L5,10 L5,15 L2,18 L-1,17 L-1,14 L1,14 L1,10 L-1,9 L1,9 L1,6 L-1,5 Z " fill="#14212F" transform="translate(35,64)"/>
<path d="M0,0 L3,1 L1,5 L-1,5 L-3,9 L-7,10 L-8,14 L-11,15 L-11,8 L-3,6 L-3,4 L-1,3 Z " fill="#303A45" transform="translate(95,94)"/>
<path d="M0,0 L2,0 L3,5 L2,7 L0,7 L-2,13 L-5,13 L-4,5 Z " fill="#5B646B" transform="translate(94,54)"/>
<path d="M0,0 L5,1 L6,5 L3,8 L-3,9 L-1,8 L-1,1 Z " fill="#0E1722" transform="translate(23,47)"/>
<path d="M0,0 L19,0 L19,1 L1,4 L-8,4 L-8,3 L0,2 Z " fill="#909599" transform="translate(68,148)"/>
<path d="M0,0 L2,0 L2,2 L9,2 L6,5 L3,8 L-3,9 L-4,11 L-3,7 Z " fill="#132030" transform="translate(110,101)"/>
<path d="M0,0 L3,0 L6,5 L4,5 L3,9 L1,9 L0,11 L-1,8 L-5,8 L-5,6 L-1,5 Z " fill="#1B2734" transform="translate(34,84)"/>
<path d="M0,0 L18,0 L18,3 L8,4 L8,2 L-6,2 L-6,1 Z " fill="#989CA0" transform="translate(12,145)"/>
<path d="M0,0 L3,1 L3,5 L-2,6 L-3,9 L-6,8 L-5,3 Z " fill="#0C1927" transform="translate(79,16)"/>
<path d="M0,0 L12,0 L12,4 L14,5 L6,4 L2,5 Z " fill="#313A44" transform="translate(24,35)"/>
<path d="M0,0 L2,3 L3,5 L4,17 L7,18 L3,18 L0,11 L-3,8 L1,9 L0,8 Z " fill="#283440" transform="translate(114,121)"/>
<path d="M0,0 L9,2 L10,5 L3,4 L1,7 L-2,4 L-3,6 L-5,6 L-3,2 Z " fill="#48535C" transform="translate(93,130)"/>
<path d="M0,0 L5,1 L4,4 L6,5 L4,5 L4,9 L0,8 L-2,6 Z " fill="#515A62" transform="translate(28,125)"/>
<path d="M0,0 L4,3 L6,9 L3,11 L0,11 L0,5 L-2,4 L0,4 Z M1,4 Z " fill="#0B1724" transform="translate(100,73)"/>
<path d="M0,0 L2,0 L1,6 L-3,7 L-3,11 L-5,11 L-5,13 L-7,12 L-6,7 L-4,3 L-2,3 Z " fill="#3D4751" transform="translate(64,82)"/>
<path d="M0,0 L1,4 L3,9 L2,20 L1,20 L-1,9 L-2,4 Z " fill="#3A434F" transform="translate(47,48)"/>
<path d="M0,0 L3,1 L0,6 L-1,8 L-3,8 L-2,13 L-5,12 L-5,5 Z " fill="#5F6970" transform="translate(44,130)"/>
<path d="M0,0 L4,4 L2,8 L-1,11 L-2,2 L0,2 Z " fill="#1E2834" transform="translate(26,105)"/>
<path d="M0,0 L2,2 L0,6 L3,8 L1,8 L1,12 L-2,13 L-3,11 L-1,11 L-1,8 L-6,7 L-3,6 L-1,1 Z " fill="#2A3743" transform="translate(67,74)"/>
<path d="M0,0 L27,1 L27,2 L13,3 L9,4 L9,2 L0,1 Z " fill="#E7E8E7" transform="translate(29,152)"/>
<path d="M0,0 L9,1 L5,3 L2,4 L-6,4 L-9,2 L0,2 Z " fill="#7A8089" transform="translate(125,141)"/>
<path d="M0,0 L6,2 L7,6 L2,2 L3,8 L1,5 L-3,4 L-5,5 L-5,3 L-7,2 L-2,1 L0,2 Z " fill="#28333C" transform="translate(102,132)"/>
<path d="M0,0 L2,1 L2,9 L3,11 L-3,12 L-3,14 L-7,12 L-4,9 L-1,8 Z " fill="#23303D" transform="translate(28,47)"/>
<path d="M0,0 L24,0 L22,3 L14,3 L14,2 L0,1 Z " fill="#E5E7E7" transform="translate(75,153)"/>
<path d="M0,0 L5,1 L4,8 L-1,10 L-2,8 L0,8 L-1,2 Z " fill="#28333E" transform="translate(93,63)"/>
<path d="M0,0 L4,0 L3,3 L1,3 L-2,6 L-4,10 L-5,7 L-7,7 L-6,4 L-3,5 L-2,1 Z " fill="#242E3A" transform="translate(20,38)"/>
<path d="M0,0 L2,1 L1,6 L2,10 L-3,10 L-4,8 L-2,3 L0,3 Z " fill="#5A646C" transform="translate(34,63)"/>
<path d="M0,0 L5,0 L2,7 L-2,6 Z " fill="#636B72" transform="translate(28,75)"/>
<path d="M0,0 L4,1 L3,6 L1,6 L0,8 L-2,6 L-3,1 Z " fill="#1E2934" transform="translate(47,111)"/>
<path d="M0,0 L4,0 L4,3 L6,3 L6,5 L2,7 L-6,7 L-6,5 L1,5 Z " fill="#192937" transform="translate(98,108)"/>
<path d="M0,0 L6,0 L6,2 L2,6 L0,8 L-2,2 Z " fill="#36404B" transform="translate(96,47)"/>
<path d="M0,0 L7,1 L8,3 L0,5 L-4,4 L-5,6 L-4,1 Z " fill="#38424D" transform="translate(26,120)"/>
<path d="M0,0 L2,4 L4,8 L2,8 L0,12 L-2,11 L-1,5 Z " fill="#575F69" transform="translate(60,96)"/>
<path d="M0,0 L4,0 L4,5 L2,8 L-2,8 L-2,4 L0,4 Z " fill="#2E3741" transform="translate(61,89)"/>
<path d="M0,0 L6,3 L2,4 L2,6 L0,6 L0,8 L-2,8 L-2,5 L-4,4 L-1,3 Z " fill="#101A26" transform="translate(21,40)"/>
<path d="M0,0 L4,1 L2,2 L2,4 L4,5 L-9,4 L-6,1 Z " fill="#646A71" transform="translate(30,145)"/>
<path d="M0,0 L5,4 L8,7 L5,7 L-1,4 L-2,8 L-3,4 Z " fill="#333F4B" transform="translate(45,87)"/>
<path d="M0,0 L2,1 L2,4 L0,4 L0,6 L2,7 L0,7 L-2,11 L-4,13 L-3,7 L-2,5 L-4,4 L-1,3 Z " fill="#333E49" transform="translate(72,58)"/>
<path d="M0,0 L8,1 L6,5 L10,6 L8,6 L8,8 L3,7 L3,2 Z " fill="#747B81" transform="translate(20,35)"/>
<path d="M0,0 L4,2 L5,5 L-3,6 L-1,1 Z " fill="#2A3540" transform="translate(59,27)"/>
<path d="M0,0 L4,2 L-3,12 L-4,12 L-4,7 L-1,4 Z " fill="#72777D" transform="translate(52,19)"/>
<path d="M0,0 L4,1 L0,8 L-3,8 L-3,5 Z " fill="#697179" transform="translate(31,107)"/>
<path d="M0,0 L3,0 L3,5 L0,8 L-2,8 L-1,1 Z " fill="#3D4852" transform="translate(90,66)"/>
<path d="M0,0 L5,0 L3,7 L-3,9 L-3,7 L-1,7 L1,2 Z " fill="#505961" transform="translate(62,10)"/>
<path d="M0,0 L2,0 L1,4 L-6,6 L-10,4 L-10,2 L-6,2 L-6,4 L-1,2 Z " fill="#1B2934" transform="translate(52,104)"/>
<path d="M0,0 L3,1 L1,6 L-2,6 L-3,8 L-3,2 Z " fill="#7B8186" transform="translate(67,62)"/>
<path d="M0,0 L9,1 L9,3 L-4,3 L0,2 Z " fill="#DADBDD" transform="translate(114,149)"/>
<path d="M0,0 L6,0 L8,2 L5,3 L-3,3 L-5,1 Z " fill="#0D151F" transform="translate(71,142)"/>
<path d="M0,0 L7,0 L11,4 L1,3 Z " fill="#323E4A" transform="translate(111,100)"/>
<path d="M0,0 L2,4 L-2,7 L-5,6 L-5,3 Z " fill="#1E2832" transform="translate(99,80)"/>
<path d="M0,0 L3,0 L2,5 L-3,7 L-3,1 Z " fill="#606870" transform="translate(59,32)"/>
<path d="M0,0 L4,1 L5,2 L5,7 L2,7 L0,5 L1,2 L-1,1 Z " fill="#14202E" transform="translate(51,90)"/>
<path d="M0,0 L3,0 L3,2 L-3,2 L-3,5 L-9,4 L-7,2 Z " fill="#D6D8DB" transform="translate(134,142)"/>
<path d="M0,0 L4,2 L4,4 L2,4 L2,10 L-1,7 L0,3 Z " fill="#434D57" transform="translate(34,105)"/>
<path d="M0,0 L6,0 L3,1 L3,6 L-2,7 L-3,4 L2,4 L2,1 Z " fill="#333E48" transform="translate(31,83)"/>
<path d="M0,0 L4,2 L2,4 L1,9 L-1,9 L-2,4 Z " fill="#606A71" transform="translate(12,38)"/>
<path d="M0,0 L3,1 L1,1 L1,3 L5,4 L1,6 L-2,6 L-2,4 L-6,2 L0,2 Z " fill="#6A757E" transform="translate(111,36)"/>
<path d="M0,0 L2,2 L-1,9 L-3,9 L-3,3 L-1,3 Z " fill="#192836" transform="translate(91,133)"/>
<path d="M0,0 L3,1 L0,8 L-2,8 L-3,2 L-1,2 Z " fill="#7F878D" transform="translate(62,71)"/>
<path d="M0,0 L2,0 L2,5 L-4,7 L-3,4 L-1,4 Z " fill="#16222E" transform="translate(103,45)"/>
<path d="M0,0 L9,0 L7,2 L2,4 L-1,3 Z " fill="#293642" transform="translate(102,39)"/>
<path d="M0,0 L6,0 L8,3 L6,3 L5,5 L1,3 Z " fill="#1E2934" transform="translate(36,38)"/>
<path d="M0,0 L4,1 L2,4 L3,6 L-3,6 Z " fill="#3F4B57" transform="translate(81,22)"/>
<path d="M0,0 L2,0 L5,3 L6,5 L5,7 L3,7 L1,4 L-3,2 Z " fill="#24303C" transform="translate(62,17)"/>
<path d="M0,0 L3,1 L0,6 L-2,6 L-2,8 L-4,8 L-4,5 L-2,3 L-2,1 Z " fill="#29323D" transform="translate(61,11)"/>
<path d="M0,0 L2,0 L2,3 L0,3 L-2,7 L-6,6 L-1,1 Z " fill="#434C56" transform="translate(18,136)"/>
<path d="M0,0 L5,0 L5,2 L3,2 L3,4 L0,5 L-2,4 Z " fill="#47535C" transform="translate(35,131)"/>
<path d="M0,0 L2,0 L4,2 L6,2 L6,5 L0,6 Z " fill="#242F3E" transform="translate(32,112)"/>
<path d="M0,0 L6,0 L6,3 L2,4 L1,6 L0,5 Z " fill="#60686E" transform="translate(27,84)"/>
<path d="M0,0 L4,1 L4,6 L2,6 L1,4 L-4,3 Z " fill="#333B44" transform="translate(57,42)"/>
<path d="M0,0 L1,0 L2,5 L6,5 L5,9 L2,10 L0,6 Z " fill="#343E48" transform="translate(48,32)"/>
<path d="M0,0 L6,0 L3,5 L1,9 Z " fill="#68727A" transform="translate(20,124)"/>
<path d="M0,0 L4,0 L3,2 L0,3 L0,5 L-2,5 L-3,7 L-3,5 L-5,5 L-4,2 L-1,2 Z " fill="#313C47" transform="translate(62,104)"/>
<path d="M0,0 L2,4 L4,5 L-5,8 L-5,6 L-1,4 Z " fill="#36414C" transform="translate(106,78)"/>
<path d="M0,0 L1,0 L1,5 L4,6 L5,11 L2,11 L0,6 Z " fill="#2F3840" transform="translate(90,76)"/>
<path d="M0,0 L5,1 L5,3 L3,3 L1,8 L0,4 Z " fill="#25323D" transform="translate(99,55)"/>
<path d="M0,0 L5,1 L6,4 L2,5 L-1,4 Z " fill="#1C2733" transform="translate(56,108)"/>
<path d="M0,0 L2,0 L1,7 L-3,5 L-3,3 L-1,3 Z " fill="#162330" transform="translate(66,98)"/>
<path d="M0,0 L3,0 L3,4 L5,4 L5,6 L1,7 Z " fill="#444D54" transform="translate(67,50)"/>
<path d="M0,0 L9,2 L8,4 L2,4 Z " fill="#313D48" transform="translate(112,37)"/>
<path d="M0,0 L0,3 L-7,5 L-9,4 L-4,1 Z " fill="#DFE1E3" transform="translate(122,103)"/>
<path d="M0,0 L2,4 L-3,9 L-4,6 L-2,6 Z " fill="#152230" transform="translate(98,55)"/>
<path d="M0,0 L1,4 L2,8 L-1,9 L-2,4 Z " fill="#293542" transform="translate(47,48)"/>
<path d="M0,0 L4,5 L3,8 L0,5 L-1,1 Z " fill="#36414B" transform="translate(80,40)"/>
<path d="M0,0 L3,1 L3,5 L-2,6 L-2,4 L0,4 Z " fill="#161F2D" transform="translate(79,16)"/>
<path d="M0,0 L9,1 L5,3 L0,2 Z " fill="#717680" transform="translate(125,141)"/>
<path d="M0,0 L3,1 L-2,6 L-4,4 Z " fill="#777F84" transform="translate(44,130)"/>
<path d="M0,0 L4,2 L4,4 L7,5 L1,5 L-1,4 Z " fill="#1E2937" transform="translate(26,117)"/>
<path d="M0,0 L5,5 L4,8 L2,7 L2,5 L0,5 Z " fill="#303B46" transform="translate(108,112)"/>
<path d="M0,0 L4,2 L4,4 L-2,5 L-1,1 Z " fill="#434C57" transform="translate(29,113)"/>
<path d="M0,0 L2,1 L1,6 L-2,6 L-2,2 L0,2 Z " fill="#0E1926" transform="translate(26,105)"/>
<path d="M0,0 L2,0 L2,2 L1,3 L2,5 L-4,6 L-2,5 L-2,1 Z " fill="#202D39" transform="translate(98,94)"/>
<path d="M0,0 L4,1 L4,4 L-1,4 Z " fill="#050F1A" transform="translate(105,92)"/>
<path d="M0,0 L3,1 L4,5 L-1,6 Z " fill="#040D19" transform="translate(43,67)"/>
<path d="M0,0 L2,0 L4,5 L1,6 L1,4 L-1,4 L-2,1 Z " fill="#273441" transform="translate(123,39)"/>
<path d="M0,0 L2,1 L1,5 L3,6 L0,9 L-1,4 Z " fill="#2F3943" transform="translate(32,130)"/>
<path d="M0,0 L3,2 L-1,5 L-5,4 Z " fill="#4C5761" transform="translate(85,89)"/>
<path d="M0,0 L5,2 L3,7 L2,4 L-1,3 Z " fill="#39434F" transform="translate(30,72)"/>
<path d="M0,0 L3,1 L3,7 L1,9 L1,6 L-1,5 Z " fill="#25303B" transform="translate(35,64)"/>
<path d="M0,0 L2,2 L0,8 L-2,7 L-2,3 L0,3 Z " fill="#4C5660" transform="translate(16,53)"/>
<path d="M0,0 L4,3 L4,6 L-1,5 Z " fill="#1E2A36" transform="translate(54,35)"/>
<path d="M0,0 L3,3 L1,3 L1,5 L-3,7 L-1,1 Z " fill="#1B2733" transform="translate(57,22)"/>
</svg>
