<?xml version="1.0" encoding="UTF-8"?>
<!-- Generator: visioncortex VTracer 0.6.5 -->
<svg version="1.1" xmlns="http://www.w3.org/2000/svg" width="199" height="160">
<path d="M0,0 L199,0 L199,160 L0,160 Z " fill="#F5F5F5" transform="translate(0,0)"/>
<path d="M0,0 L6,2 L14,6 L12,12 L17,13 L19,16 L12,15 L14,21 L17,27 L16,29 L13,26 L2,25 L3,33 L6,34 L7,40 L3,41 L3,44 L14,43 L23,43 L23,44 L11,46 L4,45 L7,50 L11,53 L16,55 L21,60 L22,65 L22,72 L19,78 L14,83 L10,90 L20,88 L26,83 L32,79 L34,74 L32,74 L32,67 L26,67 L24,66 L24,64 L31,65 L35,56 L36,54 L32,52 L30,46 L24,45 L28,44 L29,42 L30,45 L36,46 L39,48 L39,50 L46,45 L46,44 L53,44 L62,43 L60,32 L63,35 L64,37 L64,43 L66,43 L65,48 L71,48 L76,52 L76,54 L73,55 L79,63 L81,69 L78,69 L79,73 L79,85 L76,85 L75,93 L78,97 L79,105 L77,112 L72,117 L70,117 L73,122 L78,121 L82,125 L85,126 L85,128 L88,128 L87,132 L84,132 L84,134 L75,136 L75,139 L58,139 L58,141 L62,143 L57,144 L-2,144 L-2,142 L-5,144 L-18,144 L-18,142 L-29,143 L-29,144 L-52,144 L-52,142 L-55,142 L-55,140 L-57,140 L-57,142 L-73,143 L-91,143 L-91,142 L-81,142 L-81,140 L-92,141 L-92,139 L-103,139 L-99,137 L-102,134 L-102,131 L-96,128 L-93,128 L-94,126 L-95,109 L-92,102 L-90,97 L-86,92 L-85,88 L-87,88 L-88,92 L-89,91 L-88,81 L-87,77 L-89,77 L-90,80 L-90,74 L-86,66 L-88,66 L-86,61 L-79,55 L-79,53 L-79,50 L-74,47 L-66,45 L-62,45 L-62,43 L-64,42 L-59,41 L-55,44 L-46,43 L-45,47 L-46,49 L-39,49 L-38,53 L-40,53 L-37,57 L-36,69 L-30,69 L-23,67 L-23,70 L-15,73 L-10,79 L-10,86 L-11,87 L-11,94 L-8,97 L0,98 L-1,89 L3,81 L9,75 L11,75 L13,70 L12,61 L5,60 L-1,52 L-3,49 L-3,45 L-13,44 L-17,42 L-16,40 L-12,42 L-3,43 L-4,37 L-2,37 L0,33 L0,25 L-11,26 L-19,34 L-19,31 L-13,25 L-10,20 L-10,12 L-21,12 L-28,15 L-32,20 L-35,20 L-33,16 L-25,11 L-14,8 L-12,8 L-8,4 Z " fill="#11202D" transform="translate(104,10)"/>
<path d="M0,0 L6,2 L14,6 L12,12 L17,13 L19,16 L12,15 L14,21 L17,27 L16,29 L13,26 L2,25 L3,33 L6,34 L7,40 L3,41 L3,44 L14,43 L23,43 L23,44 L11,46 L4,45 L7,50 L11,53 L16,55 L21,60 L22,65 L22,72 L19,78 L14,83 L10,90 L20,88 L26,83 L32,79 L34,74 L32,74 L32,67 L26,67 L24,66 L24,64 L31,65 L35,56 L36,54 L32,52 L30,46 L24,45 L28,44 L29,42 L30,45 L36,46 L39,48 L39,50 L46,45 L46,44 L53,44 L62,43 L60,32 L63,35 L64,37 L64,43 L66,43 L65,48 L71,48 L76,52 L76,54 L73,55 L79,63 L81,69 L78,69 L79,73 L79,85 L76,85 L75,93 L78,97 L79,105 L78,110 L76,106 L73,108 L74,111 L72,111 L72,113 L62,113 L62,111 L66,110 L66,105 L69,100 L69,97 L61,96 L60,98 L60,95 L50,96 L47,96 L49,93 L42,93 L42,95 L40,95 L41,97 L45,98 L40,103 L36,107 L35,114 L38,112 L38,115 L33,117 L33,107 L30,110 L26,111 L30,116 L31,120 L31,127 L30,123 L28,123 L29,129 L28,130 L32,132 L26,135 L17,133 L10,127 L4,125 L3,123 L-12,126 L-17,128 L-20,128 L-20,131 L-22,131 L-22,133 L-24,133 L-24,135 L-29,137 L-39,138 L-41,139 L-41,137 L-45,136 L-43,134 L-32,134 L-35,130 L-34,126 L-39,124 L-37,133 L-39,133 L-42,126 L-42,119 L-40,121 L-39,119 L-33,119 L-32,120 L-31,116 L-35,117 L-35,115 L-38,116 L-41,106 L-45,100 L-47,99 L-47,91 L-44,94 L-41,99 L-35,104 L-30,104 L-30,102 L-33,101 L-34,98 L-37,95 L-38,87 L-41,84 L-40,80 L-39,76 L-40,73 L-43,73 L-43,71 L-50,70 L-59,74 L-60,76 L-55,74 L-43,74 L-42,76 L-54,76 L-60,78 L-61,73 L-57,70 L-53,68 L-43,68 L-43,66 L-45,65 L-44,64 L-44,57 L-39,55 L-37,57 L-36,69 L-30,69 L-23,67 L-23,70 L-15,73 L-10,79 L-10,86 L-11,87 L-11,94 L-8,97 L0,98 L-1,89 L3,81 L9,75 L11,75 L13,70 L12,61 L5,60 L-1,52 L-3,49 L-3,45 L-13,44 L-17,42 L-16,40 L-12,42 L-3,43 L-4,37 L-2,37 L0,33 L0,25 L-11,26 L-19,34 L-19,31 L-13,25 L-10,20 L-10,12 L-21,12 L-28,15 L-32,20 L-35,20 L-33,16 L-25,11 L-14,8 L-12,8 L-8,4 Z M38,97 L39,99 L40,97 Z " fill="#121F2B" transform="translate(104,10)"/>
<path d="M0,0 L6,2 L14,6 L12,12 L17,13 L19,16 L12,15 L14,21 L17,27 L16,29 L13,26 L2,25 L3,33 L6,34 L7,40 L3,41 L3,44 L14,43 L23,43 L23,44 L11,46 L4,45 L7,50 L11,53 L16,55 L21,60 L22,65 L22,72 L19,78 L14,83 L10,90 L20,88 L26,83 L34,82 L36,78 L35,86 L29,92 L26,93 L23,103 L22,106 L23,117 L25,118 L26,120 L24,120 L24,128 L19,131 L14,129 L9,125 L2,122 L-11,122 L-16,124 L-18,123 L-18,118 L-16,117 L-15,114 L-22,117 L-25,121 L-20,121 L-22,122 L-23,125 L-25,125 L-25,129 L-32,129 L-32,127 L-30,127 L-27,116 L-24,110 L-20,107 L-13,105 L-12,106 L-9,101 L-6,101 L-5,97 L0,98 L-1,89 L3,81 L9,75 L11,75 L13,70 L12,61 L5,60 L-1,52 L-3,49 L-3,45 L-13,44 L-17,42 L-16,40 L-12,42 L-3,43 L-4,37 L-2,37 L0,33 L0,25 L-11,26 L-19,34 L-19,31 L-13,25 L-10,20 L-10,12 L-21,12 L-28,15 L-32,20 L-35,20 L-33,16 L-25,11 L-14,8 L-12,8 L-8,4 Z " fill="#0E1D2A" transform="translate(104,10)"/>
<path d="M0,0 L12,0 L12,9 L6,17 L3,21 L10,14 L21,14 L22,22 L19,26 L17,26 L18,32 L9,32 L5,30 L6,31 L18,34 L21,41 L26,48 L33,50 L35,54 L35,59 L32,64 L25,70 L21,78 L21,87 L13,87 L9,83 L9,76 L10,75 L10,68 L6,63 L-5,59 L-2,58 L-2,56 L-9,59 L-15,58 L-17,46 L-19,42 L-17,42 L-18,38 L-23,39 L-25,38 L-25,32 L-27,31 L-24,31 L-22,21 L-17,11 L-15,9 L-10,7 L-5,2 Z " fill="#F1F1F1" transform="translate(83,21)"/>
<path d="M0,0 L3,3 L4,5 L4,11 L6,11 L5,16 L11,16 L16,20 L16,22 L13,23 L19,31 L21,37 L18,37 L19,41 L19,53 L16,53 L14,56 L12,58 L4,61 L0,62 L-8,61 L-7,58 L0,59 L0,57 L3,56 L-9,56 L-20,60 L-26,64 L-31,67 L-32,64 L-28,60 L-28,63 L-24,54 L-22,53 L-23,50 L-23,41 L-16,39 L-9,40 L-7,35 L-4,39 L-2,39 L-3,34 L1,30 L-1,24 L-5,25 L-8,31 L-10,31 L-10,33 L-8,33 L-9,39 L-23,38 L-21,34 L-17,33 L-18,31 L-16,30 L-19,29 L-19,31 L-22,34 L-25,38 L-25,36 L-34,35 L-36,34 L-36,32 L-29,33 L-25,24 L-24,22 L-28,20 L-30,14 L-36,13 L-32,12 L-31,10 L-30,13 L-24,14 L-21,16 L-21,18 L-14,13 L-14,12 L-7,12 L2,11 Z " fill="#0C1C28" transform="translate(164,42)"/>
<path d="M0,0 L2,0 L2,3 L9,3 L10,7 L8,7 L7,11 L4,11 L4,18 L6,19 L5,22 L-5,23 L-12,27 L-11,31 L-6,29 L-7,29 L-12,30 L-10,26 L-2,23 L7,24 L5,25 L5,27 L8,27 L10,30 L9,34 L8,38 L11,41 L12,51 L15,52 L15,55 L20,55 L18,59 L13,59 L4,51 L2,47 L0,51 L-4,49 L-20,41 L-27,35 L-31,26 L-26,22 L-25,29 L-24,21 L-19,18 L-17,18 L-16,22 L-10,21 L-6,21 L-6,19 L-8,18 L-5,16 L-6,11 L-10,10 L-10,6 L-5,3 L0,3 Z " fill="#091825" transform="translate(56,56)"/>
<path d="M0,0 L7,0 L10,3 L9,6 L11,6 L10,11 L8,13 L3,12 L4,8 L7,5 L7,3 L0,4 L-1,9 L-3,9 L-3,22 L2,24 L4,26 L-2,26 L-9,27 L-9,30 L6,30 L5,26 L19,26 L25,28 L24,33 L40,33 L50,31 L53,29 L59,29 L61,30 L84,31 L84,32 L133,34 L133,35 L128,36 L69,36 L69,34 L66,36 L53,36 L53,34 L42,35 L42,36 L19,36 L19,34 L16,34 L16,32 L14,32 L14,34 L-2,35 L-20,35 L-20,34 L-10,34 L-10,32 L-21,33 L-21,31 L-32,31 L-28,29 L-31,26 L-31,23 L-25,20 L-22,20 L-21,18 L-21,20 L-15,22 L-15,15 L-13,12 L-10,12 L-9,7 L-4,2 Z " fill="#505963" transform="translate(33,118)"/>
<path d="M0,0 L1,4 L-1,9 L-6,14 L-9,15 L-12,25 L-13,28 L-12,39 L-10,40 L-9,42 L-11,42 L-11,50 L-16,53 L-21,51 L-26,47 L-33,44 L-46,44 L-51,46 L-53,45 L-53,40 L-51,39 L-50,36 L-57,39 L-60,43 L-55,43 L-57,44 L-58,47 L-60,47 L-60,51 L-67,51 L-67,49 L-65,49 L-62,38 L-59,32 L-55,29 L-48,27 L-47,28 L-44,23 L-41,23 L-40,19 L-37,20 L-37,23 L-34,23 L-36,33 L-25,33 L-25,36 L-19,34 L-16,33 L-18,29 L-15,28 L-15,26 L-17,26 L-18,23 L-15,14 L-10,9 L-7,8 L-8,5 L-1,4 Z " fill="#0A1723" transform="translate(139,88)"/>
<path d="M0,0 L7,0 L7,2 L2,3 L2,6 L4,7 L7,10 L18,10 L18,11 L12,11 L12,13 L15,12 L23,12 L23,14 L47,14 L47,12 L45,11 L51,11 L49,12 L49,14 L52,14 L52,16 L74,15 L74,14 L86,14 L86,16 L98,15 L102,14 L102,16 L160,16 L160,18 L132,18 L91,19 L90,21 L73,21 L72,19 L65,18 L64,22 L0,22 Z " fill="#F3F3F3" transform="translate(0,138)"/>
<path d="M0,0 L12,0 L12,9 L6,17 L2,21 L1,27 L-4,29 L-9,35 L-14,40 L-18,45 L-19,42 L-17,42 L-18,38 L-23,39 L-25,38 L-25,32 L-27,31 L-24,31 L-22,21 L-17,11 L-15,9 L-10,7 L-5,2 Z " fill="#F0F1F1" transform="translate(83,21)"/>
<path d="M0,0 L6,2 L14,6 L12,12 L17,13 L19,16 L12,15 L14,21 L17,27 L16,29 L13,26 L2,25 L3,33 L6,34 L7,40 L3,41 L3,44 L14,43 L23,43 L23,44 L11,46 L3,45 L3,47 L-2,49 L-3,45 L-13,44 L-17,42 L-16,40 L-12,42 L-3,43 L-4,37 L-2,37 L0,33 L0,25 L-11,26 L-19,34 L-19,31 L-13,25 L-10,20 L-10,12 L-21,12 L-28,15 L-32,20 L-35,20 L-33,16 L-25,11 L-14,8 L-12,8 L-8,4 Z " fill="#818990" transform="translate(104,10)"/>
<path d="M0,0 L5,2 L10,3 L15,2 L16,6 L13,5 L13,8 L6,10 L3,11 L3,15 L8,16 L9,21 L7,24 L7,26 L-3,27 L-4,23 L-10,26 L-11,34 L-13,35 L-13,27 L-18,30 L-19,33 L-24,34 L-25,40 L-26,36 L-28,36 L-29,39 L-29,33 L-25,25 L-27,25 L-25,20 L-18,14 L-18,12 L-18,9 L-13,6 L-5,4 L-1,4 L-1,2 L-3,1 Z " fill="#313A45" transform="translate(43,51)"/>
<path d="M0,0 L4,3 L3,0 L10,0 L10,2 L13,2 L13,4 L24,4 L25,6 L23,6 L23,8 L27,8 L27,11 L30,11 L32,15 L30,15 L29,17 L25,16 L29,22 L30,23 L29,30 L26,31 L24,35 L19,35 L19,30 L21,25 L19,25 L19,21 L17,20 L10,20 L4,23 L1,27 L0,31 L-3,32 L-5,41 L-11,39 L-12,34 L-7,32 L-5,27 L-3,26 L-2,21 L0,20 L0,16 L2,16 L2,11 L0,11 L-1,14 L-5,15 L-3,10 L-2,8 L0,7 L-2,2 Z " fill="#091825" transform="translate(23,99)"/>
<path d="M0,0 L5,0 L5,3 L6,3 L16,3 L20,4 L25,5 L26,9 L24,9 L22,18 L18,19 L18,21 L28,21 L29,18 L28,15 L32,14 L33,20 L28,25 L26,25 L29,30 L34,29 L38,33 L37,38 L28,38 L28,40 L25,40 L25,38 L15,39 L17,32 L17,24 L15,18 L10,15 L1,15 L-5,19 L-10,23 L-10,17 L-7,12 L0,6 L-4,5 L-4,3 L-2,3 L-2,1 Z M-6,5 L-4,6 L-6,7 Z " fill="#091826" transform="translate(148,102)"/>
<path d="M0,0 L7,0 L17,3 L21,7 L21,11 L19,11 L17,16 L16,18 L16,25 L19,29 L19,31 L15,30 L11,27 L1,25 L-3,21 L-6,15 L-8,13 L-7,9 L-6,5 L-7,2 L0,2 Z " fill="#F1F2F2" transform="translate(71,81)"/>
<path d="M0,0 L3,2 L4,14 L10,14 L17,12 L17,15 L25,18 L30,24 L30,31 L29,32 L29,39 L32,42 L35,42 L34,46 L30,48 L28,52 L24,52 L20,51 L19,51 L7,51 L11,47 L7,46 L6,43 L3,40 L3,34 L5,37 L8,40 L20,43 L23,46 L26,47 L22,41 L22,34 L26,27 L28,27 L26,22 L22,19 L7,16 L7,18 L2,19 L-3,18 L-3,16 L-10,15 L-19,19 L-20,21 L-15,19 L-3,19 L-2,21 L-14,21 L-20,23 L-21,18 L-17,15 L-13,13 L-3,13 L-3,11 L-5,10 L-4,9 L-4,2 Z " fill="#1C2833" transform="translate(64,65)"/>
<path d="M0,0 L7,0 L10,3 L9,6 L11,6 L10,11 L8,13 L3,12 L4,8 L7,5 L7,3 L0,4 L-1,9 L-3,9 L-3,22 L2,24 L4,26 L-2,26 L-9,27 L-9,30 L-32,31 L-28,29 L-31,26 L-31,23 L-25,20 L-22,20 L-21,18 L-21,20 L-15,22 L-15,15 L-13,12 L-10,12 L-9,7 L-4,2 Z " fill="#1E2B36" transform="translate(33,118)"/>
<path d="M0,0 L3,3 L6,8 L14,14 L26,14 L31,13 L27,15 L26,18 L23,20 L17,36 L15,36 L15,38 L22,38 L22,34 L25,31 L22,30 L24,26 L26,24 L32,23 L31,27 L29,27 L29,32 L31,33 L21,41 L16,43 L12,39 L13,35 L8,33 L10,42 L8,42 L5,35 L5,28 L7,30 L8,28 L14,28 L15,29 L16,25 L12,26 L12,24 L9,25 L6,15 L2,9 L0,8 Z " fill="#13212D" transform="translate(57,101)"/>
<path d="M0,0 L6,0 L4,1 L4,3 L7,3 L7,5 L29,4 L29,3 L41,3 L41,5 L53,4 L57,3 L57,5 L115,5 L115,7 L87,7 L46,8 L45,10 L28,10 L27,8 L20,7 L20,9 L18,9 L17,7 L12,6 L12,8 L-7,8 L-7,6 L-21,6 L-21,4 L-14,3 L2,3 L2,1 Z " fill="#A8ACB1" transform="translate(45,149)"/>
<path d="M0,0 L4,1 L6,8 L2,12 L3,16 L1,19 L-1,17 L-3,14 L-5,18 L-14,17 L-18,18 L-18,29 L-17,31 L-20,31 L-21,36 L-24,41 L-25,38 L-27,42 L-25,42 L-18,37 L-16,38 L-20,42 L-19,44 L-24,45 L-25,47 L-28,47 L-29,54 L-31,54 L-31,52 L-35,51 L-32,40 L-30,37 L-25,34 L-22,31 L-21,25 L-24,28 L-28,27 L-23,22 L-22,19 L-24,19 L-24,12 L-20,13 L-17,8 L-15,8 L-15,6 L-11,7 L-12,9 L-10,10 L-17,12 L-18,14 L-5,16 L-4,10 L-6,10 L-6,8 L-4,8 L-2,2 Z " fill="#2E3A45" transform="translate(160,65)"/>
<path d="M0,0 L2,0 L2,3 L4,4 L3,9 L4,13 L2,16 L4,22 L1,21 L-1,27 L2,26 L3,24 L5,24 L5,29 L3,34 L1,34 L1,41 L-2,40 L-3,44 L-6,46 L-8,49 L-10,50 L-11,33 L-8,26 L-6,21 L-2,16 L-2,9 L0,9 L-1,3 Z " fill="#0C1C29" transform="translate(20,86)"/>
<path d="M0,0 L1,3 L0,12 L6,9 L10,10 L11,6 L13,7 L12,13 L7,14 L2,14 L6,17 L15,18 L16,23 L14,25 L14,27 L19,25 L18,27 L20,29 L15,30 L15,28 L3,28 L-7,26 L-5,22 L-5,18 L-3,18 L-4,11 L-8,5 L-2,4 Z M15,17 Z " fill="#0E1E2D" transform="translate(137,115)"/>
<path d="M0,0 L6,2 L9,4 L9,6 L7,6 L7,8 L11,11 L7,15 L13,15 L13,16 L4,17 L-1,19 L-3,18 L-3,13 L-1,12 L0,9 L-7,12 L-10,16 L-5,16 L-7,17 L-8,20 L-10,20 L-10,24 L-17,24 L-17,22 L-15,22 L-12,11 L-9,5 L-5,2 Z " fill="#13212E" transform="translate(89,115)"/>
<path d="M0,0 L1,0 L3,6 L6,12 L5,14 L2,11 L-9,10 L-8,18 L-5,19 L-4,25 L-8,26 L-8,29 L3,28 L12,28 L12,29 L0,31 L-8,30 L-8,32 L-13,34 L-14,30 L-24,29 L-28,27 L-27,25 L-23,27 L-14,28 L-15,22 L-13,22 L-11,18 L-11,10 L-22,11 L-30,19 L-30,16 L-24,10 L-22,6 L-21,9 L-14,8 L1,8 L0,6 Z " fill="#3E4955" transform="translate(115,25)"/>
<path d="M0,0 L5,2 L10,3 L15,2 L16,6 L13,5 L13,8 L6,10 L3,11 L3,15 L8,16 L9,21 L7,24 L7,26 L-3,27 L-4,23 L-10,25 L-7,22 L-3,20 L-1,16 L0,14 L-3,12 L1,11 L0,4 L-1,2 L-3,1 Z " fill="#436369" transform="translate(43,51)"/>
<path d="M0,0 L16,0 L16,1 L65,3 L65,4 L60,5 L1,5 L1,3 L-2,5 L-15,5 L-15,3 Z " fill="#5E646B" transform="translate(101,149)"/>
<path d="M0,0 L3,2 L4,14 L10,14 L17,12 L17,15 L25,18 L29,23 L25,21 L22,19 L7,16 L7,18 L2,19 L-3,18 L-3,16 L-10,15 L-19,19 L-20,21 L-15,19 L-3,19 L-2,21 L-14,21 L-20,23 L-21,18 L-17,15 L-13,13 L-3,13 L-3,11 L-5,10 L-4,9 L-4,2 Z " fill="#1F2933" transform="translate(64,65)"/>
<path d="M0,0 L13,0 L23,5 L28,9 L34,7 L35,0 L39,1 L37,2 L37,7 L34,10 L43,10 L42,12 L37,14 L28,12 L21,6 L15,4 L14,2 L-1,5 L-6,7 L-9,7 L-9,10 L-11,10 L-11,12 L-13,12 L-13,14 L-18,16 L-28,17 L-30,18 L-30,16 L-34,15 L-32,13 L-21,13 L-11,7 L-2,1 Z " fill="#545E67" transform="translate(93,131)"/>
<path d="M0,0 L2,1 L2,3 L8,4 L11,6 L11,8 L18,3 L18,2 L25,2 L30,1 L29,5 L16,7 L16,9 L14,10 L18,12 L17,16 L15,18 L10,20 L5,24 L4,21 L7,14 L8,12 L4,10 L2,4 L-4,3 L0,2 Z " fill="#343C46" transform="translate(132,52)"/>
<path d="M0,0 L2,0 L2,3 L9,3 L10,7 L8,7 L7,11 L4,11 L4,18 L6,19 L0,19 L-4,17 L-6,11 L-10,10 L-10,6 L-5,3 L0,3 Z " fill="#0A1B28" transform="translate(56,56)"/>
<path d="M0,0 L4,5 L8,8 L13,10 L18,16 L16,18 L13,15 L13,18 L14,21 L12,29 L10,29 L10,31 L8,31 L9,26 L10,25 L9,16 L2,15 L-4,7 L-5,2 L-2,2 L0,2 Z " fill="#202C37" transform="translate(107,55)"/>
<path d="M0,0 L2,1 L2,3 L-3,6 L-6,10 L-8,21 L-6,21 L-6,23 L-8,25 L-7,28 L-11,31 L-15,30 L-14,25 L-13,20 L-16,13 L-16,7 L-6,5 Z " fill="#2E3B47" transform="translate(130,93)"/>
<path d="M0,0 L8,5 L8,7 L12,6 L17,14 L16,19 L15,16 L11,18 L10,14 L6,12 L6,14 L8,15 L6,25 L-1,32 L-4,35 L-4,33 L-14,32 L-13,30 L-1,29 L4,23 L4,18 L1,14 L-2,9 L4,11 L6,9 L5,6 L2,6 L2,3 L-2,3 L-2,1 Z " fill="#1B2B35" transform="translate(48,104)"/>
<path d="M0,0 L3,3 L4,5 L4,11 L6,11 L5,16 L11,16 L16,20 L16,22 L13,23 L19,31 L21,37 L19,37 L19,35 L17,35 L16,31 L15,33 L13,33 L12,25 L10,25 L7,20 L5,19 L5,17 L3,16 L-1,17 L-7,16 L-9,20 L-13,18 L-14,20 L-18,19 L-16,19 L-16,17 L-11,15 L-3,15 L-2,11 L2,11 Z " fill="#29343F" transform="translate(164,42)"/>
<path d="M0,0 L7,0 L10,3 L9,6 L11,6 L10,11 L8,13 L3,12 L4,8 L7,5 L7,3 L0,4 L-1,9 L-3,9 L-5,13 L-9,16 L-9,26 L-11,26 L-12,23 L-12,13 L-9,7 L-4,2 Z " fill="#404953" transform="translate(33,118)"/>
<path d="M0,0 L4,0 L4,4 L-1,4 L-3,8 L-8,12 L-10,12 L-10,14 L-15,19 L-20,28 L-22,24 L-20,20 L-22,21 L-20,16 L-13,10 L-13,8 L-13,5 L-8,2 Z " fill="#565D65" transform="translate(38,55)"/>
<path d="M0,0 L1,0 L2,6 L0,10 L-1,20 L-2,23 L0,23 L0,21 L4,22 L3,24 L1,23 L0,27 L-3,29 L-5,32 L-7,33 L-8,16 L-5,9 L-3,4 Z " fill="#192530" transform="translate(17,103)"/>
<path d="M0,0 L3,1 L5,1 L5,3 L11,3 L7,5 L8,13 L9,15 L12,15 L12,6 L8,5 L15,5 L15,16 L17,17 L6,17 L6,6 L0,7 L0,17 L-2,16 L-2,8 L-13,8 L-20,11 L-24,16 L-27,16 L-25,12 L-17,7 L-6,4 L-4,4 Z " fill="#535862" transform="translate(96,14)"/>
<path d="M0,0 L7,0 L15,4 L13,5 L5,5 L5,8 L-2,7 L-10,11 L-13,10 L-15,12 L-18,8 L-16,8 L-16,5 L-5,1 Z " fill="#132231" transform="translate(100,133)"/>
<path d="M0,0 L3,3 L6,8 L14,14 L22,16 L16,24 L9,25 L6,15 L2,9 L0,8 Z " fill="#E2E3E4" transform="translate(57,101)"/>
<path d="M0,0 L3,0 L3,2 L6,2 L5,6 L2,6 L2,8 L-7,10 L-7,13 L-24,14 L-45,14 L-45,13 L-28,12 L-28,10 L-13,9 L-20,8 L-20,7 L-8,6 L-1,3 Z " fill="#92969C" transform="translate(186,136)"/>
<path d="M0,0 L8,0 L10,1 L10,3 L8,3 L8,7 L2,5 L5,8 L1,10 L-9,9 L-9,11 L-13,11 L-13,9 L-16,8 L-13,5 L-6,2 L-1,3 Z M0,10 Z " fill="#05131F" transform="translate(105,137)"/>
<path d="M0,0 L11,0 L13,1 L13,3 L11,3 L11,5 L13,5 L12,11 L-2,10 L0,6 L4,5 L3,3 L5,2 L2,1 L2,3 L-1,6 L-4,10 L-4,8 L-13,7 L-15,6 L-15,4 L-6,5 Z " fill="#2A3642" transform="translate(143,70)"/>
<path d="M0,0 L2,3 L5,6 L17,9 L20,12 L18,16 L16,17 L4,17 L8,13 L4,12 L3,9 L0,6 Z " fill="#3A4550" transform="translate(67,99)"/>
<path d="M0,0 L4,1 L6,8 L2,12 L3,16 L1,19 L-1,17 L-3,14 L-5,18 L-9,17 L-5,16 L-4,10 L-6,10 L-6,8 L-4,8 L-2,2 Z " fill="#1F2C3A" transform="translate(160,65)"/>
<path d="M0,0 L6,2 L7,6 L7,13 L4,19 L0,23 L-2,23 L-4,18 L-2,18 L-2,15 L0,15 L1,6 L-1,2 Z " fill="#1A2D39" transform="translate(119,69)"/>
<path d="M0,0 L1,2 L-2,8 L0,8 L7,3 L9,4 L5,8 L6,10 L1,11 L0,13 L-3,13 L-4,20 L-6,20 L-6,18 L-10,17 L-7,6 L-5,3 Z " fill="#555E66" transform="translate(135,99)"/>
<path d="M0,0 L4,0 L6,4 L11,4 L16,6 L26,10 L32,14 L33,11 L33,16 L35,17 L32,18 L32,16 L28,14 L23,11 L14,11 L12,10 L12,8 L9,8 L9,6 L3,7 L4,11 L0,7 Z " fill="#363F4A" transform="translate(24,93)"/>
<path d="M0,0 L6,1 L5,6 L8,8 L7,11 L-4,11 L-4,12 L-1,13 L-1,16 L-8,16 L-7,12 L-13,11 L-11,7 L0,7 L0,9 L2,9 L0,6 Z " fill="#1A242E" transform="translate(65,134)"/>
<path d="M0,0 L6,0 L8,2 L7,7 L6,11 L-4,12 L-5,8 L-11,10 L-8,7 L-3,6 Z " fill="#233540" transform="translate(44,66)"/>
<path d="M0,0 L27,1 L29,2 L29,4 L13,5 L-5,5 L-5,4 L5,4 L5,2 L-6,3 L-6,1 Z " fill="#686D74" transform="translate(18,148)"/>
<path d="M0,0 L9,0 L12,3 L3,1 L5,5 L7,10 L5,12 L0,11 L-1,8 L-1,7 L-2,9 L-6,9 L-7,5 L-2,1 Z " fill="#2F3C48" transform="translate(149,116)"/>
<path d="M0,0 Z M-8,1 L0,1 L1,6 L-1,8 L-1,10 L4,8 L3,10 L5,12 L0,13 L0,11 L-9,11 L-12,8 L-12,6 L-8,7 L-10,4 Z " fill="#09131E" transform="translate(152,132)"/>
<path d="M0,0 L4,0 L4,2 L62,2 L62,4 L-13,3 L-13,2 L0,1 Z " fill="#CBCDD0" transform="translate(98,152)"/>
<path d="M0,0 L25,0 L47,1 L47,2 L42,3 L14,3 L0,1 Z " fill="#8B8F95" transform="translate(119,151)"/>
<path d="M0,0 L3,3 L4,5 L4,11 L6,11 L4,15 L2,17 L-7,16 L-9,20 L-13,18 L-14,20 L-18,19 L-16,19 L-16,17 L-11,15 L-3,15 L-2,11 L2,11 Z " fill="#3C464F" transform="translate(164,42)"/>
<path d="M0,0 L1,0 L1,9 L-1,10 L1,12 L-5,19 L-9,20 L-12,21 L-12,17 L-14,16 L-9,14 L-7,14 L-3,6 L-1,6 Z " fill="#182833" transform="translate(43,53)"/>
<path d="M0,0 L1,0 L3,6 L6,12 L5,14 L2,11 L-9,10 L-9,18 L-11,14 L-11,10 L-22,11 L-30,19 L-30,16 L-24,10 L-22,6 L-21,9 L-14,8 L1,8 L0,6 Z " fill="#6D777E" transform="translate(115,25)"/>
<path d="M0,0 L2,0 L2,3 L4,4 L3,9 L4,13 L2,16 L4,22 L1,21 L-1,26 L-3,25 L-2,22 L-2,9 L0,9 L-1,3 Z " fill="#172533" transform="translate(20,86)"/>
<path d="M0,0 L3,0 L4,3 L17,5 L14,8 L-3,9 L1,7 L-2,4 L-2,1 Z " fill="#989CA0" transform="translate(4,140)"/>
<path d="M0,0 L4,1 L2,2 L2,7 L-1,10 L8,10 L7,12 L2,14 L-7,12 L-14,6 L-20,4 L-20,1 L-12,5 L-7,9 L-1,7 Z " fill="#333F4A" transform="translate(128,131)"/>
<path d="M0,0 L1,4 L-4,9 L-6,17 L-6,21 L-8,26 L-11,26 L-11,23 L-9,23 L-10,14 L-6,6 Z " fill="#5D646C" transform="translate(113,85)"/>
<path d="M0,0 L1,4 L-1,9 L-6,14 L-12,14 L-15,14 L-10,9 L-7,8 L-8,5 L-1,4 Z " fill="#162633" transform="translate(139,88)"/>
<path d="M0,0 L5,2 L6,6 L6,13 L5,9 L3,9 L4,15 L3,18 L-3,18 L0,14 L0,8 L-1,3 Z " fill="#14222F" transform="translate(129,124)"/>
<path d="M0,0 L8,0 L9,4 L5,6 L-4,6 L-9,1 L-1,1 Z " fill="#1C2B38" transform="translate(147,127)"/>
<path d="M0,0 L2,1 L2,8 L1,9 L1,16 L5,21 L0,22 L-3,19 L-3,9 Z " fill="#192533" transform="translate(92,88)"/>
<path d="M0,0 L2,0 L6,10 L4,10 L4,12 L-6,12 L-6,10 L-2,9 L-2,4 Z " fill="#192936" transform="translate(172,111)"/>
<path d="M0,0 L34,0 L33,3 L21,3 L21,1 L11,1 L11,3 L5,3 L5,1 L0,1 Z " fill="#D1D3D5" transform="translate(95,156)"/>
<path d="M0,0 L14,0 L14,12 L13,12 L13,1 L12,2 L12,11 L7,12 L7,1 L0,1 Z " fill="#B3B8BC" transform="translate(96,18)"/>
<path d="M0,0 L7,2 L6,6 L8,10 L6,18 L4,18 L4,20 L2,20 L3,15 L4,14 L3,5 L-4,4 L0,3 Z " fill="#273945" transform="translate(113,66)"/>
<path d="M0,0 L16,1 L14,3 L-4,4 L-16,4 L-14,2 Z " fill="#49525A" transform="translate(159,143)"/>
<path d="M0,0 L6,2 L10,5 L6,5 L5,7 L-3,7 L-6,7 L-9,6 L-5,5 L-5,3 Z " fill="#92979C" transform="translate(104,10)"/>
<path d="M0,0 L1,2 L-1,2 L-1,4 L-3,4 L-3,6 L-8,8 L-18,9 L-20,10 L-20,8 L-24,7 L-22,5 L-11,5 L-4,1 Z " fill="#404B56" transform="translate(83,139)"/>
<path d="M0,0 L2,4 L8,5 L8,10 L0,8 L-1,12 L-2,10 L-2,16 L-4,16 L-5,4 L0,3 Z " fill="#192E38" transform="translate(65,121)"/>
<path d="M0,0 L4,2 L4,8 L5,10 L2,10 L1,15 L-2,20 L-3,16 L-1,11 L1,4 L-2,7 L-6,6 L-1,1 Z " fill="#37414B" transform="translate(138,86)"/>
<path d="M0,0 L23,0 L23,2 L5,2 L5,4 L7,5 L-1,4 L-1,3 L-18,2 L-18,1 Z " fill="#C1C5C8" transform="translate(162,150)"/>
<path d="M0,0 L2,0 L1,4 L-12,6 L-12,8 L-16,9 L-20,7 L-23,3 L-19,4 L-17,5 L-17,7 L-10,2 L-10,1 L-3,1 Z " fill="#58636B" transform="translate(160,53)"/>
<path d="M0,0 L2,0 L2,2 L10,2 L10,4 L-9,4 L-9,2 L-22,2 L-22,1 Z " fill="#8F9297" transform="translate(47,153)"/>
<path d="M0,0 L4,0 L5,4 L4,7 L-1,8 L-2,14 L-3,10 L-5,10 L-6,13 L-6,7 L-3,4 Z " fill="#2A3540" transform="translate(20,77)"/>
<path d="M0,0 L6,0 L6,2 L4,2 L2,6 L-2,9 L-2,19 L-4,19 L-5,16 L-5,6 L-3,6 Z " fill="#48515B" transform="translate(26,125)"/>
<path d="M0,0 L3,0 L2,4 L7,4 L5,5 L4,8 L2,8 L2,12 L-5,12 L-5,10 L-3,10 Z " fill="#08131D" transform="translate(77,127)"/>
<path d="M0,0 L2,1 L-3,4 L-6,7 L-7,15 L-9,16 L-9,8 L-14,10 L-12,4 L-8,2 L-8,4 L-4,1 Z " fill="#26434B" transform="translate(39,70)"/>
<path d="M0,0 L3,1 L1,7 L0,11 L-4,10 L-6,6 L-5,1 Z " fill="#E7EEEC" transform="translate(120,100)"/>
<path d="M0,0 L5,0 L6,6 L-5,6 L-10,7 L-8,3 Z " fill="#050F1A" transform="translate(54,79)"/>
<path d="M0,0 L4,1 L3,8 L-2,7 L-2,9 L-10,9 L-11,6 L-4,6 L-4,4 L-1,3 Z " fill="#D2D3D5" transform="translate(192,138)"/>
<path d="M0,0 L16,2 L16,4 L7,5 L3,4 L3,6 L-1,6 L-1,4 L-5,5 L-6,3 Z " fill="#26323D" transform="translate(136,141)"/>
<path d="M0,0 L6,0 L15,2 L11,4 L6,5 L-8,5 L-5,3 L0,1 Z " fill="#38414C" transform="translate(86,147)"/>
<path d="M0,0 L2,2 L3,0 L9,0 L8,5 L3,5 L5,14 L3,14 L0,7 Z " fill="#3F6A6F" transform="translate(62,129)"/>
<path d="M0,0 L2,1 L2,3 L-3,6 L-6,10 L-7,15 L-10,14 L-8,8 L-16,9 L-16,7 L-6,5 Z " fill="#556971" transform="translate(130,93)"/>
<path d="M0,0 L12,0 L15,2 L9,2 L9,4 L0,4 L-1,3 L-10,5 L-7,2 Z " fill="#455058" transform="translate(155,97)"/>
<path d="M0,0 L2,0 L2,3 L9,3 L10,7 L8,7 L8,10 L5,10 L5,7 L-2,6 L-3,3 L0,3 Z " fill="#172C3A" transform="translate(56,56)"/>
<path d="M0,0 L3,0 L3,2 L6,2 L5,6 L2,6 L2,8 L-8,8 L-8,6 L-1,3 Z " fill="#70757C" transform="translate(186,136)"/>
<path d="M0,0 L2,1 L0,4 L-1,10 L-2,10 L-2,3 Z M-9,6 L-8,8 L-2,10 L-3,12 L-5,12 L-5,10 L-8,11 L-9,13 L-4,13 L-4,14 L-12,14 L-13,9 L-9,8 Z " fill="#2E3842" transform="translate(20,130)"/>
<path d="M0,0 L4,5 L8,6 L9,9 L7,9 L6,11 L1,10 L-1,7 L-2,1 Z " fill="#091620" transform="translate(56,115)"/>
<path d="M0,0 L1,3 L-1,17 L-3,15 L-6,8 L-8,5 L-2,4 Z " fill="#061420" transform="translate(137,115)"/>
<path d="M0,0 L2,0 L2,2 L5,2 L6,0 L14,7 L17,10 L12,8 L7,8 L5,3 L3,3 L1,7 L-1,5 Z " fill="#444E58" transform="translate(23,90)"/>
<path d="M0,0 L2,1 L1,9 L-6,16 L-9,19 L-9,17 L-19,16 L-18,14 L-6,13 L-1,7 Z " fill="#38444E" transform="translate(53,120)"/>
<path d="M0,0 L4,1 L3,3 L1,2 L0,6 L-3,8 L-5,11 L-7,12 L-8,2 L-4,3 L0,2 Z " fill="#2E3A44" transform="translate(17,124)"/>
<path d="M0,0 L6,1 L5,6 L8,8 L7,11 L1,11 Z " fill="#0D1B26" transform="translate(65,134)"/>
<path d="M0,0 L5,2 L6,6 L2,7 L-3,6 L-5,3 L-3,1 Z " fill="#1F2C39" transform="translate(180,131)"/>
<path d="M0,0 L6,0 L5,2 L2,3 L1,6 L-3,7 L-5,6 L-7,12 L-9,13 L-7,6 L-2,1 Z " fill="#626A73" transform="translate(31,119)"/>
<path d="M0,0 L2,0 L2,2 L0,2 L0,4 L-2,4 L-4,11 L-6,12 L-4,16 L-7,15 L-8,18 L-9,18 L-10,8 L-7,8 L-7,10 L-5,10 L-4,3 L-1,3 Z " fill="#27343F" transform="translate(136,109)"/>
<path d="M0,0 L3,2 L4,11 L2,11 L1,9 L-4,8 L-4,2 Z " fill="#333C47" transform="translate(64,65)"/>
<path d="M0,0 L19,0 L18,3 L1,3 Z " fill="#BCBDC1" transform="translate(72,156)"/>
<path d="M0,0 L8,0 L12,1 L12,5 L-2,4 Z " fill="#0C1A28" transform="translate(143,76)"/>
<path d="M0,0 L17,0 L28,1 L28,2 L17,3 L0,3 Z " fill="#1E252D" transform="translate(141,146)"/>
<path d="M0,0 L2,0 L2,3 L10,6 L14,11 L10,9 L7,7 L-8,4 L-9,6 L-10,4 L-8,2 L-3,1 Z " fill="#627A7E" transform="translate(79,77)"/>
<path d="M0,0 L2,3 L3,6 L0,9 L-2,12 L-4,10 L-8,8 L-2,3 Z " fill="#081621" transform="translate(167,56)"/>
<path d="M0,0 L5,2 L7,4 L6,8 L4,10 L1,10 L0,4 L-1,2 L-3,1 Z " fill="#1F2F3B" transform="translate(43,51)"/>
<path d="M0,0 L1,0 L2,12 L-9,11 L-7,7 L-5,8 L-5,10 L-2,8 Z " fill="#111C28" transform="translate(20,132)"/>
<path d="M0,0 L3,2 L1,6 L-1,7 L-7,7 L-8,5 L-7,2 L0,2 Z " fill="#0C1520" transform="translate(84,109)"/>
<path d="M0,0 L3,1 L-1,2 L-2,5 L-7,7 L-9,12 L-11,13 L-11,8 L-7,4 L-8,2 Z " fill="#5C656E" transform="translate(85,114)"/>
<path d="M0,0 L2,1 L2,3 L5,3 L5,5 L10,7 L8,8 L8,12 L4,10 L2,4 L-4,3 L0,2 Z " fill="#6A7177" transform="translate(132,52)"/>
<path d="M0,0 L4,0 L4,2 L25,2 L25,3 L-13,3 L-13,2 L0,1 Z " fill="#B5B9BE" transform="translate(98,152)"/>
<path d="M0,0 L5,1 L6,7 L0,9 L-2,3 L0,3 Z " fill="#364751" transform="translate(105,43)"/>
<path d="M0,0 L7,0 L7,2 L2,3 L2,6 L4,7 L7,10 L0,11 Z " fill="#E0E2E2" transform="translate(0,138)"/>
<path d="M0,0 L1,3 L-5,13 L-10,14 L-8,13 L-6,9 L-5,5 L-9,6 L-9,4 L-4,3 L-3,5 Z " fill="#414A54" transform="translate(78,121)"/>
<path d="M0,0 L6,2 L8,6 L6,6 L5,8 L-1,5 L-1,3 L-3,3 L-3,1 Z " fill="#091521" transform="translate(47,108)"/>
<path d="M0,0 L5,1 L6,5 L4,7 L-1,6 L-2,3 Z " fill="#B3B7BB" transform="translate(150,121)"/>
<path d="M0,0 L5,0 L6,3 L8,3 L8,8 L2,6 L1,3 L-1,2 Z " fill="#1A2834" transform="translate(60,73)"/>
<path d="M0,0 L5,0 L4,5 L-1,6 L-4,5 L-3,1 Z " fill="#353F4A" transform="translate(36,120)"/>
<path d="M0,0 L3,0 L4,3 L3,5 L11,6 L11,13 L9,9 L9,7 L2,9 L1,9 Z " fill="#B9C2C4" transform="translate(125,71)"/>
<path d="M0,0 L12,0 L11,3 L-6,3 L-6,2 L0,1 Z " fill="#8B9097" transform="translate(74,152)"/>
<path d="M0,0 L2,0 L1,4 L-2,7 L-8,7 L-6,3 L-4,1 Z " fill="#D0D4D7" transform="translate(87,124)"/>
<path d="M0,0 L5,2 L14,3 L15,0 L17,5 L16,9 L14,9 L14,5 L4,4 L0,2 Z " fill="#757E85" transform="translate(87,50)"/>
<path d="M0,0 L4,0 L4,2 L-5,4 L-9,6 L-13,11 L-16,11 L-14,7 L-6,2 Z " fill="#7B8187" transform="translate(85,19)"/>
<path d="M0,0 L4,2 L7,8 L6,13 L5,10 L3,10 L1,3 L-1,3 Z " fill="#1D2B36" transform="translate(58,110)"/>
<path d="M0,0 L4,1 L5,6 L2,12 L-1,12 L-1,9 L1,9 Z " fill="#464F57" transform="translate(103,99)"/>
<path d="M0,0 L1,4 L0,5 L0,16 L-2,17 L-4,14 L-4,7 Z " fill="#525D68" transform="translate(90,92)"/>
<path d="M0,0 L4,1 L5,5 L3,7 L-2,6 L-1,1 Z " fill="#E6E8E8" transform="translate(160,65)"/>
<path d="M0,0 L4,1 L4,2 L-4,4 L-12,9 L-13,12 L-14,9 L-16,8 L-13,8 L-11,3 L-9,4 Z " fill="#94B4B4" transform="translate(72,44)"/>
<path d="M0,0 L1,3 L-4,8 L-6,8 L-8,3 L-5,1 Z " fill="#0C1821" transform="translate(123,84)"/>
<path d="M0,0 L2,4 L2,11 L-3,12 L-3,6 L-2,4 L0,4 Z " fill="#0B1A26" transform="translate(124,71)"/>
<path d="M0,0 L5,0 L6,5 L5,6 L0,6 L-1,1 Z " fill="#C1C2C5" transform="translate(46,67)"/>
<path d="M0,0 L10,0 L13,2 L10,4 L4,4 L4,3 L-2,2 Z " fill="#656C73" transform="translate(8,144)"/>
<path d="M0,0 L7,1 L11,1 L10,4 L1,4 L1,6 L-1,6 L-1,1 Z " fill="#06101D" transform="translate(175,136)"/>
<path d="M0,0 L1,0 L1,7 L-2,8 L-3,10 L-5,4 Z " fill="#2A343F" transform="translate(28,130)"/>
<path d="M0,0 L5,1 L3,5 L-2,9 L-3,4 L-2,2 L0,2 Z " fill="#14212C" transform="translate(32,125)"/>
<path d="M0,0 L2,4 L2,16 L0,17 L-1,9 Z " fill="#232D3A" transform="translate(181,79)"/>
<path d="M0,0 L1,2 L-2,9 L-4,9 L-4,11 L2,11 L2,12 L-6,12 L-6,8 L-2,3 Z " fill="#1F2C35" transform="translate(76,128)"/>
<path d="M0,0 L2,1 L-4,3 L-4,5 L-6,5 L-6,7 L-8,7 L-7,10 L-11,9 L-10,5 L-5,1 Z " fill="#2D3943" transform="translate(150,100)"/>
<path d="M0,0 L10,1 L10,2 L2,3 L-9,3 L-10,1 L-3,1 L0,2 Z " fill="#3F4A53" transform="translate(176,140)"/>
<path d="M0,0 L2,0 L2,7 L0,7 L0,11 L-3,10 L-2,3 Z " fill="#47515A" transform="translate(12,113)"/>
<path d="M0,0 L3,0 L2,4 L-1,9 L-5,7 Z " fill="#283540" transform="translate(37,59)"/>
<path d="M0,0 L4,0 L4,8 L0,9 Z " fill="#A9ADAF" transform="translate(96,21)"/>
<path d="M0,0 L4,4 L3,9 L0,9 L0,7 L-2,7 L-1,3 Z " fill="#07121D" transform="translate(172,127)"/>
<path d="M0,0 L3,3 L4,5 L4,11 L6,11 L4,15 L2,15 L1,4 Z " fill="#596269" transform="translate(164,42)"/>
<path d="M0,0 L4,1 L4,3 L-17,2 L-17,1 Z " fill="#E5E6E6" transform="translate(179,148)"/>
<path d="M0,0 L9,0 L12,3 L8,2 L1,2 L-3,3 L-3,6 L-7,7 L-5,3 Z " fill="#535C65" transform="translate(149,116)"/>
<path d="M0,0 L3,4 L1,11 L-2,10 L-1,2 Z " fill="#182532" transform="translate(55,96)"/>
<path d="M0,0 L2,0 L2,4 L-3,6 L-8,12 L-9,10 L-4,4 L-3,1 Z " fill="#7A9395" transform="translate(82,44)"/>
<path d="M0,0 L9,0 L10,3 L-1,3 Z " fill="#7F878E" transform="translate(102,31)"/>
<path d="M0,0 L2,0 L2,2 L7,3 L7,5 L-10,5 L-10,4 L1,4 Z " fill="#3F4751" transform="translate(38,144)"/>
<path d="M0,0 L7,0 L15,4 L13,5 L-1,2 Z " fill="#27303D" transform="translate(100,133)"/>
<path d="M0,0 L11,2 L11,3 L6,3 L6,8 L0,8 L4,4 L0,3 Z " fill="#25333E" transform="translate(71,108)"/>
<path d="M0,0 L4,2 L7,6 L2,7 L0,5 Z " fill="#0D1925" transform="translate(90,103)"/>
<path d="M0,0 L3,4 L-6,10 L-7,7 L-3,3 L-3,6 Z " fill="#27313F" transform="translate(139,99)"/>
<path d="M0,0 L4,1 L3,5 L-2,6 L-1,1 Z " fill="#BFC1C2" transform="translate(146,63)"/>
<path d="M0,0 L1,2 L-1,6 L-1,11 L2,9 L2,12 L-3,14 L-3,5 Z " fill="#1F2D39" transform="translate(140,113)"/>
<path d="M0,0 L1,0 L2,6 L0,9 L-3,9 L-4,5 Z " fill="#565D66" transform="translate(17,103)"/>
<path d="M0,0 L1,2 L6,1 L3,6 L-2,7 L-1,2 Z " fill="#0C202A" transform="translate(38,63)"/>
<path d="M0,0 L2,1 L1,2 L-4,2 L-4,5 L-10,5 L-10,2 L-10,1 Z " fill="#25313E" transform="translate(28,143)"/>
<path d="M0,0 L0,3 L-1,8 L-6,10 L-7,7 L-4,6 L-2,2 Z " fill="#303943" transform="translate(157,132)"/>
<path d="M0,0 L3,0 L3,5 L-2,9 L-4,9 L-2,5 L1,4 Z " fill="#0E1B28" transform="translate(155,127)"/>
<path d="M0,0 L3,2 L3,4 L-1,7 L-4,6 L-2,1 Z " fill="#1D2B39" transform="translate(120,117)"/>
<path d="M0,0 L2,0 L0,4 L-2,9 L-5,8 L-3,1 Z " fill="#DADCDE" transform="translate(130,108)"/>
<path d="M0,0 L6,2 L6,0 L8,0 L8,4 L4,5 L-1,4 Z " fill="#233940" transform="translate(62,79)"/>
<path d="M0,0 L4,1 L3,3 L5,4 L-4,7 L-2,2 L0,2 Z " fill="#404D56" transform="translate(145,71)"/>
<path d="M0,0 L7,0 L4,3 L-4,5 L-2,1 Z " fill="#323C45" transform="translate(28,58)"/>
<path d="M0,0 L7,0 L8,2 L4,5 L0,3 Z " fill="#E3E6E7" transform="translate(108,55)"/>
<path d="M0,0 L4,5 L2,8 L-1,7 L-2,1 Z " fill="#0D1C28" transform="translate(56,115)"/>
<path d="M0,0 L5,0 L6,5 L2,4 L-3,5 Z " fill="#3D4650" transform="translate(87,112)"/>
<path d="M0,0 L6,1 L1,6 L-2,3 L-2,1 Z " fill="#F0F0F1" transform="translate(73,116)"/>
<path d="M0,0 L1,2 L-2,7 L-6,8 L-5,3 Z " fill="#E4E6E5" transform="translate(135,99)"/>
<path d="M0,0 L1,3 L4,4 L2,11 L0,10 L0,4 Z " fill="#2D3742" transform="translate(13,109)"/>
<path d="M0,0 L17,2 L17,3 L0,3 Z " fill="#303841" transform="translate(141,146)"/>
<path d="M0,0 L2,0 L2,5 L-1,4 L-3,10 L-5,11 L-3,4 Z " fill="#717980" transform="translate(27,121)"/>
<path d="M0,0 L1,2 L4,2 L4,4 L0,5 L0,11 L-2,13 L-1,4 Z " fill="#2B3742" transform="translate(106,106)"/>
<path d="M0,0 L1,3 L-1,3 L0,6 L-2,6 L-3,10 L-4,9 L-4,3 L-2,1 L0,2 Z " fill="#2E3843" transform="translate(19,92)"/>
<path d="M0,0 L4,0 L4,4 L1,4 L4,9 L3,11 L0,7 Z " fill="#2F3C48" transform="translate(24,93)"/>
<path d="M0,0 L5,0 L1,2 L0,10 L-3,9 L-3,7 L-1,7 L-1,1 Z " fill="#3F4A53" transform="translate(19,84)"/>
<path d="M0,0 L0,3 L-4,11 L-6,7 Z " fill="#6A727A" transform="translate(22,72)"/>
<path d="M0,0 L4,1 L-2,4 L-8,3 L-5,1 Z " fill="#4D5760" transform="translate(132,141)"/>
<path d="M0,0 L7,1 L5,5 L-1,4 Z " fill="#323D45" transform="translate(53,141)"/>
<path d="M0,0 L1,0 L0,7 L-4,11 L-2,3 Z " fill="#5C656B" transform="translate(140,64)"/>
<path d="M0,0 L4,1 L4,6 L0,6 Z " fill="#BDBFC1" transform="translate(60,67)"/>
<path d="M0,0 L6,0 L8,2 L3,3 L-2,4 Z " fill="#202A35" transform="translate(157,58)"/>
<path d="M0,0 L1,3 L-1,3 L0,5 L0,11 L-4,6 L-4,4 L-2,4 Z " fill="#4D606A" transform="translate(104,43)"/>
<path d="M0,0 L1,0 L3,6 L6,12 L5,14 L2,11 L0,6 Z " fill="#5B6066" transform="translate(115,25)"/>
<path d="M0,0 L10,0 L9,2 L-2,3 L0,2 Z " fill="#1B2730" transform="translate(96,146)"/>
<path d="M0,0 L6,0 L7,4 L0,4 L-1,2 Z " fill="#1A2734" transform="translate(149,127)"/>
<path d="M0,0 L3,3 L3,5 L1,5 L-1,10 L-3,8 Z " fill="#202E39" transform="translate(55,122)"/>
<path d="M0,0 L2,0 L3,4 L1,8 L-1,8 L-2,4 Z " fill="#E5E8E9" transform="translate(172,111)"/>
<path d="M0,0 L3,1 L1,7 L0,11 L-3,11 Z " fill="#DBE1E1" transform="translate(120,100)"/>
<path d="M0,0 L1,3 L-2,4 L-3,11 L-5,10 L-4,5 Z " fill="#2F3946" transform="translate(112,89)"/>
<path d="M0,0 L7,6 L5,9 L1,4 L-1,3 Z " fill="#273542" transform="translate(118,64)"/>
<path d="M0,0 L6,1 L8,4 L2,4 Z " fill="#151D2A" transform="translate(172,59)"/>
<path d="M0,0 L7,0 L7,2 L2,3 L1,5 Z " fill="#CFD0D4" transform="translate(0,138)"/>
<path d="M0,0 L3,0 L3,2 L6,2 L5,6 L2,5 L3,3 L0,3 Z " fill="#8A8E96" transform="translate(186,136)"/>
<path d="M0,0 L10,1 L9,3 L0,3 L-2,1 Z " fill="#182634" transform="translate(95,134)"/>
<path d="M0,0 L5,0 L4,5 L0,4 Z " fill="#E9EBEC" transform="translate(66,129)"/>
<path d="M0,0 L2,4 L0,7 L-4,6 L-5,4 L-1,4 Z " fill="#1A2734" transform="translate(177,96)"/>
<path d="M0,0 L4,4 L0,6 L-6,4 L-6,3 L-1,3 Z " fill="#1D2631" transform="translate(151,59)"/>
<path d="M0,0 L5,1 L4,6 L1,5 L2,3 L-1,2 Z " fill="#313A44" transform="translate(162,53)"/>
<path d="M0,0 L2,0 L1,4 L-7,4 L-3,1 Z " fill="#666E75" transform="translate(160,53)"/>
<path d="M0,0 L5,1 L3,5 L-1,4 L-1,1 Z " fill="#797B83" transform="translate(43,43)"/>
<path d="M0,0 L5,1 L5,6 L-2,3 L0,2 Z " fill="#101924" transform="translate(68,125)"/>
<path d="M0,0 L5,0 L3,3 L2,8 L1,8 L1,3 L-2,2 Z " fill="#263441" transform="translate(157,124)"/>
<path d="M0,0 L5,0 L4,5 L0,4 Z " fill="#17222F" transform="translate(36,120)"/>
<path d="M0,0 L2,1 L0,6 L-6,7 Z " fill="#475057" transform="translate(138,86)"/>
<path d="M0,0 L4,1 L8,3 L-2,3 L-2,1 Z " fill="#61676E" transform="translate(51,149)"/>
<path d="M0,0 L6,0 L10,4 L5,4 L5,2 L0,1 Z " fill="#515A63" transform="translate(40,145)"/>
<path d="M0,0 L3,0 L4,4 L-2,4 L-2,1 Z " fill="#777C83" transform="translate(4,140)"/>
<path d="M0,0 L4,1 L1,2 L1,5 L-5,4 L-5,2 Z " fill="#0F1F2D" transform="translate(104,136)"/>
<path d="M0,0 L1,2 L-1,6 L-6,4 L-5,2 L-1,1 Z M-7,4 Z " fill="#122333" transform="translate(56,129)"/>
<path d="M0,0 L2,0 L0,5 L2,6 L-3,5 L-2,1 Z " fill="#D5D8D9" transform="translate(39,125)"/>
<path d="M0,0 L5,0 L6,3 L1,4 L-1,2 Z " fill="#17222D" transform="translate(152,117)"/>
<path d="M0,0 L4,5 L5,7 L3,9 L3,7 L0,6 L-1,3 Z " fill="#2D3947" transform="translate(62,91)"/>
<path d="M0,0 L2,0 L2,3 L4,4 L1,7 L-1,6 Z " fill="#212B37" transform="translate(20,86)"/>
<path d="M0,0 L2,0 L1,5 L-1,5 L-1,7 L-3,7 L-2,2 Z " fill="#555F64" transform="translate(118,79)"/>
<path d="M0,0 L4,2 L5,6 L0,4 L0,1 Z " fill="#112332" transform="translate(119,69)"/>
<path d="M0,0 L5,2 L7,4 L5,4 L5,6 L2,5 Z " fill="#E5E8EA" transform="translate(135,56)"/>
<path d="M0,0 L5,3 L5,5 L-1,4 L-2,2 L0,2 Z " fill="#1C2A35" transform="translate(115,138)"/>
<path d="M0,0 L1,4 L-3,5 L-3,1 Z " fill="#182430" transform="translate(41,130)"/>
<path d="M0,0 L2,1 L0,6 L-4,5 L-3,1 L-3,4 L-1,4 Z " fill="#5E6A74" transform="translate(174,115)"/>
<path d="M0,0 L4,2 L5,5 L1,5 L1,3 L-1,3 Z " fill="#303A42" transform="translate(58,110)"/>
<path d="M0,0 L4,2 L5,4 L-1,4 L-2,1 Z " fill="#343E48" transform="translate(40,99)"/>
<path d="M0,0 L4,1 L1,7 L-1,8 Z " fill="#47545D" transform="translate(136,98)"/>
<path d="M0,0 L2,0 L2,5 L-3,3 L-3,1 Z " fill="#0F1F2D" transform="translate(66,76)"/>
<path d="M0,0 L8,1 L7,4 L2,3 Z " fill="#4A545D" transform="translate(47,144)"/>
<path d="M0,0 L5,0 L5,4 L3,4 L3,2 L-1,3 L-2,1 Z " fill="#192735" transform="translate(132,143)"/>
<path d="M0,0 L2,0 L5,4 L-2,4 L-1,1 Z " fill="#1D2832" transform="translate(105,117)"/>
<path d="M0,0 L5,4 L2,4 L0,7 L-1,1 Z " fill="#232F3A" transform="translate(93,116)"/>
<path d="M0,0 L4,0 L5,4 L4,6 L2,6 L2,2 L0,2 Z " fill="#26303B" transform="translate(20,77)"/>
<path d="M0,0 L1,4 L-2,8 L-4,2 L0,3 Z " fill="#E9EBED" transform="translate(185,76)"/>
<path d="M0,0 L1,3 L-5,8 L-3,3 Z " fill="#39454F" transform="translate(142,68)"/>
<path d="M0,0 L4,1 L2,2 L2,5 L-1,5 Z " fill="#979DA1" transform="translate(160,65)"/>
<path d="M0,0 L4,2 L1,6 L-1,2 L-3,1 Z " fill="#596067" transform="translate(43,51)"/>
<path d="M0,0 L10,2 L7,4 L2,3 Z " fill="#464E5C" transform="translate(108,14)"/>
</svg>
