<?xml version="1.0" encoding="UTF-8"?>
<!-- Generator: visioncortex VTracer 0.6.5 -->
<svg version="1.1" xmlns="http://www.w3.org/2000/svg" width="157" height="154">
<path d="M0,0 L157,0 L157,154 L0,154 Z " fill="#F5F5F5" transform="translate(0,0)"/>
<path d="M0,0 L16,0 L23,2 L32,9 L38,18 L42,25 L46,38 L46,59 L44,65 L40,77 L39,78 L38,85 L36,89 L37,100 L42,106 L45,111 L53,118 L58,119 L62,118 L65,121 L66,126 L71,127 L72,131 L68,133 L68,135 L50,135 L50,137 L55,137 L55,138 L-19,138 L-19,135 L-10,134 L-9,133 L-26,134 L-26,133 L-21,132 L-21,130 L-23,129 L-21,125 L-23,125 L-28,117 L-32,113 L-33,104 L-33,91 L-29,78 L-22,68 L-14,60 L-9,55 L-6,47 L-7,38 L-12,32 L-12,30 L-17,31 L-17,18 L-13,10 L-5,2 Z " fill="#0A1825" transform="translate(65,7)"/>
<path d="M0,0 L16,0 L23,2 L32,9 L34,16 L40,27 L40,33 L36,34 L35,38 L30,43 L27,43 L26,46 L24,46 L22,53 L16,52 L11,54 L10,57 L7,57 L6,61 L-1,62 L7,63 L8,67 L1,70 L-1,74 L-3,74 L-5,78 L-7,84 L-1,84 L-3,86 L-11,87 L-10,90 L-14,100 L-17,102 L-24,101 L-14,104 L-15,108 L-21,110 L-21,108 L-23,107 L-23,110 L-25,110 L-26,112 L-29,106 L-29,97 L-30,105 L-31,113 L-32,113 L-33,104 L-33,91 L-29,78 L-22,68 L-14,60 L-9,55 L-6,47 L-7,38 L-12,32 L-12,30 L-17,31 L-17,18 L-13,10 L-5,2 Z " fill="#0C1926" transform="translate(65,7)"/>
<path d="M0,0 L3,1 L4,10 L6,13 L3,14 L9,16 L17,17 L16,19 L13,19 L12,23 L5,24 L13,25 L14,29 L7,32 L5,36 L3,36 L1,40 L-1,46 L5,46 L3,48 L-5,49 L-4,52 L-8,62 L-11,64 L-18,63 L-8,66 L-9,70 L-15,72 L-15,70 L-17,69 L-17,72 L-19,72 L-20,74 L-23,68 L-23,59 L-24,67 L-25,75 L-26,75 L-27,66 L-27,53 L-23,40 L-16,30 L-8,22 L-3,17 L0,9 Z " fill="#25303B" transform="translate(59,45)"/>
<path d="M0,0 L5,0 L8,3 L15,4 L15,1 L20,0 L20,2 L22,2 L23,6 L22,9 L25,10 L34,10 L33,12 L24,12 L24,15 L69,14 L93,14 L93,12 L101,11 L105,8 L113,8 L119,9 L119,13 L108,14 L108,15 L102,15 L102,18 L87,18 L87,20 L73,20 L73,18 L67,19 L37,19 L14,18 L14,17 L4,14 L-3,13 L-3,12 L-9,12 L-12,13 L-17,12 L-17,10 L-19,9 L-19,7 L-5,6 L-2,1 Z " fill="#82878C" transform="translate(22,130)"/>
<path d="M0,0 L16,0 L23,2 L32,9 L30,11 L22,6 L16,7 L8,7 L9,10 L13,11 L10,12 L9,14 L5,15 L7,11 L3,10 L0,12 L-3,12 L-3,10 L-6,11 L-6,15 L-1,16 L-1,18 L-7,18 L-7,20 L-15,23 L-17,25 L-17,18 L-13,10 L-5,2 Z " fill="#37414D" transform="translate(65,7)"/>
<path d="M0,0 L3,1 L4,10 L6,13 L3,14 L9,16 L9,18 L7,18 L5,22 L0,22 L2,25 L0,29 L0,33 L-8,33 L-6,35 L-12,36 L-14,41 L-11,44 L-17,43 L-15,47 L-13,49 L-19,49 L-20,52 L-21,46 L-18,38 L-22,46 L-24,43 L-20,35 L-11,25 L-5,20 L-1,13 L0,4 Z " fill="#444B55" transform="translate(59,45)"/>
<path d="M0,0 L5,0 L8,3 L15,4 L15,1 L20,0 L20,2 L22,2 L23,6 L22,9 L25,10 L34,10 L33,12 L24,12 L23,15 L-3,13 L-3,12 L-9,12 L-12,13 L-17,12 L-17,10 L-19,9 L-19,7 L-5,6 L-2,1 Z " fill="#3C424A" transform="translate(22,130)"/>
<path d="M0,0 L8,0 L7,2 L4,2 L3,6 L-4,7 L4,8 L5,12 L-2,15 L-4,19 L-6,19 L-8,23 L-10,29 L-12,31 L-24,31 L-27,26 L-25,25 L-24,25 L-21,19 L-17,17 L-18,15 L-9,16 L-10,11 L-8,11 L-9,6 L-10,4 L-4,4 Z " fill="#242F3A" transform="translate(68,62)"/>
<path d="M0,0 L4,0 L3,3 L0,6 L-2,11 L2,12 L4,11 L4,16 L-1,19 L-3,19 L-5,24 L-7,26 L-13,28 L-16,30 L-14,26 L-14,23 L-18,23 L-18,26 L-24,29 L-27,28 L-25,26 L-20,24 L-20,21 L-28,21 L-30,19 L-21,19 L-20,15 L-17,14 L-18,12 L-11,9 L-5,9 L-3,4 L-1,4 Z M-4,12 Z " fill="#0F1E2D" transform="translate(92,49)"/>
<path d="M0,0 L9,0 L12,2 L12,4 L16,3 L16,1 L27,2 L30,4 L30,6 L36,6 L36,9 L18,9 L18,11 L23,11 L23,12 L-6,12 L-9,10 L-2,9 L-1,4 L-6,6 L-5,3 L0,3 L3,5 L4,3 L0,1 Z " fill="#162430" transform="translate(97,133)"/>
<path d="M0,0 L3,1 L1,5 L-3,5 L-3,7 L-5,7 L-5,10 L-8,11 L-8,14 L-10,18 L-12,16 L-15,17 L-16,21 L-13,23 L-17,31 L-19,35 L-20,31 L-19,14 L-15,6 L-11,1 Z " fill="#1D2935" transform="translate(85,80)"/>
<path d="M0,0 L4,1 L8,8 L13,11 L12,16 L9,19 L4,19 L-4,9 L-5,2 Z " fill="#676B70" transform="translate(119,97)"/>
<path d="M0,0 L6,0 L9,8 L2,6 L0,13 L-5,12 L-5,14 L-2,15 L-5,17 L-1,19 L-14,19 L-17,18 L-17,15 L-15,15 L-15,13 L-7,10 L-5,5 Z " fill="#15232F" transform="translate(87,124)"/>
<path d="M0,0 L8,0 L14,1 L14,5 L3,6 L3,7 L-3,7 L-3,10 L-17,10 L-24,9 L-47,8 L-47,6 L-12,6 L-12,4 L-4,3 Z " fill="#B7BABD" transform="translate(127,138)"/>
<path d="M0,0 L3,1 L7,0 L9,1 L14,2 L18,3 L19,5 L20,1 L21,2 L21,9 L17,8 L17,5 L13,5 L11,7 L8,4 L4,6 L5,10 L7,12 L11,13 L11,15 L3,15 L-2,9 L-2,7 L-7,8 L-6,2 L-1,2 Z " fill="#26323D" transform="translate(55,30)"/>
<path d="M0,0 L2,1 L1,2 L5,4 L3,6 L1,6 L0,12 L5,13 L5,15 L-1,15 L-1,17 L-9,20 L-11,22 L-11,15 L-7,7 Z " fill="#4E5660" transform="translate(59,10)"/>
<path d="M0,0 L1,2 L3,2 L4,0 L6,5 L4,8 L7,8 L8,11 L6,14 L-11,16 L-22,15 L-23,12 L-20,12 L-20,14 L-16,13 L-8,13 L-5,10 L-7,9 L-7,7 L-4,6 L-4,8 L-2,8 L-1,1 Z " fill="#08121D" transform="translate(89,129)"/>
<path d="M0,0 L6,1 L7,6 L1,16 L-3,17 L-8,12 L-6,8 L-3,5 Z " fill="#7D8288" transform="translate(19,105)"/>
<path d="M0,0 L5,0 L6,7 L5,15 L2,12 L2,10 L-7,13 L-17,13 L-20,10 L-15,11 L-12,12 L-11,10 L-9,9 L-7,5 L-4,6 L-4,4 Z " fill="#091622" transform="translate(60,97)"/>
<path d="M0,0 L4,0 L3,3 L0,6 L-2,11 L2,12 L4,11 L4,16 L-1,19 L-3,19 L-5,24 L-7,26 L-13,28 L-16,30 L-14,26 L-8,19 L-5,18 L-6,13 L-3,4 L-1,4 Z M-4,12 Z " fill="#27333F" transform="translate(92,49)"/>
<path d="M0,0 L4,1 L5,9 L6,13 L1,15 L-3,14 L-7,7 L-3,1 Z " fill="#6C6F74" transform="translate(20,72)"/>
<path d="M0,0 L7,1 L7,8 L2,15 L-4,14 L-6,10 L-2,5 Z " fill="#7F838A" transform="translate(121,67)"/>
<path d="M0,0 L3,1 L-3,3 L-14,4 L-15,11 L-19,13 L-19,15 L-23,14 L-24,12 L-24,2 L-22,3 L-18,2 Z " fill="#4A535E" transform="translate(61,91)"/>
<path d="M0,0 L5,4 L13,3 L16,6 L17,11 L22,12 L22,15 L13,14 L9,10 L2,7 L0,6 Z " fill="#141F2B" transform="translate(114,122)"/>
<path d="M0,0 L12,0 L12,2 L10,3 L10,5 L21,5 L21,6 L-11,6 L-11,3 L-2,2 Z " fill="#222C36" transform="translate(57,139)"/>
<path d="M0,0 L2,2 L2,10 L4,15 L7,14 L7,11 L10,12 L9,18 L5,19 L8,24 L10,25 L10,28 L7,29 L2,21 L-1,18 L-1,4 Z " fill="#192530" transform="translate(35,103)"/>
<path d="M0,0 L2,0 L1,7 L-2,13 L-3,20 L-5,24 L-5,27 L-10,30 L-9,22 L-13,23 L-8,18 L-6,13 L-7,9 L-3,9 L-4,6 Z " fill="#202E3A" transform="translate(106,72)"/>
<path d="M0,0 L4,1 L4,4 L2,7 L4,7 L4,10 L2,10 L2,12 L5,13 L1,14 L-4,10 L-4,7 L-9,6 L-10,2 L-6,1 L-6,3 Z " fill="#16232F" transform="translate(68,16)"/>
<path d="M0,0 L19,0 L29,1 L29,2 L11,2 L11,4 L16,4 L16,5 L-13,5 L-16,3 L-3,2 Z " fill="#656B73" transform="translate(104,140)"/>
<path d="M0,0 L6,1 L6,5 L0,13 L-6,12 L-7,7 L-2,3 Z " fill="#70747A" transform="translate(36,52)"/>
<path d="M0,0 L7,1 L6,3 L3,3 L2,6 L-2,8 L-3,13 L-9,14 L-12,9 L-10,8 L-9,8 L-6,2 Z " fill="#3F4853" transform="translate(53,79)"/>
<path d="M0,0 L3,1 L3,5 L1,5 L1,7 L-2,7 L-4,12 L-5,20 L-1,21 L-5,29 L-7,33 L-8,29 L-7,12 L-3,4 Z " fill="#2C3742" transform="translate(73,82)"/>
<path d="M0,0 L8,0 L7,2 L4,2 L3,6 L-4,7 L4,8 L1,10 L-4,11 L-4,13 L-6,13 L-7,15 L-10,12 L-8,11 L-9,6 L-10,4 L-4,4 Z " fill="#29343F" transform="translate(68,62)"/>
<path d="M0,0 L4,5 L6,7 L0,8 L-2,13 L1,16 L-5,15 L-3,19 L-1,21 L-7,21 L-8,24 L-9,18 L-3,6 L-1,2 Z " fill="#687078" transform="translate(47,73)"/>
<path d="M0,0 L29,1 L25,2 L25,4 L10,5 L7,6 L2,5 L2,3 L0,2 Z " fill="#8F949C" transform="translate(3,137)"/>
<path d="M0,0 L4,1 L8,5 L5,6 L9,8 L-4,8 L-7,7 L-7,4 L-5,4 L-5,2 Z " fill="#24313C" transform="translate(77,135)"/>
<path d="M0,0 L11,0 L19,1 L53,2 L53,3 L11,4 L4,2 Z " fill="#A2A8AF" transform="translate(26,143)"/>
<path d="M0,0 L2,0 L3,3 L2,8 L1,6 L-4,7 L-6,10 L-8,10 L-8,12 L-11,11 L-10,3 Z M-12,11 Z " fill="#172532" transform="translate(64,91)"/>
<path d="M0,0 L4,2 L10,3 L9,5 L4,5 L11,9 L10,12 L2,13 L-1,10 L2,9 L0,7 Z " fill="#1F2B37" transform="translate(62,48)"/>
<path d="M0,0 L4,2 L3,7 L0,10 L-5,10 L-9,5 L-8,2 L-5,2 L-4,5 L-1,5 L-2,1 Z " fill="#72767D" transform="translate(128,106)"/>
<path d="M0,0 L4,2 L10,13 L13,23 L13,26 L11,26 L10,28 L9,22 L6,14 L0,2 Z " fill="#25323D" transform="translate(97,19)"/>
<path d="M0,0 L5,2 L3,7 L-1,11 L-6,10 L-6,6 L-3,5 L-1,1 Z " fill="#BEC0C2" transform="translate(24,35)"/>
<path d="M0,0 L11,1 L11,2 L6,3 L4,6 L0,8 L-1,12 L-3,12 L-3,10 L-6,9 L-2,7 L-6,5 L-5,2 Z " fill="#626C76" transform="translate(65,7)"/>
<path d="M0,0 L4,1 L4,6 L6,6 L6,8 L2,8 L2,11 L-4,14 L-7,13 L-5,11 L0,9 L0,6 L-8,6 L-10,4 L-1,4 Z " fill="#172431" transform="translate(72,64)"/>
<path d="M0,0 L3,1 L3,3 L6,4 L7,9 L5,11 L0,10 L-3,7 L-2,3 Z " fill="#696E77" transform="translate(126,44)"/>
<path d="M0,0 L4,2 L5,4 L3,10 L-2,9 L-6,10 L-5,5 L-3,1 L-1,2 Z " fill="#59616A" transform="translate(56,66)"/>
<path d="M0,0 L6,2 L4,7 L1,10 L-4,10 L-5,6 Z " fill="#575B66" transform="translate(129,20)"/>
<path d="M0,0 L1,0 L1,21 L-3,23 L-5,22 L-4,19 L-2,19 L-3,4 L0,3 Z " fill="#121E29" transform="translate(110,45)"/>
<path d="M0,0 L29,1 L27,2 L27,4 L11,4 L11,2 L0,2 Z " fill="#D5D6D8" transform="translate(58,148)"/>
<path d="M0,0 L1,0 L0,20 L-1,28 L-2,28 L-3,19 L-3,6 L-2,1 Z " fill="#56606A" transform="translate(35,92)"/>
<path d="M0,0 L8,0 L14,1 L14,5 L-7,5 L-4,2 Z " fill="#A5AAAF" transform="translate(127,138)"/>
<path d="M0,0 L2,0 L2,2 L0,2 L1,6 L-1,6 L-1,11 L-4,13 L-11,13 L-7,12 L-6,6 L-1,1 Z " fill="#17232E" transform="translate(65,79)"/>
<path d="M0,0 L4,1 L4,6 L0,6 L-1,10 L-4,9 L-5,2 Z " fill="#7A7C80" transform="translate(119,97)"/>
<path d="M0,0 L9,1 L14,3 L15,5 L16,1 L17,2 L17,9 L13,8 L13,5 L9,5 L7,7 L4,4 L2,4 L2,2 L0,2 Z " fill="#25323D" transform="translate(59,30)"/>
<path d="M0,0 L9,2 L9,4 L7,4 L5,8 L-1,7 Z " fill="#464F58" transform="translate(59,59)"/>
<path d="M0,0 L9,1 L7,4 L-3,4 L-2,7 L2,8 L-1,9 L-2,11 L-6,12 L-4,8 L-8,5 L-6,5 L-6,3 L0,2 Z " fill="#525C67" transform="translate(76,10)"/>
<path d="M0,0 L6,0 L6,2 L12,1 L13,3 L-10,3 L-13,1 Z " fill="#5A616A" transform="translate(101,142)"/>
<path d="M0,0 L5,0 L8,4 L6,6 L6,4 L1,7 L-3,7 L-2,1 Z " fill="#7B8086" transform="translate(22,130)"/>
<path d="M0,0 L7,1 L6,6 L3,6 L4,9 L-2,8 L-1,1 Z " fill="#8D9298" transform="translate(121,67)"/>
<path d="M0,0 L4,0 L4,3 L6,3 L5,5 L-1,4 L-2,6 L-2,8 L-7,7 L-8,9 L-9,5 L0,2 Z " fill="#17212C" transform="translate(58,25)"/>
<path d="M0,0 L1,2 L-1,3 L3,5 L7,4 L5,9 L1,10 L-4,5 L-2,1 Z " fill="#606771" transform="translate(15,112)"/>
<path d="M0,0 L3,1 L3,5 L1,5 L1,7 L-2,7 L-6,18 L-7,18 L-7,12 L-3,4 Z " fill="#606A73" transform="translate(73,82)"/>
<path d="M0,0 L4,1 L3,5 L1,9 L0,10 L3,10 L3,12 L-2,12 L-2,9 L-4,9 L-2,4 L1,2 L-3,3 L-3,1 Z " fill="#5B5E67" transform="translate(20,72)"/>
<path d="M0,0 L2,1 L1,2 L5,4 L3,6 L-3,7 L-5,11 L-8,10 L-6,6 Z " fill="#202734" transform="translate(59,10)"/>
<path d="M0,0 L5,5 L7,9 L5,11 L3,8 L2,10 L-1,10 L-1,8 L0,7 L-2,3 Z " fill="#11202D" transform="translate(102,108)"/>
<path d="M0,0 L11,1 L8,3 L3,4 L3,6 L1,6 L0,8 L-3,5 L-1,4 Z " fill="#38434E" transform="translate(61,69)"/>
<path d="M0,0 L5,0 L8,2 L8,4 L-13,4 L-13,3 L-6,1 L-6,3 L-1,1 Z " fill="#262D38" transform="translate(25,134)"/>
<path d="M0,0 L2,3 L0,7 L-8,7 L-11,4 L-4,4 L-4,1 Z " fill="#676F75" transform="translate(41,130)"/>
<path d="M0,0 L5,4 L13,3 L13,6 L6,8 L0,6 Z " fill="#37434E" transform="translate(114,122)"/>
<path d="M0,0 L4,2 L11,6 L10,8 L1,7 L-3,6 L-5,7 L-5,4 L1,4 L0,3 Z " fill="#0B131D" transform="translate(62,25)"/>
<path d="M0,0 L3,0 L3,2 L7,1 L8,5 L6,5 L8,11 L5,9 L5,6 L0,5 L-1,1 Z " fill="#1E2A37" transform="translate(59,17)"/>
<path d="M0,0 L9,0 L8,2 L-1,2 L-2,5 L-10,4 L-9,1 Z " fill="#6F747A" transform="translate(47,140)"/>
<path d="M0,0 L3,0 L4,3 L-3,6 L-4,7 L-10,7 L-10,5 L-5,4 L-5,2 Z " fill="#2B3743" transform="translate(69,71)"/>
<path d="M0,0 L11,1 L14,3 L14,5 L20,5 L20,6 L12,6 L11,5 L6,5 L6,3 L0,1 Z " fill="#1F2B37" transform="translate(113,134)"/>
<path d="M0,0 L9,0 L10,5 L7,6 L2,5 L2,3 L0,2 Z " fill="#B8BABD" transform="translate(3,137)"/>
<path d="M0,0 L7,0 L5,1 L5,3 L11,2 L11,4 L-4,4 L-4,2 L0,2 Z " fill="#081320" transform="translate(114,136)"/>
<path d="M0,0 L3,0 L2,5 L-2,7 L-2,9 L-6,8 L-7,5 L-6,3 L0,2 Z " fill="#37414D" transform="translate(44,97)"/>
<path d="M0,0 L4,4 L7,7 L7,10 L4,11 L-1,3 L-3,1 Z " fill="#2A3743" transform="translate(38,121)"/>
<path d="M0,0 L5,2 L15,5 L15,6 L5,5 L3,4 L2,9 L0,7 Z " fill="#4D555E" transform="translate(36,106)"/>
<path d="M0,0 L3,1 L1,3 L-3,6 L-6,7 L-7,5 L-13,4 L-13,3 L-2,1 Z " fill="#222E39" transform="translate(59,107)"/>
<path d="M0,0 L2,0 L2,2 L8,3 L9,6 L4,8 L0,4 Z " fill="#13212E" transform="translate(58,35)"/>
<path d="M0,0 L2,3 L0,3 L0,5 L-10,5 L-13,2 L-8,3 L-5,4 L-4,2 Z " fill="#101E2A" transform="translate(53,105)"/>
<path d="M0,0 L2,0 L3,3 L4,0 L4,4 L2,6 L-8,6 L-4,5 L-3,2 L0,2 Z " fill="#1E2B37" transform="translate(54,87)"/>
<path d="M0,0 L3,2 L3,4 L-3,6 L-4,8 L-7,8 L-6,2 L-1,2 Z " fill="#505861" transform="translate(55,30)"/>
<path d="M0,0 L11,1 L11,2 L6,3 L4,6 L1,5 L2,3 L-3,3 Z " fill="#525B65" transform="translate(65,7)"/>
<path d="M0,0 L3,1 L-1,8 L-5,8 L-4,4 Z " fill="#3D4851" transform="translate(86,125)"/>
<path d="M0,0 L2,0 L3,7 L1,7 L1,5 L-5,7 L-2,1 Z " fill="#313E4A" transform="translate(87,98)"/>
<path d="M0,0 L2,2 L-3,4 L-5,8 L-3,8 L-3,11 L-6,10 L-8,6 L-3,1 Z " fill="#9A9FA5" transform="translate(21,73)"/>
<path d="M0,0 L4,0 L3,4 L0,7 L-4,6 Z " fill="#D6D8DA" transform="translate(129,22)"/>
<path d="M0,0 L3,2 L1,9 L-2,12 L-2,5 Z " fill="#5C646D" transform="translate(50,20)"/>
<path d="M0,0 L4,1 L8,5 L3,7 L0,6 L0,2 Z " fill="#38454E" transform="translate(77,135)"/>
<path d="M0,0 L4,1 L3,6 L0,6 L-1,4 L-4,4 L-5,1 L-1,1 Z " fill="#555863" transform="translate(124,105)"/>
<path d="M0,0 L8,1 L7,4 L1,6 L1,4 L-1,2 Z " fill="#202A34" transform="translate(43,111)"/>
<path d="M0,0 L2,2 L-3,12 L-5,9 L-1,1 Z " fill="#596168" transform="translate(40,79)"/>
<path d="M0,0 L2,0 L1,5 L-2,7 L-5,7 L-3,1 L-1,2 Z " fill="#7E868B" transform="translate(56,66)"/>
<path d="M0,0 L2,1 L1,8 L-2,7 L-2,5 L-4,5 L-5,7 L-7,5 L-4,3 L0,3 Z " fill="#232D38" transform="translate(58,31)"/>
<path d="M0,0 L5,2 L1,7 L-2,7 L-3,4 Z " fill="#040F19" transform="translate(79,17)"/>
<path d="M0,0 L4,0 L3,4 L0,6 L-4,5 L-2,4 L-2,2 L0,2 Z " fill="#1A2733" transform="translate(48,103)"/>
<path d="M0,0 L2,4 L5,5 L5,3 L7,4 L3,8 L-3,9 L0,7 L-1,4 Z " fill="#162431" transform="translate(76,35)"/>
<path d="M0,0 L4,0 L4,2 L15,2 L15,3 L-2,3 Z " fill="#50585F" transform="translate(63,142)"/>
<path d="M0,0 L4,0 L3,6 L-1,6 Z " fill="#23303B" transform="translate(76,115)"/>
<path d="M0,0 L2,0 L4,8 L-1,7 Z " fill="#686F77" transform="translate(59,59)"/>
<path d="M0,0 L1,3 L5,3 L4,6 L-1,7 L-4,4 L-1,3 Z " fill="#B1B7B9" transform="translate(17,111)"/>
<path d="M0,0 L3,2 L-7,3 L-7,5 L-10,5 L-11,1 Z " fill="#2B3640" transform="translate(85,80)"/>
<path d="M0,0 L3,2 L-3,3 L-3,6 L-7,7 L-6,2 Z " fill="#525A64" transform="translate(53,79)"/>
<path d="M0,0 L5,4 L4,6 L2,6 L0,7 L0,5 L-2,4 L-2,1 Z " fill="#182835" transform="translate(45,130)"/>
<path d="M0,0 L3,1 L5,0 L5,3 L8,4 L5,7 L0,3 Z " fill="#9A9DA0" transform="translate(119,108)"/>
<path d="M0,0 L4,5 L6,7 L0,7 L-3,8 L-1,2 Z " fill="#838A92" transform="translate(47,73)"/>
<path d="M0,0 L4,2 L10,3 L9,5 L1,5 Z " fill="#1D2731" transform="translate(62,48)"/>
<path d="M0,0 L5,2 L4,4 L-1,4 L0,7 L-6,7 L-5,5 L-3,5 L-1,1 Z " fill="#767980" transform="translate(24,35)"/>
<path d="M0,0 L11,0 L10,3 L5,3 L0,1 Z " fill="#C9CDCF" transform="translate(26,143)"/>
<path d="M0,0 L4,1 L2,1 L2,3 L7,3 L7,4 L1,4 L-3,3 L-6,3 L-6,1 Z " fill="#6F757B" transform="translate(113,141)"/>
<path d="M0,0 L10,0 L10,2 L0,3 Z " fill="#5D686F" transform="translate(59,139)"/>
<path d="M0,0 L6,0 L6,2 L11,2 L11,3 L0,3 Z " fill="#888D91" transform="translate(137,135)"/>
<path d="M0,0 L2,1 L0,6 L-3,8 L-6,8 L-6,6 L-2,4 Z " fill="#9498A0" transform="translate(137,80)"/>
<path d="M0,0 L3,0 L4,8 L2,8 L2,6 L-2,7 L-2,5 L0,5 Z " fill="#9EA1A3" transform="translate(21,76)"/>
<path d="M0,0 L3,1 L2,3 L4,4 L-5,5 L-4,3 Z " fill="#16222D" transform="translate(80,75)"/>
<path d="M0,0 L2,0 L4,7 L0,6 L-1,1 Z " fill="#E5E6E8" transform="translate(126,46)"/>
<path d="M0,0 L1,0 L1,6 L-1,12 L-2,12 L-3,4 L0,3 Z " fill="#3B4651" transform="translate(110,45)"/>
<path d="M0,0 L9,1 L8,4 L2,4 L2,2 L0,2 Z " fill="#5C636A" transform="translate(59,30)"/>
<path d="M0,0 L3,1 L3,5 L1,5 L1,7 L-2,6 Z " fill="#49535B" transform="translate(73,82)"/>
<path d="M0,0 L5,2 L5,4 L-2,4 L-4,2 Z " fill="#4C5661" transform="translate(54,74)"/>
<path d="M0,0 L1,2 L0,7 L-2,7 L-3,10 L-5,7 Z " fill="#3E4550" transform="translate(58,59)"/>
<path d="M0,0 L3,1 L3,3 L6,4 L5,8 L2,5 L2,2 L-1,3 Z " fill="#84868E" transform="translate(126,44)"/>
<path d="M0,0 L9,1 L9,3 L0,3 Z " fill="#AFAFB2" transform="translate(100,147)"/>
<path d="M0,0 L3,1 L6,7 L4,9 L0,3 Z " fill="#283540" transform="translate(103,110)"/>
<path d="M0,0 L2,0 L3,4 L4,6 L-3,7 Z " fill="#505961" transform="translate(61,52)"/>
<path d="M0,0 L0,3 L-1,6 L-3,6 L-4,9 L-5,9 L-5,2 L-4,4 L-2,4 Z " fill="#05101C" transform="translate(92,47)"/>
<path d="M0,0 L2,1 L4,3 L3,5 L-2,4 L-3,1 Z " fill="#A5A9AF" transform="translate(20,41)"/>
<path d="M0,0 L5,0 L5,2 L3,2 L3,4 L-1,6 L-4,5 L0,2 Z " fill="#3D4952" transform="translate(55,23)"/>
<path d="M0,0 L4,1 L6,5 L2,5 Z " fill="#797E84" transform="translate(105,14)"/>
<path d="M0,0 L7,4 L7,7 L-2,2 Z " fill="#313A44" transform="translate(89,11)"/>
<path d="M0,0 L1,2 L-1,4 L2,8 L-3,7 L-4,3 Z " fill="#7F858B" transform="translate(15,112)"/>
<path d="M0,0 L2,1 L-1,10 L-3,9 L-2,2 Z " fill="#363F4B" transform="translate(51,67)"/>
<path d="M0,0 L3,2 L2,6 L-2,5 Z " fill="#535964" transform="translate(19,109)"/>
<path d="M0,0 L4,1 L0,2 L-1,5 L-4,6 L-4,3 L-2,3 L-2,1 Z " fill="#363F49" transform="translate(56,80)"/>
<path d="M0,0 L4,4 L4,6 L-1,5 L-2,2 Z " fill="#A1A6A9" transform="translate(32,58)"/>
<path d="M0,0 L2,1 L1,5 L-3,8 L-2,4 Z M-4,8 Z " fill="#0F1E2B" transform="translate(92,53)"/>
<path d="M0,0 L4,1 L4,4 L1,6 Z " fill="#0E1A29" transform="translate(68,16)"/>
<path d="M0,0 L4,0 L4,2 L1,2 L0,4 L-4,3 L-4,1 Z " fill="#5C6369" transform="translate(32,138)"/>
<path d="M0,0 L6,0 L2,1 L2,3 L-6,3 L-2,1 Z " fill="#767C82" transform="translate(26,138)"/>
<path d="M0,0 L3,1 L6,3 L4,3 L2,7 L0,3 Z " fill="#BBBEBF" transform="translate(115,100)"/>
<path d="M0,0 L3,1 L2,4 L0,4 L0,6 L-3,5 L-2,3 L0,3 Z M-4,5 Z " fill="#141F2C" transform="translate(56,97)"/>
<path d="M0,0 L2,0 L3,5 L-2,8 Z " fill="#3E4953" transform="translate(98,94)"/>
<path d="M0,0 L0,3 L-1,6 L-3,6 L-3,8 L-6,7 Z " fill="#252F39" transform="translate(87,67)"/>
<path d="M0,0 L7,1 L6,4 L4,3 L0,4 Z " fill="#676F79" transform="translate(50,72)"/>
<path d="M0,0 L3,0 L5,6 L1,5 L-1,2 Z " fill="#343D48" transform="translate(63,53)"/>
<path d="M0,0 L2,2 L4,0 L5,4 L1,5 Z " fill="#101B27" transform="translate(34,117)"/>
<path d="M0,0 L4,1 L6,3 L1,6 Z " fill="#17232E" transform="translate(106,117)"/>
<path d="M0,0 L3,0 L4,3 L-2,5 L-1,1 Z " fill="#222E3B" transform="translate(69,71)"/>
<path d="M0,0 L2,0 L2,2 L4,2 L3,6 L0,5 L-1,2 Z " fill="#38434F" transform="translate(54,36)"/>
</svg>
