<?xml version="1.0" encoding="UTF-8"?>
<!-- Generator: visioncortex VTracer 0.6.5 -->
<svg version="1.1" xmlns="http://www.w3.org/2000/svg" width="163" height="160">
<path d="M0,0 L163,0 L163,160 L0,160 Z " fill="#F5F6F6" transform="translate(0,0)"/>
<path d="M0,0 L0,3 L-10,12 L-12,15 L-17,17 L-28,26 L-41,38 L-42,42 L-44,42 L-42,48 L-41,53 L-29,52 L-19,49 L-22,52 L-28,54 L-42,54 L-43,59 L-45,62 L-45,72 L-48,72 L-49,81 L-51,85 L-54,85 L-60,94 L-63,96 L-65,96 L-68,100 L-72,99 L-73,103 L-68,103 L-59,109 L-54,116 L-54,118 L-46,117 L-40,118 L-40,120 L-31,120 L-25,121 L-25,123 L-19,124 L-19,125 L-30,127 L-35,127 L-35,130 L-14,130 L-14,131 L-29,132 L-29,133 L-42,133 L-42,135 L-66,135 L-66,133 L-111,133 L-113,131 L-123,130 L-123,129 L-117,128 L-121,125 L-126,124 L-124,123 L-125,120 L-115,121 L-120,114 L-121,109 L-124,106 L-123,103 L-122,99 L-110,93 L-108,92 L-108,95 L-105,92 L-98,84 L-88,75 L-82,70 L-80,71 L-82,74 L-77,69 L-75,62 L-74,60 L-76,59 L-73,58 L-73,51 L-75,50 L-74,47 L-82,51 L-84,51 L-85,54 L-93,56 L-97,53 L-97,48 L-94,49 L-92,46 L-91,47 L-89,44 L-88,45 L-87,43 L-84,43 L-84,41 L-82,41 L-82,36 L-84,36 L-85,39 L-86,38 L-87,40 L-89,40 L-89,38 L-91,38 L-91,41 L-93,41 L-93,39 L-95,39 L-95,43 L-97,43 L-99,41 L-101,43 L-103,40 L-103,33 L-99,26 L-93,18 L-89,16 L-85,16 L-78,12 L-75,12 L-75,14 L-70,12 L-64,12 L-66,13 L-66,15 L-56,16 L-50,20 L-54,21 L-54,23 L-52,23 L-45,31 L-46,35 L-44,36 L-39,31 L-30,24 L-20,16 L-18,15 L-15,10 L-4,2 Z " fill="#0D1A27" transform="translate(142,19)"/>
<path d="M0,0 L0,3 L-10,12 L-12,15 L-17,17 L-28,26 L-41,38 L-42,42 L-44,42 L-42,48 L-41,53 L-29,52 L-19,49 L-22,52 L-28,54 L-42,54 L-43,59 L-45,61 L-46,60 L-46,55 L-57,57 L-61,58 L-66,59 L-71,64 L-72,69 L-72,73 L-72,77 L-75,77 L-75,80 L-79,81 L-81,87 L-78,88 L-84,93 L-77,93 L-79,95 L-87,96 L-91,100 L-90,96 L-89,95 L-95,94 L-95,96 L-97,96 L-98,100 L-102,102 L-106,98 L-106,96 L-108,95 L-105,92 L-98,84 L-88,75 L-82,70 L-80,71 L-82,74 L-77,69 L-75,62 L-74,60 L-76,59 L-73,58 L-73,51 L-75,50 L-74,47 L-82,51 L-84,51 L-85,54 L-93,56 L-97,53 L-97,48 L-94,49 L-92,46 L-91,47 L-89,44 L-88,45 L-87,43 L-84,43 L-84,41 L-82,41 L-82,36 L-84,36 L-85,39 L-86,38 L-87,40 L-89,40 L-89,38 L-91,38 L-91,41 L-93,41 L-93,39 L-95,39 L-95,43 L-97,43 L-99,41 L-101,43 L-103,40 L-103,33 L-99,26 L-93,18 L-89,16 L-85,16 L-78,12 L-75,12 L-75,14 L-70,12 L-64,12 L-66,13 L-66,15 L-56,16 L-50,20 L-54,21 L-54,23 L-52,23 L-45,31 L-46,35 L-44,36 L-39,31 L-30,24 L-20,16 L-18,15 L-15,10 L-4,2 Z " fill="#24303C" transform="translate(142,19)"/>
<path d="M0,0 L5,0 L6,3 L8,3 L9,1 L10,5 L14,6 L14,4 L18,5 L20,10 L18,10 L18,12 L21,13 L20,15 L20,18 L18,19 L21,25 L17,27 L14,26 L14,31 L10,35 L1,34 L-1,29 L-5,30 L-11,32 L-12,35 L-20,37 L-24,34 L-24,29 L-21,30 L-19,27 L-18,28 L-16,25 L-15,26 L-14,24 L-11,24 L-11,22 L-9,22 L-9,17 L-11,17 L-12,20 L-13,19 L-14,21 L-16,21 L-16,19 L-18,19 L-18,22 L-20,22 L-20,20 L-22,20 L-22,24 L-24,24 L-26,22 L-28,24 L-29,20 L-26,20 L-26,16 L-24,15 L-24,12 L-20,7 L-15,6 L-13,12 L-13,10 L-11,9 L-11,7 L-13,6 L-8,3 L-6,3 L-6,1 L0,2 Z " fill="#0B1E2D" transform="translate(69,38)"/>
<path d="M0,0 L1,0 L1,8 L-3,19 L-7,32 L-14,41 L-22,46 L-28,48 L-40,48 L-43,41 L-44,36 L-41,36 L-40,32 L-24,17 L-15,10 L-11,9 L-6,3 Z " fill="#F5F7F6" transform="translate(141,24)"/>
<path d="M0,0 L5,0 L5,2 L10,3 L8,4 L8,6 L12,4 L15,4 L15,2 L19,3 L19,8 L23,10 L25,14 L26,12 L28,12 L28,14 L30,14 L30,17 L37,17 L41,18 L41,20 L31,21 L14,21 L14,23 L-22,23 L-22,22 L-16,21 L-26,19 L-23,17 L-28,16 L-28,14 L-30,13 L-30,11 L-24,12 L-24,10 L-17,8 L-20,5 L-10,3 L0,2 Z " fill="#0A1926" transform="translate(63,127)"/>
<path d="M0,0 L17,0 L23,2 L31,7 L36,14 L36,16 L44,15 L50,16 L50,18 L59,18 L65,19 L65,21 L71,22 L71,23 L60,25 L55,25 L55,28 L76,28 L76,29 L61,30 L61,31 L48,31 L48,33 L24,33 L24,31 L-21,31 L-23,29 L-33,28 L-33,27 L-27,26 L-31,23 L-36,22 L-34,21 L-35,18 L-25,19 L-24,17 L-23,23 L-18,24 L-17,26 L-5,26 L-4,28 L25,29 L25,27 L48,26 L52,26 L52,24 L41,23 L41,20 L39,20 L39,18 L37,18 L36,21 L31,16 L29,12 L29,9 L26,8 L26,10 L19,12 L18,9 L16,8 L16,6 L13,6 L12,8 L7,7 L6,4 L2,4 L2,2 L-1,4 L1,6 L-5,6 L-5,4 L-11,6 L-8,3 Z " fill="#2F3A45" transform="translate(52,121)"/>
<path d="M0,0 L3,3 L3,7 L15,6 L25,3 L22,6 L16,8 L2,8 L1,13 L-1,15 L-2,14 L-2,9 L-13,11 L-17,12 L-22,13 L-27,18 L-28,23 L-28,27 L-28,31 L-31,31 L-31,34 L-35,35 L-37,41 L-34,42 L-40,47 L-33,47 L-35,49 L-43,50 L-47,54 L-46,50 L-45,49 L-51,48 L-51,50 L-53,50 L-54,54 L-58,56 L-62,52 L-62,50 L-64,49 L-61,46 L-54,38 L-44,29 L-38,24 L-36,25 L-38,28 L-33,23 L-31,16 L-30,14 L-32,13 L-29,12 L-29,5 L-31,4 L-29,2 L-28,7 L-19,7 L-16,4 L-14,5 L-15,7 L-8,8 L-1,7 L-1,1 Z " fill="#222E3A" transform="translate(98,65)"/>
<path d="M0,0 L1,4 L3,4 L5,8 L8,9 L11,8 L12,4 L14,4 L14,2 L21,2 L19,5 L19,11 L9,15 L14,14 L14,16 L18,15 L18,12 L21,12 L21,14 L25,14 L27,18 L24,20 L12,21 L11,22 L15,25 L6,26 L6,28 L0,27 L0,29 L3,30 L7,32 L9,34 L8,36 L2,37 L-4,36 L-2,34 L-4,33 L-5,27 L-9,25 L-11,20 L-12,17 L-15,14 L-14,11 L-13,7 L-1,1 Z " fill="#101D29" transform="translate(33,111)"/>
<path d="M0,0 L5,0 L6,3 L8,3 L9,1 L10,5 L14,6 L14,4 L18,5 L20,10 L18,10 L18,12 L21,13 L20,15 L20,18 L18,19 L21,25 L17,27 L13,25 L11,21 L8,22 L8,24 L2,26 L2,23 L-3,24 L-3,16 L-6,15 L-9,11 L-9,7 L-13,6 L-8,3 L-6,3 L-6,1 L0,2 Z M-8,10 Z " fill="#0D1B27" transform="translate(69,38)"/>
<path d="M0,0 L1,4 L3,4 L1,8 L-5,17 L-10,20 L-12,20 L-12,23 L-20,24 L-17,26 L-23,29 L-26,34 L-27,37 L-38,43 L-41,43 L-40,35 L-39,28 L-35,24 L-33,24 L-27,16 L-26,18 L-17,12 L-13,12 L-7,9 L-6,7 L-8,6 L-6,4 L0,4 Z " fill="#2B3946" transform="translate(62,73)"/>
<path d="M0,0 L3,0 L4,10 L4,17 L1,17 L1,22 L-2,22 L-4,23 L-2,18 L0,18 L0,11 L-4,7 L-9,7 L-10,12 L-11,14 L-6,13 L-6,15 L-14,17 L-13,22 L-15,25 L-19,26 L-20,27 L-18,28 L-18,30 L-26,31 L-27,29 L-31,27 L-30,25 L-26,25 L-26,22 L-23,22 L-24,18 L-22,15 L-24,14 L-23,9 L-19,4 L-16,2 L-9,2 L-9,1 Z " fill="#0C1B27" transform="translate(93,74)"/>
<path d="M0,0 L0,3 L-10,12 L-12,15 L-17,17 L-28,26 L-41,38 L-42,42 L-44,42 L-45,53 L-52,55 L-57,55 L-61,53 L-59,50 L-60,49 L-60,44 L-54,45 L-54,42 L-55,38 L-54,33 L-52,30 L-50,30 L-50,32 L-48,32 L-44,36 L-39,31 L-30,24 L-20,16 L-18,15 L-15,10 L-4,2 Z " fill="#10202D" transform="translate(142,19)"/>
<path d="M0,0 L2,2 L2,6 L7,7 L8,9 L20,9 L21,11 L50,12 L50,10 L73,9 L80,10 L101,11 L101,12 L86,13 L86,14 L73,14 L73,16 L49,16 L49,14 L4,14 L2,12 L-8,11 L-8,10 L-2,9 L-6,6 L-11,5 L-9,4 L-10,1 L0,2 Z " fill="#92969B" transform="translate(27,138)"/>
<path d="M0,0 L3,0 L4,4 L4,11 L4,12 L2,16 L0,23 L-5,28 L-7,27 L-5,24 L-16,34 L-24,41 L-29,48 L-31,48 L-32,46 L-42,52 L-47,53 L-53,50 L-53,48 L-55,48 L-56,46 L-56,39 L-53,36 L-53,46 L-49,50 L-47,51 L-46,46 L-44,49 L-39,48 L-33,44 L-30,44 L-29,38 L-25,34 L-23,33 L-23,30 L-15,30 L-15,27 L-7,22 L-2,14 L0,11 L-2,11 L-3,4 L-5,3 Z " fill="#EBF1F1" transform="translate(65,66)"/>
<path d="M0,0 L3,1 L0,8 L-3,10 L-4,9 L-6,12 L-9,26 L-11,24 L-12,28 L-17,26 L-19,23 L-19,15 L-17,10 L-11,6 L-8,1 L-7,4 L-1,1 Z " fill="#ECEFEF" transform="translate(30,89)"/>
<path d="M0,0 L2,2 L2,8 L1,9 L2,14 L5,14 L14,19 L14,20 L5,21 L5,23 L-1,22 L-1,24 L2,25 L6,27 L8,29 L7,31 L1,32 L-5,31 L-3,29 L-5,28 L-6,24 L-6,10 Z " fill="#182533" transform="translate(34,116)"/>
<path d="M0,0 L8,1 L15,3 L25,4 L26,6 L24,7 L23,11 L21,11 L21,9 L14,9 L12,12 L7,12 L7,14 L-1,14 L-1,13 L5,12 L-5,10 L-2,8 L-7,7 L-7,5 L-9,4 L-9,2 L-3,3 L-3,1 Z " fill="#071521" transform="translate(42,136)"/>
<path d="M0,0 L1,3 L3,3 L2,6 L-3,7 L0,9 L-6,12 L-9,17 L-10,20 L-21,26 L-24,26 L-24,23 L-22,23 L-18,13 L-11,5 L-6,2 Z " fill="#101D29" transform="translate(45,90)"/>
<path d="M0,0 L3,1 L15,0 L12,2 L16,2 L15,6 L13,5 L12,6 L6,9 L9,10 L7,14 L5,13 L5,15 L3,14 L3,9 L-3,12 L-6,16 L-6,19 L-8,19 L-8,23 L-12,24 L-12,17 L-8,10 L-2,2 Z " fill="#303B46" transform="translate(51,35)"/>
<path d="M0,0 L5,2 L7,5 L6,12 L4,12 L4,15 L6,13 L6,20 L3,23 L3,20 L-2,20 L-2,18 L-5,17 L-8,15 L-8,11 L-6,11 L-5,9 L0,9 L-5,8 L-3,1 Z " fill="#061420" transform="translate(87,80)"/>
<path d="M0,0 L3,1 L4,5 L2,5 L2,7 L5,8 L4,10 L4,13 L2,14 L5,20 L1,22 L-3,20 L-5,16 L-8,17 L-8,19 L-14,21 L-9,10 L-2,11 L-4,5 L-2,1 Z M-5,7 L-3,9 L-6,10 Z " fill="#081521" transform="translate(85,43)"/>
<path d="M0,0 L2,0 L4,6 L4,4 L6,4 L5,10 L6,14 L4,13 L3,15 L1,15 L1,13 L-1,13 L-1,16 L-3,16 L-3,14 L-5,14 L-5,18 L-7,18 L-9,16 L-11,18 L-12,14 L-9,14 L-9,10 L-7,9 L-7,6 L-3,1 Z " fill="#222C36" transform="translate(52,44)"/>
<path d="M0,0 L4,0 L4,2 L2,2 L3,7 L0,7 L0,9 L2,9 L2,11 L7,11 L5,15 L1,16 L0,17 L2,18 L2,20 L-6,21 L-7,19 L-11,17 L-10,15 L-6,15 L-6,12 L-3,12 L-4,8 L-2,5 L-4,4 L-3,1 Z " fill="#192632" transform="translate(73,84)"/>
<path d="M0,0 L3,3 L3,7 L15,6 L25,3 L22,6 L16,8 L2,8 L1,13 L-1,15 L-2,14 L-2,9 L-13,11 L-17,12 L-24,13 L-24,10 L-27,8 L-19,7 L-16,4 L-14,5 L-15,7 L-8,8 L-1,7 L-1,1 Z " fill="#6CADAD" transform="translate(98,65)"/>
<path d="M0,0 L0,3 L-10,12 L-12,15 L-17,17 L-28,26 L-40,37 L-43,34 L-34,27 L-25,20 L-18,15 L-15,10 L-4,2 Z " fill="#5B6D71" transform="translate(142,19)"/>
<path d="M0,0 L2,1 L-1,4 L1,5 L1,8 L3,9 L1,10 L-5,10 L-4,14 L-7,15 L-6,19 L-13,20 L-17,18 L-16,14 L-6,5 Z " fill="#48555E" transform="translate(60,89)"/>
<path d="M0,0 L2,1 L2,5 L7,5 L7,8 L5,13 L3,16 L2,21 L2,25 L2,28 L-5,29 L-7,30 L-8,26 L-3,21 L-1,14 L0,12 L-2,11 L1,10 L1,3 L-1,2 Z " fill="#47565E" transform="translate(68,67)"/>
<path d="M0,0 L3,1 L5,5 L10,5 L11,9 L8,9 L5,13 L1,13 L1,15 L-1,15 L-2,13 L-5,11 L-5,7 L-8,6 L-4,3 L-2,4 Z M-3,13 Z " fill="#0C1C2A" transform="translate(80,95)"/>
<path d="M0,0 L9,0 L9,3 L8,7 L3,8 L2,11 L-6,13 L-10,10 L-10,5 L-7,6 L-5,3 L-4,4 L-2,1 L-1,2 Z " fill="#1F2A38" transform="translate(55,62)"/>
<path d="M0,0 L2,0 L0,5 L-10,22 L-11,22 L-11,14 L-8,11 L-7,7 L-13,10 L-14,11 L-23,11 L-20,8 Z " fill="#29323E" transform="translate(154,8)"/>
<path d="M0,0 L9,0 L17,2 L20,1 L21,4 L14,7 L6,8 L-10,8 L-10,6 L2,3 L0,2 Z " fill="#D2D3D5" transform="translate(117,140)"/>
<path d="M0,0 L2,2 L2,6 L7,7 L8,9 L20,9 L21,11 L14,12 L2,12 L-8,11 L-8,10 L-2,9 L-6,6 L-11,5 L-9,4 L-10,1 L0,2 Z " fill="#363F49" transform="translate(27,138)"/>
<path d="M0,0 L3,0 L4,4 L4,11 L4,12 L2,16 L0,23 L-5,28 L-7,27 L-4,24 L-5,18 L0,11 L-2,11 L-3,4 L-5,3 Z " fill="#DDE8E6" transform="translate(65,66)"/>
<path d="M0,0 L5,2 L5,4 L-2,6 L-7,10 L-12,13 L-17,19 L-20,29 L-23,28 L-21,16 L-17,12 L-15,12 L-9,4 L-8,6 Z " fill="#5F666C" transform="translate(44,85)"/>
<path d="M0,0 L2,4 L1,13 L-6,15 L-11,15 L-15,13 L-5,4 Z " fill="#0C1B27" transform="translate(96,59)"/>
<path d="M0,0 L2,0 L1,4 L0,5 L3,6 L-2,11 L-5,15 L-5,18 L-7,18 L-7,22 L-11,23 L-11,16 L-7,9 L-1,1 Z " fill="#4A5059" transform="translate(50,36)"/>
<path d="M0,0 L1,2 L1,10 L5,14 L7,15 L8,10 L10,13 L15,12 L21,8 L24,8 L25,5 L31,1 L30,5 L25,12 L23,12 L22,10 L12,16 L7,17 L1,14 L1,12 L-1,12 L-2,10 L-2,3 Z " fill="#72A3A4" transform="translate(11,102)"/>
<path d="M0,0 L2,1 L3,5 L4,8 L8,9 L8,15 L7,17 L-1,19 L-1,15 L1,15 L1,10 L-3,9 L-2,5 Z M2,3 Z " fill="#1A2733" transform="translate(59,45)"/>
<path d="M0,0 L12,0 L16,1 L37,2 L37,3 L-14,3 L-14,1 Z " fill="#525A63" transform="translate(91,147)"/>
<path d="M0,0 L3,0 L3,2 L8,0 L14,0 L12,1 L12,3 L22,4 L22,5 L12,6 L3,6 L-1,7 L-4,5 L-7,4 Z " fill="#4F575F" transform="translate(64,31)"/>
<path d="M0,0 L2,1 L3,9 L2,11 L0,11 L-1,14 L-3,14 L-7,9 L-6,6 L-5,2 Z " fill="#192834" transform="translate(25,116)"/>
<path d="M0,0 L15,0 L15,1 L9,1 L9,3 L11,3 L11,5 L9,5 L9,7 L11,8 L7,7 L6,4 L2,4 L2,2 L-1,4 L1,6 L-5,6 L-5,4 L-11,6 L-8,3 Z " fill="#4A545C" transform="translate(52,121)"/>
<path d="M0,0 L7,1 L12,5 L7,6 L1,7 L-2,6 L-3,8 L-6,7 L-6,5 L-4,5 L-4,3 L-6,3 L-6,1 Z " fill="#323D47" transform="translate(67,121)"/>
<path d="M0,0 L2,0 L2,2 L12,3 L16,7 L14,8 L-3,7 L-4,2 L0,2 Z " fill="#A1A6AC" transform="translate(11,140)"/>
<path d="M0,0 L2,2 L2,8 L1,9 L4,20 L1,17 L-2,14 L-6,14 L-5,8 Z " fill="#3C4751" transform="translate(34,116)"/>
<path d="M0,0 L10,0 L15,6 L13,11 L10,9 L10,4 L7,3 L7,5 L0,7 L-1,4 L-3,2 Z " fill="#1D2A37" transform="translate(71,126)"/>
<path d="M0,0 L0,3 L-10,12 L-12,15 L-17,15 L-16,11 L-4,2 Z " fill="#363F4C" transform="translate(142,19)"/>
<path d="M0,0 L11,0 L15,2 L15,4 L7,4 L7,6 L-18,6 L-18,5 L3,5 L3,3 L0,2 Z " fill="#1E2C39" transform="translate(70,144)"/>
<path d="M0,0 L13,2 L14,4 L12,5 L11,9 L9,9 L9,7 L2,6 L2,4 L-4,6 L-4,4 Z " fill="#1F2C3A" transform="translate(54,138)"/>
<path d="M0,0 L1,4 L3,4 L1,8 L-4,16 L-6,14 L-7,9 L-6,7 L-8,6 L-6,4 L0,4 Z " fill="#273741" transform="translate(62,73)"/>
<path d="M0,0 L2,1 L2,5 L7,5 L7,8 L5,13 L-2,18 L-1,14 L0,12 L-2,11 L1,10 L1,3 L-1,2 Z " fill="#37646D" transform="translate(68,67)"/>
<path d="M0,0 L2,0 L1,6 L-6,18 L-7,18 L-7,10 L-4,7 L-2,1 Z " fill="#0F1A2A" transform="translate(150,12)"/>
<path d="M0,0 L2,1 L-3,7 L-10,12 L-11,17 L-17,18 L-16,14 L-6,5 Z " fill="#728E94" transform="translate(60,89)"/>
<path d="M0,0 L2,1 L-3,8 L-5,8 L-6,12 L-7,16 L-6,19 L-10,21 L-13,21 L-13,18 L-11,18 L-7,8 Z " fill="#343C46" transform="translate(34,95)"/>
<path d="M0,0 L9,0 L4,5 L0,5 L-1,8 L-6,8 L-6,3 L-4,4 L-2,1 L-1,2 Z " fill="#33414E" transform="translate(55,62)"/>
<path d="M0,0 L5,1 L6,9 L5,7 L3,7 L3,11 L1,11 L-1,9 L-3,11 L-4,7 L-1,7 L-1,3 L1,2 Z " fill="#384049" transform="translate(44,51)"/>
<path d="M0,0 L3,0 L2,6 L-1,7 L0,16 L-3,20 L-3,11 L-5,9 L-3,6 L-6,5 L-2,1 Z " fill="#CBD5D8" transform="translate(144,15)"/>
<path d="M0,0 L3,1 L0,8 L-3,10 L-4,7 L-2,7 L-3,5 L-12,9 L-14,8 L-11,6 L-8,1 L-7,4 L-1,1 Z " fill="#C3E3E1" transform="translate(30,89)"/>
<path d="M0,0 L5,2 L5,4 L-2,6 L-7,10 L-11,10 L-13,11 L-11,6 L-8,4 L-8,6 Z " fill="#49525B" transform="translate(44,85)"/>
<path d="M0,0 L24,0 L21,3 L11,3 L0,2 Z " fill="#BBBDC0" transform="translate(43,153)"/>
<path d="M0,0 L1,2 L10,1 L20,1 L21,3 L14,4 L2,4 L-8,3 L-8,2 Z " fill="#83878D" transform="translate(27,146)"/>
<path d="M0,0 L14,2 L14,3 L7,4 L-9,4 L-9,2 Z " fill="#80868C" transform="translate(116,144)"/>
<path d="M0,0 L3,1 L1,4 L-3,5 L-4,6 L-2,7 L-2,9 L-10,10 L-11,8 L-13,7 L-3,2 Z " fill="#2A353F" transform="translate(77,95)"/>
<path d="M0,0 L11,6 L11,7 L2,8 L2,10 L-1,10 L-1,7 L1,7 Z " fill="#20303C" transform="translate(37,129)"/>
<path d="M0,0 L12,2 L14,5 L4,4 L-2,5 L-3,1 Z " fill="#142433" transform="translate(59,135)"/>
<path d="M0,0 L3,0 L3,2 L7,2 L6,6 L-1,6 L-11,5 L-8,3 L-4,2 L-4,4 L0,3 Z " fill="#27313D" transform="translate(51,123)"/>
<path d="M0,0 L2,4 L3,6 L1,6 L1,8 L-1,8 L-2,11 L-5,10 L-4,4 Z " fill="#455660" transform="translate(42,105)"/>
<path d="M0,0 L1,4 L0,6 L-2,6 L-2,10 L-6,11 L-6,4 L-5,1 Z " fill="#7E8388" transform="translate(45,48)"/>
<path d="M0,0 L3,0 L3,2 L1,2 L1,4 L-1,5 L-1,9 L-3,10 L-7,6 L-7,4 L-9,3 L-6,2 L-6,4 L-3,4 L-2,2 L0,2 Z " fill="#29343F" transform="translate(43,111)"/>
<path d="M0,0 L2,1 L2,7 L-1,14 L-4,19 L-6,18 L-3,13 L-3,6 L-5,5 L0,5 Z " fill="#B2B4B7" transform="translate(99,86)"/>
<path d="M0,0 L7,0 L16,1 L18,2 L18,0 L21,1 L18,4 L9,4 L8,3 L1,3 Z " fill="#172431" transform="translate(39,127)"/>
<path d="M0,0 L10,0 L10,1 L4,1 L4,3 L6,3 L6,5 L4,5 L4,7 L6,8 L2,7 L1,4 L-2,4 L-2,2 L0,2 Z " fill="#4D5661" transform="translate(57,121)"/>
<path d="M0,0 L1,3 L1,8 L-4,9 L-6,7 L-5,4 L-3,1 Z " fill="#3C4852" transform="translate(24,118)"/>
<path d="M0,0 L3,0 L3,3 L5,4 L3,5 L-3,5 L-2,9 L-6,8 L-4,3 Z " fill="#4D5C62" transform="translate(58,94)"/>
<path d="M0,0 L6,1 L10,3 L-2,4 L-12,3 L-10,1 L0,2 Z " fill="#18202C" transform="translate(113,141)"/>
<path d="M0,0 L15,0 L15,3 L1,3 Z " fill="#C0C2C4" transform="translate(87,134)"/>
<path d="M0,0 L2,1 L1,3 L-1,3 L-2,6 L-8,8 L-8,6 L-13,8 L-9,4 Z M-14,8 Z " fill="#F7FAF9" transform="translate(27,93)"/>
<path d="M0,0 L5,2 L5,9 L2,9 L2,14 L-1,14 L-3,15 L-1,10 L1,10 L1,3 Z " fill="#212F3B" transform="translate(92,82)"/>
<path d="M0,0 L2,0 L2,2 L4,2 L4,6 L8,7 L-3,7 L-4,2 L0,2 Z " fill="#C4C6C9" transform="translate(11,140)"/>
<path d="M0,0 L2,0 L3,7 L0,12 L-3,12 Z " fill="#EEEFF0" transform="translate(94,92)"/>
<path d="M0,0 L2,1 L-2,6 L3,7 L-1,8 L-8,9 L-8,6 L-11,4 L-3,3 Z " fill="#70A6A7" transform="translate(82,69)"/>
<path d="M0,0 L3,1 L15,0 L15,1 L5,4 L-2,8 L-4,7 L0,4 Z " fill="#80888E" transform="translate(51,35)"/>
<path d="M0,0 L4,1 L5,4 L3,4 L3,6 L1,6 L0,9 L-2,9 L-2,1 Z " fill="#1F2C38" transform="translate(30,129)"/>
<path d="M0,0 L7,1 L28,2 L28,3 L2,3 L0,2 Z " fill="#919599" transform="translate(100,147)"/>
<path d="M0,0 L3,1 L3,3 L-7,11 L-8,7 L-1,2 Z " fill="#DFEEED" transform="translate(59,86)"/>
<path d="M0,0 L9,0 L13,4 L7,5 L0,1 Z " fill="#1D2530" transform="translate(79,36)"/>
<path d="M0,0 L2,0 L0,5 L-2,6 L-2,4 L-7,7 L-9,7 L-10,4 Z " fill="#495865" transform="translate(154,8)"/>
<path d="M0,0 L7,1 L8,4 L4,5 L3,7 L0,6 L0,4 L2,4 L2,2 L0,2 Z " fill="#24313F" transform="translate(61,122)"/>
<path d="M0,0 L3,1 L3,7 L1,8 L-1,6 L-1,4 L-3,3 L-3,5 L-6,4 L-5,2 Z " fill="#34424C" transform="translate(54,83)"/>
<path d="M0,0 L4,0 L5,3 L4,7 L-1,7 Z " fill="#E6EBEA" transform="translate(58,70)"/>
<path d="M0,0 L2,1 L2,6 L-2,6 L-6,9 L-8,8 Z " fill="#46535E" transform="translate(99,54)"/>
<path d="M0,0 L6,1 L8,5 L1,6 L1,3 L-1,2 Z " fill="#151F2B" transform="translate(94,137)"/>
<path d="M0,0 L1,0 L1,5 L-3,8 L-5,7 L-4,6 L-9,6 L-8,3 L0,3 Z " fill="#C1CECF" transform="translate(50,93)"/>
<path d="M0,0 L3,3 L5,3 L4,7 L-1,12 L-3,11 L0,8 L-1,2 Z " fill="#B6CECF" transform="translate(61,82)"/>
<path d="M0,0 L7,1 L3,2 L3,4 L-7,3 L-7,1 Z " fill="#505B64" transform="translate(110,139)"/>
<path d="M0,0 L2,1 L1,6 L1,10 L-3,6 L-2,2 Z " fill="#2E404A" transform="translate(69,82)"/>
<path d="M0,0 L11,2 L12,5 L5,5 L5,3 L-2,2 Z " fill="#686E77" transform="translate(23,143)"/>
<path d="M0,0 L5,0 L6,4 L3,4 L0,8 L-3,6 L0,5 Z " fill="#32414E" transform="translate(85,100)"/>
<path d="M0,0 L8,0 L5,1 L5,4 L-2,6 L-4,4 L1,3 Z " fill="#323D47" transform="translate(62,95)"/>
<path d="M0,0 L1,3 L-3,8 L-6,11 L-6,4 L-2,2 Z " fill="#98B5BB" transform="translate(41,103)"/>
<path d="M0,0 L6,2 L6,5 L-1,4 L-2,9 L-3,5 L-2,2 Z " fill="#23515B" transform="translate(85,77)"/>
<path d="M0,0 L6,1 L9,1 L3,6 L0,5 Z " fill="#3B4A57" transform="translate(82,63)"/>
<path d="M0,0 L4,1 L5,5 L4,7 L1,7 Z " fill="#07111B" transform="translate(61,54)"/>
<path d="M0,0 L2,1 L-10,11 L-12,9 L-2,1 Z " fill="#60BEBB" transform="translate(124,34)"/>
<path d="M0,0 L3,0 L3,2 L-3,4 L-4,7 L-9,8 L-5,3 Z " fill="#545E67" transform="translate(58,37)"/>
<path d="M0,0 L2,1 L0,4 L-5,4 L-5,6 L-13,6 L-13,5 L-7,4 L-4,3 L-4,1 Z " fill="#23303D" transform="translate(54,144)"/>
<path d="M0,0 L11,3 L11,4 L1,4 L-4,6 L-4,4 Z " fill="#3B4652" transform="translate(54,138)"/>
<path d="M0,0 L3,2 L7,1 L4,5 L2,6 L2,11 L0,7 L-1,2 Z " fill="#15202B" transform="translate(49,49)"/>
<path d="M0,0 L2,1 L7,0 L7,2 L1,3 L1,5 L-3,5 L-1,1 Z " fill="#111F2E" transform="translate(49,142)"/>
<path d="M0,0 L3,0 L2,4 L-1,5 L-4,5 L-6,1 L0,2 Z " fill="#0A1D2A" transform="translate(39,137)"/>
<path d="M0,0 L8,0 L8,2 L4,3 L-3,3 L-3,1 Z " fill="#A3A7AC" transform="translate(105,136)"/>
<path d="M0,0 L1,3 L-1,5 L-10,6 L-8,3 L0,2 Z " fill="#082732" transform="translate(95,68)"/>
<path d="M0,0 L0,3 L1,6 L0,7 L-5,7 L-4,3 Z " fill="#59676E" transform="translate(130,27)"/>
<path d="M0,0 L12,0 L12,3 L5,3 L0,1 Z " fill="#E1E3E4" transform="translate(100,152)"/>
<path d="M0,0 L3,1 L0,8 L-3,10 L-4,7 L-2,7 Z " fill="#E0E7E6" transform="translate(30,89)"/>
<path d="M0,0 L9,0 L11,2 L2,3 L0,2 Z " fill="#999EA2" transform="translate(117,140)"/>
<path d="M0,0 L1,0 L1,7 L-2,10 L-2,6 L-4,5 Z " fill="#101A27" transform="translate(92,93)"/>
<path d="M0,0 L9,1 L10,3 L0,4 L-3,3 L-3,1 Z " fill="#2A6A71" transform="translate(83,72)"/>
<path d="M0,0 L10,1 L10,3 L1,3 Z " fill="#8A8D94" transform="translate(17,139)"/>
<path d="M0,0 L5,5 L5,7 L1,7 L1,5 L-2,5 L-2,3 L0,3 Z " fill="#DEDFE1" transform="translate(22,133)"/>
<path d="M0,0 L2,1 L-3,7 L-8,9 L-6,5 Z " fill="#7FABAD" transform="translate(60,89)"/>
<path d="M0,0 L1,4 L3,4 L1,8 L-3,8 L-3,4 L0,4 Z " fill="#5E8085" transform="translate(62,73)"/>
<path d="M0,0 L6,0 L4,1 L5,4 L-3,3 Z " fill="#252D39" transform="translate(72,31)"/>
<path d="M0,0 L3,0 L3,3 L-4,5 L-5,1 Z " fill="#17212C" transform="translate(75,128)"/>
<path d="M0,0 L0,3 L-7,11 L-7,8 L-4,3 Z " fill="#6B7077" transform="translate(34,93)"/>
<path d="M0,0 L2,1 L1,6 L-1,8 L-2,7 L-2,1 Z " fill="#506369" transform="translate(98,72)"/>
<path d="M0,0 L5,0 L5,2 L3,2 L2,4 L2,2 L-6,3 L-4,1 Z " fill="#545F67" transform="translate(52,121)"/>
<path d="M0,0 L3,3 L-1,6 L-4,6 L-4,3 L-2,3 Z " fill="#1B323E" transform="translate(25,110)"/>
<path d="M0,0 L3,1 L1,4 L-3,5 L-7,7 L-2,1 Z " fill="#3E4953" transform="translate(77,95)"/>
<path d="M0,0 L1,3 L3,3 L2,6 L-3,6 L-1,1 Z " fill="#0E1722" transform="translate(45,90)"/>
<path d="M0,0 L2,4 L1,8 L1,6 L-3,6 L-2,2 L0,2 Z " fill="#28343F" transform="translate(48,52)"/>
<path d="M0,0 L6,1 L5,3 L-5,2 L-5,1 Z " fill="#A7ABAF" transform="translate(123,143)"/>
<path d="M0,0 L3,0 L3,3 L5,4 L0,5 L-1,1 Z " fill="#58676D" transform="translate(58,94)"/>
<path d="M0,0 L0,3 L-5,7 L-7,6 L-4,2 Z " fill="#A6ABAB" transform="translate(57,78)"/>
<path d="M0,0 L4,1 L1,2 L1,6 L-3,7 L-2,3 L0,3 Z " fill="#5D646C" transform="translate(42,52)"/>
<path d="M0,0 L5,0 L7,4 L6,7 L2,2 Z " fill="#0A1F28" transform="translate(89,78)"/>
<path d="M0,0 L9,0 L9,1 L2,2 L2,4 L-1,5 Z " fill="#29333F" transform="translate(67,36)"/>
<path d="M0,0 L2,2 L2,8 L-1,6 L-1,1 Z " fill="#313D47" transform="translate(34,116)"/>
<path d="M0,0 L4,1 L2,2 L2,4 L0,4 L-1,7 L-2,4 Z " fill="#3E454E" transform="translate(41,109)"/>
<path d="M0,0 L2,1 L-1,6 L-3,7 L-3,4 L-5,2 Z " fill="#D3E3E5" transform="translate(45,98)"/>
<path d="M0,0 L1,2 L3,3 L0,7 L-2,7 L-1,1 Z " fill="#2D3541" transform="translate(26,97)"/>
<path d="M0,0 L5,2 L4,8 L2,7 Z " fill="#32626C" transform="translate(92,82)"/>
<path d="M0,0 L2,1 L-6,7 L-5,3 Z " fill="#668288" transform="translate(72,78)"/>
<path d="M0,0 L5,1 L4,4 L0,6 Z " fill="#122D39" transform="translate(70,74)"/>
<path d="M0,0 L7,0 L8,3 L3,5 L3,2 Z " fill="#58989C" transform="translate(71,73)"/>
<path d="M0,0 L2,0 L3,6 L0,5 L-1,7 Z " fill="#DADDDE" transform="translate(58,55)"/>
<path d="M0,0 L6,0 L7,1 L7,6 L4,2 L1,1 L0,4 L-1,1 Z " fill="#2C3843" transform="translate(60,53)"/>
<path d="M0,0 L2,0 L1,4 L-2,6 L-4,3 Z " fill="#657D84" transform="translate(103,50)"/>
<path d="M0,0 L2,1 L0,5 L-2,4 L-2,6 L-4,5 L-4,1 Z " fill="#B6BDC3" transform="translate(58,44)"/>
<path d="M0,0 L4,1 L-2,6 L-2,3 Z " fill="#202936" transform="translate(132,26)"/>
<path d="M0,0 L4,0 L4,2 L2,2 L2,4 L4,5 L0,4 Z " fill="#424C56" transform="translate(59,124)"/>
<path d="M0,0 L4,1 L3,4 L-3,4 Z M0,2 Z " fill="#1E2934" transform="translate(40,91)"/>
<path d="M0,0 L3,0 L3,5 L-1,4 Z " fill="#98C7C8" transform="translate(66,70)"/>
<path d="M0,0 L4,3 L1,3 L1,5 L-3,6 L-2,2 L-1,3 Z " fill="#202837" transform="translate(52,63)"/>
<path d="M0,0 L8,0 L4,4 L1,3 Z " fill="#3D4D5B" transform="translate(56,62)"/>
<path d="M0,0 L2,0 L0,5 L-2,6 L-3,1 Z " fill="#3E4753" transform="translate(154,8)"/>
</svg>
