<?xml version="1.0" encoding="UTF-8"?>
<!-- Generator: visioncortex VTracer 0.6.5 -->
<svg version="1.1" xmlns="http://www.w3.org/2000/svg" width="154" height="153">
<path d="M0,0 L154,0 L154,153 L0,153 Z " fill="#F4F4F4" transform="translate(0,0)"/>
<path d="M0,0 L5,0 L4,6 L17,4 L30,4 L30,7 L26,12 L30,13 L42,17 L47,21 L47,23 L42,24 L45,30 L50,34 L54,41 L54,44 L49,43 L51,51 L53,56 L53,66 L51,66 L51,64 L49,64 L48,79 L45,85 L44,82 L42,82 L39,91 L35,97 L31,97 L31,100 L38,103 L45,111 L48,117 L49,124 L54,125 L63,128 L59,131 L53,131 L53,135 L33,135 L33,139 L28,139 L28,141 L26,141 L26,139 L15,139 L15,141 L-9,141 L-9,139 L-20,139 L-21,136 L-34,136 L-34,138 L-38,138 L-38,136 L-57,136 L-56,131 L-65,130 L-70,129 L-70,127 L-51,124 L-49,124 L-52,119 L-55,116 L-58,106 L-60,104 L-60,100 L-58,100 L-58,84 L-55,81 L-51,76 L-46,69 L-41,69 L-40,68 L-35,68 L-35,66 L-24,66 L-24,69 L-29,73 L-36,76 L-38,81 L-41,84 L-42,91 L-40,91 L-38,97 L-35,100 L-34,95 L-28,88 L-16,79 L-13,79 L-11,75 L-4,69 L-1,62 L-1,54 L-5,49 L-13,47 L-14,50 L-19,48 L-19,50 L-23,49 L-26,45 L-27,48 L-31,47 L-33,40 L-33,33 L-31,26 L-28,21 L-26,14 L-20,7 L-18,7 L-18,12 L-10,8 L-3,2 Z " fill="#0C1926" transform="translate(82,8)"/>
<path d="M0,0 L2,0 L2,2 L4,2 L4,5 L12,6 L12,8 L10,8 L12,14 L22,11 L22,13 L13,17 L14,21 L13,23 L10,23 L10,18 L7,21 L7,25 L15,25 L14,27 L8,29 L4,33 L1,34 L9,35 L15,30 L17,30 L19,26 L22,23 L26,16 L27,19 L37,15 L37,17 L27,22 L24,22 L24,24 L26,24 L26,26 L15,33 L13,37 L8,39 L3,43 L3,40 L6,37 L-1,38 L-6,42 L-7,45 L-14,46 L-14,48 L-22,51 L-26,51 L-26,54 L-32,53 L-32,58 L-34,58 L-35,61 L-37,61 L-37,63 L-34,64 L-33,63 L-30,62 L-28,64 L-30,67 L-24,68 L-24,70 L-20,69 L-11,69 L-7,67 L-6,65 L-10,63 L-7,61 L-2,62 L1,62 L-2,61 L-2,59 L3,57 L15,56 L22,51 L23,51 L28,50 L35,50 L40,52 L47,60 L50,66 L51,73 L56,74 L65,77 L61,80 L55,80 L55,84 L35,84 L35,88 L30,88 L30,90 L28,90 L28,88 L17,88 L17,90 L-7,90 L-7,88 L-18,88 L-19,85 L-32,85 L-32,87 L-36,87 L-36,85 L-55,85 L-54,80 L-63,79 L-68,78 L-68,76 L-49,73 L-47,73 L-50,68 L-53,65 L-56,55 L-58,53 L-58,49 L-56,49 L-56,33 L-53,30 L-49,25 L-44,18 L-39,18 L-38,17 L-33,17 L-33,15 L-22,15 L-22,18 L-27,22 L-34,25 L-36,30 L-39,33 L-40,40 L-38,40 L-36,46 L-33,49 L-32,44 L-26,37 L-14,28 L-11,28 L-9,24 L-2,18 L1,11 L1,3 Z M5,23 Z " fill="#0D1B28" transform="translate(80,59)"/>
<path d="M0,0 L2,0 L2,2 L4,2 L4,5 L12,6 L12,8 L10,8 L12,14 L22,11 L22,13 L13,17 L14,21 L13,23 L10,23 L10,18 L7,21 L7,25 L15,25 L14,27 L8,29 L4,33 L1,34 L9,35 L15,30 L17,30 L19,26 L22,23 L26,16 L27,19 L37,15 L37,17 L27,22 L24,22 L24,24 L26,24 L26,26 L15,33 L13,37 L8,39 L3,43 L3,40 L6,37 L-1,38 L-6,42 L-7,45 L-14,46 L-14,48 L-22,51 L-26,51 L-26,54 L-32,53 L-32,58 L-34,58 L-35,61 L-37,61 L-37,63 L-34,64 L-37,66 L-39,60 L-41,60 L-42,65 L-43,61 L-38,53 L-35,49 L-33,49 L-32,44 L-26,37 L-14,28 L-11,28 L-9,24 L-2,18 L1,11 L1,3 Z M5,23 Z " fill="#212C38" transform="translate(80,59)"/>
<path d="M0,0 L2,0 L2,2 L-1,2 L-1,8 L10,9 L11,10 L11,15 L28,13 L38,13 L44,14 L44,16 L66,16 L66,14 L71,13 L100,12 L99,10 L106,11 L102,14 L96,14 L96,18 L76,18 L76,22 L71,22 L71,24 L69,24 L69,22 L58,22 L58,24 L34,24 L34,22 L23,22 L22,19 L9,19 L9,21 L5,21 L5,19 L-14,19 L-13,14 L-22,13 L-27,12 L-27,10 L-8,7 L-6,7 L-6,5 Z " fill="#515961" transform="translate(39,125)"/>
<path d="M0,0 L7,0 L6,3 L4,3 L5,7 L4,10 L10,9 L22,9 L33,10 L34,13 L25,15 L24,17 L22,15 L16,20 L2,21 L-1,22 L-1,24 L3,25 L2,27 L-3,25 L-8,26 L-5,28 L-6,31 L-10,33 L-23,33 L-23,31 L-29,30 L-29,26 L-32,26 L-32,28 L-36,26 L-36,24 L-33,21 L-31,21 L-31,16 L-25,17 L-25,14 L-16,11 L-13,11 L-13,9 L-6,7 L-5,5 L-7,4 Z " fill="#111D29" transform="translate(79,96)"/>
<path d="M0,0 L5,0 L4,6 L17,4 L30,4 L26,6 L16,7 L16,9 L19,10 L16,10 L16,12 L9,13 L4,10 L4,13 L-6,17 L-8,20 L-8,23 L-9,24 L-7,26 L-6,31 L-13,31 L-12,27 L-14,27 L-15,25 L-17,27 L-23,28 L-23,32 L-20,32 L-22,38 L-28,38 L-29,43 L-28,46 L-30,48 L-33,40 L-33,33 L-31,26 L-28,21 L-26,14 L-20,7 L-18,7 L-18,12 L-10,8 L-3,2 Z " fill="#313B44" transform="translate(82,8)"/>
<path d="M0,0 L4,1 L8,7 L10,13 L10,26 L5,35 L0,41 L-8,47 L-16,46 L-17,44 L-11,43 L-9,39 L-3,37 L-10,36 L-11,32 L-7,28 L-6,30 L-7,34 L-4,34 L-5,27 L5,24 L2,24 L-5,26 L-7,24 L-7,19 L-5,19 L-5,17 L-11,17 L-13,16 L-13,13 L-15,13 L-15,11 L-17,11 L-18,8 L-13,6 L-8,8 L-4,6 L-3,1 L-2,3 L0,3 Z M-12,34 Z " fill="#0A1824" transform="translate(97,48)"/>
<path d="M0,0 L11,0 L11,3 L6,7 L-1,10 L-3,15 L-6,18 L-7,25 L-5,26 L-8,27 L-9,19 L-12,19 L-15,30 L-12,30 L-9,37 L-9,40 L-11,40 L-11,45 L-17,43 L-17,52 L-20,50 L-23,40 L-25,38 L-25,34 L-23,34 L-23,18 L-20,15 L-16,10 L-11,3 L-6,3 L-5,2 L0,2 Z " fill="#222E3B" transform="translate(47,74)"/>
<path d="M0,0 L5,0 L0,7 L4,8 L16,12 L21,16 L21,18 L16,19 L19,25 L24,29 L28,36 L28,39 L23,38 L25,46 L27,51 L26,55 L24,55 L22,51 L21,50 L19,36 L15,26 L14,22 L12,22 L12,20 L10,19 L9,17 L5,18 L3,18 L2,21 L-3,19 L-1,11 L-8,10 L-8,12 L-13,13 L-20,12 L-27,12 L-32,16 L-36,15 L-34,15 L-32,11 L-25,8 L-22,8 L-22,5 L-17,7 L-10,7 L-10,2 Z " fill="#1E2935" transform="translate(108,13)"/>
<path d="M0,0 L4,3 L4,10 L-1,10 L1,13 L-3,21 L-2,23 L-6,25 L-17,26 L-16,29 L-25,29 L-22,32 L-22,34 L-28,37 L-32,37 L-32,39 L-26,40 L-30,41 L-32,40 L-32,45 L-34,45 L-35,48 L-37,48 L-37,50 L-34,51 L-37,53 L-39,47 L-41,47 L-42,52 L-43,48 L-38,40 L-35,36 L-33,36 L-32,31 L-26,24 L-14,15 L-11,15 L-9,11 L-2,5 Z " fill="#333E48" transform="translate(80,72)"/>
<path d="M0,0 L7,1 L3,4 L-3,4 L-3,8 L-23,8 L-23,12 L-28,12 L-28,14 L-30,14 L-30,12 L-41,12 L-41,14 L-65,14 L-65,12 L-76,12 L-77,9 L-90,9 L-90,11 L-94,11 L-94,9 L-113,9 L-112,6 L-100,6 L-100,7 L-68,7 L-68,6 L-57,7 L-56,5 L-55,9 L-47,10 L-47,8 L-55,8 L-55,7 L-39,7 L-23,5 L-23,4 L1,2 Z " fill="#8C9197" transform="translate(138,135)"/>
<path d="M0,0 L1,3 L3,3 L3,6 L10,6 L9,9 L10,14 L17,15 L18,18 L11,16 L8,17 L3,18 L1,20 L-2,20 L1,21 L2,25 L-2,25 L-4,24 L-4,26 L-8,25 L-11,21 L-12,24 L-14,24 L-13,20 L-15,19 L-13,14 L-7,13 L-5,8 L-8,8 L-8,4 L-1,1 Z " fill="#131F2B" transform="translate(67,32)"/>
<path d="M0,0 L5,0 L4,6 L17,4 L30,4 L26,6 L16,7 L16,9 L19,10 L16,10 L16,12 L9,13 L6,11 L-10,13 L-15,20 L-19,23 L-24,23 L-24,25 L-28,26 L-26,21 L-20,15 L-20,7 L-18,7 L-18,12 L-10,8 L-3,2 Z " fill="#485059" transform="translate(82,8)"/>
<path d="M0,0 L12,0 L23,1 L24,4 L15,6 L14,8 L12,6 L6,11 L-13,12 L-20,9 L-19,6 L-4,1 Z " fill="#25313D" transform="translate(89,105)"/>
<path d="M0,0 L10,3 L18,7 L20,11 L15,12 L18,18 L23,22 L27,29 L27,32 L22,31 L24,39 L26,44 L25,48 L23,48 L21,44 L20,43 L18,29 L14,19 L13,15 L11,15 L11,13 L9,12 L5,6 L-1,3 Z " fill="#38424B" transform="translate(109,20)"/>
<path d="M0,0 L11,1 L16,5 L15,10 L10,10 L10,12 L-12,12 L-12,10 L-18,10 L-15,9 L-15,6 L-4,5 L-2,1 Z " fill="#10202E" transform="translate(95,129)"/>
<path d="M0,0 L4,0 L4,2 L13,5 L14,7 L8,9 L11,11 L10,14 L6,16 L-7,16 L-7,14 L-13,13 L-11,9 L-5,10 L-6,7 L-9,5 L-4,2 Z " fill="#101E2B" transform="translate(63,113)"/>
<path d="M0,0 L2,0 L2,2 L-1,2 L-1,8 L10,9 L11,10 L11,15 L-13,15 L-27,12 L-27,10 L-8,7 L-6,7 L-6,5 Z " fill="#15222F" transform="translate(39,125)"/>
<path d="M0,0 L7,1 L7,3 L2,3 L-9,9 L-13,15 L-16,15 L-16,22 L-18,27 L-20,27 L-21,37 L-22,35 L-24,35 L-25,38 L-25,34 L-23,34 L-23,18 L-20,15 L-16,10 L-11,3 L-6,3 L-5,2 L0,2 Z " fill="#565F67" transform="translate(47,74)"/>
<path d="M0,0 L7,1 L3,4 L-3,4 L-3,8 L-47,10 L-47,8 L-55,8 L-55,7 L-39,7 L-23,5 L-23,4 L1,2 Z " fill="#797F85" transform="translate(138,135)"/>
<path d="M0,0 L12,0 L23,1 L24,4 L15,6 L14,8 L11,4 L-1,4 L-5,6 L-12,6 L-12,8 L-20,8 L-19,6 L-4,1 Z " fill="#38434F" transform="translate(89,105)"/>
<path d="M0,0 L4,0 L4,2 L13,5 L14,7 L5,8 L3,12 L1,11 L2,9 L-5,8 L-9,5 L-4,2 Z " fill="#252F39" transform="translate(63,113)"/>
<path d="M0,0 L4,3 L4,10 L-1,10 L1,13 L-1,17 L-8,17 L-9,19 L-11,13 L-2,5 Z " fill="#586069" transform="translate(80,72)"/>
<path d="M0,0 L2,0 L2,5 L9,2 L10,6 L5,13 L1,16 L-4,16 L-4,18 L-8,19 L-6,14 L0,8 Z " fill="#878D94" transform="translate(62,15)"/>
<path d="M0,0 L2,4 L7,9 L7,12 L5,13 L-8,14 L-7,9 L-9,8 L-10,3 L-8,3 L-3,8 L1,10 L1,8 L-2,7 L-2,5 L0,5 Z " fill="#C5C7C8" transform="translate(26,120)"/>
<path d="M0,0 L1,2 L-9,7 L-12,7 L-12,9 L-10,9 L-10,11 L-21,18 L-23,22 L-28,24 L-33,28 L-33,25 L-22,16 L-19,15 L-17,11 L-14,8 L-10,1 L-9,4 Z " fill="#28323E" transform="translate(116,74)"/>
<path d="M0,0 L5,1 L7,6 L11,7 L11,9 L-10,9 L-11,6 L-5,5 L-1,3 L3,3 L3,1 Z " fill="#0F1B26" transform="translate(93,132)"/>
<path d="M0,0 L2,0 L3,4 L-1,15 L-5,19 L-7,19 L-7,10 L-6,7 L-4,7 Z " fill="#E9EAEB" transform="translate(54,18)"/>
<path d="M0,0 L53,0 L53,1 L48,1 L48,3 L46,3 L46,1 L35,1 L35,3 L11,3 L11,1 L0,1 Z " fill="#B1B4B8" transform="translate(62,146)"/>
<path d="M0,0 L2,4 L3,3 L10,3 L8,7 L9,9 L5,11 L-6,12 L-7,8 L-5,7 L-5,9 L-1,9 L-1,7 L1,6 L-1,1 Z " fill="#454F59" transform="translate(69,86)"/>
<path d="M0,0 L1,4 L5,4 L7,8 L10,7 L10,10 L4,10 L3,15 L4,18 L2,20 L-1,12 L-1,5 Z " fill="#3C454F" transform="translate(50,36)"/>
<path d="M0,0 L2,0 L2,2 L-1,2 L-3,8 L-10,12 L-14,12 L-14,10 L-18,10 L-18,13 L-27,12 L-27,10 L-8,7 L-6,7 L-6,5 Z " fill="#424A54" transform="translate(39,125)"/>
<path d="M0,0 L3,1 L-2,2 L-2,4 L-4,5 L0,6 L0,8 L-7,9 L-14,8 L-19,6 L-19,5 L-11,5 L-11,3 L-4,2 Z " fill="#303B47" transform="translate(88,108)"/>
<path d="M0,0 L2,0 L5,6 L2,6 L2,8 L-3,7 L-5,12 L-11,11 L-8,6 Z " fill="#6B7278" transform="translate(66,87)"/>
<path d="M0,0 L2,0 L2,7 L-5,14 L-6,17 L-3,17 L-3,15 L-1,16 L-4,19 L-9,18 L-5,6 Z " fill="#5B636D" transform="translate(61,16)"/>
<path d="M0,0 L1,0 L1,12 L-2,18 L-3,15 L-5,15 L-6,17 L-5,10 L-4,6 L-4,3 Z " fill="#263442" transform="translate(129,75)"/>
<path d="M0,0 L6,0 L14,3 L12,5 L5,5 L0,9 L-1,12 L-8,13 L-5,10 L-6,7 L0,6 L0,4 L3,2 Z " fill="#1B2630" transform="translate(74,92)"/>
<path d="M0,0 L17,0 L13,3 L-13,5 L-27,4 L-27,3 L-5,3 L-5,1 Z " fill="#3A434B" transform="translate(110,138)"/>
<path d="M0,0 L1,0 L1,6 L-1,11 L-3,11 L-4,21 L-5,19 L-7,19 L-8,22 L-8,18 L-6,18 L-6,2 L-3,2 L-3,7 L-2,5 L0,5 Z " fill="#4B545D" transform="translate(30,90)"/>
<path d="M0,0 L11,0 L11,1 L0,4 L-1,5 L-8,5 L-8,7 L-16,7 L-15,5 Z " fill="#545E69" transform="translate(85,106)"/>
<path d="M0,0 L10,0 L11,1 L11,6 L2,6 L0,4 L-2,4 Z " fill="#1F303E" transform="translate(39,134)"/>
<path d="M0,0 L5,2 L7,3 L8,1 L10,5 L0,5 L-3,12 L-7,11 L-6,7 Z " fill="#62676E" transform="translate(54,96)"/>
<path d="M0,0 L10,3 L18,7 L20,11 L15,11 L16,9 L8,6 L8,9 L2,4 L-1,3 Z " fill="#3F4955" transform="translate(109,20)"/>
<path d="M0,0 L2,0 L1,3 L-3,5 L0,7 L0,10 L-6,9 L-9,5 L-8,1 Z " fill="#101C28" transform="translate(58,113)"/>
<path d="M0,0 L2,0 L2,3 L4,4 L3,7 L6,8 L4,11 L0,9 L-2,16 L-4,16 L-3,12 L0,6 L-4,7 L-2,1 Z " fill="#C3C6C9" transform="translate(23,80)"/>
<path d="M0,0 L7,0 L5,3 L7,5 L8,10 L1,10 L2,6 L0,6 L-1,4 L-3,5 L-2,2 L0,2 Z M-6,4 L-3,6 L-6,6 Z " fill="#17232F" transform="translate(68,29)"/>
<path d="M0,0 L10,3 L16,5 L16,7 L4,7 L4,5 L-2,4 Z " fill="#27323D" transform="translate(52,122)"/>
<path d="M0,0 L2,0 L2,2 L4,2 L7,9 L8,15 L2,16 L1,11 L1,3 Z " fill="#323B46" transform="translate(80,59)"/>
<path d="M0,0 L2,1 L-2,7 L-6,10 L-11,10 L-11,12 L-15,13 L-15,11 L-5,3 Z " fill="#6B737A" transform="translate(69,21)"/>
<path d="M0,0 L12,0 L12,1 L28,2 L28,3 L22,3 L22,5 L18,5 L18,3 L-1,3 Z " fill="#A3A7AC" transform="translate(26,141)"/>
<path d="M0,0 L2,0 L2,4 L5,5 L5,7 L2,9 L-5,9 L-5,3 Z " fill="#2B3540" transform="translate(88,29)"/>
<path d="M0,0 L2,1 L-1,10 L-4,14 L-6,14 L-7,9 L-3,4 L-2,1 Z " fill="#1F2A35" transform="translate(121,91)"/>
<path d="M0,0 L4,3 L4,10 L-5,11 L-7,12 L-5,8 L-1,3 Z " fill="#575E66" transform="translate(80,72)"/>
<path d="M0,0 L4,0 L4,2 L9,4 L6,5 L-9,6 L-7,3 Z " fill="#434B55" transform="translate(63,113)"/>
<path d="M0,0 L5,1 L9,2 L8,5 L1,3 L-1,5 L-2,7 L-4,5 L-12,3 L-12,2 Z " fill="#2F3C48" transform="translate(81,52)"/>
<path d="M0,0 L3,0 L3,2 L10,3 L10,5 L8,6 L7,9 L-3,9 L-3,7 L5,5 L5,4 L-2,2 Z " fill="#ADAFB4" transform="translate(138,132)"/>
<path d="M0,0 L0,3 L-1,7 L-3,7 L-3,13 L0,14 L-3,16 L-5,10 L-7,10 L-8,15 L-9,11 L-4,3 Z " fill="#414A54" transform="translate(46,109)"/>
<path d="M0,0 L8,0 L8,2 L2,3 L3,7 L4,10 L-1,10 L-1,12 L-5,10 L-5,8 L-2,5 L0,5 Z " fill="#232D39" transform="translate(48,112)"/>
<path d="M0,0 L1,0 L3,8 L5,13 L4,17 L2,17 L0,13 L-1,12 L-1,1 Z " fill="#2C3742" transform="translate(130,51)"/>
<path d="M0,0 L2,0 L5,4 L7,4 L8,9 L2,9 L0,11 L-1,4 Z " fill="#2C3641" transform="translate(128,43)"/>
<path d="M0,0 L2,0 L7,5 L11,10 L2,11 L3,6 L1,5 Z " fill="#ACAFB3" transform="translate(16,123)"/>
<path d="M0,0 L5,0 L0,6 L-10,4 L-10,2 Z " fill="#121B25" transform="translate(108,13)"/>
<path d="M0,0 L3,0 L6,5 L6,11 L4,11 L4,9 L2,9 L1,11 L0,10 Z " fill="#29333F" transform="translate(129,63)"/>
<path d="M0,0 L3,0 L0,9 L-9,9 L-5,5 L0,3 Z " fill="#1D2937" transform="translate(84,8)"/>
<path d="M0,0 L7,1 L3,4 L-3,4 L-3,8 L-13,8 L-11,6 L-6,6 L-5,3 L1,2 Z " fill="#979AA0" transform="translate(138,135)"/>
<path d="M0,0 L6,1 L6,2 L1,2 L1,4 L10,5 L15,6 L15,8 L7,8 L7,6 L-3,4 Z " fill="#A1A5AA" transform="translate(11,133)"/>
<path d="M0,0 L1,2 L-8,6 L-7,10 L-8,12 L-11,12 L-11,7 L-15,5 L-8,3 Z " fill="#18222D" transform="translate(101,70)"/>
<path d="M0,0 L6,0 L2,1 L2,3 L12,4 L11,6 L3,6 L-2,5 L-2,1 Z " fill="#2C3541" transform="translate(23,134)"/>
<path d="M0,0 L12,0 L8,2 L6,2 L6,5 L2,5 L1,7 L-2,6 L-3,8 L-4,4 L1,3 Z " fill="#2B3540" transform="translate(62,97)"/>
<path d="M0,0 L2,1 L-3,6 L-6,11 L-11,13 L-16,17 L-16,14 L-5,5 L-2,4 Z " fill="#3C4650" transform="translate(99,85)"/>
<path d="M0,0 L1,0 L1,9 L3,11 L3,19 L1,18 L-2,8 L-3,3 L-1,3 Z " fill="#2B3742" transform="translate(26,106)"/>
<path d="M0,0 L3,1 L3,4 L-2,7 L-6,11 L-6,17 L-8,17 L-8,10 L-4,6 L-3,2 Z " fill="#D1D4D6" transform="translate(48,82)"/>
<path d="M0,0 L7,0 L5,3 L2,3 L5,4 L6,8 L2,8 L0,7 L-1,1 Z " fill="#38414B" transform="translate(63,49)"/>
<path d="M0,0 L5,0 L1,2 L-3,4 L-14,5 L-11,4 L-11,1 Z " fill="#2A3541" transform="translate(91,134)"/>
<path d="M0,0 L3,2 L0,6 L-1,11 L-3,11 L-5,15 L-5,8 L-5,5 L-3,5 Z " fill="#666F77" transform="translate(31,84)"/>
<path d="M0,0 L6,1 L5,5 L2,6 L2,8 L-2,9 Z " fill="#2F3843" transform="translate(80,83)"/>
<path d="M0,0 L4,0 L3,4 L6,4 L5,9 L2,7 L1,10 L-1,10 L0,6 L-2,5 Z " fill="#24303C" transform="translate(54,46)"/>
<path d="M0,0 L1,4 L5,4 L5,6 L2,6 L2,14 L0,15 L-1,12 L-1,5 Z " fill="#6E747B" transform="translate(50,36)"/>
<path d="M0,0 L4,0 L4,2 L-4,5 L-8,5 L-8,7 L-14,6 L-14,4 L-6,4 L-6,2 L-2,1 Z " fill="#1A2734" transform="translate(62,105)"/>
<path d="M0,0 L6,0 L14,3 L12,5 L0,5 L3,2 Z " fill="#192633" transform="translate(74,92)"/>
<path d="M0,0 L5,1 L9,7 L7,9 L5,4 L3,4 L2,8 L0,4 Z " fill="#343E49" transform="translate(125,39)"/>
<path d="M0,0 L5,2 L6,4 L1,5 L-1,4 L-1,8 L-3,8 L-5,3 L-3,3 L-3,1 Z " fill="#313B45" transform="translate(101,17)"/>
<path d="M0,0 L6,1 L6,3 L14,3 L13,6 L5,6 L5,3 L1,3 Z " fill="#D3D5D6" transform="translate(12,138)"/>
<path d="M0,0 L1,2 L10,2 L11,5 L-1,6 Z " fill="#757C82" transform="translate(85,12)"/>
<path d="M0,0 L1,2 L4,2 L5,8 L1,6 L2,9 L0,9 L0,7 L-2,7 L-1,2 Z " fill="#333F4A" transform="translate(33,106)"/>
<path d="M0,0 L6,0 L6,3 L1,7 L-2,6 L-1,4 L-4,3 L-1,2 L2,3 L2,1 Z " fill="#313B45" transform="translate(52,74)"/>
<path d="M0,0 L7,0 L6,2 L1,5 L-4,4 L-5,1 Z " fill="#232D38" transform="translate(108,109)"/>
<path d="M0,0 L6,0 L5,3 L-4,3 L-12,2 L-12,1 Z " fill="#6D747A" transform="translate(127,138)"/>
<path d="M0,0 L10,1 L9,3 L1,4 L-3,5 L-2,1 Z " fill="#1F2A35" transform="translate(95,129)"/>
<path d="M0,0 L4,1 L0,3 L-2,2 L-2,4 L-6,5 L-10,1 Z " fill="#28323D" transform="translate(66,117)"/>
<path d="M0,0 L2,4 L3,3 L10,3 L9,6 L3,7 L-1,3 Z " fill="#3A4450" transform="translate(69,86)"/>
<path d="M0,0 L3,1 L4,5 L2,5 L1,9 L-3,13 L-1,8 L-1,1 Z " fill="#242F39" transform="translate(118,52)"/>
<path d="M0,0 L13,0 L9,2 L-1,3 L-3,1 Z " fill="#69727A" transform="translate(99,12)"/>
<path d="M0,0 L3,1 L1,1 L1,5 L-5,6 L-6,3 L-2,1 Z " fill="#7C8187" transform="translate(75,82)"/>
<path d="M0,0 L3,2 L3,6 L1,6 L0,9 L-2,9 L-3,3 L-2,5 L0,5 Z " fill="#3F4852" transform="translate(45,111)"/>
<path d="M0,0 L2,0 L3,4 L-1,8 L-3,8 L-3,6 L-5,5 Z " fill="#D4D5D6" transform="translate(74,75)"/>
<path d="M0,0 L5,4 L4,5 L-8,5 L-8,4 L0,2 Z " fill="#303946" transform="translate(135,133)"/>
<path d="M0,0 L2,0 L2,7 L-1,10 L-3,10 L-2,5 Z " fill="#1C2431" transform="translate(61,16)"/>
<path d="M0,0 L5,0 L6,2 L-2,3 L-3,7 L-4,4 L-6,4 L-6,2 Z " fill="#14222F" transform="translate(93,124)"/>
<path d="M0,0 L2,0 L4,6 L2,8 L2,6 L-2,7 Z " fill="#1E2833" transform="translate(39,119)"/>
<path d="M0,0 L1,4 L0,9 L-3,10 L-3,6 L-2,2 Z " fill="#434C57" transform="translate(35,79)"/>
<path d="M0,0 L6,2 L1,7 L-1,5 Z " fill="#6B737B" transform="translate(36,77)"/>
<path d="M0,0 L4,1 L-2,3 L-2,6 L-7,6 L-4,1 Z " fill="#454D57" transform="translate(76,19)"/>
<path d="M0,0 L2,0 L2,2 L-1,2 L-3,8 L-7,9 L-8,7 L-6,7 L-6,5 Z " fill="#444E58" transform="translate(39,125)"/>
<path d="M0,0 L3,1 L3,4 L-3,5 L-5,2 Z " fill="#DBDCDC" transform="translate(30,128)"/>
<path d="M0,0 L6,0 L7,6 L0,6 Z " fill="#959EA5" transform="translate(69,33)"/>
<path d="M0,0 L9,3 L10,5 L5,6 Z " fill="#0B151F" transform="translate(116,25)"/>
<path d="M0,0 L2,0 L2,5 L9,2 L9,5 L1,8 Z " fill="#7E8288" transform="translate(62,15)"/>
<path d="M0,0 L10,0 L8,1 L8,4 L3,4 L3,1 Z " fill="#CFD1D3" transform="translate(115,143)"/>
<path d="M0,0 L2,0 L1,6 L-4,7 L-2,1 Z " fill="#D2D3D5" transform="translate(23,80)"/>
<path d="M0,0 L2,0 L2,3 L-4,7 L-7,6 L-3,2 Z " fill="#666D76" transform="translate(82,8)"/>
<path d="M0,0 L4,0 L4,3 L-6,3 L-6,1 Z " fill="#C8CACD" transform="translate(141,138)"/>
<path d="M0,0 L1,3 L-1,7 L-4,7 L-5,10 L-6,6 L-4,6 L-4,3 L-1,3 Z " fill="#B2B3B6" transform="translate(134,115)"/>
<path d="M0,0 L2,1 L2,6 L-2,7 L-3,3 Z " fill="#4D555D" transform="translate(50,101)"/>
<path d="M0,0 L1,4 L-5,7 L-7,10 L-6,5 L-4,1 L-2,1 L-1,3 Z " fill="#BDC0C4" transform="translate(128,89)"/>
<path d="M0,0 L3,0 L3,3 L6,4 L-9,4 L-9,3 L-1,2 Z " fill="#4D555E" transform="translate(95,14)"/>
<path d="M0,0 L8,0 L7,2 L4,2 L4,4 L0,3 Z " fill="#06121D" transform="translate(91,126)"/>
<path d="M0,0 L6,2 L11,4 L7,5 L3,5 L3,3 L-1,1 Z " fill="#1A2734" transform="translate(53,124)"/>
<path d="M0,0 L2,0 L2,6 L-2,6 L-1,1 Z " fill="#0C1824" transform="translate(34,123)"/>
<path d="M0,0 L1,0 L1,6 L-1,11 L-3,11 L-4,14 L-3,7 L-2,5 L0,5 Z " fill="#434C57" transform="translate(30,90)"/>
<path d="M0,0 L2,4 L0,10 L-2,6 L-1,1 Z " fill="#152130" transform="translate(127,83)"/>
<path d="M0,0 L5,1 L3,5 L2,7 L0,7 Z " fill="#2E3641" transform="translate(84,75)"/>
<path d="M0,0 L4,1 L5,4 L-2,5 Z " fill="#08141E" transform="translate(72,48)"/>
<path d="M0,0 L4,0 L3,5 L1,4 L-2,5 L-2,1 Z " fill="#222C36" transform="translate(58,40)"/>
<path d="M0,0 L6,0 L6,2 L2,5 L0,5 L-1,2 Z " fill="#93979E" transform="translate(32,52)"/>
<path d="M0,0 L4,1 L4,6 L0,6 Z " fill="#232831" transform="translate(51,34)"/>
<path d="M0,0 L2,0 L1,9 L-1,12 L-1,3 Z " fill="#BCBDC0" transform="translate(48,25)"/>
<path d="M0,0 L4,2 L0,2 L-1,4 L-4,3 L-5,5 L-6,1 Z " fill="#37414A" transform="translate(64,100)"/>
<path d="M0,0 L4,4 L3,7 L-3,7 L-1,4 Z M1,3 Z " fill="#232C37" transform="translate(87,68)"/>
<path d="M0,0 L3,1 L6,7 L6,10 L4,10 Z " fill="#1A2835" transform="translate(102,51)"/>
<path d="M0,0 L2,0 L2,4 L5,5 L5,7 L1,8 L1,6 L-1,5 Z " fill="#616A72" transform="translate(88,29)"/>
<path d="M0,0 L3,1 L2,4 L4,5 L-5,5 L-3,3 L0,3 Z " fill="#252F3B" transform="translate(86,18)"/>
<path d="M0,0 L8,0 L8,4 L4,4 L4,2 L0,2 Z " fill="#D1D3D6" transform="translate(2,135)"/>
<path d="M0,0 L4,1 L4,9 L2,8 Z " fill="#424C57" transform="translate(25,116)"/>
<path d="M0,0 L3,1 L1,5 L-4,5 L-4,3 L0,2 Z " fill="#172331" transform="translate(92,109)"/>
<path d="M0,0 L3,4 L-4,4 L-6,2 L-2,1 L0,2 Z " fill="#545A64" transform="translate(61,97)"/>
<path d="M0,0 L6,0 L4,4 L1,5 Z " fill="#202832" transform="translate(45,78)"/>
<path d="M0,0 L2,0 L5,5 L5,7 L1,6 Z M5,4 Z " fill="#0D1725" transform="translate(128,43)"/>
<path d="M0,0 L2,1 L0,4 L-5,6 L-8,5 Z " fill="#70767E" transform="translate(69,21)"/>
<path d="M0,0 L5,0 L0,5 L-1,3 L-4,1 Z " fill="#28313B" transform="translate(108,13)"/>
<path d="M0,0 L5,1 L2,6 L0,5 L1,3 L-1,2 Z " fill="#1C2834" transform="translate(64,119)"/>
<path d="M0,0 L0,3 L-1,7 L-5,6 L-3,2 Z " fill="#636B74" transform="translate(46,109)"/>
<path d="M0,0 L4,5 L4,10 L0,7 Z " fill="#091220" transform="translate(131,63)"/>
<path d="M0,0 L3,1 L3,6 L-1,5 Z " fill="#1C2631" transform="translate(60,52)"/>
<path d="M0,0 L2,0 L3,4 L1,6 L-2,6 L-1,2 Z " fill="#CCCED0" transform="translate(54,18)"/>
<path d="M0,0 L6,0 L2,1 L2,4 L-2,4 L-2,1 Z " fill="#131B26" transform="translate(23,134)"/>
<path d="M0,0 L1,2 L3,2 L3,4 L-5,3 L-5,1 Z " fill="#6B7179" transform="translate(17,134)"/>
<path d="M0,0 L2,0 L6,5 L5,7 L1,5 Z " fill="#C0C1C3" transform="translate(16,123)"/>
<path d="M0,0 L3,1 L3,4 L-3,3 L-3,1 Z " fill="#0C1621" transform="translate(55,119)"/>
<path d="M0,0 L4,1 L1,1 L1,5 L-4,5 Z " fill="#192634" transform="translate(89,96)"/>
<path d="M0,0 L1,3 L0,9 L-2,9 L-2,2 Z " fill="#2A353E" transform="translate(109,63)"/>
<path d="M0,0 L1,3 L3,3 L1,8 L-1,6 L-1,1 Z " fill="#0C1722" transform="translate(67,32)"/>
<path d="M0,0 L6,3 L2,7 L2,5 L0,4 L-1,1 Z " fill="#29333D" transform="translate(118,28)"/>
<path d="M0,0 L2,0 L1,3 L-3,6 L-6,5 L-2,3 L-2,1 Z " fill="#505862" transform="translate(66,25)"/>
<path d="M0,0 L3,0 L3,2 L-1,4 L-6,4 L-2,1 Z " fill="#59616A" transform="translate(63,113)"/>
<path d="M0,0 L2,0 L2,2 L4,3 L0,5 L-2,4 Z " fill="#CCCDCF" transform="translate(53,92)"/>
<path d="M0,0 L5,1 L5,5 L0,5 L3,2 Z " fill="#283440" transform="translate(74,92)"/>
<path d="M0,0 L1,0 L2,10 L-1,9 Z " fill="#5B626A" transform="translate(82,63)"/>
<path d="M0,0 L7,0 L7,2 L5,4 L4,6 L3,1 Z " fill="#2C3B48" transform="translate(75,53)"/>
<path d="M0,0 L2,0 L3,5 L-1,6 Z " fill="#182531" transform="translate(121,43)"/>
<path d="M0,0 L4,1 L2,1 L0,5 L-4,4 Z " fill="#37414D" transform="translate(68,25)"/>
</svg>
