<?xml version="1.0" encoding="UTF-8"?>
<!-- Generator: visioncortex VTracer 0.6.5 -->
<svg version="1.1" xmlns="http://www.w3.org/2000/svg" width="136" height="173">
<path d="M0,0 L136,0 L136,173 L0,173 Z " fill="#F6F7F7" transform="translate(0,0)"/>
<path d="M0,0 L15,1 L15,5 L22,6 L27,9 L29,14 L34,19 L34,24 L37,31 L38,42 L39,43 L39,53 L37,53 L37,70 L33,71 L32,84 L31,86 L27,86 L27,98 L26,101 L22,100 L24,111 L22,111 L23,118 L29,122 L30,129 L64,131 L64,132 L51,133 L46,135 L46,137 L25,137 L25,139 L33,139 L33,140 L11,140 L11,139 L4,138 L4,140 L-24,140 L-20,138 L-37,137 L-37,135 L-56,133 L-56,131 L-39,131 L-38,124 L-33,114 L-35,114 L-34,109 L-29,104 L-23,100 L-20,96 L-18,90 L-11,85 L-5,83 L-1,74 L1,72 L6,70 L8,67 L9,60 L13,55 L13,48 L15,45 L16,39 L14,39 L12,32 L10,27 L6,24 L-7,25 L-17,30 L-24,30 L-25,27 L-28,26 L-28,19 L-22,13 L-19,6 L-15,4 L-15,6 Z " fill="#101D29" transform="translate(64,19)"/>
<path d="M0,0 L3,1 L3,5 L9,1 L9,4 L13,3 L12,7 L7,15 L4,17 L1,22 L-1,25 L0,28 L-1,31 L1,33 L-6,35 L-6,38 L-8,38 L-9,44 L-8,46 L-14,50 L-21,51 L-23,56 L-28,57 L-19,59 L-19,61 L-28,63 L-30,65 L-35,67 L-36,71 L-35,76 L-41,75 L-43,79 L-47,87 L-47,90 L-51,91 L33,91 L48,92 L48,93 L35,94 L30,96 L30,98 L9,98 L9,100 L17,100 L17,101 L-5,101 L-5,100 L-12,99 L-12,101 L-40,101 L-36,99 L-53,98 L-53,96 L-72,94 L-72,92 L-55,92 L-54,85 L-49,75 L-51,75 L-50,70 L-45,65 L-39,61 L-36,57 L-34,51 L-27,46 L-21,44 L-17,35 L-15,33 L-10,31 L-8,28 L-7,21 L-3,16 L-3,9 L-1,6 Z M-37,76 Z " fill="#333E49" transform="translate(80,58)"/>
<path d="M0,0 L1,2 L-1,8 L67,7 L86,7 L101,8 L101,9 L88,10 L83,12 L83,14 L62,14 L62,16 L70,16 L70,17 L48,17 L48,16 L41,15 L41,17 L13,17 L17,15 L0,14 L0,12 L-19,10 L-19,8 L-2,8 L-1,1 Z " fill="#696E75" transform="translate(27,142)"/>
<path d="M0,0 L12,2 L12,3 L34,4 L34,5 L26,6 L50,7 L50,5 L61,5 L61,6 L82,6 L82,9 L71,9 L71,12 L75,14 L72,15 L69,14 L69,11 L67,11 L67,14 L32,14 L32,11 L29,11 L29,9 L5,7 L6,2 L0,2 Z " fill="#ECEDEE" transform="translate(18,152)"/>
<path d="M0,0 L3,1 L3,5 L9,1 L9,4 L13,3 L12,7 L7,15 L4,17 L1,22 L-1,25 L0,28 L-1,31 L1,33 L-6,35 L-6,38 L-8,38 L-9,44 L-8,46 L-14,50 L-15,48 L-12,45 L-17,43 L-18,36 L-15,33 L-10,31 L-8,28 L-7,21 L-3,16 L-3,9 L-1,6 Z " fill="#1D2B38" transform="translate(80,58)"/>
<path d="M0,0 L2,3 L3,5 L8,7 L4,11 L1,13 L-2,13 L-4,18 L-11,19 L-11,22 L-14,23 L-14,25 L-19,27 L-20,32 L-24,32 L-23,28 L-22,24 L-17,19 L-15,13 L-8,8 L-2,6 Z " fill="#2E3944" transform="translate(61,96)"/>
<path d="M0,0 L19,0 L34,1 L34,2 L21,3 L16,5 L16,7 L-19,7 L-19,6 L-5,6 L-5,4 L-25,3 L-25,2 L-20,1 Z " fill="#565B63" transform="translate(94,149)"/>
<path d="M0,0 L1,2 L-1,8 L34,8 L37,10 L16,11 L20,14 L0,14 L0,12 L-19,10 L-19,8 L-2,8 L-1,1 Z " fill="#9AA1A5" transform="translate(27,142)"/>
<path d="M0,0 L12,2 L12,3 L34,4 L34,5 L26,6 L50,7 L50,5 L61,5 L61,6 L82,6 L82,8 L17,8 L5,7 L6,2 L0,2 Z " fill="#ACB0B4" transform="translate(18,152)"/>
<path d="M0,0 L13,0 L13,1 L32,2 L32,3 L5,4 L-9,3 L-9,5 L-1,5 L-1,6 L-14,6 L-18,4 L-24,3 L-24,2 L0,1 Z " fill="#4A5159" transform="translate(61,150)"/>
<path d="M0,0 L15,1 L15,5 L22,6 L24,8 L21,11 L16,8 L10,9 L3,7 L3,4 L1,3 L2,2 Z " fill="#242F3A" transform="translate(64,19)"/>
<path d="M0,0 L1,2 L2,7 L0,7 L0,14 L3,15 L2,19 L-4,17 L-6,19 L-5,23 L-6,21 L-9,20 L-9,13 L-3,7 Z " fill="#1D2936" transform="translate(45,25)"/>
<path d="M0,0 L26,0 L34,1 L34,2 L6,2 L6,4 L19,3 L29,3 L29,5 L3,5 L3,2 L0,2 Z " fill="#ADAEB0" transform="translate(47,161)"/>
<path d="M0,0 L2,1 L-2,5 L-5,10 L-7,13 L-6,16 L-7,19 L-5,21 L-12,23 L-12,21 L-9,20 L-10,15 L-12,15 L-13,9 L-11,7 L-8,7 L-7,5 L-2,1 Z " fill="#1C2834" transform="translate(86,70)"/>
<path d="M0,0 L2,1 L1,4 L-4,6 L-7,9 L-9,9 L-9,11 L-5,10 L-4,16 L-8,15 L-11,16 L-11,10 L-13,9 L-11,9 L-11,7 L-16,5 L-15,3 L-13,3 L-13,5 Z " fill="#38434F" transform="translate(62,20)"/>
<path d="M0,0 L2,0 L0,4 L-6,6 L-12,12 L-14,12 L-15,16 L-18,12 L-16,7 L-10,4 L-7,2 L0,2 Z " fill="#192430" transform="translate(61,117)"/>
<path d="M0,0 L1,2 L-11,3 L-9,7 L-39,8 L-39,6 L-21,5 L-18,3 L-13,1 Z " fill="#B9BCBF" transform="translate(128,150)"/>
<path d="M0,0 L10,0 L9,3 L-25,3 L-25,2 L-20,1 Z " fill="#979DA2" transform="translate(94,149)"/>
<path d="M0,0 L12,2 L12,3 L34,4 L34,5 L17,5 L17,7 L5,7 L6,2 L0,2 Z " fill="#CACDCF" transform="translate(18,152)"/>
<path d="M0,0 L5,2 L5,5 L2,6 L2,8 L-3,10 L-4,15 L-8,15 L-7,11 L-6,7 L-1,2 Z " fill="#616970" transform="translate(45,113)"/>
<path d="M0,0 L21,1 L21,2 L8,3 L3,5 L3,7 L-7,7 L-8,4 L-1,3 Z " fill="#878C93" transform="translate(107,149)"/>
<path d="M0,0 L13,0 L21,2 L23,4 L3,4 L3,2 Z " fill="#666D74" transform="translate(24,152)"/>
<path d="M0,0 L1,3 L-3,9 L-10,12 L-13,16 L-16,15 L-15,10 L-14,6 L-14,9 L-7,7 L-2,2 Z " fill="#39444E" transform="translate(92,61)"/>
<path d="M0,0 L28,0 L28,2 L31,3 L23,3 L23,1 L13,2 L0,2 Z " fill="#D7D8D9" transform="translate(53,163)"/>
<path d="M0,0 L21,0 L21,2 L29,2 L29,3 L7,3 L7,2 L0,1 Z " fill="#7A7E84" transform="translate(68,156)"/>
<path d="M0,0 L1,0 L1,6 L-2,11 L-4,12 L-4,15 L-9,16 L-8,12 L-7,10 L-11,11 L-8,8 L-2,6 Z " fill="#545C66" transform="translate(61,96)"/>
<path d="M0,0 L3,2 L0,8 L0,11 L-7,12 L-5,8 L-3,8 L-4,4 L0,2 Z " fill="#24303B" transform="translate(33,137)"/>
<path d="M0,0 L1,2 L3,2 L5,8 L0,8 L0,10 L-9,10 L-8,8 L-3,6 Z " fill="#464F58" transform="translate(73,83)"/>
<path d="M0,0 L2,1 L-2,5 L-5,10 L-9,13 L-9,8 L-11,7 L-8,7 L-7,5 L-2,1 Z " fill="#26303B" transform="translate(86,70)"/>
<path d="M0,0 L4,1 L-3,10 L-7,10 L-6,6 L-1,1 Z " fill="#28323F" transform="translate(36,122)"/>
<path d="M0,0 L1,2 L2,7 L0,7 L-2,11 L-7,14 L-8,20 L-9,20 L-9,13 L-3,7 Z " fill="#6F777E" transform="translate(45,25)"/>
<path d="M0,0 L25,0 L25,1 L20,1 L19,4 L13,4 L13,1 L0,1 Z " fill="#DDDDDE" transform="translate(51,166)"/>
<path d="M0,0 L15,1 L11,3 L12,5 L3,5 L1,3 L2,2 Z " fill="#545D66" transform="translate(64,19)"/>
<path d="M0,0 L7,1 L5,2 L4,7 L2,9 L-1,9 L-1,5 Z " fill="#323D48" transform="translate(46,25)"/>
<path d="M0,0 L2,0 L0,4 L-4,8 L-7,7 L-6,3 Z " fill="#1F2C39" transform="translate(52,106)"/>
<path d="M0,0 L3,1 L-1,6 L-5,8 L-7,11 L-11,11 L-11,9 L-5,4 L-1,4 Z " fill="#242E3A" transform="translate(64,20)"/>
<path d="M0,0 L20,0 L21,3 L0,1 Z " fill="#CFD1D2" transform="translate(63,160)"/>
<path d="M0,0 L22,0 L22,1 L6,1 L6,3 L0,3 Z " fill="#EFF0F0" transform="translate(41,160)"/>
<path d="M0,0 L2,1 L-3,5 L-4,10 L-14,8 L-14,7 L-6,6 L-4,2 Z " fill="#202C39" transform="translate(63,107)"/>
<path d="M0,0 L1,2 L-11,3 L-9,7 L-13,7 L-13,5 L-15,4 L-13,4 L-13,1 Z " fill="#D0D2D5" transform="translate(128,150)"/>
<path d="M0,0 L2,2 L7,4 L7,5 L-3,8 L-2,4 Z M-5,8 L-3,9 Z " fill="#3F4A54" transform="translate(62,99)"/>
<path d="M0,0 L10,0 L9,3 L1,3 L-2,1 Z " fill="#8D9399" transform="translate(94,149)"/>
<path d="M0,0 L2,1 L-3,5 L-11,5 L-13,3 L-10,2 L-10,4 Z " fill="#717880" transform="translate(59,21)"/>
<path d="M0,0 L7,1 L9,3 L6,6 L1,3 Z " fill="#364350" transform="translate(79,24)"/>
<path d="M0,0 L5,0 L6,6 L2,5 L-1,6 Z " fill="#82888F" transform="translate(52,30)"/>
<path d="M0,0 L2,1 L-2,7 L-5,7 L-7,1 L-2,2 Z " fill="#696F77" transform="translate(60,128)"/>
<path d="M0,0 L4,1 L1,11 L0,11 Z " fill="#D7D9DB" transform="translate(91,105)"/>
<path d="M0,0 L1,3 L1,6 L-4,11 L-6,9 L-3,6 L-3,3 Z " fill="#1F2B37" transform="translate(71,97)"/>
<path d="M0,0 L13,0 L16,1 L16,3 L10,3 L10,1 L0,1 Z " fill="#DDDDDF" transform="translate(90,157)"/>
<path d="M0,0 L4,1 L4,4 L1,5 L1,7 L-3,6 L1,2 Z " fill="#4D565F" transform="translate(46,114)"/>
<path d="M0,0 L1,0 L1,6 L6,6 L3,9 L-2,9 Z " fill="#3D4853" transform="translate(80,58)"/>
<path d="M0,0 L6,0 L6,2 L14,2 L14,3 L0,3 Z " fill="#8A9095" transform="translate(27,153)"/>
<path d="M0,0 L3,1 L-2,6 L-4,6 L-3,1 Z " fill="#1D2531" transform="translate(66,92)"/>
<path d="M0,0 L7,0 L11,3 L1,3 Z " fill="#81858B" transform="translate(99,153)"/>
<path d="M0,0 L1,2 L6,1 L5,4 L-3,4 Z " fill="#37434E" transform="translate(51,110)"/>
<path d="M0,0 L1,2 L3,2 L5,8 L1,7 Z " fill="#38424D" transform="translate(73,83)"/>
<path d="M0,0 L3,1 L1,6 L2,10 L1,8 L-1,8 L-1,1 Z " fill="#343F4B" transform="translate(38,38)"/>
<path d="M0,0 L2,0 L7,6 L1,5 Z " fill="#E4E4E5" transform="translate(86,161)"/>
<path d="M0,0 L2,1 L-3,8 L-5,8 L-4,4 Z " fill="#303C47" transform="translate(69,92)"/>
</svg>
