<?xml version="1.0" encoding="UTF-8"?>
<!-- Generator: visioncortex VTracer 0.6.5 -->
<svg version="1.1" xmlns="http://www.w3.org/2000/svg" width="199" height="154">
<path d="M0,0 L199,0 L199,154 L0,154 Z " fill="#091825" transform="translate(0,0)"/>
<path d="M0,0 L199,0 L199,154 L0,154 Z M64,9 L57,12 L55,10 L49,14 L44,19 L41,19 L37,27 L34,34 L30,47 L25,58 L24,65 L21,66 L10,82 L8,90 L8,97 L10,101 L3,102 L2,104 L6,106 L6,108 L4,109 L6,114 L4,123 L4,125 L6,125 L6,127 L10,129 L13,129 L13,131 L7,131 L7,132 L13,132 L13,134 L11,135 L11,137 L9,139 L45,140 L45,141 L61,140 L61,142 L85,142 L82,140 L64,134 L36,123 L9,112 L13,110 L22,109 L25,111 L32,111 L31,112 L30,114 L35,113 L36,110 L35,107 L37,107 L39,113 L42,113 L40,108 L39,100 L48,98 L55,98 L61,100 L74,101 L74,112 L72,116 L73,120 L75,120 L75,122 L69,122 L69,120 L65,122 L69,124 L75,124 L78,125 L80,124 L80,122 L85,122 L86,120 L86,122 L87,124 L91,121 L94,119 L90,118 L90,116 L98,113 L100,110 L101,114 L98,123 L104,122 L102,121 L106,116 L108,115 L107,120 L105,121 L111,122 L111,120 L118,119 L120,118 L120,116 L124,114 L125,112 L128,111 L138,111 L146,112 L146,116 L153,118 L158,118 L159,120 L162,119 L162,117 L167,118 L170,116 L153,132 L147,138 L148,141 L152,142 L178,142 L183,139 L183,137 L186,137 L186,135 L191,134 L188,132 L191,130 L192,128 L190,127 L190,124 L193,122 L192,117 L193,114 L195,113 L195,111 L192,111 L194,99 L194,76 L195,76 L195,69 L191,56 L193,56 L191,50 L187,45 L187,42 L189,42 L187,38 L181,31 L184,29 L180,25 L175,23 L173,20 L176,19 L172,16 L165,15 L165,12 L155,12 L152,13 L152,11 L154,11 L154,9 L147,10 L139,14 L139,12 L134,14 L126,23 L122,29 L122,31 L119,30 L118,39 L116,44 L116,54 L118,59 L120,57 L124,60 L125,56 L128,59 L130,59 L131,57 L134,62 L130,64 L129,69 L131,71 L135,71 L132,79 L127,88 L116,93 L117,82 L114,71 L108,62 L108,57 L103,51 L101,50 L101,45 L95,41 L93,33 L87,24 L90,23 L87,20 L78,15 L79,11 L71,11 L67,12 L68,9 Z " fill="#F4F4F4" transform="translate(0,0)"/>
<path d="M0,0 L4,0 L4,2 L2,2 L2,4 L5,3 L15,3 L15,6 L24,8 L26,10 L23,11 L26,15 L31,17 L34,21 L31,23 L39,31 L39,33 L37,33 L38,37 L43,45 L43,47 L41,48 L45,60 L45,67 L44,67 L44,90 L42,102 L45,102 L45,104 L43,105 L42,110 L43,114 L40,115 L40,118 L42,120 L41,122 L38,123 L41,125 L36,126 L36,128 L33,128 L33,130 L28,133 L2,133 L-3,131 L-1,127 L12,114 L20,107 L17,109 L12,108 L12,110 L8,111 L8,109 L-2,108 L-4,107 L-4,103 L-12,102 L-22,102 L-25,103 L-28,107 L-30,107 L-30,109 L-34,111 L-39,111 L-39,113 L-45,112 L-43,111 L-42,106 L-47,110 L-48,112 L-46,113 L-52,114 L-49,105 L-50,101 L-52,104 L-60,107 L-60,109 L-56,111 L-62,114 L-64,115 L-63,111 L-65,111 L-65,113 L-70,113 L-70,115 L-75,116 L-78,115 L-83,114 L-85,112 L-81,111 L-81,113 L-75,113 L-75,111 L-77,110 L-75,109 L-70,99 L-67,98 L-67,100 L-69,100 L-69,103 L-60,103 L-58,102 L-57,94 L-56,96 L-47,96 L-44,93 L-40,91 L-34,84 L-23,79 L-17,69 L-15,62 L-20,61 L-21,57 L-18,53 L-16,52 L-19,48 L-20,50 L-22,50 L-25,47 L-26,51 L-30,48 L-32,50 L-34,45 L-34,35 L-32,30 L-31,21 L-28,22 L-26,17 L-18,7 L-13,3 L-11,3 L-10,5 Z " fill="#0A1825" transform="translate(150,9)"/>
<path d="M0,0 L7,0 L13,2 L26,4 L27,15 L25,19 L25,22 L27,23 L27,25 L21,25 L21,23 L19,25 L24,26 L29,26 L32,27 L32,25 L37,25 L36,22 L40,22 L40,25 L43,23 L41,19 L47,16 L50,16 L52,12 L54,14 L53,19 L50,26 L54,24 L56,20 L60,18 L59,23 L63,25 L63,23 L72,21 L72,19 L77,14 L80,13 L90,13 L98,15 L98,19 L110,21 L114,22 L114,20 L119,20 L123,17 L121,21 L105,36 L100,41 L100,43 L106,45 L121,46 L121,48 L116,49 L116,50 L103,51 L99,54 L73,54 L73,52 L56,52 L15,51 L13,49 L9,48 L9,50 L3,51 L3,52 L-2,52 L-2,50 L-15,48 L-28,48 L-28,46 L-25,45 L-37,44 L-37,43 L-21,42 L-2,42 L-2,43 L13,43 L13,45 L34,44 L16,38 L-12,27 L-39,16 L-39,13 L-32,11 L-26,11 L-23,13 L-15,13 L-15,15 L-16,16 L-13,16 L-13,10 L-11,10 L-9,16 L-6,16 L-9,11 L-9,3 Z " fill="#787D83" transform="translate(48,97)"/>
<path d="M0,0 L4,1 L3,3 L7,2 L15,2 L14,6 L16,8 L12,8 L9,7 L9,9 L11,9 L11,11 L9,11 L9,13 L4,14 L5,17 L5,22 L1,26 L10,24 L10,26 L7,28 L0,28 L-2,27 L-2,25 L-4,25 L-5,36 L-2,37 L-3,43 L2,41 L4,44 L4,48 L-6,45 L-5,40 L-9,39 L-11,39 L-10,45 L-15,46 L-15,50 L-18,49 L-19,54 L-19,56 L-15,54 L-14,52 L-3,52 L-3,54 L-13,55 L-15,57 L-19,57 L-20,60 L-25,55 L-29,49 L-31,51 L-30,50 L-29,53 L-30,57 L-33,57 L-35,63 L-37,63 L-37,65 L-35,66 L-40,65 L-40,68 L-42,68 L-43,72 L-45,73 L-37,77 L-33,81 L-28,77 L-26,84 L-29,86 L-27,88 L-28,91 L-28,89 L-33,89 L-32,93 L-39,92 L-40,96 L-39,101 L-48,100 L-55,102 L-52,104 L-13,120 L2,126 L21,132 L21,133 L-3,133 L-3,131 L-19,132 L-19,131 L-55,130 L-53,126 L-51,125 L-51,123 L-57,123 L-57,122 L-51,122 L-51,120 L-54,119 L-58,118 L-58,116 L-60,115 L-59,107 L-58,104 L-60,99 L-58,99 L-58,97 L-62,95 L-61,93 L-54,92 L-56,88 L-55,75 L-48,64 L-42,56 L-40,56 L-38,47 L-33,36 L-28,19 L-26,17 L-23,10 L-19,9 L-11,2 L-8,1 L-7,3 Z " fill="#26313C" transform="translate(64,9)"/>
<path d="M0,0 L2,1 L-3,4 L0,6 L15,9 L23,11 L42,11 L45,9 L46,11 L52,13 L67,14 L67,16 L62,17 L62,18 L49,19 L45,22 L19,22 L19,20 L2,20 L-39,19 L-41,17 L-45,16 L-45,18 L-51,19 L-51,20 L-56,20 L-56,18 L-69,16 L-82,16 L-82,14 L-79,13 L-91,12 L-91,11 L-75,10 L-56,10 L-56,11 L-41,11 L-41,13 L-3,12 L8,10 L-7,7 L-7,4 Z " fill="#28303A" transform="translate(102,129)"/>
<path d="M0,0 L6,1 L43,16 L58,22 L77,28 L77,29 L53,29 L53,27 L37,28 L37,27 L1,26 L3,22 L5,21 L5,19 L-1,19 L-1,18 L5,18 L5,16 L2,15 L7,14 L0,12 L0,10 L5,9 L-1,8 L-1,7 L4,6 L1,5 Z " fill="#101E2B" transform="translate(8,113)"/>
<path d="M0,0 L6,0 L2,2 L3,4 L-1,6 L-4,9 L-7,11 L0,13 L0,14 L-15,14 L-12,16 L0,16 L7,18 L7,15 L10,14 L11,12 L3,11 L3,10 L13,10 L3,8 L3,7 L20,8 L24,6 L19,11 L9,20 L14,18 L21,16 L25,12 L27,13 L15,25 L11,28 L-8,28 L-31,23 L-36,21 L-32,18 L-12,6 L-9,4 L-9,6 L-4,2 L0,2 Z " fill="#BBBEBF" transform="translate(133,113)"/>
<path d="M0,0 L10,0 L18,2 L18,6 L30,8 L34,9 L34,7 L39,7 L43,4 L41,8 L33,15 L28,18 L25,21 L17,22 L13,24 L18,18 L28,10 L25,12 L10,11 L20,13 L20,14 L13,14 L16,15 L15,18 L12,18 L12,21 L5,20 L-10,20 L-11,17 L-10,16 L3,16 L-3,15 L1,11 L3,10 L1,8 L6,6 L7,4 L5,3 L5,5 L0,7 L-4,9 L-6,9 L-15,15 L-22,19 L-24,18 L-21,16 L-29,15 L-31,16 L-30,13 L-26,11 L-24,7 L-20,5 L-21,10 L-17,12 L-17,10 L-8,8 L-8,6 L-3,1 Z " fill="#919499" transform="translate(128,110)"/>
<path d="M0,0 L4,1 L3,3 L11,2 L9,6 L3,6 L3,8 L-2,10 L-3,15 L-5,21 L-11,23 L-16,28 L-21,28 L-22,27 L-21,19 L-23,19 L-25,26 L-24,30 L-26,32 L-24,33 L-21,29 L-18,34 L-27,39 L-28,41 L-30,41 L-30,35 L-32,35 L-30,25 L-27,18 L-23,10 L-19,9 L-11,2 L-8,1 L-7,3 Z " fill="#444D57" transform="translate(64,9)"/>
<path d="M0,0 L4,0 L4,2 L2,2 L2,4 L5,3 L15,3 L15,6 L22,7 L19,10 L20,12 L14,11 L9,12 L7,12 L7,14 L5,14 L3,7 L-3,7 L-9,11 L-10,14 L-7,11 L-1,10 L-1,13 L-1,15 L-4,17 L-5,19 L-8,18 L-7,15 L-17,20 L-19,19 L-18,25 L-20,25 L-21,22 L-23,21 L-23,23 L-25,24 L-22,26 L-22,28 L-19,29 L-19,31 L-17,31 L-17,33 L-15,34 L-20,35 L-25,37 L-27,41 L-30,41 L-24,33 L-28,32 L-30,36 L-33,45 L-34,45 L-34,35 L-32,30 L-31,21 L-28,22 L-26,17 L-18,7 L-13,3 L-11,3 L-10,5 Z M-19,28 Z " fill="#36404A" transform="translate(150,9)"/>
<path d="M0,0 L4,1 L2,1 L3,4 L7,5 L8,3 L10,4 L10,6 L16,7 L34,14 L38,16 L38,19 L42,17 L47,18 L52,20 L50,22 L60,23 L65,25 L65,23 L67,23 L69,19 L72,18 L77,20 L78,24 L82,22 L85,23 L82,26 L102,30 L102,31 L86,33 L72,33 L51,26 L23,15 L-4,4 L-4,1 Z " fill="#CCCED0" transform="translate(13,109)"/>
<path d="M0,0 L2,0 L2,6 L4,6 L6,2 L11,1 L14,3 L18,0 L18,3 L20,4 L19,8 L17,9 L17,15 L14,14 L13,19 L13,21 L17,19 L18,17 L29,17 L29,19 L19,20 L17,22 L13,22 L12,25 L7,20 L3,14 L1,16 L2,15 L3,18 L2,22 L-1,22 L-3,28 L-5,28 L-5,30 L-3,31 L-8,30 L-8,33 L-10,33 L-11,37 L-13,38 L-9,41 L-14,42 L-16,41 L-19,41 L-18,36 L-15,32 L-13,32 L-12,28 L-10,28 L-9,26 L-7,26 L-8,23 L-6,21 L-7,20 L-7,14 Z " fill="#2D3945" transform="translate(32,44)"/>
<path d="M0,0 L21,0 L21,2 L30,2 L29,0 L34,1 L34,2 L56,3 L58,5 L45,6 L41,9 L15,9 L15,7 L-2,7 L-43,6 L-45,3 L-12,3 L-12,1 Z " fill="#93999E" transform="translate(106,142)"/>
<path d="M0,0 L2,2 L1,9 L0,11 L-2,11 L-2,16 L-6,17 L-6,22 L-10,23 L-10,26 L-14,25 L-14,27 L-16,27 L-16,29 L-20,29 L-20,31 L-22,31 L-23,34 L-26,35 L-31,44 L-32,41 L-28,33 L-31,37 L-34,37 L-35,39 L-37,42 L-45,45 L-45,47 L-41,49 L-47,52 L-49,53 L-48,49 L-50,49 L-50,51 L-55,51 L-55,53 L-60,54 L-63,53 L-68,52 L-70,50 L-66,49 L-66,51 L-60,51 L-60,49 L-62,48 L-60,47 L-55,37 L-52,36 L-52,38 L-54,38 L-54,41 L-45,41 L-43,40 L-42,32 L-41,34 L-32,34 L-29,31 L-25,29 L-19,22 L-8,17 L-2,7 Z " fill="#424C55" transform="translate(135,71)"/>
<path d="M0,0 L2,3 L-1,4 L3,5 L3,11 L-1,12 L1,21 L-1,27 L-3,27 L-3,29 L-5,29 L-5,27 L-23,29 L-21,26 L-11,26 L-11,24 L-22,24 L-23,27 L-27,28 L-28,22 L-24,20 L-23,22 L-23,18 L-18,17 L-19,11 L-14,10 L-12,12 L-14,17 L-7,18 L-4,20 L-6,15 L-8,15 L-11,15 L-11,9 L-14,8 L-13,2 L-8,2 L-5,5 L-5,3 Z " fill="#0F1C27" transform="translate(72,37)"/>
<path d="M0,0 L7,0 L19,3 L18,5 L15,4 L15,6 L17,7 L16,8 L20,10 L11,14 L2,17 L-7,22 L-13,21 L-17,18 L-13,17 L-5,17 L-9,11 L-9,3 Z " fill="#80848A" transform="translate(48,97)"/>
<path d="M0,0 L6,1 L31,11 L50,17 L50,18 L26,18 L26,16 L10,17 L12,15 L29,15 L29,13 L27,14 L10,14 L14,12 L14,10 L-12,9 L-15,7 L-8,6 L-4,5 L-3,1 Z " fill="#101B27" transform="translate(35,124)"/>
<path d="M0,0 L3,2 L2,7 L-1,16 L2,15 L9,16 L5,20 L-1,22 L0,19 L-11,18 L-17,16 L-19,20 L-22,21 L-23,20 L-27,19 L-28,17 L-38,18 L-42,16 L-42,11 L-36,11 L-30,14 L-22,14 L-19,15 L-19,13 L-14,13 L-15,10 L-11,10 L-11,13 L-8,11 L-10,7 L-4,4 L-1,4 Z " fill="#A2A5A8" transform="translate(99,109)"/>
<path d="M0,0 L3,0 L3,3 L23,4 L26,6 L26,8 L28,10 L20,9 L18,8 L11,8 L2,10 L4,20 L5,23 L2,23 L0,17 L-2,17 L-1,21 L-2,23 L-7,24 L-6,22 L-5,21 L-12,21 L-14,15 L-13,10 L-7,10 L-6,10 L-6,8 L-1,8 L-3,4 L1,3 Z " fill="#1B2531" transform="translate(37,90)"/>
<path d="M0,0 L6,0 L2,2 L3,4 L-1,6 L-4,9 L-7,11 L0,13 L0,14 L-9,14 L-15,13 L-13,10 L-17,12 L-24,17 L-25,19 L-14,20 L-11,22 L-11,24 L-2,25 L3,26 L3,27 L-14,27 L-26,24 L-36,21 L-32,18 L-12,6 L-9,4 L-9,6 L-4,2 L0,2 Z " fill="#DFE1E1" transform="translate(133,113)"/>
<path d="M0,0 L3,1 L-4,5 L-4,8 L-4,13 L-2,15 L-7,20 L-7,22 L-10,21 L-9,13 L-11,13 L-13,20 L-12,24 L-14,26 L-12,27 L-9,23 L-6,28 L-15,33 L-16,35 L-18,35 L-18,29 L-20,29 L-18,19 L-15,12 L-11,4 L-7,3 Z " fill="#767E85" transform="translate(52,15)"/>
<path d="M0,0 L19,0 L19,1 L34,1 L34,3 L58,3 L58,4 L34,4 L34,6 L30,6 L30,8 L24,9 L24,10 L19,10 L19,8 L6,6 L-7,6 L-7,4 L-4,3 L-16,2 L-16,1 Z " fill="#5B626A" transform="translate(27,139)"/>
<path d="M0,0 L6,0 L8,5 L4,7 L4,10 L0,9 L0,11 L-8,13 L-6,14 L-8,19 L-11,24 L-13,24 L-14,22 L-16,22 L-21,29 L-21,26 L-18,20 L-19,19 L-21,21 L-20,17 L-17,14 L-14,13 L-7,5 Z " fill="#182634" transform="translate(97,81)"/>
<path d="M0,0 L6,0 L7,11 L5,15 L5,18 L7,19 L7,21 L1,21 L1,19 L-3,20 L-7,18 L-12,18 L-12,24 L-19,22 L-17,16 L-13,14 L-9,13 L-14,13 L-12,11 L-2,8 L4,5 L2,4 L2,1 Z " fill="#8E9399" transform="translate(68,101)"/>
<path d="M0,0 L30,1 L36,2 L36,4 L34,5 L51,5 L51,7 L33,8 L-4,7 L-2,3 L0,2 Z " fill="#2C343D" transform="translate(13,132)"/>
<path d="M0,0 L2,1 L4,6 L6,7 L3,9 L-5,10 L-5,12 L-3,12 L-3,14 L2,16 L2,21 L1,25 L3,28 L-2,29 L-4,26 L-5,31 L-6,31 L-6,25 L-6,21 L-6,14 L-7,15 L-9,12 L-9,10 L-14,10 L-16,8 L-15,3 L-11,1 L-9,2 L-9,5 L-4,6 L-5,4 L-8,3 L-8,1 L-3,3 L-1,4 Z " fill="#15222F" transform="translate(145,61)"/>
<path d="M0,0 L7,2 L8,6 L12,4 L15,5 L12,8 L32,12 L32,13 L16,15 L2,15 L-1,13 L-2,10 L4,10 L-3,8 L-3,3 Z " fill="#9C9FA4" transform="translate(83,127)"/>
<path d="M0,0 L4,2 L10,5 L13,9 L10,11 L18,19 L18,21 L16,21 L17,25 L22,33 L22,35 L20,36 L23,45 L23,48 L20,47 L15,33 L13,25 L12,21 L9,21 L10,18 L9,13 L7,13 L5,8 L-2,5 Z " fill="#1B2632" transform="translate(171,21)"/>
<path d="M0,0 L2,1 L-10,13 L-14,16 L-33,16 L-33,15 L-27,14 L-36,12 L-39,9 L-50,7 L-50,5 L-26,9 L-19,9 L-14,7 L-7,5 L-3,3 Z " fill="#BBBDC0" transform="translate(158,125)"/>
<path d="M0,0 L3,1 L-5,6 L-7,7 L-9,6 L-10,10 L-12,10 L-13,13 L-16,12 L-17,19 L-14,19 L-14,21 L-9,20 L-6,14 L-4,15 L-5,17 L0,18 L-3,22 L-8,21 L-8,23 L-12,24 L-12,22 L-22,21 L-24,20 L-24,16 L-29,16 L-29,15 L-23,15 L-21,10 L-13,4 L-5,3 Z " fill="#263340" transform="translate(170,96)"/>
<path d="M0,0 L5,0 L7,3 L-1,2 L-1,7 L8,8 L15,7 L15,10 L18,11 L18,9 L20,10 L19,12 L24,7 L38,9 L41,10 L40,13 L33,16 L31,14 L31,11 L25,10 L22,14 L20,14 L20,16 L8,14 L4,13 L4,11 L0,9 L-7,10 L-7,7 L-13,5 L-9,3 L-9,5 L-4,6 L-2,7 L-2,1 Z " fill="#7D8088" transform="translate(58,118)"/>
<path d="M0,0 L10,2 L16,5 L17,8 L14,8 L21,19 L21,24 L18,24 L16,21 L15,23 L13,23 L13,19 L15,19 L14,14 L9,5 L6,4 L6,6 L1,7 L2,12 L0,12 L1,17 L-3,19 L-8,19 L-7,16 L-5,15 L-4,8 L-6,7 L-2,5 L0,6 L0,4 L2,4 L2,2 L0,2 Z M18,21 Z " fill="#1B2733" transform="translate(73,16)"/>
<path d="M0,0 L4,2 L1,5 L1,7 L-1,7 L-2,10 L-4,10 L-5,13 L-7,13 L-9,17 L-11,22 L-5,21 L-3,22 L2,22 L5,26 L5,28 L2,29 L-1,32 L-6,31 L-7,29 L-8,27 L-10,27 L-11,29 L-13,27 L-13,17 L-2,2 L0,2 Z " fill="#525B64" transform="translate(24,63)"/>
<path d="M0,0 L3,1 L4,4 L8,4 L8,6 L12,5 L10,10 L12,11 L11,17 L8,15 L8,14 L2,14 L-3,17 L-7,7 L-7,3 L-4,3 L-3,1 Z " fill="#101F2C" transform="translate(95,68)"/>
<path d="M0,0 L2,3 L-1,4 L3,5 L3,11 L-1,12 L1,21 L-2,26 L-3,23 L-1,16 L-6,15 L-8,15 L-11,15 L-11,9 L-14,8 L-13,2 L-8,2 L-5,5 L-5,3 Z " fill="#1A2430" transform="translate(72,37)"/>
<path d="M0,0 L10,0 L6,2 L-2,9 L-6,9 L-15,15 L-22,19 L-24,18 L-21,16 L-29,15 L-31,16 L-30,13 L-26,11 L-24,7 L-20,5 L-21,10 L-17,12 L-17,10 L-8,8 L-8,6 L-3,1 Z " fill="#76797F" transform="translate(128,110)"/>
<path d="M0,0 L16,0 L21,1 L18,3 L16,3 L16,5 L13,5 L13,7 L8,10 L-14,10 L-10,8 L-9,5 L11,5 L11,3 L7,4 L-4,4 L0,2 Z " fill="#303942" transform="translate(170,132)"/>
<path d="M0,0 L5,1 L10,3 L8,5 L18,6 L23,8 L23,6 L28,6 L25,7 L25,9 L33,10 L32,12 L26,11 L26,13 L30,14 L23,14 L1,6 L-2,4 Z " fill="#CBCED0" transform="translate(55,126)"/>
<path d="M0,0 L1,3 L3,4 L2,8 L0,9 L0,15 L-3,14 L-4,19 L-4,21 L0,19 L1,17 L12,17 L12,19 L2,20 L0,22 L-4,22 L-5,25 L-8,23 L-9,8 L-4,5 L-2,5 L-1,1 Z " fill="#37414B" transform="translate(49,44)"/>
<path d="M0,0 L3,2 L2,7 L-1,16 L2,15 L9,16 L5,20 L-1,22 L0,19 L-4,18 L-8,16 L-4,16 L-4,14 L-8,13 L-10,7 L-4,4 L-1,4 Z " fill="#8D9197" transform="translate(99,109)"/>
<path d="M0,0 L11,2 L8,4 L5,5 L2,9 L0,9 L0,11 L-4,13 L-9,13 L-9,15 L-15,14 L-13,13 L-11,4 L-9,4 L-9,6 L-7,6 L-7,3 L-5,3 L-5,7 L-3,8 L-1,2 Z " fill="#27323C" transform="translate(120,107)"/>
<path d="M0,0 L9,1 L15,2 L14,4 L11,3 L11,5 L13,6 L12,7 L16,9 L7,13 L-2,15 L-5,13 L-5,11 L4,11 L4,8 L-5,9 L-5,7 L3,6 L2,2 Z " fill="#A5A8AB" transform="translate(52,98)"/>
<path d="M0,0 L4,1 L4,9 L7,10 L6,16 L11,14 L13,17 L13,21 L3,18 L4,13 L0,12 L-2,12 L-1,18 L-6,19 L-7,15 L-4,16 L-5,9 L-2,8 Z " fill="#28333D" transform="translate(55,36)"/>
<path d="M0,0 L1,4 L1,9 L6,10 L9,11 L7,11 L7,13 L14,13 L15,10 L19,9 L22,13 L15,13 L15,15 L12,17 L8,17 L8,23 L3,22 L5,21 L4,15 L1,14 L0,16 L0,13 L-3,12 L-2,3 Z " fill="#232E3A" transform="translate(11,81)"/>
<path d="M0,0 L3,0 L2,12 L1,18 L4,18 L3,20 L-8,19 L-7,15 L-7,12 L-3,2 Z M-5,12 Z M-6,13 Z " fill="#172532" transform="translate(191,93)"/>
<path d="M0,0 L21,0 L23,2 L10,3 L6,6 L-20,6 L-20,4 L-7,2 L-7,1 Z " fill="#BFC1C5" transform="translate(141,145)"/>
<path d="M0,0 L1,3 L0,5 L10,6 L11,8 L15,10 L9,13 L7,14 L8,10 L6,10 L6,12 L1,12 L1,14 L-4,15 L-7,14 L-12,13 L-14,11 L-10,10 L-10,12 L-4,12 L-4,10 L-6,9 L-4,8 Z " fill="#60656D" transform="translate(79,110)"/>
<path d="M0,0 L9,2 L16,5 L18,9 L6,9 L-1,8 L-1,5 L-4,5 L-3,1 Z " fill="#05121E" transform="translate(41,85)"/>
<path d="M0,0 L3,1 L0,3 L13,5 L12,8 L9,8 L9,11 L2,10 L-13,10 L-14,7 L-13,6 L0,6 L-6,5 L-2,1 Z " fill="#A9AFB2" transform="translate(131,120)"/>
<path d="M0,0 L5,0 L5,2 L8,3 L8,5 L10,5 L10,7 L12,8 L7,9 L2,11 L0,15 L-3,15 L3,7 L-1,6 L-3,10 L-6,19 L-7,19 L-7,9 L-5,4 L-1,4 Z M8,2 Z " fill="#38444F" transform="translate(123,35)"/>
<path d="M0,0 L10,0 L10,3 L17,4 L14,7 L15,9 L9,8 L4,9 L2,9 L2,11 L0,11 L-2,4 L-4,3 L-2,3 L-2,1 Z " fill="#3A434E" transform="translate(155,12)"/>
<path d="M0,0 L2,0 L3,5 L-2,4 L-4,9 L-6,16 L-6,18 L-8,18 L-8,16 L-10,16 L-10,14 L-16,14 L-13,13 L-14,11 L-17,9 L-14,8 L-14,6 L-11,7 L-11,10 L-9,10 L-10,4 L-6,3 Z M-10,13 Z " fill="#1A2632" transform="translate(141,24)"/>
<path d="M0,0 L2,0 L4,6 L8,5 L8,7 L-3,9 L-6,10 L-12,8 L-12,6 L-19,7 L-20,3 L-19,1 L-13,1 L-10,3 L-2,3 L-2,5 L-3,6 L0,6 Z " fill="#6D7179" transform="translate(35,107)"/>
<path d="M0,0 L1,2 L7,2 L6,8 L5,10 L-3,13 L-15,13 L-14,6 L-10,4 L-10,6 L-12,6 L-12,9 L-3,9 L-1,8 Z " fill="#2C3843" transform="translate(93,103)"/>
<path d="M0,0 L5,1 L1,4 L-1,4 L-1,7 L5,6 L8,11 L7,14 L0,13 L-1,9 L-5,11 L-4,14 L-6,14 L-6,12 L-11,13 L-10,6 L-8,6 L-8,8 L-5,8 L-3,2 Z " fill="#1A2531" transform="translate(151,29)"/>
<path d="M0,0 L4,2 L2,2 L0,8 L-9,9 L-12,12 L-16,19 L-20,19 L-19,12 L-16,12 L-13,9 L-12,6 L-8,5 Z " fill="#17222D" transform="translate(173,96)"/>
<path d="M0,0 L2,3 L3,7 L0,9 L2,11 L1,14 L1,12 L-4,12 L-3,16 L-10,15 L-11,15 L-12,20 L-14,18 L-13,12 L-9,10 L-9,8 L-3,7 L-3,3 Z " fill="#2F3B46" transform="translate(35,86)"/>
<path d="M0,0 L6,0 L8,1 L6,6 L3,11 L1,11 L0,9 L-2,9 L-7,16 L-7,13 L-4,7 L-5,6 L-7,8 L-6,4 L-3,1 Z " fill="#293541" transform="translate(83,94)"/>
<path d="M0,0 L4,1 L3,3 L11,2 L9,6 L3,6 L3,8 L-2,10 L-3,15 L-4,13 L-6,13 L-6,7 L-4,5 L-6,3 Z " fill="#454E57" transform="translate(64,9)"/>
<path d="M0,0 L4,0 L4,4 L8,6 L7,9 L-12,9 L-15,7 L-8,6 L-4,5 L-3,1 Z " fill="#07111B" transform="translate(35,124)"/>
<path d="M0,0 L2,1 L-13,14 L-16,16 L-19,15 L-19,12 L-15,12 L-15,9 L-12,8 L-11,6 L-19,5 L-19,4 L-9,4 L-19,2 L-19,1 L-2,2 Z " fill="#DADBDB" transform="translate(155,119)"/>
<path d="M0,0 L4,0 L4,8 L0,6 L0,10 L-4,10 L-4,12 L-6,12 L-4,17 L-5,20 L-14,17 L-10,15 L-8,8 L-5,8 L-2,5 L-2,2 L0,2 Z " fill="#14222F" transform="translate(31,66)"/>
<path d="M0,0 L2,2 L8,4 L23,5 L23,7 L-7,7 L-10,3 L-2,2 Z " fill="#474E56" transform="translate(146,138)"/>
<path d="M0,0 L3,2 L1,2 L0,7 L-3,7 L-3,10 L-5,10 L-6,13 L-9,14 L-14,23 L-15,20 L-11,12 L-14,16 L-17,16 L-18,18 L-19,14 L-14,12 L-8,8 L-2,1 Z " fill="#333C46" transform="translate(118,92)"/>
<path d="M0,0 L3,1 L-5,6 L-7,7 L-9,6 L-10,10 L-12,10 L-13,13 L-16,12 L-17,14 L-17,10 L-21,14 L-23,20 L-24,16 L-29,16 L-29,15 L-23,15 L-21,10 L-13,4 L-5,3 Z " fill="#323D47" transform="translate(170,96)"/>
<path d="M0,0 L2,3 L1,10 L0,12 L-2,12 L-4,17 L-5,19 L-8,18 L-8,13 L-7,9 L-3,6 L-7,7 L-5,3 Z " fill="#586068" transform="translate(55,10)"/>
<path d="M0,0 L6,0 L7,3 L9,3 L10,10 L8,11 L1,11 L-1,5 Z " fill="#18232E" transform="translate(24,100)"/>
<path d="M0,0 L2,1 L1,6 L2,10 L-5,12 L-14,12 L-13,8 L-11,7 L-13,6 L-13,4 L-1,4 Z " fill="#40474F" transform="translate(191,113)"/>
<path d="M0,0 L0,3 L-1,6 L6,7 L6,11 L3,12 L2,9 L0,10 L-3,8 L-5,9 L-5,14 L-9,17 L-13,17 L-11,12 L-5,4 Z " fill="#2C3941" transform="translate(76,74)"/>
<path d="M0,0 L2,0 L2,8 L7,8 L11,5 L12,6 L12,11 L7,16 L6,13 L2,11 L-1,15 L-4,13 L-2,10 L-3,6 L-1,6 Z " fill="#27313C" transform="translate(41,28)"/>
<path d="M0,0 L12,2 L15,4 L15,6 L24,7 L29,8 L29,9 L12,9 L5,7 L2,4 L2,2 L0,2 Z " fill="#D5D6D7" transform="translate(107,131)"/>
<path d="M0,0 L5,1 L3,2 L3,4 L9,4 L9,6 L19,6 L18,8 L3,7 L13,9 L13,10 L-5,10 L-3,6 L-6,4 L-1,2 Z " fill="#A2A5A7" transform="translate(135,114)"/>
<path d="M0,0 L2,0 L4,6 L12,13 L11,16 L13,17 L10,17 L10,19 L5,17 L4,13 L2,14 L0,9 Z " fill="#313F49" transform="translate(36,65)"/>
<path d="M0,0 L2,3 L3,6 L7,8 L8,3 L14,3 L12,8 L13,12 L2,10 L0,10 L-1,12 L-3,13 L-4,8 Z " fill="#132431" transform="translate(39,76)"/>
<path d="M0,0 L3,1 L4,4 L8,4 L8,6 L4,8 L4,12 L0,12 L1,6 L-3,7 L-1,16 L-3,17 L-7,7 L-7,3 L-4,3 L-3,1 Z " fill="#1E2934" transform="translate(95,68)"/>
<path d="M0,0 L2,0 L0,7 L1,11 L-1,13 L1,14 L4,10 L7,15 L-2,20 L-3,22 L-5,22 L-4,12 L-1,2 Z " fill="#59636B" transform="translate(39,28)"/>
<path d="M0,0 L5,1 L6,4 L9,6 L-5,7 L-18,7 L-18,3 L-8,2 L1,2 Z " fill="#6A7178" transform="translate(135,142)"/>
<path d="M0,0 L19,0 L17,1 L17,3 L30,3 L30,4 L16,4 L-16,2 L-16,1 Z " fill="#6A6F75" transform="translate(27,139)"/>
<path d="M0,0 L2,0 L4,4 L4,9 L8,10 L7,11 L12,12 L8,14 L3,14 L3,16 L14,17 L10,19 L1,18 L1,16 L-1,15 L0,7 L1,4 Z " fill="#5E666D" transform="translate(5,109)"/>
<path d="M0,0 L0,3 L-1,6 L2,2 L4,3 L2,8 L1,12 L-4,16 L-5,18 L-3,19 L-9,20 L-6,11 L-6,5 L-3,5 L-1,1 Z " fill="#202937" transform="translate(107,103)"/>
<path d="M0,0 L3,0 L3,3 L23,4 L26,6 L26,8 L28,10 L20,9 L18,8 L9,8 L9,4 L-2,4 L1,3 Z " fill="#1E2D3A" transform="translate(37,90)"/>
<path d="M0,0 L9,2 L9,3 L21,3 L21,5 L1,6 L1,9 L-8,10 L-6,9 L-5,4 L-1,2 Z " fill="#19242E" transform="translate(160,132)"/>
<path d="M0,0 L2,0 L1,5 L9,7 L5,11 L0,14 L-2,13 L1,11 L-7,10 L-9,11 L-8,8 L-4,6 L-2,2 Z " fill="#565E66" transform="translate(106,115)"/>
<path d="M0,0 L21,0 L21,1 L6,2 L6,3 L-9,4 L-33,4 L-33,3 L-12,3 L-12,1 Z " fill="#6C747D" transform="translate(106,142)"/>
<path d="M0,0 L11,4 L15,6 L15,9 L17,9 L17,11 L8,8 L-5,3 L-3,1 Z " fill="#C0C1C3" transform="translate(36,119)"/>
<path d="M0,0 L3,1 L3,3 L8,4 L7,8 L5,8 L5,6 L2,7 L2,5 L-2,9 L-6,17 L-9,17 L-8,12 L-1,1 Z " fill="#15232F" transform="translate(81,102)"/>
<path d="M0,0 L16,0 L21,1 L18,3 L16,3 L16,5 L13,6 L0,6 L0,5 L11,5 L11,3 L7,4 L-4,4 L0,2 Z " fill="#4B5259" transform="translate(170,132)"/>
<path d="M0,0 L4,0 L4,3 L9,2 L11,6 L11,8 L4,8 L-2,6 L-4,10 L-7,11 L-6,5 L-4,5 L-4,3 L1,3 Z " fill="#ACB0B3" transform="translate(84,119)"/>
<path d="M0,0 L7,0 L12,1 L13,8 L20,8 L20,9 L10,9 L10,7 L4,7 L3,3 L-1,2 L-1,4 L-3,3 L-4,1 Z " fill="#BEBFC1" transform="translate(134,111)"/>
<path d="M0,0 L14,0 L36,1 L37,4 L31,5 L31,6 L26,6 L26,4 L13,2 L0,2 Z " fill="#999DA3" transform="translate(20,143)"/>
<path d="M0,0 L12,1 L22,3 L22,4 L11,5 L-7,5 L-4,1 L1,2 Z " fill="#C4C7C9" transform="translate(93,136)"/>
<path d="M0,0 L4,2 L1,5 L1,7 L-1,7 L-2,10 L-4,10 L-5,13 L-7,13 L-9,17 L-11,22 L-9,23 L-11,23 L-12,25 L-13,17 L-2,2 L0,2 Z " fill="#656C73" transform="translate(24,63)"/>
<path d="M0,0 L24,4 L33,4 L29,8 L27,8 L27,6 L25,8 L18,8 L14,7 L11,4 L0,2 Z " fill="#797D84" transform="translate(108,130)"/>
<path d="M0,0 L2,0 L2,2 L-6,5 L-7,7 L-13,10 L-14,15 L-19,11 L-20,7 L-18,7 L-17,5 L-14,4 L-14,6 L-8,4 L-5,1 L-1,1 Z " fill="#1A2530" transform="translate(163,83)"/>
<path d="M0,0 L4,1 L4,4 L9,5 L8,3 L5,2 L5,0 L10,2 L14,3 L14,5 L1,9 L-3,7 L-2,2 Z " fill="#34414D" transform="translate(132,62)"/>
<path d="M0,0 L10,3 L17,5 L17,6 L-7,6 L-7,4 L0,3 Z " fill="#17202B" transform="translate(68,136)"/>
<path d="M0,0 L5,0 L4,3 L8,2 L8,4 L10,5 L2,8 L-3,9 L-6,7 L-6,5 L3,5 L3,2 L-6,3 L-6,1 Z " fill="#C8CACB" transform="translate(53,104)"/>
<path d="M0,0 L1,0 L3,9 L3,14 L1,14 L0,19 L-6,26 L-8,25 L-3,20 L-2,16 L-2,4 Z " fill="#1B2937" transform="translate(114,73)"/>
<path d="M0,0 L2,1 L-3,4 L0,6 L15,9 L17,11 L15,12 L2,12 L2,11 L8,10 L-7,7 L-7,4 Z " fill="#464C53" transform="translate(102,129)"/>
<path d="M0,0 L6,0 L8,3 L1,4 L1,10 L-6,8 L-4,2 Z " fill="#D5D6D7" transform="translate(55,115)"/>
<path d="M0,0 L5,1 L3,7 L8,7 L7,12 L4,10 L-2,10 L-2,8 L-4,7 L-1,7 L-2,1 Z " fill="#24303E" transform="translate(55,47)"/>
<path d="M0,0 L3,1 L3,5 L6,6 L3,8 L-6,12 L-14,13 L-12,11 L0,7 L-4,5 L-4,1 Z " fill="#70747C" transform="translate(67,100)"/>
<path d="M0,0 L5,0 L5,2 L7,3 L2,8 L-7,7 L-11,4 L-7,3 L-7,5 L-1,5 L-1,3 L-3,2 Z " fill="#83878C" transform="translate(76,117)"/>
<path d="M0,0 L1,4 L1,9 L6,10 L9,11 L7,11 L6,15 L1,14 L0,16 L0,13 L-3,12 L-2,3 Z " fill="#323D48" transform="translate(11,81)"/>
<path d="M0,0 L6,1 L7,5 L5,7 L2,9 L2,7 L0,6 L-4,6 L-6,6 L-7,9 L-9,8 L-4,3 Z " fill="#1B2632" transform="translate(147,15)"/>
<path d="M0,0 L3,1 L2,2 L4,4 L3,6 L-2,7 L-18,6 L-19,4 L-6,4 L-8,3 L-8,1 Z " fill="#434B54" transform="translate(188,125)"/>
<path d="M0,0 L4,1 L5,5 L7,7 L2,12 L2,14 L-1,13 L0,5 L-2,5 Z " fill="#656C76" transform="translate(43,23)"/>
<path d="M0,0 L2,4 L5,3 L12,4 L8,8 L2,10 L3,7 L-1,6 L-5,4 L-1,4 Z " fill="#9A9FA2" transform="translate(96,121)"/>
<path d="M0,0 L0,3 L-6,8 L-10,7 L-16,9 L-15,6 L-23,5 L-22,2 L-12,4 L-8,5 L-8,3 L-3,3 Z " fill="#697078" transform="translate(170,114)"/>
<path d="M0,0 L4,1 L1,1 L3,7 L-1,6 L-3,10 L-6,19 L-7,19 L-7,9 L-5,4 L-1,4 Z " fill="#838990" transform="translate(123,35)"/>
<path d="M0,0 L2,0 L2,2 L4,3 L3,5 L-1,6 L-6,8 L-9,7 L-11,7 L-16,7 L-14,5 L-4,2 Z " fill="#AEB2B5" transform="translate(70,107)"/>
<path d="M0,0 L19,0 L18,3 L0,3 Z " fill="#EAEBEB" transform="translate(83,148)"/>
<path d="M0,0 L21,0 L23,2 L3,3 L-7,2 L-7,1 Z " fill="#B7B9BC" transform="translate(141,145)"/>
<path d="M0,0 L10,0 L22,1 L22,3 L6,3 L5,5 L-2,5 L-2,2 L0,2 Z " fill="#71767B" transform="translate(13,132)"/>
<path d="M0,0 L3,1 L0,3 L13,5 L13,7 L3,7 L-6,5 L-2,1 Z " fill="#646872" transform="translate(131,120)"/>
<path d="M0,0 L7,1 L7,3 L3,4 L3,7 L-1,6 L-1,8 L-3,8 L-3,10 L-7,9 L-4,9 L-3,2 Z " fill="#232E3A" transform="translate(122,90)"/>
<path d="M0,0 L2,1 L4,8 L8,9 L5,15 L3,15 L1,19 L2,14 L1,13 L0,5 L-1,3 Z M3,9 Z " fill="#22303B" transform="translate(172,75)"/>
<path d="M0,0 L8,0 L14,1 L14,3 L12,4 L29,4 L29,6 L11,7 L7,6 L7,4 L9,4 L9,2 L0,2 Z " fill="#39434E" transform="translate(35,133)"/>
<path d="M0,0 L5,1 L10,3 L8,6 L10,8 L1,6 L-2,4 Z " fill="#CFD1D2" transform="translate(55,126)"/>
<path d="M0,0 L2,0 L2,2 L-6,6 L-12,5 L-16,2 Z " fill="#BEC1C2" transform="translate(47,113)"/>
<path d="M0,0 L2,0 L2,2 L0,2 L0,5 L8,5 L9,9 L-3,9 L-2,2 Z " fill="#343F48" transform="translate(81,107)"/>
<path d="M0,0 L4,2 L7,1 L9,5 L9,10 L3,8 L0,4 Z " fill="#17232E" transform="translate(8,93)"/>
<path d="M0,0 L12,0 L12,4 L8,6 L4,6 Z " fill="#0E1C29" transform="translate(34,94)"/>
<path d="M0,0 L4,1 L4,3 L6,3 L6,5 L10,7 L-1,6 L-6,4 L-2,1 Z M1,1 Z " fill="#E4E5E6" transform="translate(103,130)"/>
<path d="M0,0 L2,0 L2,3 L0,3 L0,6 L11,6 L7,9 L2,9 L2,11 L-4,10 L-2,9 Z " fill="#3A4652" transform="translate(109,111)"/>
<path d="M0,0 L17,0 L26,1 L24,5 L18,5 L15,2 L0,1 Z " fill="#D5D7DA" transform="translate(154,142)"/>
<path d="M0,0 L7,1 L6,5 L1,6 L-5,5 L-6,1 Z " fill="#B7B8BB" transform="translate(131,129)"/>
<path d="M0,0 L3,1 L0,2 L0,4 L-15,4 L-15,1 Z " fill="#DDDEDF" transform="translate(164,146)"/>
<path d="M0,0 L6,0 L10,2 L10,4 L7,5 L8,7 L2,6 L0,5 Z " fill="#ACB0B3" transform="translate(57,120)"/>
<path d="M0,0 L2,1 L-6,15 L-7,12 L-3,4 L-6,8 L-9,8 L-10,10 L-11,6 L-6,4 Z " fill="#525C65" transform="translate(110,100)"/>
<path d="M0,0 L1,0 L3,8 L-1,9 L0,15 L-5,16 L-6,12 L-3,13 L-4,6 L-1,5 Z " fill="#3F4952" transform="translate(54,39)"/>
<path d="M0,0 L3,1 L2,3 L4,3 L4,5 L0,6 L-9,6 L-8,2 Z " fill="#37404A" transform="translate(186,119)"/>
<path d="M0,0 L5,1 L3,2 L3,4 L9,4 L9,6 L19,6 L18,8 L0,6 L1,2 L-1,1 Z " fill="#5E6169" transform="translate(135,114)"/>
<path d="M0,0 L4,1 L-1,3 L-3,10 L-4,6 L-8,10 L-10,16 L-11,12 L-16,12 L-16,11 L-10,11 L-8,6 Z " fill="#4D5762" transform="translate(157,100)"/>
<path d="M0,0 L4,1 L4,3 L-4,8 L-7,11 L-9,10 L-5,4 L-3,1 Z " fill="#999CA1" transform="translate(160,120)"/>
<path d="M0,0 L2,1 L2,6 L-3,11 L-4,8 L-7,7 L-7,5 L-2,5 L-1,1 Z " fill="#131D27" transform="translate(51,33)"/>
<path d="M0,0 L8,1 L7,4 L0,7 L-2,5 L-2,1 Z " fill="#898C92" transform="translate(91,127)"/>
<path d="M0,0 L2,1 L-6,8 L-8,7 L-9,4 L-19,2 L-19,1 L-2,2 Z " fill="#C1C4C6" transform="translate(155,119)"/>
<path d="M0,0 L2,0 L2,2 L0,2 L-3,11 L-8,16 L-6,11 L-4,5 L-7,8 L-6,4 L-3,1 Z " fill="#586269" transform="translate(83,94)"/>
<path d="M0,0 L1,2 L-1,7 L1,9 L-1,10 L-9,9 L-10,6 L-8,6 L-8,3 L-6,4 L-3,4 Z " fill="#122230" transform="translate(103,96)"/>
<path d="M0,0 L6,0 L6,5 L-1,8 L-2,4 Z " fill="#13202B" transform="translate(147,79)"/>
<path d="M0,0 L2,0 L3,7 L3,14 L3,18 L0,16 L-1,1 Z " fill="#202B36" transform="translate(41,51)"/>
<path d="M0,0 L3,1 L3,5 L0,7 L-1,9 L-4,8 L-3,5 L-7,6 L-5,2 Z " fill="#26323D" transform="translate(146,19)"/>
<path d="M0,0 L3,2 L2,7 L0,9 L-5,8 L-4,4 L-1,4 Z " fill="#8E9296" transform="translate(99,109)"/>
<path d="M0,0 L4,1 L2,1 L3,4 L8,5 L9,8 L4,7 L-5,3 L-4,1 Z " fill="#CFD1D2" transform="translate(13,109)"/>
<path d="M0,0 L7,1 L7,3 L-5,4 L-5,3 L-15,2 L-15,1 Z " fill="#A9ACB2" transform="translate(183,138)"/>
<path d="M0,0 L1,4 L-1,12 L-3,12 L-5,14 L-6,10 L-2,1 Z " fill="#5A626A" transform="translate(31,48)"/>
<path d="M0,0 L2,3 L-1,4 L1,5 L1,7 L-6,7 L-10,4 L-10,2 L-8,2 L-5,5 L-5,3 Z " fill="#515A62" transform="translate(72,37)"/>
<path d="M0,0 L12,0 L12,3 L7,4 L-1,3 L-2,1 Z " fill="#A6A9AC" transform="translate(44,106)"/>
<path d="M0,0 Z M-4,1 L0,1 L0,3 L2,4 L-1,8 L-7,9 Z " fill="#0F1E2C" transform="translate(161,86)"/>
<path d="M0,0 L2,0 L2,3 L7,1 L9,4 L9,8 L-1,5 Z " fill="#D2D4D6" transform="translate(59,49)"/>
<path d="M0,0 L2,3 L-2,7 L-3,9 L-10,10 L-4,3 Z " fill="#58616A" transform="translate(94,83)"/>
<path d="M0,0 L5,1 L5,4 L9,5 L9,7 L3,7 L3,5 L-1,6 L-3,3 L3,4 Z " fill="#A9ADAE" transform="translate(66,115)"/>
<path d="M0,0 L6,0 L7,4 L14,4 L14,5 L4,5 L4,3 L-2,3 L-2,1 Z " fill="#A2A4A8" transform="translate(140,115)"/>
<path d="M0,0 L3,1 L0,4 L4,7 L-1,8 L-3,7 L-6,7 L-6,4 Z " fill="#2F3944" transform="translate(19,78)"/>
<path d="M0,0 L1,2 L-1,9 L8,7 L8,9 L5,11 L-2,11 L-3,10 L-2,3 Z " fill="#3A434C" transform="translate(66,26)"/>
<path d="M0,0 L7,1 L10,4 L6,5 L-5,3 L-5,1 Z " fill="#1C2732" transform="translate(13,122)"/>
<path d="M0,0 L4,1 L3,2 L7,4 L4,5 L4,7 L0,6 L1,3 L-1,3 L-1,5 L-6,4 L-2,1 Z " fill="#6E7078" transform="translate(51,97)"/>
<path d="M0,0 L15,1 L17,2 L13,5 L11,5 L11,3 L9,5 L5,5 L5,2 L-1,2 Z " fill="#6F717C" transform="translate(124,133)"/>
<path d="M0,0 L1,3 L-3,10 L-5,8 L-5,3 L-9,2 L-2,2 Z " fill="#24303C" transform="translate(79,98)"/>
<path d="M0,0 L8,0 L8,2 L6,2 L6,9 L4,9 L4,7 L1,6 L3,6 L3,4 L-1,2 Z " fill="#3B454F" transform="translate(3,102)"/>
<path d="M0,0 L2,0 L2,6 L-5,7 L-7,4 L-1,2 Z " fill="#192836" transform="translate(73,42)"/>
<path d="M0,0 L4,0 L4,2 L2,2 L2,5 L-7,5 L-3,1 Z " fill="#2C333C" transform="translate(150,9)"/>
<path d="M0,0 L3,1 L0,4 L-1,6 L8,7 L8,8 L-2,8 L-7,3 Z " fill="#A2A5A8" transform="translate(95,131)"/>
<path d="M0,0 L2,1 L2,3 L-3,6 L-11,13 L-13,12 Z " fill="#101D2A" transform="translate(169,117)"/>
<path d="M0,0 L11,1 L12,5 L6,4 L1,5 L-2,3 Z " fill="#1D2A37" transform="translate(158,16)"/>
<path d="M0,0 L17,0 L13,1 L13,3 L0,3 Z " fill="#ADB0B4" transform="translate(104,146)"/>
<path d="M0,0 L4,1 L12,3 L12,4 L-3,4 Z " fill="#E4E4E4" transform="translate(89,137)"/>
<path d="M0,0 L13,0 L10,5 L6,6 L9,3 L1,2 L-1,3 Z " fill="#7A7F84" transform="translate(98,123)"/>
<path d="M0,0 L2,0 L1,5 L-1,10 L-4,10 L-3,4 Z " fill="#0E1D2D" transform="translate(151,106)"/>
<path d="M0,0 L2,1 L2,6 L-2,9 L-6,9 L-4,4 L0,4 Z " fill="#20303C" transform="translate(69,82)"/>
<path d="M0,0 L1,2 L-1,7 L-4,13 L-2,14 L-4,14 L-5,16 L-6,8 Z " fill="#5A646B" transform="translate(17,72)"/>
<path d="M0,0 L4,0 L3,4 L1,8 L-2,7 L-2,2 Z " fill="#353E48" transform="translate(49,21)"/>
<path d="M0,0 L5,1 L4,4 L15,5 L11,7 L2,6 L2,4 L0,3 Z " fill="#7B8187" transform="translate(4,121)"/>
<path d="M0,0 L6,1 L11,3 L7,4 L1,5 Z " fill="#182330" transform="translate(8,113)"/>
<path d="M0,0 L2,3 L3,7 L-2,8 L-4,4 Z " fill="#DADBDE" transform="translate(35,86)"/>
<path d="M0,0 L4,0 L5,4 L0,5 L0,7 L-5,7 L-2,4 Z " fill="#36414C" transform="translate(97,81)"/>
<path d="M0,0 L2,0 L2,2 L5,2 L5,0 L7,0 L5,5 L6,8 L4,8 L4,6 L-1,7 Z " fill="#D1D5D7" transform="translate(141,35)"/>
<path d="M0,0 L10,1 L9,3 L-4,3 L-4,1 Z " fill="#888D92" transform="translate(121,146)"/>
<path d="M0,0 L4,0 L4,2 L2,3 L3,6 L-6,4 L-5,2 Z " fill="#71757D" transform="translate(66,113)"/>
<path d="M0,0 L10,0 L6,2 L-2,5 L-5,4 L-3,1 Z " fill="#5D6369" transform="translate(128,110)"/>
<path d="M0,0 L3,1 L3,3 L-3,4 L-3,5 L-8,5 L-6,1 Z " fill="#B7BABE" transform="translate(54,144)"/>
<path d="M0,0 L6,0 L8,3 L5,4 L2,3 L-5,5 L-4,2 Z " fill="#AEB1B5" transform="translate(55,115)"/>
<path d="M0,0 L2,0 L3,5 L5,7 L-4,7 L-4,4 L0,3 Z " fill="#192A38" transform="translate(113,110)"/>
<path d="M0,0 L8,6 L7,9 L9,10 L5,9 L3,8 L0,3 Z " fill="#23333F" transform="translate(40,72)"/>
<path d="M0,0 L1,2 L4,3 L2,8 L0,8 L-3,5 L-3,1 Z M4,2 Z " fill="#2B3742" transform="translate(127,35)"/>
<path d="M0,0 L2,0 L2,2 L7,3 L9,5 L7,7 L4,7 L4,4 L-2,2 Z " fill="#8F9197" transform="translate(47,121)"/>
<path d="M0,0 L2,0 L4,6 L8,5 L8,7 L-3,7 L0,6 Z " fill="#47515B" transform="translate(35,107)"/>
<path d="M0,0 L2,0 L3,11 L1,11 L0,16 L-1,16 L-1,10 L0,7 Z " fill="#414A52" transform="translate(140,76)"/>
<path d="M0,0 L4,1 L3,3 L5,3 L3,12 L2,12 L2,5 L1,6 L-1,3 Z " fill="#1A2733" transform="translate(137,70)"/>
<path d="M0,0 L1,3 L3,8 L4,11 L2,13 L-4,3 L-1,2 Z " fill="#1C2834" transform="translate(107,57)"/>
<path d="M0,0 L2,1 L4,6 L-1,8 L-2,2 Z " fill="#15202C" transform="translate(46,57)"/>
<path d="M0,0 L2,0 L4,8 L4,13 L1,13 Z " fill="#202935" transform="translate(32,44)"/>
<path d="M0,0 L1,4 L-2,7 L-4,11 L-7,10 L-1,1 Z " fill="#5B636B" transform="translate(128,21)"/>
<path d="M0,0 L4,2 L2,4 L1,10 L3,10 L3,13 L0,12 L-1,5 Z " fill="#777D83" transform="translate(57,12)"/>
<path d="M0,0 L14,1 L12,3 L0,3 Z " fill="#5F646B" transform="translate(166,139)"/>
<path d="M0,0 L5,0 L3,1 L3,3 L0,4 L-13,4 L-13,3 L-2,3 L-2,1 Z " fill="#A5A9AE" transform="translate(183,134)"/>
<path d="M0,0 L7,1 L5,2 L5,4 L0,5 L-3,2 Z " fill="#B6BABE" transform="translate(66,131)"/>
<path d="M0,0 L7,0 L7,1 L1,1 L1,3 L6,3 L6,4 L-4,4 L-6,2 Z " fill="#E7E8E7" transform="translate(124,129)"/>
<path d="M0,0 L3,1 L-2,5 L-5,6 L-9,4 L-9,3 Z " fill="#8A8E92" transform="translate(120,117)"/>
<path d="M0,0 L5,2 L8,4 L7,6 L1,6 Z " fill="#8F9398" transform="translate(42,108)"/>
<path d="M0,0 L2,2 L4,0 L7,1 L10,3 L0,6 Z " fill="#DDE0E1" transform="translate(116,87)"/>
<path d="M0,0 L2,4 L4,9 L4,12 L1,11 L-1,6 Z " fill="#2D3843" transform="translate(190,57)"/>
<path d="M0,0 L5,1 L3,6 L1,5 L-1,7 L-2,1 Z " fill="#172230" transform="translate(55,47)"/>
<path d="M0,0 L5,1 L6,4 L3,4 L4,7 L2,8 L-1,2 Z " fill="#18212B" transform="translate(84,20)"/>
<path d="M0,0 L7,0 L5,1 L5,3 L18,3 L18,4 L4,4 Z " fill="#969B9F" transform="translate(39,139)"/>
<path d="M0,0 L12,2 L11,5 L2,4 L2,2 L0,2 Z " fill="#B5B7BA" transform="translate(107,131)"/>
<path d="M0,0 L6,0 L2,4 L-4,6 L-4,2 L-1,2 Z " fill="#A6ABAE" transform="translate(102,125)"/>
<path d="M0,0 L2,0 L2,2 L12,2 L13,4 L8,5 L5,4 L0,3 L-2,1 Z " fill="#676A74" transform="translate(67,120)"/>
<path d="M0,0 L9,1 L9,4 L3,5 L2,2 Z " fill="#A0A2A5" transform="translate(52,98)"/>
<path d="M0,0 L4,2 L2,3 L2,5 L0,5 L0,8 L-4,7 L-2,3 L0,3 Z " fill="#16232E" transform="translate(177,87)"/>
<path d="M0,0 L1,3 L0,14 L-1,12 L-3,12 L-1,2 Z " fill="#616971" transform="translate(35,32)"/>
<path d="M0,0 L7,0 L9,2 L3,3 L-7,2 L-7,1 Z " fill="#8F949B" transform="translate(141,145)"/>
<path d="M0,0 L2,0 L2,2 L6,3 L6,4 L-5,4 L-3,3 L-3,1 Z " fill="#060F18" transform="translate(58,133)"/>
<path d="M0,0 L7,1 L13,0 L9,3 L1,5 L-2,3 Z " fill="#858990" transform="translate(52,112)"/>
<path d="M0,0 L2,1 L0,6 L-1,10 L-4,10 L-3,4 Z " fill="#14212F" transform="translate(109,105)"/>
<path d="M0,0 L4,2 L6,6 L6,8 L2,8 L0,3 Z " fill="#0B1721" transform="translate(23,102)"/>
<path d="M0,0 L2,0 L0,6 L-6,7 L-6,4 L-4,4 L-3,2 L0,2 Z " fill="#13202C" transform="translate(173,98)"/>
<path d="M0,0 L4,0 L4,2 L2,2 L1,6 L-4,7 L-2,2 L0,2 Z " fill="#444E57" transform="translate(85,94)"/>
<path d="M0,0 L8,0 L8,3 L3,2 L2,4 L-3,4 L-2,2 L0,2 Z " fill="#4B5761" transform="translate(26,94)"/>
<path d="M0,0 L1,2 L7,3 L2,7 L-1,5 L-1,3 L-3,3 L-2,1 Z " fill="#606870" transform="translate(22,87)"/>
<path d="M0,0 L2,2 L2,13 L0,13 L-1,9 L-1,6 Z " fill="#3C444E" transform="translate(31,45)"/>
<path d="M0,0 L2,0 L2,2 L4,4 L-3,8 L-5,7 Z " fill="#1E2734" transform="translate(137,12)"/>
<path d="M0,0 L4,1 L4,4 L-6,4 L-2,1 Z " fill="#232B34" transform="translate(64,9)"/>
<path d="M0,0 L2,1 L0,3 Z M-3,3 L0,4 L5,5 L5,6 L-7,6 L-7,4 Z " fill="#2A343E" transform="translate(68,136)"/>
<path d="M0,0 L9,0 L12,1 L12,3 L4,3 L4,1 Z " fill="#494F57" transform="translate(132,124)"/>
<path d="M0,0 L5,2 L13,2 L13,4 L7,6 L7,4 L1,3 Z " fill="#4E5760" transform="translate(20,108)"/>
<path d="M0,0 L1,3 L-3,5 L-4,10 L-6,8 L-5,2 Z " fill="#3B4752" transform="translate(27,96)"/>
<path d="M0,0 L2,1 L4,9 L3,12 L1,12 L0,5 L-1,3 Z " fill="#2B3845" transform="translate(172,75)"/>
<path d="M0,0 L2,1 L1,10 L-1,11 L-2,4 L-4,1 L-1,2 Z " fill="#192835" transform="translate(151,53)"/>
<path d="M0,0 L2,4 L-7,7 L-5,3 Z " fill="#2A333D" transform="translate(55,10)"/>
<path d="M0,0 L5,0 L2,4 L1,6 L-4,5 Z " fill="#83888E" transform="translate(152,123)"/>
<path d="M0,0 L3,3 L1,5 L-8,5 L-8,4 L-3,3 Z " fill="#0D1722" transform="translate(15,116)"/>
<path d="M0,0 L6,0 L7,4 L0,3 Z " fill="#222E3A" transform="translate(83,112)"/>
<path d="M0,0 L2,0 L2,2 L4,2 L4,4 L7,5 L6,7 L1,6 L0,4 L-1,2 Z " fill="#424C58" transform="translate(17,88)"/>
<path d="M0,0 L2,4 L4,7 L2,12 L1,12 L-2,1 Z " fill="#273340" transform="translate(185,41)"/>
<path d="M0,0 L10,2 L10,3 L1,4 L-3,3 L-3,1 Z " fill="#47515B" transform="translate(162,14)"/>
<path d="M0,0 L3,1 L2,3 L-10,3 L-6,1 Z " fill="#D0D1D3" transform="translate(99,148)"/>
<path d="M0,0 L4,0 L4,2 L7,4 L-2,5 L-2,3 L0,3 Z " fill="#BCBDBE" transform="translate(9,132)"/>
<path d="M0,0 L6,0 L7,2 L6,4 L0,4 L-1,1 Z " fill="#2F3842" transform="translate(118,126)"/>
<path d="M0,0 L2,1 L1,3 L-3,5 L-7,5 L-7,2 Z " fill="#475059" transform="translate(97,110)"/>
<path d="M0,0 L4,1 L2,7 L-1,7 Z " fill="#0C1E2D" transform="translate(154,108)"/>
<path d="M0,0 L2,2 L2,9 L-3,4 L-1,4 Z " fill="#222E38" transform="translate(37,98)"/>
<path d="M0,0 L4,2 L0,2 L0,4 L-6,6 L-6,3 Z " fill="#232F3B" transform="translate(173,96)"/>
<path d="M0,0 L3,1 L2,4 L-6,6 L-9,5 L-5,3 L-2,4 Z " fill="#222C38" transform="translate(93,88)"/>
<path d="M0,0 L3,2 L2,7 L-1,8 L-2,3 Z " fill="#192E3B" transform="translate(37,81)"/>
<path d="M0,0 L4,4 L1,7 L-3,8 Z " fill="#667178" transform="translate(42,38)"/>
<path d="M0,0 L2,0 L1,9 L-2,9 L-3,6 L-1,6 Z " fill="#202B37" transform="translate(41,28)"/>
<path d="M0,0 L1,2 L-1,5 L-3,5 L-3,12 L-5,10 L-5,5 Z " fill="#46505A" transform="translate(134,14)"/>
<path d="M0,0 L1,2 L-7,4 L-11,6 L-9,1 Z " fill="#404A54" transform="translate(152,13)"/>
<path d="M0,0 L1,3 L3,4 L1,4 L2,7 L-5,7 L-2,4 L-2,1 Z " fill="#17242F" transform="translate(30,104)"/>
<path d="M0,0 L2,4 L-1,9 L-3,9 L-3,3 Z " fill="#15212D" transform="translate(141,86)"/>
<path d="M0,0 L4,1 L6,5 L0,4 L-1,1 Z " fill="#3B4450" transform="translate(23,85)"/>
<path d="M0,0 L2,1 L1,7 L-2,8 L-3,4 Z " fill="#4C5A62" transform="translate(132,62)"/>
<path d="M0,0 L2,0 L0,10 L-2,11 L-2,4 Z " fill="#47525B" transform="translate(39,28)"/>
<path d="M0,0 L1,3 L0,8 L-1,6 L-3,6 L-4,8 L-5,6 L-4,3 L0,2 Z " fill="#212C38" transform="translate(63,28)"/>
<path d="M0,0 L2,0 L3,4 L5,6 L0,10 L-1,6 Z " fill="#575E67" transform="translate(45,24)"/>
<path d="M0,0 L5,0 L6,3 L3,3 L4,7 L2,7 Z " fill="#2D3842" transform="translate(153,16)"/>
<path d="M0,0 L2,1 L-3,4 L-2,6 L-7,7 L-7,4 Z " fill="#6C6F74" transform="translate(102,129)"/>
<path d="M0,0 L12,0 L13,3 L0,1 Z " fill="#555B67" transform="translate(127,128)"/>
<path d="M0,0 L5,1 L6,3 L-2,4 Z " fill="#DCDBDC" transform="translate(55,126)"/>
<path d="M0,0 L9,2 L9,3 L0,3 L-4,1 Z " fill="#CDD1D0" transform="translate(124,124)"/>
<path d="M0,0 L3,1 L4,8 L1,8 L0,3 Z " fill="#0B1721" transform="translate(30,102)"/>
<path d="M0,0 L2,0 L2,2 L0,2 L0,4 L-4,5 L-7,8 L-6,4 L-3,1 Z " fill="#6A7278" transform="translate(83,94)"/>
<path d="M0,0 L3,0 L2,4 L1,6 L-3,6 L-2,2 Z " fill="#2A3541" transform="translate(28,58)"/>
<path d="M0,0 L2,0 L3,5 L-2,6 L-3,2 L0,3 Z " fill="#DADBDD" transform="translate(51,49)"/>
<path d="M0,0 L2,2 L3,11 L1,11 L0,9 Z " fill="#48515A" transform="translate(36,51)"/>
<path d="M0,0 L5,1 L5,4 L-1,4 L-2,1 Z " fill="#152532" transform="translate(49,129)"/>
<path d="M0,0 L5,1 L3,4 L1,4 L0,6 L-1,2 Z " fill="#909297" transform="translate(16,108)"/>
<path d="M0,0 L1,3 L0,8 L-3,7 L-3,2 Z " fill="#2B3641" transform="translate(158,101)"/>
<path d="M0,0 L2,0 L3,5 L-4,4 L-5,2 L0,2 Z " fill="#A0A3A5" transform="translate(50,100)"/>
<path d="M0,0 L5,5 L2,7 L-1,6 L-1,1 Z " fill="#2E3840" transform="translate(143,83)"/>
<path d="M0,0 L2,0 L3,3 L-5,7 L-3,3 Z " fill="#485159" transform="translate(19,75)"/>
<path d="M0,0 L4,2 L5,0 L4,4 L0,5 L0,3 L-2,2 Z " fill="#111A26" transform="translate(122,40)"/>
<path d="M0,0 L1,3 L-2,4 L-3,1 Z M-5,1 L-3,5 L-7,5 L-6,2 Z " fill="#414A55" transform="translate(58,27)"/>
<path d="M0,0 L2,0 L0,5 L-4,6 L-4,2 Z " fill="#5E666F" transform="translate(139,18)"/>
<path d="M0,0 L6,1 L6,3 L-4,3 L-4,1 Z " fill="#888C92" transform="translate(7,128)"/>
<path d="M0,0 L1,3 L-3,10 L-4,8 L-2,1 Z " fill="#1B2937" transform="translate(160,105)"/>
<path d="M0,0 L0,3 L-3,8 L-6,8 L-6,5 L-3,5 L-1,1 Z " fill="#1A2330" transform="translate(107,103)"/>
<path d="M0,0 L3,3 L5,2 L6,7 L-1,5 L-1,2 Z " fill="#1B2731" transform="translate(19,103)"/>
<path d="M0,0 L6,0 L4,4 L0,3 Z " fill="#182A38" transform="translate(47,79)"/>
<path d="M0,0 L2,1 L0,7 L-3,7 L-1,1 Z " fill="#2F3A47" transform="translate(29,65)"/>
<path d="M0,0 L3,0 L3,3 L1,3 L2,7 L-2,8 L-2,6 L0,6 L-1,3 Z " fill="#2A3641" transform="translate(133,63)"/>
<path d="M0,0 L4,5 L3,7 L-3,4 L-1,3 Z " fill="#E3E5E7" transform="translate(131,56)"/>
<path d="M0,0 L2,2 L-3,8 L-5,8 L-5,4 L-2,4 L-2,2 L0,2 Z " fill="#4E5761" transform="translate(39,42)"/>
<path d="M0,0 L5,1 L1,4 L-3,4 L-3,2 Z " fill="#4A545E" transform="translate(151,29)"/>
<path d="M0,0 L2,1 L-5,7 L-6,4 L-5,2 L-1,1 Z " fill="#37404A" transform="translate(46,17)"/>
<path d="M0,0 L3,0 L3,2 L6,3 L-7,2 L-7,1 Z " fill="#5D636C" transform="translate(124,144)"/>
<path d="M0,0 L4,0 L3,4 L-3,2 Z " fill="#C3C7CB" transform="translate(71,134)"/>
<path d="M0,0 L2,4 L-1,6 L-4,5 L-4,2 L0,2 Z " fill="#D1D0D1" transform="translate(140,129)"/>
<path d="M0,0 L3,1 L3,3 L7,4 L1,6 Z " fill="#A3A5A9" transform="translate(20,112)"/>
<path d="M0,0 L2,0 L2,6 L-2,7 L-1,2 Z " fill="#343E4B" transform="translate(74,112)"/>
<path d="M0,0 L2,2 L3,5 L1,7 L-2,4 L-2,2 L0,2 Z " fill="#C7C9C9" transform="translate(4,109)"/>
<path d="M0,0 L3,1 L3,3 L5,4 L-3,5 Z " fill="#192937" transform="translate(81,102)"/>
<path d="M0,0 L3,1 L2,6 L-2,6 Z " fill="#23323F" transform="translate(97,74)"/>
<path d="M0,0 L4,3 L3,8 L0,4 Z " fill="#131E29" transform="translate(110,68)"/>
<path d="M0,0 L3,1 L3,7 L1,8 Z " fill="#0C1724" transform="translate(68,52)"/>
<path d="M0,0 L2,1 L1,3 L3,4 L3,7 L-2,5 Z " fill="#343C47" transform="translate(37,47)"/>
<path d="M0,0 L8,0 L5,3 L0,2 Z " fill="#131925" transform="translate(157,12)"/>
<path d="M0,0 L2,0 L2,5 L-3,5 Z " fill="#CECDCF" transform="translate(141,134)"/>
<path d="M0,0 L2,1 L-2,4 L-4,4 L-4,2 L-8,1 Z " fill="#5C616C" transform="translate(139,134)"/>
<path d="M0,0 L9,2 L9,3 L-1,3 Z " fill="#2E3742" transform="translate(19,134)"/>
<path d="M0,0 L10,1 L10,2 L1,3 L-1,1 Z " fill="#76797F" transform="translate(181,132)"/>
<path d="M0,0 L3,1 L2,4 L-3,3 L-3,1 Z " fill="#C2C4C5" transform="translate(97,114)"/>
<path d="M0,0 L4,1 L1,4 L-4,2 Z " fill="#A7A9AC" transform="translate(35,114)"/>
<path d="M0,0 L6,1 L5,4 L0,2 Z " fill="#DBDDDD" transform="translate(47,109)"/>
<path d="M0,0 L2,0 L2,2 L6,5 L0,5 L-1,1 Z " fill="#404F5C" transform="translate(137,101)"/>
<path d="M0,0 L6,0 L5,4 L2,4 L2,1 Z " fill="#A1A5A8" transform="translate(68,101)"/>
<path d="M0,0 L1,2 L-1,2 L0,5 L-4,6 L-4,4 L-6,2 Z " fill="#B6B9BA" transform="translate(61,101)"/>
<path d="M0,0 L2,2 L-1,6 L-4,6 L-2,2 Z " fill="#030D19" transform="translate(111,95)"/>
<path d="M0,0 L3,2 L-6,7 L-6,5 Z " fill="#636B73" transform="translate(118,92)"/>
<path d="M0,0 L5,0 L5,2 L3,2 L3,4 L-1,3 Z " fill="#3D4854" transform="translate(120,91)"/>
<path d="M0,0 L2,2 L-1,2 L-1,4 L-4,5 L-6,1 Z " fill="#0D1F2E" transform="translate(64,90)"/>
<path d="M0,0 L3,3 L3,5 L-1,6 L-2,2 L0,2 Z " fill="#0F1822" transform="translate(46,50)"/>
<path d="M0,0 L3,2 L2,6 L-2,6 Z " fill="#252F3A" transform="translate(49,46)"/>
<path d="M0,0 L4,2 L-3,5 L-3,1 Z " fill="#3E4853" transform="translate(41,45)"/>
<path d="M0,0 L4,2 L5,5 L3,8 L0,2 Z " fill="#2C3943" transform="translate(63,44)"/>
<path d="M0,0 L2,1 L2,6 L-2,5 L-1,1 Z " fill="#18232F" transform="translate(51,33)"/>
<path d="M0,0 L2,0 L2,6 L-2,5 Z " fill="#2F3A46" transform="translate(57,31)"/>
<path d="M0,0 L4,1 L2,1 L2,3 L4,4 L-1,5 Z " fill="#1E2936" transform="translate(133,21)"/>
<path d="M0,0 L3,0 L2,5 L0,4 L-5,5 Z " fill="#4E555E" transform="translate(54,14)"/>
</svg>
