<?xml version="1.0" encoding="UTF-8"?>
<!-- Generator: visioncortex VTracer 0.6.5 -->
<svg version="1.1" xmlns="http://www.w3.org/2000/svg" width="1254" height="1254">
<path d="M0 0 C2.88 1.44 2.97 3.15 4.04 6.16 C4.44 7.27 4.84 8.38 5.25 9.52 C5.68 10.74 6.11 11.96 6.55 13.21 C7 14.48 7.46 15.75 7.91 17.02 C8.88 19.72 9.85 22.43 10.81 25.14 C12.32 29.4 13.84 33.65 15.37 37.91 C15.62 38.61 15.87 39.31 16.13 40.04 C16.63 41.45 17.14 42.86 17.64 44.27 C18.4 46.37 19.15 48.48 19.9 50.58 C23.35 60.21 26.85 69.8 30.44 79.38 C36.13 94.58 41.69 109.82 47.25 125.07 C55.07 146.52 62.91 167.96 70.81 189.38 C71.69 191.75 72.56 194.12 73.44 196.5 C76.35 204.38 79.26 212.27 82.17 220.16 C102.14 274.31 121.65 328.62 141 383 C141.38 384.06 141.75 385.11 142.14 386.2 C150.51 409.73 158.81 433.27 166.99 456.87 C172.05 471.43 177.16 485.97 182.31 500.5 C188.44 517.76 194.55 535.03 200.62 552.31 C201.03 553.45 201.43 554.59 201.84 555.76 C207.45 571.72 213.04 587.7 218.6 603.68 C223.69 618.31 228.87 632.92 234.07 647.51 C240.31 665.02 246.48 682.55 252.59 700.1 C254.03 704.24 255.48 708.36 256.96 712.49 C257.28 713.4 257.61 714.31 257.94 715.26 C258.57 717.03 259.2 718.8 259.84 720.56 C260.12 721.36 260.4 722.16 260.7 722.98 C260.95 723.69 261.2 724.39 261.46 725.12 C262 727 262 727 262 730 C255.33 728.64 249.01 726.8 242.58 724.59 C241.6 724.25 240.62 723.92 239.61 723.58 C237.53 722.87 235.46 722.16 233.39 721.45 C230.3 720.39 227.21 719.34 224.11 718.29 C214.13 714.89 204.19 711.4 194.32 707.7 C193.46 707.38 192.59 707.06 191.71 706.73 C185.61 704.4 180.59 701.73 176 697 C175.42 696.45 174.84 695.91 174.24 695.35 C170.15 691.15 167.46 686.42 164.69 681.31 C151.68 657.42 133.61 644.23 107.92 636.09 C106.84 635.75 105.76 635.4 104.65 635.04 C103.68 634.74 102.71 634.45 101.72 634.14 C97.51 632.38 94.72 630.04 92.12 626.31 C90.66 622.01 90.5 618.32 92 614 C96.56 606.74 103.82 604.56 111.45 601.32 C118.13 598.34 122.91 595.18 127 589 C131.29 576.13 125.25 563.4 120.94 551.38 C120.2 549.27 119.46 547.17 118.73 545.06 C117.22 540.76 115.71 536.46 114.18 532.16 C112.22 526.64 110.29 521.11 108.37 515.57 C105.99 508.7 103.59 501.83 101.19 494.96 C97.99 485.84 94.81 476.72 91.62 467.6 C76.53 424.35 61.36 381.12 46.04 337.94 C45.05 335.13 44.05 332.32 43.05 329.5 C33.38 302.21 23.61 274.95 13.8 247.7 C13.56 247.03 13.32 246.36 13.07 245.66 C11.94 242.51 10.8 239.35 9.66 236.19 C6.76 228.13 3.88 220.07 1 212 C-0.73 214.59 -1.62 216.46 -2.61 219.35 C-2.92 220.24 -3.22 221.13 -3.54 222.04 C-3.87 223.01 -4.2 223.98 -4.54 224.98 C-4.71 225.49 -4.71 225.49 -5.6 228.07 C-6.36 230.28 -7.11 232.49 -7.87 234.7 C-9.9 240.65 -11.95 246.59 -14 252.53 C-14.42 253.74 -14.84 254.96 -15.27 256.21 C-19.31 267.91 -23.42 279.59 -27.56 291.25 C-27.91 292.22 -28.25 293.2 -28.61 294.2 C-30.36 299.13 -32.11 304.05 -33.86 308.98 C-37.56 319.38 -41.25 329.78 -44.94 340.19 C-45.3 341.21 -45.66 342.23 -46.03 343.28 C-50.07 354.67 -54.08 366.07 -58 377.5 C-64.43 396.28 -71.12 414.98 -77.76 433.69 C-81.35 443.79 -84.92 453.9 -88.5 464 C-89.91 467.99 -91.33 471.98 -92.74 475.97 C-93.09 476.96 -93.44 477.95 -93.8 478.96 C-96.68 487.09 -99.56 495.22 -102.45 503.35 C-104.23 508.39 -106.02 513.43 -107.8 518.47 C-108.49 520.44 -109.19 522.41 -109.88 524.38 C-110.22 525.34 -110.56 526.3 -110.91 527.3 C-112.98 533.12 -115.05 538.94 -117.15 544.76 C-118.48 548.46 -119.8 552.17 -121.12 555.88 C-121.74 557.6 -122.36 559.33 -122.99 561.05 C-123.85 563.42 -124.69 565.78 -125.54 568.16 C-125.79 568.84 -126.04 569.52 -126.3 570.22 C-128.43 576.32 -129.14 582.55 -126.5 588.62 C-122.03 597.52 -113.18 600.49 -104.44 604.11 C-99.4 606.22 -94.83 608.22 -91.72 612.95 C-90.1 617.56 -89.88 622.58 -91.96 627.07 C-96.09 632.58 -101.65 634.03 -108 636 C-134.25 644.82 -149.57 659.43 -165.25 681.88 C-180.98 704.36 -199.29 710.65 -224.69 719.03 C-228.39 720.25 -232.09 721.49 -235.79 722.72 C-238.16 723.51 -240.53 724.29 -242.9 725.08 C-243.99 725.44 -245.09 725.81 -246.22 726.18 C-251.78 728.01 -257.3 729.67 -263 731 C-260.88 723.66 -258.47 716.45 -255.93 709.24 C-255.73 708.68 -255.73 708.68 -254.74 705.85 C-253.45 702.19 -252.16 698.53 -250.88 694.88 C-250.2 692.95 -249.52 691.03 -248.85 689.1 C-242.38 670.72 -235.89 652.36 -229.37 633.99 C-224.4 619.98 -219.47 605.96 -214.54 591.93 C-208.54 574.85 -202.51 557.77 -196.37 540.74 C-191.09 526.09 -185.88 511.41 -180.68 496.73 C-172.74 474.32 -164.76 451.92 -156.68 429.55 C-151.55 415.33 -146.46 401.09 -141.38 386.85 C-133.72 365.33 -125.97 343.85 -118.14 322.39 C-113.56 309.82 -109 297.25 -104.56 284.62 C-99.27 269.56 -93.71 254.6 -88.18 239.62 C-81.94 222.73 -75.73 205.82 -69.62 188.88 C-55.74 150.37 -41.75 111.91 -27.44 73.56 C-25.19 67.52 -22.96 61.47 -20.72 55.42 C-20.54 54.91 -20.54 54.91 -19.59 52.34 C-18.1 48.3 -16.61 44.27 -15.12 40.23 C-10.17 26.79 -5.13 13.38 0 0 Z " fill="#000000" transform="translate(634,141)"/>
<path d="M0 0 C13.11 17.32 20.16 46.13 20.14 67.53 C20.14 68.57 20.14 69.62 20.15 70.7 C20.15 74.21 20.16 77.71 20.16 81.22 C20.16 83.73 20.17 86.25 20.17 88.76 C20.18 94.17 20.19 99.59 20.2 105 C20.21 113.55 20.23 122.11 20.25 130.66 C20.26 133.59 20.27 136.52 20.27 139.45 C20.28 140.18 20.28 140.91 20.28 141.66 C20.3 149.99 20.32 158.31 20.34 166.63 C20.34 167.39 20.34 168.15 20.34 168.93 C20.37 181.27 20.39 193.6 20.4 205.94 C20.42 218.6 20.45 231.27 20.49 243.94 C20.51 251.75 20.53 259.57 20.53 267.38 C20.53 273.36 20.55 279.34 20.57 285.32 C20.58 287.78 20.58 290.23 20.58 292.69 C20.57 296.04 20.59 299.38 20.61 302.73 C20.61 303.22 20.61 303.22 20.59 305.69 C20.64 310.59 20.74 314.06 24 318 C29.39 321.9 35.09 321.39 41.46 321.34 C43.73 321.35 46 321.36 48.27 321.38 C51.82 321.38 55.38 321.37 58.94 321.36 C62.38 321.35 65.83 321.37 69.27 321.4 C69.8 321.39 69.8 321.39 72.47 321.36 C80.45 321.44 85.13 323.54 91.02 328.81 C96.78 335.74 97.8 342.1 97 351 C95.73 357.11 92.64 361.87 88 366 C81.36 370.13 75.05 370.56 67.39 370.5 C66.31 370.51 65.23 370.52 64.11 370.53 C60.68 370.56 57.25 370.56 53.81 370.56 C50.37 370.57 46.92 370.58 43.48 370.6 C41.34 370.62 39.21 370.62 37.07 370.61 C31.69 370.65 27.54 370.76 23 374 C20.87 377.27 20.75 379.96 20.74 383.81 C20.74 384.4 20.74 384.4 20.72 387.41 C20.72 388.71 20.73 390 20.73 391.34 C20.72 392.73 20.72 394.11 20.71 395.5 C20.7 398.48 20.7 401.46 20.7 404.45 C20.69 409.18 20.68 413.91 20.65 418.64 C20.61 430.4 20.57 442.16 20.55 453.91 C20.54 463.04 20.51 472.16 20.47 481.28 C20.45 485.97 20.44 490.65 20.44 495.34 C20.44 498.28 20.43 501.22 20.41 504.16 C20.4 506.14 20.41 508.12 20.41 510.1 C20.31 522.93 18.12 534.89 12.81 546.62 C12.42 547.51 12.03 548.4 11.63 549.31 C2.98 568.51 2.98 568.51 -2 571 C-5.31 571.44 -5.31 571.44 -9 571 C-12.75 567.09 -15.44 562.86 -17.94 558.06 C-18.11 557.74 -18.11 557.74 -18.97 556.11 C-26.33 541.82 -30.3 528.83 -30.27 512.69 C-30.28 511.25 -30.28 509.81 -30.29 508.37 C-30.3 505.29 -30.3 502.2 -30.3 499.11 C-30.31 494.23 -30.33 489.35 -30.35 484.46 C-30.39 472.34 -30.43 460.21 -30.45 448.09 C-30.46 438.66 -30.49 429.22 -30.53 419.79 C-30.55 414.93 -30.56 410.08 -30.56 405.23 C-30.56 402.21 -30.57 399.19 -30.59 396.17 C-30.6 394.78 -30.6 393.38 -30.59 391.98 C-30.59 390.07 -30.6 388.16 -30.61 386.25 C-30.62 385.18 -30.62 384.11 -30.62 383.01 C-31.18 378.58 -32.71 375.2 -35.99 372.15 C-40.66 370.37 -45.19 370.58 -50.14 370.59 C-51.23 370.58 -52.31 370.57 -53.43 370.56 C-56.89 370.53 -60.35 370.51 -63.81 370.5 C-68.36 370.49 -72.91 370.45 -77.46 370.41 C-77.98 370.41 -77.98 370.41 -80.6 370.42 C-87.58 370.34 -93.37 369.6 -99.21 365.42 C-104.8 359.6 -107.52 353.79 -108.13 345.69 C-107.77 338.14 -104.49 331.11 -99 326 C-92.7 321.65 -86.74 321.44 -79.27 321.5 C-78.17 321.49 -77.06 321.48 -75.92 321.47 C-72.41 321.44 -68.89 321.44 -65.38 321.44 C-61.85 321.43 -58.33 321.42 -54.81 321.4 C-52.62 321.38 -50.44 321.38 -48.25 321.39 C-38.43 321.32 -38.43 321.32 -34 318 C-30.45 312.64 -30.58 307.81 -30.63 301.61 C-30.63 300.57 -30.63 299.52 -30.63 298.44 C-30.62 294.94 -30.63 291.44 -30.65 287.94 C-30.65 285.42 -30.64 282.91 -30.64 280.4 C-30.64 274.99 -30.64 269.58 -30.65 264.17 C-30.67 256.32 -30.66 248.48 -30.65 240.63 C-30.63 227.87 -30.62 215.12 -30.62 202.36 C-30.62 201.6 -30.62 200.84 -30.62 200.05 C-30.62 191.55 -30.62 183.05 -30.63 174.55 C-30.63 174.17 -30.63 174.17 -30.63 172.24 C-30.63 171.86 -30.63 171.86 -30.64 169.94 C-30.64 168.4 -30.64 166.87 -30.64 165.33 C-30.64 164.57 -30.64 163.82 -30.64 163.04 C-30.65 150.34 -30.64 137.65 -30.62 124.95 C-30.6 117.14 -30.6 109.33 -30.63 101.52 C-30.65 95.51 -30.64 89.5 -30.62 83.49 C-30.61 81.04 -30.62 78.59 -30.63 76.15 C-30.71 61.65 -29.62 48.79 -25 35 C-24.82 34.45 -24.82 34.45 -23.9 31.66 C-23.04 29.14 -22.11 26.66 -21.12 24.19 C-20.79 23.32 -20.45 22.46 -20.1 21.56 C-12.27 1.85 -12.27 1.85 -8.17 -1.49 C-4.84 -2.27 -3.03 -1.51 0 0 Z " fill="#000000" transform="translate(639,495)"/>
</svg>
