<?xml version="1.0" encoding="UTF-8"?>
<!-- Generator: visioncortex VTracer 0.6.5 -->
<svg version="1.1" xmlns="http://www.w3.org/2000/svg" width="1254" height="1254">
<path d="M0,0 L1254,0 L1254,1254 L0,1254 Z " fill="#FEFDFE" transform="translate(0,0)"/>
<path d="M0,0 L2,1 L17,42 L27,69 L33,85 L36,95 L39,102 L45,120 L50,132 L56,149 L61,163 L64,171 L68,182 L74,198 L79,212 L85,228 L91,245 L96,257 L99,267 L104,279 L109,293 L115,310 L119,322 L124,334 L144,391 L161,439 L179,491 L189,519 L206,567 L220,607 L228,630 L234,648 L239,660 L252,698 L262,728 L262,730 L256,729 L223,718 L189,706 L178,699 L171,692 L160,673 L150,660 L140,651 L127,643 L99,633 L94,629 L91,623 L91,615 L97,608 L105,604 L112,601 L122,595 L126,590 L128,586 L128,573 L113,528 L103,500 L99,490 L79,432 L73,415 L65,392 L58,371 L54,361 L47,340 L39,319 L32,298 L28,287 L14,248 L2,214 L1,211 L-4,223 L-16,258 L-33,306 L-41,330 L-45,340 L-54,367 L-58,377 L-68,407 L-71,415 L-77,430 L-81,443 L-86,457 L-91,471 L-96,484 L-100,497 L-103,505 L-107,517 L-110,525 L-114,537 L-119,549 L-128,576 L-128,584 L-125,591 L-120,597 L-106,604 L-98,607 L-93,611 L-91,614 L-91,625 L-97,632 L-103,635 L-122,641 L-136,649 L-148,659 L-157,670 L-171,690 L-178,698 L-187,705 L-202,711 L-246,726 L-261,731 L-263,731 L-260,720 L-257,713 L-247,683 L-234,647 L-214,590 L-199,548 L-177,486 L-158,433 L-141,385 L-136,371 L-133,363 L-128,349 L-123,335 L-119,324 L-114,310 L-110,300 L-102,276 L-97,264 L-92,249 L-89,241 L-85,231 L-81,219 L-78,212 L-74,200 L-71,192 L-67,181 L-63,170 L-59,159 L-55,148 L-36,96 L-20,53 L-1,2 Z " fill="#091A28" transform="translate(634,141)"/>
<path d="M0,0 L6,1 L11,9 L19,29 L25,47 L27,59 L28,315 L31,320 L36,323 L87,324 L95,328 L102,336 L104,340 L104,355 L98,365 L93,369 L87,372 L35,373 L29,377 L28,379 L27,526 L24,537 L18,552 L10,568 L5,573 L-2,573 L-7,567 L-15,552 L-22,534 L-23,529 L-24,381 L-28,375 L-32,373 L-83,372 L-91,368 L-98,360 L-100,355 L-100,339 L-94,330 L-87,325 L-84,324 L-33,323 L-27,320 L-24,314 L-23,54 L-17,34 L-7,9 L-2,1 Z " fill="#081928" transform="translate(632,493)"/>
<path d="M0,0 L3,1 L0,11 L-3,11 L-2,6 Z " fill="#21303E" transform="translate(595,245)"/>
<path d="M0,0 L2,4 L-1,12 L-3,11 L-2,5 Z " fill="#F2F3F4" transform="translate(494,517)"/>
<path d="M0,0 L2,4 L1,10 L-2,11 L-2,3 Z " fill="#303E4D" transform="translate(727,753)"/>
<path d="M0,0 L2,0 L2,6 L-3,10 Z " fill="#D6DADD" transform="translate(574,521)"/>
<path d="M0,0 L3,3 L6,4 L0,8 L-2,8 Z " fill="#162634" transform="translate(373,864)"/>
<path d="M0,0 L2,2 L1,7 L-1,11 L-3,11 Z M2,1 Z " fill="#243442" transform="translate(402,782)"/>
<path d="M0,0 L1,4 L0,9 L-3,11 L-1,1 Z " fill="#DEE1E3" transform="translate(526,658)"/>
<path d="M0,0 L2,3 L1,9 L-1,11 L-2,7 Z M2,1 Z " fill="#192938" transform="translate(538,401)"/>
<path d="M0,0 L2,3 L0,10 L-3,11 L-2,7 Z " fill="#1D2E3E" transform="translate(579,289)"/>
<path d="M0,0 L2,1 L1,10 L-1,11 L-2,7 Z " fill="#DEE1E3" transform="translate(538,622)"/>
<path d="M0,0 L2,2 L1,8 L-1,8 L-1,10 L-3,10 Z " fill="#CFD3D6" transform="translate(559,563)"/>
<path d="M0,0 L6,5 L4,9 L0,3 Z " fill="#172636" transform="translate(727,822)"/>
<path d="M0,0 L2,0 L2,3 L0,4 L-7,4 L-5,2 Z " fill="#1F2A38" transform="translate(744,743)"/>
<path d="M0,0 L3,1 L5,8 L3,10 Z " fill="#343D4A" transform="translate(726,609)"/>
<path d="M0,0 Z M-2,2 L0,2 L-2,10 L-4,6 Z " fill="#EEEFF0" transform="translate(533,643)"/>
<path d="M0,0 L3,0 L1,9 L0,9 Z " fill="#283542" transform="translate(529,640)"/>
<path d="M0,0 L3,0 L2,5 L-2,6 Z " fill="#263341" transform="translate(528,430)"/>
<path d="M0,0 L2,2 L1,7 L-2,8 Z " fill="#283543" transform="translate(605,218)"/>
<path d="M0,0 L2,1 L1,6 L-2,7 Z " fill="#22303E" transform="translate(634,141)"/>
<path d="M0,0 L3,0 L2,5 L4,6 L2,9 Z " fill="#354351" transform="translate(708,556)"/>
<path d="M0,0 L2,4 L1,8 L-2,8 L-1,4 Z " fill="#253341" transform="translate(570,314)"/>
<path d="M0,0 L2,2 L-4,5 L-6,4 Z " fill="#E4E7E9" transform="translate(503,786)"/>
<path d="M0,0 L2,2 L1,6 L-2,9 Z " fill="#EAECEE" transform="translate(564,549)"/>
<path d="M0,0 L2,1 L0,5 L-3,7 L-1,1 Z " fill="#2A3744" transform="translate(522,449)"/>
<path d="M0,0 L2,2 L1,8 L-1,6 Z " fill="#2B3845" transform="translate(563,333)"/>
<path d="M0,0 L1,2 L-3,7 L-5,6 Z " fill="#D0D3D8" transform="translate(481,805)"/>
<path d="M0,0 L6,1 L7,4 L1,2 Z " fill="#2E3A45" transform="translate(730,771)"/>
<path d="M0,0 L2,3 L-1,6 L-4,5 Z " fill="#1C2939" transform="translate(760,731)"/>
<path d="M0,0 L3,0 L1,4 L-2,6 Z " fill="#32404E" transform="translate(499,511)"/>
<path d="M0,0 L1,0 L1,8 L-2,8 Z " fill="#192534" transform="translate(524,441)"/>
<path d="M0,0 L1,2 L-1,7 L-3,4 L-2,1 Z " fill="#0D2031" transform="translate(379,853)"/>
<path d="M0,0 L2,3 L0,7 L-2,7 Z " fill="#26333F" transform="translate(444,664)"/>
<path d="M0,0 L1,3 L-2,6 L-3,4 L-2,1 Z " fill="#F2F3F5" transform="translate(558,572)"/>
<path d="M0,0 L2,0 L1,5 L-2,6 L-1,1 Z " fill="#F1F2F3" transform="translate(486,541)"/>
<path d="M0,0 L2,2 L1,6 L-1,6 Z " fill="#2F3E4C" transform="translate(386,827)"/>
<path d="M0,0 L2,4 L1,7 L-1,6 Z " fill="#DBDEE1" transform="translate(544,605)"/>
<path d="M0,0 L2,2 L-1,6 L-1,2 Z " fill="#162B3B" transform="translate(642,1055)"/>
<path d="M0,0 L2,0 L3,4 L-2,2 Z " fill="#C3C6CA" transform="translate(520,739)"/>
<path d="M0,0 L3,0 L2,6 L0,3 Z " fill="#34424F" transform="translate(722,596)"/>
<path d="M0,0 L2,3 L0,7 L-1,4 Z " fill="#172533" transform="translate(579,289)"/>
<path d="M0,0 L3,4 L-1,5 Z " fill="#3D4753" transform="translate(372,867)"/>
<path d="M0,0 L2,4 L-2,4 L-2,2 L0,2 Z " fill="#1D2330" transform="translate(894,867)"/>
<path d="M0,0 L2,0 L3,3 L1,6 Z " fill="#37424E" transform="translate(716,579)"/>
<path d="M0,0 L3,0 L1,4 L-1,3 Z " fill="#F0F1F3" transform="translate(568,539)"/>
<path d="M0,0 L2,1 L0,5 L-1,1 Z " fill="#E8E9EB" transform="translate(759,728)"/>
<path d="M0,0 L2,4 L-1,5 Z " fill="#2E3D4B" transform="translate(608,210)"/>
<path d="M0,0 L2,3 L0,5 L-1,1 Z " fill="#F3F4F5" transform="translate(703,546)"/>
<path d="M0,0 L3,0 L1,4 Z " fill="#1C2C3A" transform="translate(586,270)"/>
<path d="M0,0 L2,0 L0,4 L-1,1 Z " fill="#F5F6F6" transform="translate(736,847)"/>
<path d="M0,0 L2,0 L1,3 L-2,1 Z " fill="#DFE3E6" transform="translate(508,783)"/>
<path d="M0,0 L2,2 L-2,3 Z " fill="#17212F" transform="translate(730,750)"/>
<path d="M0,0 L3,2 L-1,3 Z " fill="#0D2031" transform="translate(736,747)"/>
</svg>
